<svg xmlns="http://www.w3.org/2000/svg" xmlns:xlink="http://www.w3.org/1999/xlink" width="500" zoomAndPan="magnify" viewBox="0 0 375 374.999991" height="500" preserveAspectRatio="xMidYMid meet" version="1.0"><defs><clipPath id="71701c7263"><path d="M 79.589844 37.5 L 295.410156 37.5 L 295.410156 337.5 L 79.589844 337.5 Z M 79.589844 37.5 " clip-rule="nonzero"/></clipPath></defs><g clip-path="url(#71701c7263)"><path fill="#000000" d="M 295.355469 190.191406 C 295.355469 232.84375 295.597656 275.5 295.070312 318.144531 C 295 324.082031 292.796875 331.996094 288.636719 335.421875 C 282.023438 340.863281 275.679688 334.398438 270.1875 330.007812 C 245.863281 310.5625 221.332031 291.367188 197.402344 271.449219 C 190.792969 265.949219 186.78125 265.332031 179.773438 271.0625 C 154.515625 291.707031 128.78125 311.785156 102.714844 331.390625 C 98.386719 334.644531 90.539062 336.886719 86.085938 335.125 C 82.53125 333.722656 79.898438 325.515625 79.875 320.316406 C 79.503906 233.535156 79.574219 146.746094 79.648438 59.957031 C 79.664062 44.019531 86 37.605469 101.859375 37.578125 C 158.957031 37.472656 216.050781 37.480469 273.144531 37.570312 C 288.9375 37.597656 295.21875 43.980469 295.257812 60.011719 C 295.359375 103.40625 295.292969 146.796875 295.292969 190.191406 C 295.3125 190.191406 295.335938 190.191406 295.355469 190.191406 " fill-opacity="1" fill-rule="nonzero"/></g></svg>