<svg xmlns="http://www.w3.org/2000/svg" xmlns:xlink="http://www.w3.org/1999/xlink" width="500" zoomAndPan="magnify" viewBox="0 0 375 374.999991" height="500" preserveAspectRatio="xMidYMid meet" version="1.0"><defs><clipPath id="d195ba7db9"><path d="M 37.5 37.5 L 343.5 37.5 L 343.5 343.5 L 37.5 343.5 Z M 37.5 37.5 " clip-rule="nonzero"/></clipPath></defs><g clip-path="url(#d195ba7db9)"><path fill="#000000" d="M 190.5 37.5 C 106 37.5 37.5 106 37.5 190.5 C 37.5 275 106 343.5 190.5 343.5 C 275 343.5 343.5 275 343.5 190.5 C 343.5 106 275 37.5 190.5 37.5 Z M 279.46875 194.824219 C 275.105469 199.1875 268.671875 200.199219 263.339844 197.875 L 263.339844 255.90625 C 263.339844 267.976562 253.554688 277.757812 241.488281 277.757812 L 139.511719 277.757812 C 127.445312 277.757812 117.660156 267.972656 117.660156 255.90625 L 117.660156 197.875 C 112.332031 200.199219 105.894531 199.1875 101.53125 194.824219 C 95.84375 189.136719 95.84375 179.910156 101.53125 174.222656 L 180.199219 95.554688 C 185.886719 89.867188 195.113281 89.867188 200.800781 95.554688 L 279.46875 174.222656 C 285.15625 179.910156 285.15625 189.136719 279.46875 194.824219 Z M 279.46875 194.824219 " fill-opacity="1" fill-rule="nonzero"/></g><path fill="#000000" d="M 208.710938 197.636719 L 172.289062 197.636719 C 168.265625 197.636719 165.003906 200.894531 165.003906 204.917969 L 165.003906 248.621094 C 165.003906 252.644531 168.265625 255.90625 172.289062 255.90625 L 208.710938 255.90625 C 212.734375 255.90625 215.996094 252.644531 215.996094 248.621094 L 215.996094 204.917969 C 215.992188 200.894531 212.734375 197.636719 208.710938 197.636719 Z M 208.710938 197.636719 " fill-opacity="1" fill-rule="nonzero"/></svg>