<svg xmlns="http://www.w3.org/2000/svg" xmlns:xlink="http://www.w3.org/1999/xlink" width="500" zoomAndPan="magnify" viewBox="0 0 375 374.999991" height="500" preserveAspectRatio="xMidYMid meet" version="1.0"><defs><clipPath id="82470046d5"><path d="M 37.5 70.375 L 337.5 70.375 L 337.5 304.375 L 37.5 304.375 Z M 37.5 70.375 " clip-rule="nonzero"/></clipPath></defs><g clip-path="url(#82470046d5)"><path fill="#231f20" d="M 336.648438 256.4375 C 336.648438 256.386719 336.699219 256.386719 336.699219 256.335938 C 336.753906 256.285156 336.804688 256.183594 336.855469 256.128906 C 336.855469 256.078125 336.90625 256.078125 336.90625 256.027344 C 336.957031 255.925781 337.007812 255.875 337.007812 255.773438 C 337.007812 255.71875 337.058594 255.71875 337.058594 255.667969 C 337.113281 255.566406 337.113281 255.464844 337.164062 255.363281 C 337.164062 255.308594 337.164062 255.308594 337.214844 255.257812 C 337.265625 255.15625 337.265625 255.054688 337.316406 254.953125 C 337.316406 254.953125 337.316406 254.898438 337.316406 254.898438 C 337.316406 254.796875 337.367188 254.644531 337.367188 254.542969 C 337.367188 254.542969 337.367188 254.488281 337.367188 254.488281 C 337.367188 254.386719 337.367188 254.234375 337.367188 254.132812 C 337.367188 254.132812 337.367188 254.132812 337.367188 254.078125 C 337.367188 253.875 337.367188 253.722656 337.316406 253.515625 C 337.316406 253.515625 337.316406 253.464844 337.316406 253.464844 C 337.265625 253.257812 337.214844 253.054688 337.164062 252.902344 C 337.164062 252.902344 337.164062 252.847656 337.164062 252.847656 C 336.957031 252.234375 336.648438 251.722656 336.238281 251.3125 C 335.980469 251.003906 335.675781 250.796875 335.316406 250.59375 C 335.316406 250.59375 335.265625 250.542969 335.265625 250.542969 C 335.109375 250.441406 334.90625 250.386719 334.75 250.285156 L 267.359375 223.214844 L 312.679688 205.015625 C 312.785156 204.960938 312.886719 204.910156 312.988281 204.859375 C 313.039062 204.859375 313.039062 204.808594 313.089844 204.808594 C 313.195312 204.757812 313.246094 204.707031 313.296875 204.65625 C 313.347656 204.605469 313.398438 204.605469 313.449219 204.550781 C 313.503906 204.5 313.554688 204.5 313.605469 204.449219 C 313.65625 204.398438 313.757812 204.347656 313.808594 204.296875 C 313.808594 204.296875 313.808594 204.296875 313.863281 204.246094 C 314.167969 203.988281 314.425781 203.730469 314.632812 203.425781 C 314.835938 203.117188 315.042969 202.757812 315.144531 202.398438 C 315.195312 202.296875 315.195312 202.246094 315.195312 202.144531 C 315.195312 202.089844 315.246094 202.039062 315.246094 201.988281 C 315.246094 201.9375 315.246094 201.886719 315.296875 201.835938 C 315.296875 201.734375 315.351562 201.679688 315.351562 201.578125 C 315.351562 201.527344 315.351562 201.476562 315.351562 201.476562 C 315.351562 201.375 315.351562 201.269531 315.351562 201.167969 L 315.351562 88.371094 C 315.351562 86.117188 313.503906 84.269531 311.242188 84.269531 L 296.566406 84.269531 L 273.570312 70.941406 C 273.519531 70.941406 273.519531 70.890625 273.46875 70.890625 C 273.367188 70.839844 273.316406 70.785156 273.210938 70.734375 C 273.160156 70.683594 273.058594 70.683594 273.007812 70.632812 C 272.90625 70.582031 272.800781 70.582031 272.75 70.53125 C 272.699219 70.53125 272.597656 70.480469 272.546875 70.480469 C 272.441406 70.480469 272.339844 70.429688 272.238281 70.429688 C 272.1875 70.429688 272.082031 70.375 272.03125 70.375 C 271.929688 70.375 271.828125 70.375 271.722656 70.375 C 271.671875 70.375 271.570312 70.375 271.519531 70.375 C 271.414062 70.375 271.3125 70.375 271.210938 70.375 C 271.160156 70.375 271.058594 70.375 271.003906 70.375 C 270.902344 70.375 270.75 70.429688 270.644531 70.429688 C 270.59375 70.429688 270.542969 70.429688 270.492188 70.480469 C 270.339844 70.53125 270.183594 70.582031 270.03125 70.632812 L 187.398438 103.804688 L 104.867188 70.683594 C 104.867188 70.683594 104.816406 70.683594 104.816406 70.683594 C 104.660156 70.632812 104.507812 70.582031 104.355469 70.53125 C 104.199219 70.480469 104.046875 70.480469 103.890625 70.429688 C 103.839844 70.429688 103.789062 70.429688 103.789062 70.429688 C 103.6875 70.429688 103.585938 70.429688 103.429688 70.375 C 103.378906 70.375 103.328125 70.375 103.277344 70.375 C 103.171875 70.375 103.019531 70.375 102.917969 70.375 C 102.867188 70.375 102.867188 70.375 102.8125 70.375 C 102.507812 70.429688 102.199219 70.480469 101.890625 70.582031 C 101.839844 70.582031 101.839844 70.632812 101.789062 70.632812 C 101.683594 70.683594 101.582031 70.734375 101.480469 70.785156 C 101.429688 70.785156 101.378906 70.839844 101.324219 70.839844 C 101.273438 70.839844 101.222656 70.890625 101.171875 70.890625 L 78.28125 84.269531 L 64.21875 84.269531 C 61.960938 84.269531 60.113281 86.117188 60.113281 88.371094 L 60.113281 201.425781 C 60.113281 201.527344 60.113281 201.628906 60.113281 201.734375 C 60.113281 201.785156 60.113281 201.835938 60.113281 201.835938 C 60.113281 201.9375 60.113281 201.988281 60.164062 202.089844 C 60.164062 202.144531 60.164062 202.195312 60.214844 202.246094 C 60.214844 202.296875 60.214844 202.347656 60.265625 202.398438 C 60.367188 202.859375 60.574219 203.320312 60.832031 203.730469 C 61.035156 204.039062 61.292969 204.347656 61.601562 204.550781 C 61.601562 204.550781 61.601562 204.550781 61.652344 204.550781 C 61.703125 204.605469 61.753906 204.65625 61.855469 204.707031 C 61.910156 204.757812 61.960938 204.757812 62.011719 204.808594 C 62.0625 204.859375 62.113281 204.859375 62.164062 204.910156 C 62.214844 204.960938 62.320312 205.015625 62.371094 205.066406 C 62.421875 205.066406 62.421875 205.117188 62.472656 205.117188 C 62.574219 205.167969 62.679688 205.21875 62.78125 205.269531 L 107.535156 223.265625 L 40.25 250.285156 C 40.09375 250.335938 39.941406 250.441406 39.734375 250.492188 C 39.683594 250.492188 39.632812 250.542969 39.632812 250.542969 C 39.480469 250.644531 39.324219 250.746094 39.171875 250.851562 C 39.015625 250.953125 38.863281 251.105469 38.761719 251.207031 C 38.761719 251.207031 38.710938 251.261719 38.710938 251.261719 C 38.554688 251.414062 38.453125 251.566406 38.351562 251.722656 C 38.246094 251.875 38.144531 252.027344 38.042969 252.234375 C 38.042969 252.234375 38.042969 252.285156 38.042969 252.285156 C 37.941406 252.4375 37.886719 252.644531 37.835938 252.847656 C 37.835938 252.847656 37.835938 252.902344 37.835938 252.902344 C 37.785156 253.105469 37.734375 253.257812 37.683594 253.464844 C 37.683594 253.464844 37.683594 253.464844 37.683594 253.515625 C 37.683594 253.515625 37.683594 253.566406 37.683594 253.566406 C 37.632812 253.773438 37.632812 253.925781 37.632812 254.132812 C 37.632812 254.132812 37.632812 254.183594 37.632812 254.183594 C 37.632812 254.285156 37.632812 254.4375 37.632812 254.542969 C 37.632812 254.542969 37.632812 254.59375 37.632812 254.59375 C 37.632812 254.695312 37.683594 254.796875 37.683594 254.953125 C 37.683594 254.953125 37.683594 255.003906 37.683594 255.003906 C 37.683594 255.105469 37.734375 255.207031 37.785156 255.308594 C 37.785156 255.363281 37.785156 255.363281 37.835938 255.414062 C 37.886719 255.515625 37.886719 255.617188 37.941406 255.71875 C 37.941406 255.773438 37.941406 255.773438 37.992188 255.824219 C 38.042969 255.925781 38.09375 256.027344 38.144531 256.078125 C 38.144531 256.128906 38.195312 256.128906 38.195312 256.183594 C 38.246094 256.285156 38.300781 256.335938 38.351562 256.4375 C 38.351562 256.4375 38.402344 256.488281 38.402344 256.488281 C 38.453125 256.59375 38.503906 256.644531 38.605469 256.746094 C 38.605469 256.746094 38.660156 256.796875 38.660156 256.796875 C 38.710938 256.898438 38.8125 256.949219 38.863281 257.054688 C 38.863281 257.054688 38.914062 257.105469 38.914062 257.105469 C 39.015625 257.15625 39.070312 257.257812 39.171875 257.308594 C 39.171875 257.308594 39.222656 257.359375 39.222656 257.359375 C 39.324219 257.414062 39.375 257.515625 39.480469 257.566406 C 39.480469 257.566406 39.53125 257.617188 39.53125 257.617188 C 39.632812 257.667969 39.683594 257.71875 39.789062 257.769531 C 39.839844 257.769531 39.839844 257.824219 39.890625 257.824219 C 39.992188 257.875 40.042969 257.925781 40.148438 257.925781 C 40.199219 257.925781 40.25 257.976562 40.25 257.976562 C 40.351562 258.027344 40.402344 258.027344 40.507812 258.078125 C 40.558594 258.078125 40.609375 258.128906 40.660156 258.128906 C 40.710938 258.128906 40.8125 258.179688 40.867188 258.179688 C 40.917969 258.179688 40.96875 258.179688 41.070312 258.234375 C 41.121094 258.234375 41.171875 258.234375 41.222656 258.234375 L 84.542969 264.386719 L 61.652344 297.96875 C 60.625 299.453125 60.726562 301.453125 61.855469 302.839844 C 62.679688 303.8125 63.859375 304.375 65.039062 304.375 C 65.550781 304.375 66.066406 304.273438 66.578125 304.070312 L 187.398438 255.363281 L 308.472656 304.019531 C 308.984375 304.222656 309.5 304.324219 310.011719 304.324219 C 311.242188 304.324219 312.425781 303.761719 313.195312 302.789062 C 314.324219 301.402344 314.425781 299.402344 313.398438 297.917969 L 290.507812 264.335938 L 333.828125 258.183594 C 333.878906 258.183594 333.878906 258.183594 333.929688 258.183594 C 333.980469 258.183594 334.082031 258.128906 334.136719 258.128906 C 334.1875 258.128906 334.238281 258.078125 334.339844 258.078125 C 334.390625 258.078125 334.492188 258.027344 334.546875 258.027344 C 334.597656 258.027344 334.648438 257.976562 334.75 257.976562 C 334.800781 257.976562 334.851562 257.925781 334.90625 257.925781 C 334.957031 257.875 335.058594 257.875 335.109375 257.824219 C 335.160156 257.824219 335.210938 257.773438 335.265625 257.71875 C 335.316406 257.667969 335.417969 257.617188 335.46875 257.617188 C 335.519531 257.566406 335.570312 257.566406 335.570312 257.515625 C 335.625 257.464844 335.726562 257.414062 335.777344 257.363281 C 335.828125 257.308594 335.828125 257.308594 335.878906 257.257812 C 335.929688 257.207031 336.035156 257.15625 336.085938 257.105469 C 336.136719 257.054688 336.136719 257.054688 336.1875 257.003906 C 336.238281 256.953125 336.289062 256.898438 336.34375 256.796875 C 336.394531 256.746094 336.394531 256.746094 336.445312 256.695312 C 336.546875 256.59375 336.597656 256.542969 336.648438 256.4375 Z M 121.394531 219.984375 C 120.726562 219.421875 119.855469 219.0625 118.929688 219.011719 L 68.324219 198.65625 L 68.324219 92.472656 L 75.304688 92.472656 L 75.304688 191.121094 C 75.304688 191.324219 75.304688 191.53125 75.355469 191.683594 C 75.355469 191.734375 75.40625 191.785156 75.40625 191.886719 C 75.40625 191.992188 75.457031 192.144531 75.507812 192.246094 C 75.507812 192.296875 75.5625 192.402344 75.5625 192.453125 C 75.613281 192.554688 75.664062 192.65625 75.664062 192.761719 C 75.714844 192.8125 75.714844 192.914062 75.765625 192.964844 C 75.816406 193.066406 75.867188 193.171875 75.921875 193.273438 C 75.972656 193.324219 76.023438 193.425781 76.074219 193.476562 C 76.125 193.582031 76.226562 193.683594 76.28125 193.734375 C 76.332031 193.785156 76.382812 193.835938 76.433594 193.886719 C 76.535156 193.992188 76.585938 194.042969 76.691406 194.144531 C 76.742188 194.195312 76.792969 194.246094 76.84375 194.296875 C 76.945312 194.402344 77.050781 194.453125 77.152344 194.503906 C 77.203125 194.554688 77.253906 194.554688 77.304688 194.605469 C 77.460938 194.707031 77.613281 194.757812 77.820312 194.863281 L 185.859375 238.238281 C 185.960938 238.289062 186.0625 238.289062 186.164062 238.339844 C 186.164062 238.339844 186.21875 238.339844 186.21875 238.339844 C 186.371094 238.390625 186.574219 238.441406 186.730469 238.441406 C 186.78125 238.441406 186.832031 238.441406 186.832031 238.441406 C 186.988281 238.441406 187.191406 238.492188 187.347656 238.492188 C 187.5 238.492188 187.707031 238.492188 187.859375 238.441406 C 187.910156 238.441406 187.960938 238.441406 187.960938 238.441406 C 188.117188 238.390625 188.320312 238.390625 188.476562 238.339844 C 188.476562 238.339844 188.527344 238.339844 188.527344 238.339844 C 188.628906 238.289062 188.730469 238.289062 188.835938 238.238281 L 296.410156 194.707031 L 296.820312 194.554688 C 296.820312 194.554688 296.820312 194.554688 296.871094 194.554688 C 296.976562 194.503906 297.128906 194.453125 297.230469 194.402344 C 297.285156 194.347656 297.335938 194.347656 297.386719 194.296875 C 297.539062 194.195312 297.695312 194.09375 297.847656 193.992188 C 297.898438 193.992188 297.898438 193.9375 297.949219 193.9375 C 298.054688 193.835938 298.15625 193.734375 298.308594 193.632812 C 298.363281 193.582031 298.414062 193.527344 298.414062 193.476562 C 298.515625 193.375 298.566406 193.273438 298.617188 193.222656 C 298.667969 193.171875 298.722656 193.117188 298.722656 193.015625 C 298.773438 192.914062 298.824219 192.8125 298.875 192.761719 C 298.925781 192.707031 298.925781 192.605469 298.976562 192.554688 C 299.027344 192.453125 299.078125 192.351562 299.132812 192.246094 C 299.183594 192.195312 299.183594 192.09375 299.183594 192.042969 C 299.234375 191.941406 299.234375 191.835938 299.285156 191.734375 C 299.285156 191.632812 299.335938 191.582031 299.335938 191.476562 C 299.335938 191.375 299.386719 191.273438 299.386719 191.171875 C 299.386719 191.121094 299.386719 191.066406 299.386719 191.066406 C 299.386719 191.015625 299.386719 191.015625 299.386719 190.964844 C 299.386719 190.914062 299.386719 190.863281 299.386719 190.8125 L 299.386719 92.472656 L 306.984375 92.472656 L 306.984375 198.398438 L 255.761719 218.960938 C 254.839844 219.011719 254.015625 219.371094 253.296875 219.933594 L 187.398438 246.492188 Z M 191.503906 214.089844 L 253.503906 189.171875 L 271.210938 182.042969 L 285.890625 190.144531 L 191.503906 228.34375 Z M 183.292969 228.394531 L 88.75 190.453125 L 103.328125 181.992188 L 183.292969 214.089844 Z M 99.222656 174.816406 L 83.515625 183.941406 L 83.515625 90.730469 L 99.222656 81.605469 Z M 291.277344 183.789062 L 275.574219 175.121094 L 275.574219 81.605469 L 291.277344 90.730469 Z M 267.359375 174.765625 L 191.503906 205.21875 L 191.503906 110.984375 L 267.359375 80.527344 Z M 107.433594 80.527344 L 183.292969 110.984375 L 183.292969 205.21875 L 107.433594 174.765625 Z M 75.765625 291.355469 L 94.757812 263.515625 C 95.578125 262.335938 95.679688 260.847656 95.117188 259.566406 C 94.550781 258.285156 93.320312 257.363281 91.933594 257.15625 L 57.289062 252.234375 L 118.417969 227.675781 L 176.414062 250.902344 Z M 280.039062 263.460938 L 299.027344 291.300781 L 198.433594 250.902344 L 256.378906 227.625 L 317.503906 252.183594 L 282.863281 257.105469 C 281.476562 257.308594 280.242188 258.234375 279.679688 259.515625 C 279.113281 260.796875 279.21875 262.285156 280.039062 263.460938 Z M 280.039062 263.460938 " fill-opacity="1" fill-rule="nonzero"/></g></svg>