<svg xmlns="http://www.w3.org/2000/svg" xmlns:xlink="http://www.w3.org/1999/xlink" width="500" zoomAndPan="magnify" viewBox="0 0 375 374.999991" height="500" preserveAspectRatio="xMidYMid meet" version="1.0"><defs><clipPath id="3cc2d27798"><path d="M 37.5 37.5 L 337.5 37.5 L 337.5 337.5 L 37.5 337.5 Z M 37.5 37.5 " clip-rule="nonzero"/></clipPath></defs><g clip-path="url(#3cc2d27798)"><path fill="#000000" d="M 326.574219 210.960938 C 332.460938 210.960938 337.273438 206.144531 337.273438 200.261719 L 337.273438 174.382812 C 337.273438 168.496094 332.460938 163.683594 326.574219 163.683594 L 315.460938 163.683594 C 309.574219 163.683594 303.347656 159.078125 301.613281 153.453125 L 292.132812 130.433594 C 289.351562 125.246094 290.476562 117.597656 294.636719 113.4375 L 302.503906 105.574219 C 306.660156 101.410156 306.664062 94.601562 302.503906 90.4375 L 284.207031 72.140625 C 280.042969 67.976562 273.234375 67.976562 269.070312 72.140625 L 261.207031 80.007812 C 257.042969 84.167969 249.390625 85.292969 244.207031 82.507812 L 221.1875 73.027344 C 215.5625 71.300781 210.960938 65.066406 210.960938 59.179688 L 210.960938 48.070312 C 210.960938 42.183594 206.144531 37.367188 200.261719 37.367188 L 174.382812 37.367188 C 168.496094 37.367188 163.683594 42.183594 163.683594 48.070312 L 163.683594 59.179688 C 163.683594 65.066406 159.078125 71.300781 153.453125 73.027344 L 130.4375 82.507812 C 125.25 85.292969 117.601562 84.164062 113.441406 80.003906 L 105.578125 72.136719 C 101.414062 67.972656 94.605469 67.972656 90.441406 72.136719 L 72.144531 90.433594 C 67.980469 94.597656 67.980469 101.40625 72.144531 105.570312 L 80.015625 113.433594 C 84.175781 117.597656 85.300781 125.246094 82.519531 130.433594 L 73.035156 153.453125 C 71.304688 159.078125 65.074219 163.679688 59.1875 163.679688 L 48.082031 163.679688 C 42.195312 163.679688 37.378906 168.492188 37.378906 174.378906 L 37.378906 200.261719 C 37.378906 206.144531 42.195312 210.960938 48.082031 210.960938 L 59.1875 210.960938 C 65.074219 210.960938 71.304688 215.5625 73.035156 221.1875 L 82.519531 244.210938 C 85.308594 249.394531 84.179688 257.046875 80.015625 261.207031 L 72.148438 269.074219 C 67.984375 273.234375 67.984375 280.042969 72.148438 284.207031 L 90.441406 302.503906 C 94.605469 306.664062 101.414062 306.660156 105.578125 302.503906 L 113.445312 294.632812 C 117.609375 290.472656 125.257812 289.347656 130.4375 292.132812 L 153.457031 301.613281 C 159.082031 303.34375 163.6875 309.574219 163.6875 315.460938 L 163.6875 326.574219 C 163.6875 332.460938 168.5 337.273438 174.386719 337.273438 L 200.261719 337.273438 C 206.148438 337.273438 210.964844 332.460938 210.964844 326.574219 L 210.964844 315.457031 C 210.964844 309.574219 215.566406 303.34375 221.191406 301.609375 L 244.210938 292.132812 C 249.394531 289.347656 257.046875 290.46875 261.207031 294.632812 L 269.078125 302.503906 C 273.238281 306.664062 280.050781 306.660156 284.210938 302.503906 L 302.507812 284.207031 C 306.664062 280.046875 306.667969 273.234375 302.507812 269.070312 L 294.640625 261.207031 C 290.476562 257.042969 289.355469 249.390625 292.136719 244.207031 L 301.613281 221.1875 C 303.34375 215.5625 309.574219 210.960938 315.464844 210.960938 Z M 187.320312 249.011719 C 153.25 249.011719 125.628906 221.390625 125.628906 187.320312 C 125.628906 153.246094 153.25 125.628906 187.320312 125.628906 C 221.390625 125.628906 249.015625 153.246094 249.015625 187.320312 C 249.015625 221.390625 221.390625 249.011719 187.320312 249.011719 Z M 187.320312 249.011719 " fill-opacity="1" fill-rule="nonzero"/></g></svg>