<svg xmlns="http://www.w3.org/2000/svg" xmlns:xlink="http://www.w3.org/1999/xlink" width="500" zoomAndPan="magnify" viewBox="0 0 375 374.999991" height="500" preserveAspectRatio="xMidYMid meet" version="1.0"><defs><clipPath id="c6a27235ad"><path d="M 37.5 126 L 199 126 L 199 320 L 37.5 320 Z M 37.5 126 " clip-rule="nonzero"/></clipPath></defs><path fill="#000000" d="M 335.113281 326.765625 L 48.832031 40.480469 C 46.445312 38.097656 42.867188 38.097656 40.480469 40.480469 C 38.097656 42.867188 38.097656 46.445312 40.480469 48.832031 L 326.765625 335.113281 C 327.957031 336.308594 329.746094 336.902344 330.9375 336.902344 C 332.132812 336.902344 333.921875 336.308594 335.113281 335.113281 C 337.5 332.730469 337.5 329.148438 335.113281 326.765625 Z M 335.113281 326.765625 " fill-opacity="1" fill-rule="nonzero"/><path fill="#000000" d="M 242.667969 122.191406 C 266.527344 135.3125 282.03125 160.363281 282.03125 187.796875 C 282.03125 214.039062 268.316406 238.492188 245.652344 251.617188 L 254.597656 260.5625 C 279.050781 245.054688 294.558594 217.621094 294.558594 187.796875 C 294.558594 156.1875 277.261719 126.964844 249.230469 112.050781 C 246.246094 110.261719 242.667969 111.457031 240.878906 114.4375 C 239.089844 117.421875 240.285156 121 242.667969 122.191406 Z M 242.667969 122.191406 " fill-opacity="1" fill-rule="nonzero"/><path fill="#000000" d="M 218.8125 215.234375 C 215.828125 215.828125 214.636719 218.214844 214.636719 221.199219 L 220.601562 227.160156 C 221.199219 227.160156 221.792969 227.160156 221.792969 227.160156 C 239.6875 222.390625 252.210938 206.289062 252.210938 187.796875 C 252.210938 169.308594 239.6875 153.207031 221.792969 148.433594 C 218.8125 147.839844 215.234375 149.628906 214.636719 152.609375 C 214.039062 155.589844 215.828125 159.171875 218.8125 159.765625 C 231.335938 162.75 240.285156 174.082031 240.285156 187.203125 C 240.285156 200.324219 231.335938 212.25 218.8125 215.234375 Z M 218.8125 215.234375 " fill-opacity="1" fill-rule="nonzero"/><path fill="#000000" d="M 264.140625 90.582031 C 301.117188 109.070312 323.78125 146.644531 323.78125 187.796875 C 323.78125 225.371094 304.695312 259.964844 273.085938 279.648438 L 281.4375 287.996094 C 315.433594 265.929688 335.710938 228.355469 335.710938 187.203125 C 335.710938 141.277344 310.066406 100.125 269.507812 79.25 C 266.527344 78.058594 262.949219 78.652344 261.753906 81.636719 C 260.5625 85.808594 261.753906 89.386719 264.140625 90.582031 Z M 264.140625 90.582031 " fill-opacity="1" fill-rule="nonzero"/><path fill="#000000" d="M 119.804688 126.367188 L 174.082031 72.09375 C 177.0625 69.707031 179.449219 68.515625 181.835938 68.515625 C 186.605469 68.515625 186.605469 74.476562 186.605469 76.265625 L 186.605469 193.164062 L 198.535156 205.09375 L 198.535156 76.265625 C 198.535156 62.550781 189.585938 56.585938 181.835938 56.585938 C 176.464844 56.585938 171.097656 58.972656 166.328125 63.742188 L 112.050781 118.015625 Z M 119.804688 126.367188 " fill-opacity="1" fill-rule="nonzero"/><g clip-path="url(#c6a27235ad)"><path fill="#000000" d="M 186.605469 209.867188 L 186.605469 296.941406 C 186.605469 302.90625 184.816406 307.082031 181.835938 307.082031 C 180.042969 307.082031 177.0625 305.292969 174.675781 302.90625 L 98.929688 227.757812 C 98.335938 227.160156 97.140625 224.777344 97.140625 222.390625 L 97.140625 153.207031 C 97.140625 150.820312 98.335938 148.433594 98.929688 147.242188 L 111.457031 134.714844 L 103.105469 126.367188 L 95.949219 134.121094 L 55.394531 134.121094 C 45.253906 134.121094 37.5 141.875 37.5 152.011719 L 37.5 223.582031 C 37.5 233.722656 45.253906 241.476562 55.394531 241.476562 L 95.949219 241.476562 L 165.730469 311.257812 C 172.292969 317.816406 177.660156 319.011719 181.835938 319.011719 C 191.972656 319.011719 198.535156 310.066406 198.535156 296.941406 L 198.535156 221.792969 Z M 86.40625 229.546875 L 55.394531 229.546875 C 51.8125 229.546875 49.429688 227.160156 49.429688 223.582031 L 49.429688 152.011719 C 49.429688 148.433594 51.8125 146.046875 55.394531 146.046875 L 86.40625 146.046875 C 85.808594 148.433594 85.214844 151.417969 85.214844 153.207031 L 85.214844 221.792969 C 85.214844 224.179688 85.808594 227.160156 86.40625 229.546875 Z M 86.40625 229.546875 " fill-opacity="1" fill-rule="nonzero"/></g></svg>