<svg xmlns="http://www.w3.org/2000/svg" xmlns:xlink="http://www.w3.org/1999/xlink" width="146" zoomAndPan="magnify" viewBox="0 0 109.5 215.999996" height="288" preserveAspectRatio="xMidYMid meet" version="1.0"><defs><clipPath id="8ec0865d90"><path d="M 33.992188 16.035156 L 75.054688 16.035156 L 75.054688 57.097656 L 33.992188 57.097656 Z M 33.992188 16.035156 " clip-rule="nonzero"/></clipPath><clipPath id="eba201519e"><path d="M 37 19 L 72 19 L 72 54 L 37 54 Z M 37 19 " clip-rule="nonzero"/></clipPath><clipPath id="9d2eaea53e"><path d="M 33.996094 36.566406 C 33.996094 35.21875 34.125 33.882812 34.390625 32.558594 C 34.652344 31.238281 35.042969 29.953125 35.558594 28.707031 C 36.074219 27.464844 36.707031 26.28125 37.453125 25.160156 C 38.203125 24.039062 39.054688 23 40.007812 22.046875 C 40.960938 21.09375 42 20.242188 43.121094 19.496094 C 44.238281 18.746094 45.421875 18.113281 46.667969 17.597656 C 47.914062 17.082031 49.199219 16.691406 50.519531 16.429688 C 51.84375 16.167969 53.179688 16.035156 54.527344 16.035156 C 55.875 16.035156 57.210938 16.167969 58.53125 16.429688 C 59.855469 16.691406 61.136719 17.082031 62.382812 17.597656 C 63.628906 18.113281 64.8125 18.746094 65.933594 19.496094 C 67.054688 20.242188 68.089844 21.09375 69.042969 22.046875 C 69.996094 23 70.847656 24.039062 71.597656 25.160156 C 72.347656 26.28125 72.976562 27.464844 73.496094 28.707031 C 74.011719 29.953125 74.398438 31.238281 74.664062 32.558594 C 74.925781 33.882812 75.058594 35.21875 75.058594 36.566406 C 75.058594 37.914062 74.925781 39.25 74.664062 40.570312 C 74.398438 41.894531 74.011719 43.175781 73.496094 44.421875 C 72.976562 45.667969 72.347656 46.851562 71.597656 47.972656 C 70.847656 49.09375 69.996094 50.128906 69.042969 51.082031 C 68.089844 52.035156 67.054688 52.886719 65.933594 53.636719 C 64.8125 54.386719 63.628906 55.019531 62.382812 55.535156 C 61.136719 56.050781 59.855469 56.441406 58.53125 56.703125 C 57.210938 56.964844 55.875 57.097656 54.527344 57.097656 C 53.179688 57.097656 51.84375 56.964844 50.519531 56.703125 C 49.199219 56.441406 47.914062 56.050781 46.667969 55.535156 C 45.421875 55.019531 44.238281 54.386719 43.121094 53.636719 C 42 52.886719 40.960938 52.035156 40.007812 51.082031 C 39.054688 50.128906 38.203125 49.09375 37.453125 47.972656 C 36.707031 46.851562 36.074219 45.667969 35.558594 44.421875 C 35.042969 43.175781 34.652344 41.894531 34.390625 40.570312 C 34.125 39.25 33.996094 37.914062 33.996094 36.566406 Z M 33.996094 36.566406 " clip-rule="nonzero"/></clipPath><clipPath id="dc7aadb14d"><path d="M 39 36 L 44 36 L 44 37 L 39 37 Z M 39 36 " clip-rule="nonzero"/></clipPath><clipPath id="b700cd2e72"><path d="M 33.996094 36.566406 C 33.996094 35.21875 34.125 33.882812 34.390625 32.558594 C 34.652344 31.238281 35.042969 29.953125 35.558594 28.707031 C 36.074219 27.464844 36.707031 26.28125 37.453125 25.160156 C 38.203125 24.039062 39.054688 23 40.007812 22.046875 C 40.960938 21.09375 42 20.242188 43.121094 19.496094 C 44.238281 18.746094 45.421875 18.113281 46.667969 17.597656 C 47.914062 17.082031 49.199219 16.691406 50.519531 16.429688 C 51.84375 16.167969 53.179688 16.035156 54.527344 16.035156 C 55.875 16.035156 57.210938 16.167969 58.53125 16.429688 C 59.855469 16.691406 61.136719 17.082031 62.382812 17.597656 C 63.628906 18.113281 64.8125 18.746094 65.933594 19.496094 C 67.054688 20.242188 68.089844 21.09375 69.042969 22.046875 C 69.996094 23 70.847656 24.039062 71.597656 25.160156 C 72.347656 26.28125 72.976562 27.464844 73.496094 28.707031 C 74.011719 29.953125 74.398438 31.238281 74.664062 32.558594 C 74.925781 33.882812 75.058594 35.21875 75.058594 36.566406 C 75.058594 37.914062 74.925781 39.25 74.664062 40.570312 C 74.398438 41.894531 74.011719 43.175781 73.496094 44.421875 C 72.976562 45.667969 72.347656 46.851562 71.597656 47.972656 C 70.847656 49.09375 69.996094 50.128906 69.042969 51.082031 C 68.089844 52.035156 67.054688 52.886719 65.933594 53.636719 C 64.8125 54.386719 63.628906 55.019531 62.382812 55.535156 C 61.136719 56.050781 59.855469 56.441406 58.53125 56.703125 C 57.210938 56.964844 55.875 57.097656 54.527344 57.097656 C 53.179688 57.097656 51.84375 56.964844 50.519531 56.703125 C 49.199219 56.441406 47.914062 56.050781 46.667969 55.535156 C 45.421875 55.019531 44.238281 54.386719 43.121094 53.636719 C 42 52.886719 40.960938 52.035156 40.007812 51.082031 C 39.054688 50.128906 38.203125 49.09375 37.453125 47.972656 C 36.707031 46.851562 36.074219 45.667969 35.558594 44.421875 C 35.042969 43.175781 34.652344 41.894531 34.390625 40.570312 C 34.125 39.25 33.996094 37.914062 33.996094 36.566406 Z M 33.996094 36.566406 " clip-rule="nonzero"/></clipPath><clipPath id="f7b34d8f35"><path d="M 37.726562 36.566406 C 37.726562 35.464844 37.835938 34.371094 38.050781 33.289062 C 38.265625 32.207031 38.582031 31.15625 39.003906 30.136719 C 39.429688 29.117188 39.945312 28.152344 40.558594 27.234375 C 41.171875 26.316406 41.867188 25.46875 42.648438 24.6875 C 43.425781 23.90625 44.277344 23.210938 45.191406 22.597656 C 46.109375 21.984375 47.078125 21.46875 48.097656 21.046875 C 49.117188 20.625 50.167969 20.304688 51.25 20.089844 C 52.332031 19.875 53.421875 19.765625 54.527344 19.765625 C 55.628906 19.765625 56.722656 19.875 57.804688 20.089844 C 58.886719 20.304688 59.9375 20.625 60.957031 21.046875 C 61.972656 21.46875 62.941406 21.984375 63.859375 22.597656 C 64.777344 23.210938 65.625 23.90625 66.40625 24.6875 C 67.183594 25.46875 67.882812 26.316406 68.496094 27.234375 C 69.105469 28.152344 69.625 29.117188 70.046875 30.136719 C 70.46875 31.15625 70.789062 32.207031 71.003906 33.289062 C 71.21875 34.371094 71.324219 35.464844 71.324219 36.566406 C 71.324219 37.667969 71.21875 38.761719 71.003906 39.84375 C 70.789062 40.925781 70.46875 41.976562 70.046875 42.996094 C 69.625 44.015625 69.105469 44.984375 68.496094 45.898438 C 67.882812 46.816406 67.183594 47.664062 66.40625 48.445312 C 65.625 49.226562 64.777344 49.921875 63.859375 50.535156 C 62.941406 51.148438 61.972656 51.664062 60.957031 52.085938 C 59.9375 52.507812 58.886719 52.828125 57.804688 53.042969 C 56.722656 53.257812 55.628906 53.367188 54.527344 53.367188 C 53.421875 53.367188 52.332031 53.257812 51.25 53.042969 C 50.167969 52.828125 49.117188 52.507812 48.097656 52.085938 C 47.078125 51.664062 46.109375 51.148438 45.191406 50.535156 C 44.277344 49.921875 43.425781 49.226562 42.648438 48.445312 C 41.867188 47.664062 41.171875 46.816406 40.558594 45.898438 C 39.945312 44.984375 39.429688 44.015625 39.003906 42.996094 C 38.582031 41.976562 38.265625 40.925781 38.050781 39.84375 C 37.835938 38.761719 37.726562 37.667969 37.726562 36.566406 Z M 37.726562 36.566406 " clip-rule="nonzero"/></clipPath><clipPath id="f564b16e97"><path d="M 65 36 L 70 36 L 70 37 L 65 37 Z M 65 36 " clip-rule="nonzero"/></clipPath><clipPath id="95af7e6e80"><path d="M 33.996094 36.566406 C 33.996094 35.21875 34.125 33.882812 34.390625 32.558594 C 34.652344 31.238281 35.042969 29.953125 35.558594 28.707031 C 36.074219 27.464844 36.707031 26.28125 37.453125 25.160156 C 38.203125 24.039062 39.054688 23 40.007812 22.046875 C 40.960938 21.09375 42 20.242188 43.121094 19.496094 C 44.238281 18.746094 45.421875 18.113281 46.667969 17.597656 C 47.914062 17.082031 49.199219 16.691406 50.519531 16.429688 C 51.84375 16.167969 53.179688 16.035156 54.527344 16.035156 C 55.875 16.035156 57.210938 16.167969 58.53125 16.429688 C 59.855469 16.691406 61.136719 17.082031 62.382812 17.597656 C 63.628906 18.113281 64.8125 18.746094 65.933594 19.496094 C 67.054688 20.242188 68.089844 21.09375 69.042969 22.046875 C 69.996094 23 70.847656 24.039062 71.597656 25.160156 C 72.347656 26.28125 72.976562 27.464844 73.496094 28.707031 C 74.011719 29.953125 74.398438 31.238281 74.664062 32.558594 C 74.925781 33.882812 75.058594 35.21875 75.058594 36.566406 C 75.058594 37.914062 74.925781 39.25 74.664062 40.570312 C 74.398438 41.894531 74.011719 43.175781 73.496094 44.421875 C 72.976562 45.667969 72.347656 46.851562 71.597656 47.972656 C 70.847656 49.09375 69.996094 50.128906 69.042969 51.082031 C 68.089844 52.035156 67.054688 52.886719 65.933594 53.636719 C 64.8125 54.386719 63.628906 55.019531 62.382812 55.535156 C 61.136719 56.050781 59.855469 56.441406 58.53125 56.703125 C 57.210938 56.964844 55.875 57.097656 54.527344 57.097656 C 53.179688 57.097656 51.84375 56.964844 50.519531 56.703125 C 49.199219 56.441406 47.914062 56.050781 46.667969 55.535156 C 45.421875 55.019531 44.238281 54.386719 43.121094 53.636719 C 42 52.886719 40.960938 52.035156 40.007812 51.082031 C 39.054688 50.128906 38.203125 49.09375 37.453125 47.972656 C 36.707031 46.851562 36.074219 45.667969 35.558594 44.421875 C 35.042969 43.175781 34.652344 41.894531 34.390625 40.570312 C 34.125 39.25 33.996094 37.914062 33.996094 36.566406 Z M 33.996094 36.566406 " clip-rule="nonzero"/></clipPath><clipPath id="2c702eb830"><path d="M 37.726562 36.566406 C 37.726562 35.464844 37.835938 34.371094 38.050781 33.289062 C 38.265625 32.207031 38.582031 31.15625 39.003906 30.136719 C 39.429688 29.117188 39.945312 28.152344 40.558594 27.234375 C 41.171875 26.316406 41.867188 25.46875 42.648438 24.6875 C 43.425781 23.90625 44.277344 23.210938 45.191406 22.597656 C 46.109375 21.984375 47.078125 21.46875 48.097656 21.046875 C 49.117188 20.625 50.167969 20.304688 51.25 20.089844 C 52.332031 19.875 53.421875 19.765625 54.527344 19.765625 C 55.628906 19.765625 56.722656 19.875 57.804688 20.089844 C 58.886719 20.304688 59.9375 20.625 60.957031 21.046875 C 61.972656 21.46875 62.941406 21.984375 63.859375 22.597656 C 64.777344 23.210938 65.625 23.90625 66.40625 24.6875 C 67.183594 25.46875 67.882812 26.316406 68.496094 27.234375 C 69.105469 28.152344 69.625 29.117188 70.046875 30.136719 C 70.46875 31.15625 70.789062 32.207031 71.003906 33.289062 C 71.21875 34.371094 71.324219 35.464844 71.324219 36.566406 C 71.324219 37.667969 71.21875 38.761719 71.003906 39.84375 C 70.789062 40.925781 70.46875 41.976562 70.046875 42.996094 C 69.625 44.015625 69.105469 44.984375 68.496094 45.898438 C 67.882812 46.816406 67.183594 47.664062 66.40625 48.445312 C 65.625 49.226562 64.777344 49.921875 63.859375 50.535156 C 62.941406 51.148438 61.972656 51.664062 60.957031 52.085938 C 59.9375 52.507812 58.886719 52.828125 57.804688 53.042969 C 56.722656 53.257812 55.628906 53.367188 54.527344 53.367188 C 53.421875 53.367188 52.332031 53.257812 51.25 53.042969 C 50.167969 52.828125 49.117188 52.507812 48.097656 52.085938 C 47.078125 51.664062 46.109375 51.148438 45.191406 50.535156 C 44.277344 49.921875 43.425781 49.226562 42.648438 48.445312 C 41.867188 47.664062 41.171875 46.816406 40.558594 45.898438 C 39.945312 44.984375 39.429688 44.015625 39.003906 42.996094 C 38.582031 41.976562 38.265625 40.925781 38.050781 39.84375 C 37.835938 38.761719 37.726562 37.667969 37.726562 36.566406 Z M 37.726562 36.566406 " clip-rule="nonzero"/></clipPath><clipPath id="5e73b7cd6e"><path d="M 54 48 L 55 48 L 55 53 L 54 53 Z M 54 48 " clip-rule="nonzero"/></clipPath><clipPath id="a0e58fdf3f"><path d="M 33.996094 36.566406 C 33.996094 35.21875 34.125 33.882812 34.390625 32.558594 C 34.652344 31.238281 35.042969 29.953125 35.558594 28.707031 C 36.074219 27.464844 36.707031 26.28125 37.453125 25.160156 C 38.203125 24.039062 39.054688 23 40.007812 22.046875 C 40.960938 21.09375 42 20.242188 43.121094 19.496094 C 44.238281 18.746094 45.421875 18.113281 46.667969 17.597656 C 47.914062 17.082031 49.199219 16.691406 50.519531 16.429688 C 51.84375 16.167969 53.179688 16.035156 54.527344 16.035156 C 55.875 16.035156 57.210938 16.167969 58.53125 16.429688 C 59.855469 16.691406 61.136719 17.082031 62.382812 17.597656 C 63.628906 18.113281 64.8125 18.746094 65.933594 19.496094 C 67.054688 20.242188 68.089844 21.09375 69.042969 22.046875 C 69.996094 23 70.847656 24.039062 71.597656 25.160156 C 72.347656 26.28125 72.976562 27.464844 73.496094 28.707031 C 74.011719 29.953125 74.398438 31.238281 74.664062 32.558594 C 74.925781 33.882812 75.058594 35.21875 75.058594 36.566406 C 75.058594 37.914062 74.925781 39.25 74.664062 40.570312 C 74.398438 41.894531 74.011719 43.175781 73.496094 44.421875 C 72.976562 45.667969 72.347656 46.851562 71.597656 47.972656 C 70.847656 49.09375 69.996094 50.128906 69.042969 51.082031 C 68.089844 52.035156 67.054688 52.886719 65.933594 53.636719 C 64.8125 54.386719 63.628906 55.019531 62.382812 55.535156 C 61.136719 56.050781 59.855469 56.441406 58.53125 56.703125 C 57.210938 56.964844 55.875 57.097656 54.527344 57.097656 C 53.179688 57.097656 51.84375 56.964844 50.519531 56.703125 C 49.199219 56.441406 47.914062 56.050781 46.667969 55.535156 C 45.421875 55.019531 44.238281 54.386719 43.121094 53.636719 C 42 52.886719 40.960938 52.035156 40.007812 51.082031 C 39.054688 50.128906 38.203125 49.09375 37.453125 47.972656 C 36.707031 46.851562 36.074219 45.667969 35.558594 44.421875 C 35.042969 43.175781 34.652344 41.894531 34.390625 40.570312 C 34.125 39.25 33.996094 37.914062 33.996094 36.566406 Z M 33.996094 36.566406 " clip-rule="nonzero"/></clipPath><clipPath id="f85439d22a"><path d="M 37.726562 36.566406 C 37.726562 35.464844 37.835938 34.371094 38.050781 33.289062 C 38.265625 32.207031 38.582031 31.15625 39.003906 30.136719 C 39.429688 29.117188 39.945312 28.152344 40.558594 27.234375 C 41.171875 26.316406 41.867188 25.46875 42.648438 24.6875 C 43.425781 23.90625 44.277344 23.210938 45.191406 22.597656 C 46.109375 21.984375 47.078125 21.46875 48.097656 21.046875 C 49.117188 20.625 50.167969 20.304688 51.25 20.089844 C 52.332031 19.875 53.421875 19.765625 54.527344 19.765625 C 55.628906 19.765625 56.722656 19.875 57.804688 20.089844 C 58.886719 20.304688 59.9375 20.625 60.957031 21.046875 C 61.972656 21.46875 62.941406 21.984375 63.859375 22.597656 C 64.777344 23.210938 65.625 23.90625 66.40625 24.6875 C 67.183594 25.46875 67.882812 26.316406 68.496094 27.234375 C 69.105469 28.152344 69.625 29.117188 70.046875 30.136719 C 70.46875 31.15625 70.789062 32.207031 71.003906 33.289062 C 71.21875 34.371094 71.324219 35.464844 71.324219 36.566406 C 71.324219 37.667969 71.21875 38.761719 71.003906 39.84375 C 70.789062 40.925781 70.46875 41.976562 70.046875 42.996094 C 69.625 44.015625 69.105469 44.984375 68.496094 45.898438 C 67.882812 46.816406 67.183594 47.664062 66.40625 48.445312 C 65.625 49.226562 64.777344 49.921875 63.859375 50.535156 C 62.941406 51.148438 61.972656 51.664062 60.957031 52.085938 C 59.9375 52.507812 58.886719 52.828125 57.804688 53.042969 C 56.722656 53.257812 55.628906 53.367188 54.527344 53.367188 C 53.421875 53.367188 52.332031 53.257812 51.25 53.042969 C 50.167969 52.828125 49.117188 52.507812 48.097656 52.085938 C 47.078125 51.664062 46.109375 51.148438 45.191406 50.535156 C 44.277344 49.921875 43.425781 49.226562 42.648438 48.445312 C 41.867188 47.664062 41.171875 46.816406 40.558594 45.898438 C 39.945312 44.984375 39.429688 44.015625 39.003906 42.996094 C 38.582031 41.976562 38.265625 40.925781 38.050781 39.84375 C 37.835938 38.761719 37.726562 37.667969 37.726562 36.566406 Z M 37.726562 36.566406 " clip-rule="nonzero"/></clipPath><clipPath id="3551877045"><path d="M 42 25 L 46 25 L 46 29 L 42 29 Z M 42 25 " clip-rule="nonzero"/></clipPath><clipPath id="5deda893d4"><path d="M 33.996094 36.566406 C 33.996094 35.21875 34.125 33.882812 34.390625 32.558594 C 34.652344 31.238281 35.042969 29.953125 35.558594 28.707031 C 36.074219 27.464844 36.707031 26.28125 37.453125 25.160156 C 38.203125 24.039062 39.054688 23 40.007812 22.046875 C 40.960938 21.09375 42 20.242188 43.121094 19.496094 C 44.238281 18.746094 45.421875 18.113281 46.667969 17.597656 C 47.914062 17.082031 49.199219 16.691406 50.519531 16.429688 C 51.84375 16.167969 53.179688 16.035156 54.527344 16.035156 C 55.875 16.035156 57.210938 16.167969 58.53125 16.429688 C 59.855469 16.691406 61.136719 17.082031 62.382812 17.597656 C 63.628906 18.113281 64.8125 18.746094 65.933594 19.496094 C 67.054688 20.242188 68.089844 21.09375 69.042969 22.046875 C 69.996094 23 70.847656 24.039062 71.597656 25.160156 C 72.347656 26.28125 72.976562 27.464844 73.496094 28.707031 C 74.011719 29.953125 74.398438 31.238281 74.664062 32.558594 C 74.925781 33.882812 75.058594 35.21875 75.058594 36.566406 C 75.058594 37.914062 74.925781 39.25 74.664062 40.570312 C 74.398438 41.894531 74.011719 43.175781 73.496094 44.421875 C 72.976562 45.667969 72.347656 46.851562 71.597656 47.972656 C 70.847656 49.09375 69.996094 50.128906 69.042969 51.082031 C 68.089844 52.035156 67.054688 52.886719 65.933594 53.636719 C 64.8125 54.386719 63.628906 55.019531 62.382812 55.535156 C 61.136719 56.050781 59.855469 56.441406 58.53125 56.703125 C 57.210938 56.964844 55.875 57.097656 54.527344 57.097656 C 53.179688 57.097656 51.84375 56.964844 50.519531 56.703125 C 49.199219 56.441406 47.914062 56.050781 46.667969 55.535156 C 45.421875 55.019531 44.238281 54.386719 43.121094 53.636719 C 42 52.886719 40.960938 52.035156 40.007812 51.082031 C 39.054688 50.128906 38.203125 49.09375 37.453125 47.972656 C 36.707031 46.851562 36.074219 45.667969 35.558594 44.421875 C 35.042969 43.175781 34.652344 41.894531 34.390625 40.570312 C 34.125 39.25 33.996094 37.914062 33.996094 36.566406 Z M 33.996094 36.566406 " clip-rule="nonzero"/></clipPath><clipPath id="8ad4435924"><path d="M 37.726562 36.566406 C 37.726562 35.464844 37.835938 34.371094 38.050781 33.289062 C 38.265625 32.207031 38.582031 31.15625 39.003906 30.136719 C 39.429688 29.117188 39.945312 28.152344 40.558594 27.234375 C 41.171875 26.316406 41.867188 25.46875 42.648438 24.6875 C 43.425781 23.90625 44.277344 23.210938 45.191406 22.597656 C 46.109375 21.984375 47.078125 21.46875 48.097656 21.046875 C 49.117188 20.625 50.167969 20.304688 51.25 20.089844 C 52.332031 19.875 53.421875 19.765625 54.527344 19.765625 C 55.628906 19.765625 56.722656 19.875 57.804688 20.089844 C 58.886719 20.304688 59.9375 20.625 60.957031 21.046875 C 61.972656 21.46875 62.941406 21.984375 63.859375 22.597656 C 64.777344 23.210938 65.625 23.90625 66.40625 24.6875 C 67.183594 25.46875 67.882812 26.316406 68.496094 27.234375 C 69.105469 28.152344 69.625 29.117188 70.046875 30.136719 C 70.46875 31.15625 70.789062 32.207031 71.003906 33.289062 C 71.21875 34.371094 71.324219 35.464844 71.324219 36.566406 C 71.324219 37.667969 71.21875 38.761719 71.003906 39.84375 C 70.789062 40.925781 70.46875 41.976562 70.046875 42.996094 C 69.625 44.015625 69.105469 44.984375 68.496094 45.898438 C 67.882812 46.816406 67.183594 47.664062 66.40625 48.445312 C 65.625 49.226562 64.777344 49.921875 63.859375 50.535156 C 62.941406 51.148438 61.972656 51.664062 60.957031 52.085938 C 59.9375 52.507812 58.886719 52.828125 57.804688 53.042969 C 56.722656 53.257812 55.628906 53.367188 54.527344 53.367188 C 53.421875 53.367188 52.332031 53.257812 51.25 53.042969 C 50.167969 52.828125 49.117188 52.507812 48.097656 52.085938 C 47.078125 51.664062 46.109375 51.148438 45.191406 50.535156 C 44.277344 49.921875 43.425781 49.226562 42.648438 48.445312 C 41.867188 47.664062 41.171875 46.816406 40.558594 45.898438 C 39.945312 44.984375 39.429688 44.015625 39.003906 42.996094 C 38.582031 41.976562 38.265625 40.925781 38.050781 39.84375 C 37.835938 38.761719 37.726562 37.667969 37.726562 36.566406 Z M 37.726562 36.566406 " clip-rule="nonzero"/></clipPath><clipPath id="bb4bd1b399"><path d="M 63 25 L 67 25 L 67 28 L 63 28 Z M 63 25 " clip-rule="nonzero"/></clipPath><clipPath id="37487c2ba6"><path d="M 33.996094 36.566406 C 33.996094 35.21875 34.125 33.882812 34.390625 32.558594 C 34.652344 31.238281 35.042969 29.953125 35.558594 28.707031 C 36.074219 27.464844 36.707031 26.28125 37.453125 25.160156 C 38.203125 24.039062 39.054688 23 40.007812 22.046875 C 40.960938 21.09375 42 20.242188 43.121094 19.496094 C 44.238281 18.746094 45.421875 18.113281 46.667969 17.597656 C 47.914062 17.082031 49.199219 16.691406 50.519531 16.429688 C 51.84375 16.167969 53.179688 16.035156 54.527344 16.035156 C 55.875 16.035156 57.210938 16.167969 58.53125 16.429688 C 59.855469 16.691406 61.136719 17.082031 62.382812 17.597656 C 63.628906 18.113281 64.8125 18.746094 65.933594 19.496094 C 67.054688 20.242188 68.089844 21.09375 69.042969 22.046875 C 69.996094 23 70.847656 24.039062 71.597656 25.160156 C 72.347656 26.28125 72.976562 27.464844 73.496094 28.707031 C 74.011719 29.953125 74.398438 31.238281 74.664062 32.558594 C 74.925781 33.882812 75.058594 35.21875 75.058594 36.566406 C 75.058594 37.914062 74.925781 39.25 74.664062 40.570312 C 74.398438 41.894531 74.011719 43.175781 73.496094 44.421875 C 72.976562 45.667969 72.347656 46.851562 71.597656 47.972656 C 70.847656 49.09375 69.996094 50.128906 69.042969 51.082031 C 68.089844 52.035156 67.054688 52.886719 65.933594 53.636719 C 64.8125 54.386719 63.628906 55.019531 62.382812 55.535156 C 61.136719 56.050781 59.855469 56.441406 58.53125 56.703125 C 57.210938 56.964844 55.875 57.097656 54.527344 57.097656 C 53.179688 57.097656 51.84375 56.964844 50.519531 56.703125 C 49.199219 56.441406 47.914062 56.050781 46.667969 55.535156 C 45.421875 55.019531 44.238281 54.386719 43.121094 53.636719 C 42 52.886719 40.960938 52.035156 40.007812 51.082031 C 39.054688 50.128906 38.203125 49.09375 37.453125 47.972656 C 36.707031 46.851562 36.074219 45.667969 35.558594 44.421875 C 35.042969 43.175781 34.652344 41.894531 34.390625 40.570312 C 34.125 39.25 33.996094 37.914062 33.996094 36.566406 Z M 33.996094 36.566406 " clip-rule="nonzero"/></clipPath><clipPath id="c70ce89488"><path d="M 37.726562 36.566406 C 37.726562 35.464844 37.835938 34.371094 38.050781 33.289062 C 38.265625 32.207031 38.582031 31.15625 39.003906 30.136719 C 39.429688 29.117188 39.945312 28.152344 40.558594 27.234375 C 41.171875 26.316406 41.867188 25.46875 42.648438 24.6875 C 43.425781 23.90625 44.277344 23.210938 45.191406 22.597656 C 46.109375 21.984375 47.078125 21.46875 48.097656 21.046875 C 49.117188 20.625 50.167969 20.304688 51.25 20.089844 C 52.332031 19.875 53.421875 19.765625 54.527344 19.765625 C 55.628906 19.765625 56.722656 19.875 57.804688 20.089844 C 58.886719 20.304688 59.9375 20.625 60.957031 21.046875 C 61.972656 21.46875 62.941406 21.984375 63.859375 22.597656 C 64.777344 23.210938 65.625 23.90625 66.40625 24.6875 C 67.183594 25.46875 67.882812 26.316406 68.496094 27.234375 C 69.105469 28.152344 69.625 29.117188 70.046875 30.136719 C 70.46875 31.15625 70.789062 32.207031 71.003906 33.289062 C 71.21875 34.371094 71.324219 35.464844 71.324219 36.566406 C 71.324219 37.667969 71.21875 38.761719 71.003906 39.84375 C 70.789062 40.925781 70.46875 41.976562 70.046875 42.996094 C 69.625 44.015625 69.105469 44.984375 68.496094 45.898438 C 67.882812 46.816406 67.183594 47.664062 66.40625 48.445312 C 65.625 49.226562 64.777344 49.921875 63.859375 50.535156 C 62.941406 51.148438 61.972656 51.664062 60.957031 52.085938 C 59.9375 52.507812 58.886719 52.828125 57.804688 53.042969 C 56.722656 53.257812 55.628906 53.367188 54.527344 53.367188 C 53.421875 53.367188 52.332031 53.257812 51.25 53.042969 C 50.167969 52.828125 49.117188 52.507812 48.097656 52.085938 C 47.078125 51.664062 46.109375 51.148438 45.191406 50.535156 C 44.277344 49.921875 43.425781 49.226562 42.648438 48.445312 C 41.867188 47.664062 41.171875 46.816406 40.558594 45.898438 C 39.945312 44.984375 39.429688 44.015625 39.003906 42.996094 C 38.582031 41.976562 38.265625 40.925781 38.050781 39.84375 C 37.835938 38.761719 37.726562 37.667969 37.726562 36.566406 Z M 37.726562 36.566406 " clip-rule="nonzero"/></clipPath><clipPath id="bffa3d3bc1"><path d="M 43 45 L 47 45 L 47 49 L 43 49 Z M 43 45 " clip-rule="nonzero"/></clipPath><clipPath id="6c593a0956"><path d="M 33.996094 36.566406 C 33.996094 35.21875 34.125 33.882812 34.390625 32.558594 C 34.652344 31.238281 35.042969 29.953125 35.558594 28.707031 C 36.074219 27.464844 36.707031 26.28125 37.453125 25.160156 C 38.203125 24.039062 39.054688 23 40.007812 22.046875 C 40.960938 21.09375 42 20.242188 43.121094 19.496094 C 44.238281 18.746094 45.421875 18.113281 46.667969 17.597656 C 47.914062 17.082031 49.199219 16.691406 50.519531 16.429688 C 51.84375 16.167969 53.179688 16.035156 54.527344 16.035156 C 55.875 16.035156 57.210938 16.167969 58.53125 16.429688 C 59.855469 16.691406 61.136719 17.082031 62.382812 17.597656 C 63.628906 18.113281 64.8125 18.746094 65.933594 19.496094 C 67.054688 20.242188 68.089844 21.09375 69.042969 22.046875 C 69.996094 23 70.847656 24.039062 71.597656 25.160156 C 72.347656 26.28125 72.976562 27.464844 73.496094 28.707031 C 74.011719 29.953125 74.398438 31.238281 74.664062 32.558594 C 74.925781 33.882812 75.058594 35.21875 75.058594 36.566406 C 75.058594 37.914062 74.925781 39.25 74.664062 40.570312 C 74.398438 41.894531 74.011719 43.175781 73.496094 44.421875 C 72.976562 45.667969 72.347656 46.851562 71.597656 47.972656 C 70.847656 49.09375 69.996094 50.128906 69.042969 51.082031 C 68.089844 52.035156 67.054688 52.886719 65.933594 53.636719 C 64.8125 54.386719 63.628906 55.019531 62.382812 55.535156 C 61.136719 56.050781 59.855469 56.441406 58.53125 56.703125 C 57.210938 56.964844 55.875 57.097656 54.527344 57.097656 C 53.179688 57.097656 51.84375 56.964844 50.519531 56.703125 C 49.199219 56.441406 47.914062 56.050781 46.667969 55.535156 C 45.421875 55.019531 44.238281 54.386719 43.121094 53.636719 C 42 52.886719 40.960938 52.035156 40.007812 51.082031 C 39.054688 50.128906 38.203125 49.09375 37.453125 47.972656 C 36.707031 46.851562 36.074219 45.667969 35.558594 44.421875 C 35.042969 43.175781 34.652344 41.894531 34.390625 40.570312 C 34.125 39.25 33.996094 37.914062 33.996094 36.566406 Z M 33.996094 36.566406 " clip-rule="nonzero"/></clipPath><clipPath id="7204f2690e"><path d="M 37.726562 36.566406 C 37.726562 35.464844 37.835938 34.371094 38.050781 33.289062 C 38.265625 32.207031 38.582031 31.15625 39.003906 30.136719 C 39.429688 29.117188 39.945312 28.152344 40.558594 27.234375 C 41.171875 26.316406 41.867188 25.46875 42.648438 24.6875 C 43.425781 23.90625 44.277344 23.210938 45.191406 22.597656 C 46.109375 21.984375 47.078125 21.46875 48.097656 21.046875 C 49.117188 20.625 50.167969 20.304688 51.25 20.089844 C 52.332031 19.875 53.421875 19.765625 54.527344 19.765625 C 55.628906 19.765625 56.722656 19.875 57.804688 20.089844 C 58.886719 20.304688 59.9375 20.625 60.957031 21.046875 C 61.972656 21.46875 62.941406 21.984375 63.859375 22.597656 C 64.777344 23.210938 65.625 23.90625 66.40625 24.6875 C 67.183594 25.46875 67.882812 26.316406 68.496094 27.234375 C 69.105469 28.152344 69.625 29.117188 70.046875 30.136719 C 70.46875 31.15625 70.789062 32.207031 71.003906 33.289062 C 71.21875 34.371094 71.324219 35.464844 71.324219 36.566406 C 71.324219 37.667969 71.21875 38.761719 71.003906 39.84375 C 70.789062 40.925781 70.46875 41.976562 70.046875 42.996094 C 69.625 44.015625 69.105469 44.984375 68.496094 45.898438 C 67.882812 46.816406 67.183594 47.664062 66.40625 48.445312 C 65.625 49.226562 64.777344 49.921875 63.859375 50.535156 C 62.941406 51.148438 61.972656 51.664062 60.957031 52.085938 C 59.9375 52.507812 58.886719 52.828125 57.804688 53.042969 C 56.722656 53.257812 55.628906 53.367188 54.527344 53.367188 C 53.421875 53.367188 52.332031 53.257812 51.25 53.042969 C 50.167969 52.828125 49.117188 52.507812 48.097656 52.085938 C 47.078125 51.664062 46.109375 51.148438 45.191406 50.535156 C 44.277344 49.921875 43.425781 49.226562 42.648438 48.445312 C 41.867188 47.664062 41.171875 46.816406 40.558594 45.898438 C 39.945312 44.984375 39.429688 44.015625 39.003906 42.996094 C 38.582031 41.976562 38.265625 40.925781 38.050781 39.84375 C 37.835938 38.761719 37.726562 37.667969 37.726562 36.566406 Z M 37.726562 36.566406 " clip-rule="nonzero"/></clipPath><clipPath id="82a974f002"><path d="M 62 45 L 66 45 L 66 48 L 62 48 Z M 62 45 " clip-rule="nonzero"/></clipPath><clipPath id="e5ee9c5fc3"><path d="M 33.996094 36.566406 C 33.996094 35.21875 34.125 33.882812 34.390625 32.558594 C 34.652344 31.238281 35.042969 29.953125 35.558594 28.707031 C 36.074219 27.464844 36.707031 26.28125 37.453125 25.160156 C 38.203125 24.039062 39.054688 23 40.007812 22.046875 C 40.960938 21.09375 42 20.242188 43.121094 19.496094 C 44.238281 18.746094 45.421875 18.113281 46.667969 17.597656 C 47.914062 17.082031 49.199219 16.691406 50.519531 16.429688 C 51.84375 16.167969 53.179688 16.035156 54.527344 16.035156 C 55.875 16.035156 57.210938 16.167969 58.53125 16.429688 C 59.855469 16.691406 61.136719 17.082031 62.382812 17.597656 C 63.628906 18.113281 64.8125 18.746094 65.933594 19.496094 C 67.054688 20.242188 68.089844 21.09375 69.042969 22.046875 C 69.996094 23 70.847656 24.039062 71.597656 25.160156 C 72.347656 26.28125 72.976562 27.464844 73.496094 28.707031 C 74.011719 29.953125 74.398438 31.238281 74.664062 32.558594 C 74.925781 33.882812 75.058594 35.21875 75.058594 36.566406 C 75.058594 37.914062 74.925781 39.25 74.664062 40.570312 C 74.398438 41.894531 74.011719 43.175781 73.496094 44.421875 C 72.976562 45.667969 72.347656 46.851562 71.597656 47.972656 C 70.847656 49.09375 69.996094 50.128906 69.042969 51.082031 C 68.089844 52.035156 67.054688 52.886719 65.933594 53.636719 C 64.8125 54.386719 63.628906 55.019531 62.382812 55.535156 C 61.136719 56.050781 59.855469 56.441406 58.53125 56.703125 C 57.210938 56.964844 55.875 57.097656 54.527344 57.097656 C 53.179688 57.097656 51.84375 56.964844 50.519531 56.703125 C 49.199219 56.441406 47.914062 56.050781 46.667969 55.535156 C 45.421875 55.019531 44.238281 54.386719 43.121094 53.636719 C 42 52.886719 40.960938 52.035156 40.007812 51.082031 C 39.054688 50.128906 38.203125 49.09375 37.453125 47.972656 C 36.707031 46.851562 36.074219 45.667969 35.558594 44.421875 C 35.042969 43.175781 34.652344 41.894531 34.390625 40.570312 C 34.125 39.25 33.996094 37.914062 33.996094 36.566406 Z M 33.996094 36.566406 " clip-rule="nonzero"/></clipPath><clipPath id="aeb313f734"><path d="M 37.726562 36.566406 C 37.726562 35.464844 37.835938 34.371094 38.050781 33.289062 C 38.265625 32.207031 38.582031 31.15625 39.003906 30.136719 C 39.429688 29.117188 39.945312 28.152344 40.558594 27.234375 C 41.171875 26.316406 41.867188 25.46875 42.648438 24.6875 C 43.425781 23.90625 44.277344 23.210938 45.191406 22.597656 C 46.109375 21.984375 47.078125 21.46875 48.097656 21.046875 C 49.117188 20.625 50.167969 20.304688 51.25 20.089844 C 52.332031 19.875 53.421875 19.765625 54.527344 19.765625 C 55.628906 19.765625 56.722656 19.875 57.804688 20.089844 C 58.886719 20.304688 59.9375 20.625 60.957031 21.046875 C 61.972656 21.46875 62.941406 21.984375 63.859375 22.597656 C 64.777344 23.210938 65.625 23.90625 66.40625 24.6875 C 67.183594 25.46875 67.882812 26.316406 68.496094 27.234375 C 69.105469 28.152344 69.625 29.117188 70.046875 30.136719 C 70.46875 31.15625 70.789062 32.207031 71.003906 33.289062 C 71.21875 34.371094 71.324219 35.464844 71.324219 36.566406 C 71.324219 37.667969 71.21875 38.761719 71.003906 39.84375 C 70.789062 40.925781 70.46875 41.976562 70.046875 42.996094 C 69.625 44.015625 69.105469 44.984375 68.496094 45.898438 C 67.882812 46.816406 67.183594 47.664062 66.40625 48.445312 C 65.625 49.226562 64.777344 49.921875 63.859375 50.535156 C 62.941406 51.148438 61.972656 51.664062 60.957031 52.085938 C 59.9375 52.507812 58.886719 52.828125 57.804688 53.042969 C 56.722656 53.257812 55.628906 53.367188 54.527344 53.367188 C 53.421875 53.367188 52.332031 53.257812 51.25 53.042969 C 50.167969 52.828125 49.117188 52.507812 48.097656 52.085938 C 47.078125 51.664062 46.109375 51.148438 45.191406 50.535156 C 44.277344 49.921875 43.425781 49.226562 42.648438 48.445312 C 41.867188 47.664062 41.171875 46.816406 40.558594 45.898438 C 39.945312 44.984375 39.429688 44.015625 39.003906 42.996094 C 38.582031 41.976562 38.265625 40.925781 38.050781 39.84375 C 37.835938 38.761719 37.726562 37.667969 37.726562 36.566406 Z M 37.726562 36.566406 " clip-rule="nonzero"/></clipPath><clipPath id="04e4103be2"><path d="M 60 34 L 62.605469 34 L 62.605469 36 L 60 36 Z M 60 34 " clip-rule="nonzero"/></clipPath><clipPath id="1feb1fecdf"><path d="M 46.445312 29.238281 L 54.484375 27.800781 L 62.554688 29.039062 C 62.554688 29.039062 62.621094 44.519531 62.597656 44.894531 L 46.5625 44.894531 Z M 46.445312 29.238281 " clip-rule="evenodd"/></clipPath><clipPath id="b88c811e59"><path d="M 54 32 L 62.605469 32 L 62.605469 34 L 54 34 Z M 54 32 " clip-rule="nonzero"/></clipPath><clipPath id="845deb08eb"><path d="M 46.445312 29.238281 L 54.484375 27.800781 L 62.554688 29.039062 C 62.554688 29.039062 62.621094 44.519531 62.597656 44.894531 L 46.5625 44.894531 Z M 46.445312 29.238281 " clip-rule="evenodd"/></clipPath><clipPath id="7350011051"><path d="M 46.445312 32 L 55 32 L 55 34 L 46.445312 34 Z M 46.445312 32 " clip-rule="nonzero"/></clipPath><clipPath id="bd2c1ff438"><path d="M 46.445312 29.238281 L 54.484375 27.800781 L 62.554688 29.039062 C 62.554688 29.039062 62.621094 44.519531 62.597656 44.894531 L 46.5625 44.894531 Z M 46.445312 29.238281 " clip-rule="evenodd"/></clipPath><clipPath id="d6efcd0fcd"><path d="M 55 36 L 59 36 L 59 44.898438 L 55 44.898438 Z M 55 36 " clip-rule="nonzero"/></clipPath><clipPath id="89f40f6538"><path d="M 46.445312 29.238281 L 54.484375 27.800781 L 62.554688 29.039062 C 62.554688 29.039062 62.621094 44.519531 62.597656 44.894531 L 46.5625 44.894531 Z M 46.445312 29.238281 " clip-rule="evenodd"/></clipPath><clipPath id="14989ec50a"><path d="M 46.445312 34 L 50 34 L 50 36 L 46.445312 36 Z M 46.445312 34 " clip-rule="nonzero"/></clipPath><clipPath id="4a7a1dd1a6"><path d="M 46.445312 29.238281 L 54.484375 27.800781 L 62.554688 29.039062 C 62.554688 29.039062 62.621094 44.519531 62.597656 44.894531 L 46.5625 44.894531 Z M 46.445312 29.238281 " clip-rule="evenodd"/></clipPath><clipPath id="54848061c7"><path d="M 49 34 L 51 34 L 51 36 L 49 36 Z M 49 34 " clip-rule="nonzero"/></clipPath><clipPath id="961d8ff092"><path d="M 46.445312 29.238281 L 54.484375 27.800781 L 62.554688 29.039062 C 62.554688 29.039062 62.621094 44.519531 62.597656 44.894531 L 46.5625 44.894531 Z M 46.445312 29.238281 " clip-rule="evenodd"/></clipPath><clipPath id="2458a0cafa"><path d="M 58 34 L 60 34 L 60 36 L 58 36 Z M 58 34 " clip-rule="nonzero"/></clipPath><clipPath id="57874c76ff"><path d="M 46.445312 29.238281 L 54.484375 27.800781 L 62.554688 29.039062 C 62.554688 29.039062 62.621094 44.519531 62.597656 44.894531 L 46.5625 44.894531 Z M 46.445312 29.238281 " clip-rule="evenodd"/></clipPath><clipPath id="ad34fd8d3a"><path d="M 51 34 L 55 34 L 55 36 L 51 36 Z M 51 34 " clip-rule="nonzero"/></clipPath><clipPath id="b9865b4664"><path d="M 46.445312 29.238281 L 54.484375 27.800781 L 62.554688 29.039062 C 62.554688 29.039062 62.621094 44.519531 62.597656 44.894531 L 46.5625 44.894531 Z M 46.445312 29.238281 " clip-rule="evenodd"/></clipPath><clipPath id="5d58d5d3d4"><path d="M 54 34 L 59 34 L 59 36 L 54 36 Z M 54 34 " clip-rule="nonzero"/></clipPath><clipPath id="ba8ad0c848"><path d="M 46.445312 29.238281 L 54.484375 27.800781 L 62.554688 29.039062 C 62.554688 29.039062 62.621094 44.519531 62.597656 44.894531 L 46.5625 44.894531 Z M 46.445312 29.238281 " clip-rule="evenodd"/></clipPath><clipPath id="d1561876e3"><path d="M 14.199219 122.695312 L 94.480469 122.695312 L 94.480469 204.609375 L 14.199219 204.609375 Z M 14.199219 122.695312 " clip-rule="nonzero"/></clipPath><clipPath id="35122b89e3"><path d="M 54.339844 122.695312 C 32.171875 122.695312 14.199219 141.03125 14.199219 163.652344 C 14.199219 186.269531 32.171875 204.609375 54.339844 204.609375 C 76.507812 204.609375 94.480469 186.269531 94.480469 163.652344 C 94.480469 141.03125 76.507812 122.695312 54.339844 122.695312 Z M 54.339844 122.695312 " clip-rule="nonzero"/></clipPath><clipPath id="7b338e1d57"><path d="M 22.550781 45.730469 L 86.128906 45.730469 L 86.128906 159.949219 L 22.550781 159.949219 Z M 22.550781 45.730469 " clip-rule="nonzero"/></clipPath><clipPath id="41c0e7175e"><path d="M 54.339844 45.730469 L 86.128906 159.949219 L 22.550781 159.949219 Z M 54.339844 45.730469 " clip-rule="nonzero"/></clipPath><clipPath id="fa672d4977"><path d="M 17.496094 125.617188 L 91.183594 125.617188 L 91.183594 200.804688 L 17.496094 200.804688 Z M 17.496094 125.617188 " clip-rule="nonzero"/></clipPath><clipPath id="e0dc9d0ba8"><path d="M 54.339844 125.617188 C 33.992188 125.617188 17.496094 142.449219 17.496094 163.210938 C 17.496094 183.972656 33.992188 200.804688 54.339844 200.804688 C 74.6875 200.804688 91.183594 183.972656 91.183594 163.210938 C 91.183594 142.449219 74.6875 125.617188 54.339844 125.617188 Z M 54.339844 125.617188 " clip-rule="nonzero"/></clipPath><clipPath id="31c473a5bd"><path d="M 22.550781 130.773438 L 86.128906 130.773438 L 86.128906 195.648438 L 22.550781 195.648438 Z M 22.550781 130.773438 " clip-rule="nonzero"/></clipPath><clipPath id="2988903cd5"><path d="M 54.339844 130.773438 C 36.78125 130.773438 22.550781 145.296875 22.550781 163.210938 C 22.550781 181.125 36.78125 195.648438 54.339844 195.648438 C 71.898438 195.648438 86.128906 181.125 86.128906 163.210938 C 86.128906 145.296875 71.898438 130.773438 54.339844 130.773438 Z M 54.339844 130.773438 " clip-rule="nonzero"/></clipPath></defs><g clip-path="url(#8ec0865d90)"><path fill="#ffc133" d="M 75.058594 36.566406 C 75.058594 37.238281 75.023438 37.910156 74.957031 38.578125 C 74.890625 39.246094 74.792969 39.910156 74.664062 40.570312 C 74.53125 41.230469 74.367188 41.882812 74.171875 42.527344 C 73.976562 43.167969 73.75 43.800781 73.496094 44.421875 C 73.238281 45.042969 72.949219 45.652344 72.632812 46.246094 C 72.316406 46.835938 71.96875 47.414062 71.597656 47.972656 C 71.222656 48.53125 70.824219 49.070312 70.398438 49.589844 C 69.96875 50.109375 69.519531 50.609375 69.042969 51.082031 C 68.566406 51.558594 68.070312 52.011719 67.550781 52.4375 C 67.03125 52.863281 66.492188 53.261719 65.933594 53.636719 C 65.375 54.011719 64.796875 54.355469 64.203125 54.671875 C 63.609375 54.988281 63.003906 55.277344 62.382812 55.535156 C 61.761719 55.792969 61.128906 56.019531 60.484375 56.214844 C 59.84375 56.410156 59.191406 56.570312 58.53125 56.703125 C 57.871094 56.832031 57.207031 56.933594 56.539062 57 C 55.871094 57.0625 55.199219 57.097656 54.527344 57.097656 C 53.851562 57.097656 53.183594 57.0625 52.511719 57 C 51.84375 56.933594 51.179688 56.832031 50.519531 56.703125 C 49.859375 56.570312 49.210938 56.410156 48.566406 56.214844 C 47.921875 56.019531 47.289062 55.792969 46.667969 55.535156 C 46.046875 55.277344 45.441406 54.988281 44.847656 54.671875 C 44.253906 54.355469 43.679688 54.011719 43.121094 53.636719 C 42.558594 53.261719 42.019531 52.863281 41.5 52.4375 C 40.980469 52.011719 40.484375 51.558594 40.007812 51.082031 C 39.53125 50.609375 39.082031 50.109375 38.65625 49.589844 C 38.226562 49.070312 37.828125 48.53125 37.453125 47.972656 C 37.082031 47.414062 36.734375 46.835938 36.417969 46.246094 C 36.101562 45.652344 35.816406 45.042969 35.558594 44.421875 C 35.300781 43.800781 35.074219 43.167969 34.878906 42.527344 C 34.683594 41.882812 34.519531 41.230469 34.390625 40.570312 C 34.257812 39.910156 34.160156 39.246094 34.09375 38.578125 C 34.027344 37.910156 33.996094 37.238281 33.996094 36.566406 C 33.996094 35.894531 34.027344 35.222656 34.09375 34.554688 C 34.160156 33.882812 34.257812 33.21875 34.390625 32.558594 C 34.519531 31.902344 34.683594 31.25 34.878906 30.605469 C 35.074219 29.960938 35.300781 29.332031 35.558594 28.707031 C 35.816406 28.085938 36.101562 27.480469 36.417969 26.886719 C 36.734375 26.292969 37.082031 25.71875 37.453125 25.160156 C 37.828125 24.601562 38.226562 24.0625 38.65625 23.539062 C 39.082031 23.019531 39.53125 22.523438 40.007812 22.046875 C 40.484375 21.574219 40.980469 21.121094 41.5 20.695312 C 42.019531 20.269531 42.558594 19.867188 43.121094 19.496094 C 43.679688 19.121094 44.253906 18.777344 44.847656 18.457031 C 45.441406 18.140625 46.046875 17.855469 46.667969 17.597656 C 47.289062 17.339844 47.921875 17.113281 48.566406 16.917969 C 49.210938 16.722656 49.859375 16.558594 50.519531 16.429688 C 51.179688 16.296875 51.84375 16.199219 52.511719 16.132812 C 53.183594 16.066406 53.851562 16.035156 54.527344 16.035156 C 55.199219 16.035156 55.871094 16.066406 56.539062 16.132812 C 57.207031 16.199219 57.871094 16.296875 58.53125 16.429688 C 59.191406 16.558594 59.84375 16.722656 60.484375 16.917969 C 61.128906 17.113281 61.761719 17.339844 62.382812 17.597656 C 63.003906 17.855469 63.609375 18.140625 64.203125 18.457031 C 64.796875 18.777344 65.375 19.121094 65.933594 19.496094 C 66.492188 19.867188 67.03125 20.269531 67.550781 20.695312 C 68.070312 21.121094 68.566406 21.574219 69.042969 22.046875 C 69.519531 22.523438 69.96875 23.019531 70.398438 23.539062 C 70.824219 24.0625 71.222656 24.601562 71.597656 25.160156 C 71.96875 25.71875 72.316406 26.292969 72.632812 26.886719 C 72.949219 27.480469 73.238281 28.085938 73.496094 28.707031 C 73.75 29.332031 73.976562 29.960938 74.171875 30.605469 C 74.367188 31.25 74.53125 31.902344 74.664062 32.558594 C 74.792969 33.21875 74.890625 33.882812 74.957031 34.554688 C 75.023438 35.222656 75.058594 35.894531 75.058594 36.566406 Z M 75.058594 36.566406 " fill-opacity="1" fill-rule="nonzero"/></g><g clip-path="url(#eba201519e)"><g clip-path="url(#9d2eaea53e)"><path fill="#ffffff" d="M 71.324219 36.566406 C 71.324219 37.117188 71.296875 37.664062 71.246094 38.214844 C 71.191406 38.761719 71.109375 39.304688 71.003906 39.84375 C 70.894531 40.382812 70.761719 40.917969 70.601562 41.441406 C 70.441406 41.96875 70.257812 42.488281 70.046875 42.996094 C 69.835938 43.503906 69.601562 44 69.34375 44.484375 C 69.082031 44.972656 68.800781 45.441406 68.496094 45.898438 C 68.1875 46.355469 67.863281 46.796875 67.511719 47.222656 C 67.164062 47.648438 66.792969 48.054688 66.40625 48.445312 C 66.015625 48.835938 65.609375 49.203125 65.183594 49.550781 C 64.757812 49.902344 64.316406 50.230469 63.859375 50.535156 C 63.402344 50.839844 62.929688 51.121094 62.445312 51.382812 C 61.960938 51.640625 61.464844 51.875 60.957031 52.085938 C 60.445312 52.296875 59.929688 52.484375 59.402344 52.640625 C 58.875 52.800781 58.34375 52.9375 57.804688 53.042969 C 57.265625 53.148438 56.71875 53.230469 56.171875 53.285156 C 55.625 53.339844 55.078125 53.367188 54.527344 53.367188 C 53.976562 53.367188 53.425781 53.339844 52.878906 53.285156 C 52.332031 53.230469 51.789062 53.148438 51.25 53.042969 C 50.710938 52.9375 50.175781 52.800781 49.648438 52.640625 C 49.125 52.484375 48.605469 52.296875 48.097656 52.085938 C 47.589844 51.875 47.09375 51.640625 46.605469 51.382812 C 46.121094 51.121094 45.652344 50.839844 45.191406 50.535156 C 44.734375 50.230469 44.292969 49.902344 43.867188 49.550781 C 43.445312 49.203125 43.035156 48.835938 42.648438 48.445312 C 42.257812 48.054688 41.890625 47.648438 41.539062 47.222656 C 41.191406 46.796875 40.863281 46.355469 40.558594 45.898438 C 40.253906 45.441406 39.96875 44.972656 39.710938 44.484375 C 39.453125 44 39.214844 43.503906 39.003906 42.996094 C 38.796875 42.488281 38.609375 41.96875 38.449219 41.441406 C 38.289062 40.917969 38.15625 40.382812 38.050781 39.84375 C 37.941406 39.304688 37.863281 38.761719 37.808594 38.214844 C 37.753906 37.664062 37.726562 37.117188 37.726562 36.566406 C 37.726562 36.015625 37.753906 35.46875 37.808594 34.917969 C 37.863281 34.371094 37.941406 33.828125 38.050781 33.289062 C 38.15625 32.75 38.289062 32.214844 38.449219 31.691406 C 38.609375 31.164062 38.796875 30.644531 39.003906 30.136719 C 39.214844 29.628906 39.453125 29.132812 39.710938 28.648438 C 39.96875 28.160156 40.253906 27.691406 40.558594 27.234375 C 40.863281 26.777344 41.191406 26.335938 41.539062 25.910156 C 41.890625 25.484375 42.257812 25.078125 42.648438 24.6875 C 43.035156 24.296875 43.445312 23.929688 43.867188 23.582031 C 44.292969 23.230469 44.734375 22.902344 45.191406 22.597656 C 45.652344 22.292969 46.121094 22.011719 46.605469 21.75 C 47.09375 21.492188 47.589844 21.257812 48.097656 21.046875 C 48.605469 20.835938 49.125 20.648438 49.648438 20.492188 C 50.175781 20.332031 50.710938 20.195312 51.25 20.089844 C 51.789062 19.984375 52.332031 19.902344 52.878906 19.847656 C 53.425781 19.792969 53.976562 19.765625 54.527344 19.765625 C 55.078125 19.765625 55.625 19.792969 56.171875 19.847656 C 56.71875 19.902344 57.265625 19.984375 57.804688 20.089844 C 58.34375 20.195312 58.875 20.332031 59.402344 20.492188 C 59.929688 20.648438 60.445312 20.835938 60.957031 21.046875 C 61.464844 21.257812 61.960938 21.492188 62.445312 21.75 C 62.929688 22.011719 63.402344 22.292969 63.859375 22.597656 C 64.316406 22.902344 64.757812 23.230469 65.183594 23.582031 C 65.609375 23.929688 66.015625 24.296875 66.40625 24.6875 C 66.792969 25.078125 67.164062 25.484375 67.511719 25.910156 C 67.863281 26.335938 68.1875 26.777344 68.496094 27.234375 C 68.800781 27.691406 69.082031 28.160156 69.34375 28.648438 C 69.601562 29.132812 69.835938 29.628906 70.046875 30.136719 C 70.257812 30.644531 70.441406 31.164062 70.601562 31.691406 C 70.761719 32.214844 70.894531 32.75 71.003906 33.289062 C 71.109375 33.828125 71.191406 34.371094 71.246094 34.917969 C 71.296875 35.46875 71.324219 36.015625 71.324219 36.566406 Z M 71.324219 36.566406 " fill-opacity="1" fill-rule="nonzero"/></g></g><g clip-path="url(#dc7aadb14d)"><g clip-path="url(#b700cd2e72)"><g clip-path="url(#f7b34d8f35)"><path fill="#000000" d="M 39.660156 36.898438 L 42.78125 36.898438 C 42.964844 36.898438 43.113281 36.75 43.113281 36.566406 C 43.113281 36.382812 42.964844 36.234375 42.78125 36.234375 L 39.660156 36.234375 C 39.476562 36.234375 39.328125 36.382812 39.328125 36.566406 C 39.328125 36.75 39.476562 36.898438 39.660156 36.898438 Z M 39.660156 36.898438 " fill-opacity="1" fill-rule="evenodd"/></g></g></g><g clip-path="url(#f564b16e97)"><g clip-path="url(#95af7e6e80)"><g clip-path="url(#2c702eb830)"><path fill="#000000" d="M 69.375 36.058594 L 66.253906 36.058594 C 66.070312 36.058594 65.917969 36.207031 65.917969 36.390625 C 65.917969 36.574219 66.070312 36.722656 66.253906 36.722656 L 69.375 36.722656 C 69.558594 36.722656 69.707031 36.574219 69.707031 36.390625 C 69.707031 36.207031 69.558594 36.058594 69.375 36.058594 Z M 69.375 36.058594 " fill-opacity="1" fill-rule="evenodd"/></g></g></g><g clip-path="url(#5e73b7cd6e)"><g clip-path="url(#a0e58fdf3f)"><g clip-path="url(#f85439d22a)"><path fill="#000000" d="M 54.859375 52.160156 L 54.859375 49.039062 C 54.859375 48.855469 54.710938 48.707031 54.527344 48.707031 C 54.34375 48.707031 54.191406 48.855469 54.191406 49.039062 L 54.191406 52.160156 C 54.191406 52.34375 54.34375 52.496094 54.527344 52.496094 C 54.710938 52.496094 54.859375 52.34375 54.859375 52.160156 Z M 54.859375 52.160156 " fill-opacity="1" fill-rule="evenodd"/></g></g></g><g clip-path="url(#3551877045)"><g clip-path="url(#5deda893d4)"><g clip-path="url(#8ad4435924)"><path fill="#000000" d="M 42.5625 26.007812 L 44.921875 28.054688 C 45.058594 28.175781 45.269531 28.160156 45.390625 28.019531 C 45.511719 27.882812 45.496094 27.671875 45.355469 27.550781 L 43 25.503906 C 42.863281 25.382812 42.652344 25.398438 42.53125 25.535156 C 42.410156 25.675781 42.425781 25.886719 42.5625 26.007812 Z M 42.5625 26.007812 " fill-opacity="1" fill-rule="evenodd"/></g></g></g><g clip-path="url(#bb4bd1b399)"><g clip-path="url(#37487c2ba6)"><g clip-path="url(#c70ce89488)"><path fill="#000000" d="M 66.035156 25.328125 L 63.679688 27.375 C 63.539062 27.496094 63.523438 27.707031 63.644531 27.84375 C 63.765625 27.984375 63.976562 27.996094 64.117188 27.878906 L 66.472656 25.832031 C 66.609375 25.710938 66.625 25.5 66.503906 25.359375 C 66.382812 25.222656 66.175781 25.207031 66.035156 25.328125 Z M 66.035156 25.328125 " fill-opacity="1" fill-rule="evenodd"/></g></g></g><g clip-path="url(#bffa3d3bc1)"><g clip-path="url(#6c593a0956)"><g clip-path="url(#7204f2690e)"><path fill="#000000" d="M 45.675781 45.429688 L 43.320312 47.476562 C 43.179688 47.597656 43.167969 47.808594 43.285156 47.949219 C 43.40625 48.085938 43.617188 48.101562 43.757812 47.980469 L 46.113281 45.933594 C 46.253906 45.8125 46.265625 45.601562 46.144531 45.464844 C 46.027344 45.324219 45.816406 45.308594 45.675781 45.429688 Z M 45.675781 45.429688 " fill-opacity="1" fill-rule="evenodd"/></g></g></g><g clip-path="url(#82a974f002)"><g clip-path="url(#e5ee9c5fc3)"><g clip-path="url(#aeb313f734)"><path fill="#000000" d="M 62.921875 45.757812 L 65.277344 47.804688 C 65.417969 47.925781 65.628906 47.910156 65.75 47.773438 C 65.871094 47.632812 65.855469 47.421875 65.714844 47.300781 L 63.359375 45.253906 C 63.21875 45.136719 63.011719 45.148438 62.890625 45.289062 C 62.769531 45.425781 62.785156 45.636719 62.921875 45.757812 Z M 62.921875 45.757812 " fill-opacity="1" fill-rule="evenodd"/></g></g></g><path fill="#000000" d="M 46.445312 29.238281 L 54.484375 27.800781 L 62.554688 29.039062 C 62.554688 29.039062 62.621094 44.519531 62.597656 44.898438 L 46.5625 44.898438 Z M 46.445312 29.238281 " fill-opacity="1" fill-rule="evenodd"/><g clip-path="url(#04e4103be2)"><g clip-path="url(#1feb1fecdf)"><path fill="#ffc133" d="M 62.585938 34.472656 L 60.109375 34.425781 L 60.125 35.5 L 62.585938 35.511719 Z M 62.585938 34.472656 " fill-opacity="1" fill-rule="evenodd"/></g></g><g clip-path="url(#b88c811e59)"><g clip-path="url(#845deb08eb)"><path fill="#ffc133" d="M 62.585938 33.554688 L 54.480469 33.335938 C 54.480469 33.335938 54.484375 33.335938 54.484375 32.027344 L 62.585938 32.402344 Z M 62.585938 33.554688 " fill-opacity="1" fill-rule="evenodd"/></g></g><g clip-path="url(#7350011051)"><g clip-path="url(#bd2c1ff438)"><path fill="#ffc133" d="M 46.46875 32.523438 L 54.503906 32.027344 L 54.484375 33.339844 L 46.480469 33.699219 Z M 46.46875 32.523438 " fill-opacity="1" fill-rule="evenodd"/></g></g><g clip-path="url(#d6efcd0fcd)"><g clip-path="url(#89f40f6538)"><path fill="#ffc133" d="M 56 44.183594 L 55.933594 36.332031 L 58.488281 36.332031 L 58.488281 44.167969 Z M 56 44.183594 " fill-opacity="1" fill-rule="evenodd"/></g></g><g clip-path="url(#14989ec50a)"><g clip-path="url(#4a7a1dd1a6)"><path fill="#ffc133" d="M 46.484375 34.378906 L 49.046875 34.308594 L 49.117188 35.464844 L 46.492188 35.566406 Z M 46.484375 34.378906 " fill-opacity="1" fill-rule="evenodd"/></g></g><g clip-path="url(#54848061c7)"><g clip-path="url(#961d8ff092)"><path fill="#ffc133" d="M 50.089844 34.308594 L 50.65625 34.917969 L 50.089844 35.523438 L 49.523438 34.917969 Z M 50.089844 34.308594 " fill-opacity="1" fill-rule="evenodd"/></g></g><g clip-path="url(#2458a0cafa)"><g clip-path="url(#57874c76ff)"><path fill="#ffc133" d="M 59.058594 34.34375 L 59.625 34.949219 L 59.058594 35.554688 L 58.492188 34.949219 Z M 59.058594 34.34375 " fill-opacity="1" fill-rule="evenodd"/></g></g><g clip-path="url(#ad34fd8d3a)"><g clip-path="url(#b9865b4664)"><path fill="#ffc133" d="M 54.484375 34.175781 L 51.269531 34.308594 L 51.214844 35.585938 L 54.484375 35.523438 Z M 54.484375 34.175781 " fill-opacity="1" fill-rule="evenodd"/></g></g><g clip-path="url(#5d58d5d3d4)"><g clip-path="url(#ba8ad0c848)"><path fill="#ffc133" d="M 54.484375 34.175781 L 57.984375 34.308594 L 58.039062 35.585938 L 54.484375 35.523438 Z M 54.484375 34.175781 " fill-opacity="1" fill-rule="evenodd"/></g></g><path fill="#ffc133" d="M 54.621094 20.257812 L 57.792969 26.601562 L 54.621094 24.679688 L 51.449219 26.601562 Z M 54.621094 20.257812 " fill-opacity="1" fill-rule="evenodd"/><g clip-path="url(#d1561876e3)"><g clip-path="url(#35122b89e3)"><path fill="#ffbd59" d="M 14.199219 122.695312 L 94.480469 122.695312 L 94.480469 204.609375 L 14.199219 204.609375 Z M 14.199219 122.695312 " fill-opacity="1" fill-rule="nonzero"/></g></g><g clip-path="url(#7b338e1d57)"><g clip-path="url(#41c0e7175e)"><path fill="#ffc133" d="M 22.550781 45.730469 L 86.128906 45.730469 L 86.128906 159.949219 L 22.550781 159.949219 Z M 22.550781 45.730469 " fill-opacity="1" fill-rule="nonzero"/></g></g><g clip-path="url(#fa672d4977)"><g clip-path="url(#e0dc9d0ba8)"><path fill="#ffffff" d="M 17.496094 125.617188 L 91.183594 125.617188 L 91.183594 200.804688 L 17.496094 200.804688 Z M 17.496094 125.617188 " fill-opacity="1" fill-rule="nonzero"/></g></g><g clip-path="url(#31c473a5bd)"><g clip-path="url(#2988903cd5)"><path fill="#ffde59" d="M 22.550781 130.773438 L 86.128906 130.773438 L 86.128906 195.648438 L 22.550781 195.648438 Z M 22.550781 130.773438 " fill-opacity="1" fill-rule="nonzero"/></g></g></svg>