<svg xmlns="http://www.w3.org/2000/svg" xmlns:xlink="http://www.w3.org/1999/xlink" width="500" zoomAndPan="magnify" viewBox="0 0 375 374.999991" height="500" preserveAspectRatio="xMidYMid meet" version="1.0"><defs><g/><clipPath id="0fe13dc569"><path d="M 170.300781 24.671875 L 204.699219 24.671875 L 204.699219 59.070312 L 170.300781 59.070312 Z M 170.300781 24.671875 " clip-rule="nonzero"/></clipPath><clipPath id="5b1a200077"><path d="M 187.5 24.671875 C 178 24.671875 170.300781 32.371094 170.300781 41.871094 C 170.300781 51.371094 178 59.070312 187.5 59.070312 C 197 59.070312 204.699219 51.371094 204.699219 41.871094 C 204.699219 32.371094 197 24.671875 187.5 24.671875 Z M 187.5 24.671875 " clip-rule="nonzero"/></clipPath><clipPath id="e9b5158e29"><path d="M 26.660156 170.300781 L 61.058594 170.300781 L 61.058594 204.699219 L 26.660156 204.699219 Z M 26.660156 170.300781 " clip-rule="nonzero"/></clipPath><clipPath id="21c045b3ea"><path d="M 43.859375 170.300781 C 34.363281 170.300781 26.660156 178 26.660156 187.5 C 26.660156 197 34.363281 204.699219 43.859375 204.699219 C 53.359375 204.699219 61.058594 197 61.058594 187.5 C 61.058594 178 53.359375 170.300781 43.859375 170.300781 Z M 43.859375 170.300781 " clip-rule="nonzero"/></clipPath><clipPath id="7301543765"><path d="M 315.382812 170.300781 L 349.78125 170.300781 L 349.78125 204.699219 L 315.382812 204.699219 Z M 315.382812 170.300781 " clip-rule="nonzero"/></clipPath><clipPath id="77bdbe2fd5"><path d="M 332.582031 170.300781 C 323.082031 170.300781 315.382812 178 315.382812 187.5 C 315.382812 197 323.082031 204.699219 332.582031 204.699219 C 342.082031 204.699219 349.78125 197 349.78125 187.5 C 349.78125 178 342.082031 170.300781 332.582031 170.300781 Z M 332.582031 170.300781 " clip-rule="nonzero"/></clipPath><clipPath id="96dde61417"><path d="M 170.300781 312.421875 L 204.699219 312.421875 L 204.699219 346.820312 L 170.300781 346.820312 Z M 170.300781 312.421875 " clip-rule="nonzero"/></clipPath><clipPath id="98da851abd"><path d="M 187.5 312.421875 C 178 312.421875 170.300781 320.125 170.300781 329.621094 C 170.300781 339.121094 178 346.820312 187.5 346.820312 C 197 346.820312 204.699219 339.121094 204.699219 329.621094 C 204.699219 320.125 197 312.421875 187.5 312.421875 Z M 187.5 312.421875 " clip-rule="nonzero"/></clipPath></defs><path fill="#ffe8c6" d="M 187.5 375 C 291.054688 375 375 291.054688 375 187.5 C 375 83.945312 291.054688 0 187.5 0 C 83.945312 0 0 83.945312 0 187.5 C 0 291.054688 83.945312 375 187.5 375 Z M 187.5 375 " fill-opacity="1" fill-rule="nonzero"/><path fill="#ffffff" d="M 187.5 360.375 C 282.976562 360.375 360.375 282.976562 360.375 187.5 C 360.375 92.023438 282.976562 14.625 187.5 14.625 C 92.023438 14.625 14.625 92.023438 14.625 187.5 C 14.625 282.976562 92.023438 360.375 187.5 360.375 Z M 187.5 360.375 " fill-opacity="1" fill-rule="nonzero"/><path fill="#ffbd59" d="M 187.5 56.925781 C 195.660156 56.925781 202.273438 50.308594 202.273438 42.148438 C 202.273438 33.988281 195.660156 27.375 187.5 27.375 C 179.339844 27.375 172.726562 33.988281 172.726562 42.148438 C 172.726562 50.308594 179.339844 56.925781 187.5 56.925781 Z M 187.5 56.925781 " fill-opacity="1" fill-rule="nonzero"/><path fill="#ffffff" d="M 194.324219 33.449219 L 194.324219 44.324219 C 194.378906 45.230469 194.25 46.136719 193.941406 46.988281 C 193.628906 47.839844 193.148438 48.617188 192.523438 49.273438 C 191.324219 50.476562 189.675781 51 187.5 51 C 185.324219 51 183.675781 50.476562 182.476562 49.273438 C 181.851562 48.617188 181.371094 47.839844 181.058594 46.988281 C 180.75 46.136719 180.621094 45.230469 180.675781 44.324219 L 180.675781 33.449219 L 180.898438 33.300781 L 182.398438 33.300781 C 183.976562 33.300781 184.726562 34.125 184.726562 35.851562 L 184.726562 44.398438 C 184.652344 45.300781 184.890625 46.203125 185.398438 46.949219 C 185.644531 47.269531 185.964844 47.519531 186.332031 47.675781 C 186.699219 47.832031 187.101562 47.894531 187.5 47.851562 C 187.910156 47.890625 188.320312 47.832031 188.703125 47.675781 C 189.082031 47.519531 189.414062 47.269531 189.675781 46.949219 C 190.117188 46.175781 190.328125 45.289062 190.273438 44.398438 L 190.273438 33.449219 L 192.300781 33.300781 Z M 194.324219 33.449219 " fill-opacity="1" fill-rule="nonzero"/><path fill="#ffbd59" d="M 332.851562 202.273438 C 341.011719 202.273438 347.625 195.660156 347.625 187.5 C 347.625 179.339844 341.011719 172.726562 332.851562 172.726562 C 324.691406 172.726562 318.074219 179.339844 318.074219 187.5 C 318.074219 195.660156 324.691406 202.273438 332.851562 202.273438 Z M 332.851562 202.273438 " fill-opacity="1" fill-rule="nonzero"/><path fill="#ffffff" d="M 338.175781 189.449219 L 324.375 189.449219 C 324.238281 188.785156 324.1875 188.105469 324.226562 187.425781 C 324.191406 186.769531 324.242188 186.117188 324.375 185.476562 L 338.175781 185.476562 L 338.175781 181.273438 C 338.714844 181.144531 339.269531 181.09375 339.824219 181.125 C 340.402344 181.09375 340.984375 181.144531 341.550781 181.273438 L 341.550781 193.726562 L 339.898438 193.875 C 339.648438 193.902344 339.394531 193.867188 339.160156 193.777344 C 338.925781 193.683594 338.714844 193.539062 338.550781 193.351562 C 338.265625 192.875 338.136719 192.328125 338.175781 191.773438 Z M 338.175781 189.449219 " fill-opacity="1" fill-rule="nonzero"/><path fill="#ffbd59" d="M 187.5 347.625 C 195.660156 347.625 202.273438 341.011719 202.273438 332.851562 C 202.273438 324.691406 195.660156 318.074219 187.5 318.074219 C 179.339844 318.074219 172.726562 324.691406 172.726562 332.851562 C 172.726562 341.011719 179.339844 347.625 187.5 347.625 Z M 187.5 347.625 " fill-opacity="1" fill-rule="nonzero"/><path fill="#ffffff" d="M 194.023438 325.875 C 193.953125 326.453125 193.773438 327.011719 193.5 327.523438 C 193.230469 328.03125 192.875 328.488281 192.449219 328.875 C 190.921875 327.890625 189.164062 327.320312 187.351562 327.226562 C 186.777344 327.183594 186.210938 327.375 185.773438 327.75 C 185.609375 327.902344 185.480469 328.089844 185.386719 328.296875 C 185.296875 328.503906 185.25 328.726562 185.25 328.949219 C 185.25 329.699219 185.851562 330.300781 186.898438 330.75 L 189.824219 332.023438 C 190.851562 332.441406 191.773438 333.082031 192.523438 333.898438 C 193.140625 334.691406 193.460938 335.671875 193.425781 336.675781 C 193.433594 337.398438 193.28125 338.117188 192.976562 338.773438 C 192.679688 339.414062 192.246094 339.980469 191.699219 340.425781 C 191.113281 340.941406 190.421875 341.324219 189.675781 341.550781 C 188.855469 341.832031 187.992188 341.960938 187.125 341.925781 C 185.136719 341.917969 183.183594 341.429688 181.425781 340.5 C 181.4375 339.933594 181.5625 339.378906 181.792969 338.863281 C 182.027344 338.347656 182.359375 337.882812 182.773438 337.5 C 184.167969 338.226562 185.703125 338.636719 187.273438 338.699219 C 187.8125 338.75 188.351562 338.585938 188.773438 338.25 C 188.933594 338.140625 189.066406 337.996094 189.15625 337.828125 C 189.25 337.65625 189.296875 337.46875 189.300781 337.273438 C 189.300781 336.601562 188.851562 336.074219 187.800781 335.625 L 184.800781 334.351562 C 183.683594 333.945312 182.699219 333.246094 181.949219 332.324219 C 181.316406 331.480469 180.976562 330.453125 180.976562 329.398438 C 180.964844 328.652344 181.117188 327.910156 181.425781 327.226562 C 181.738281 326.574219 182.167969 325.988281 182.699219 325.5 C 183.328125 325.019531 184.039062 324.664062 184.800781 324.449219 C 185.742188 324.132812 186.730469 323.980469 187.726562 324 C 189.960938 324.007812 192.148438 324.65625 194.023438 325.875 Z M 194.023438 325.875 " fill-opacity="1" fill-rule="nonzero"/><path fill="#ffbd59" d="M 42.148438 202.273438 C 50.308594 202.273438 56.925781 195.660156 56.925781 187.5 C 56.925781 179.339844 50.308594 172.726562 42.148438 172.726562 C 33.988281 172.726562 27.375 179.339844 27.375 187.5 C 27.375 195.660156 33.988281 202.273438 42.148438 202.273438 Z M 42.148438 202.273438 " fill-opacity="1" fill-rule="nonzero"/><path fill="#ffffff" d="M 33.375 193.648438 C 33.375 192.300781 33.300781 191.175781 33.300781 190.199219 L 33.300781 187.875 C 33.210938 186.34375 33.605469 184.820312 34.425781 183.523438 C 34.820312 182.992188 35.34375 182.566406 35.945312 182.289062 C 36.550781 182.015625 37.214844 181.898438 37.875 181.949219 C 38.605469 181.945312 39.320312 182.183594 39.898438 182.625 C 40.539062 182.972656 41.042969 183.53125 41.324219 184.199219 C 41.449219 183.765625 41.652344 183.359375 41.925781 183 C 42.238281 182.636719 42.589844 182.308594 42.976562 182.023438 L 44.25 181.425781 C 44.707031 181.253906 45.1875 181.152344 45.675781 181.125 C 46.398438 181.078125 47.121094 181.203125 47.785156 181.488281 C 48.453125 181.777344 49.039062 182.21875 49.5 182.773438 C 50.417969 184.175781 50.863281 185.828125 50.773438 187.5 L 50.773438 189.976562 C 50.699219 190.949219 50.699219 192.226562 50.699219 193.648438 L 50.476562 193.875 L 33.523438 193.875 Z M 36.148438 189.824219 L 40.199219 189.824219 L 40.199219 188.101562 C 40.230469 187.785156 40.195312 187.46875 40.089844 187.171875 C 39.984375 186.875 39.820312 186.601562 39.601562 186.375 C 39.164062 186.0625 38.636719 185.902344 38.101562 185.925781 C 37.613281 185.914062 37.132812 186.074219 36.75 186.375 C 36.535156 186.605469 36.371094 186.875 36.265625 187.171875 C 36.164062 187.472656 36.125 187.785156 36.148438 188.101562 Z M 43.050781 187.800781 L 43.050781 189.824219 L 47.925781 189.824219 L 47.925781 188.398438 C 47.976562 187.875 47.953125 187.34375 47.851562 186.824219 C 47.71875 186.382812 47.457031 185.992188 47.101562 185.699219 C 46.628906 185.335938 46.042969 185.152344 45.449219 185.175781 C 45.144531 185.171875 44.839844 185.230469 44.558594 185.347656 C 44.273438 185.464844 44.015625 185.632812 43.800781 185.851562 C 43.527344 186.089844 43.316406 186.394531 43.183594 186.734375 C 43.054688 187.074219 43.007812 187.4375 43.050781 187.800781 Z M 43.050781 187.800781 " fill-opacity="1" fill-rule="nonzero"/><path fill="#ffbd59" d="M 114.75 67.125 C 117.816406 67.125 120.300781 64.640625 120.300781 61.574219 C 120.300781 58.511719 117.816406 56.023438 114.75 56.023438 C 111.683594 56.023438 109.199219 58.511719 109.199219 61.574219 C 109.199219 64.640625 111.683594 67.125 114.75 67.125 Z M 114.75 67.125 " fill-opacity="1" fill-rule="nonzero"/><path fill="#ffbd59" d="M 260.175781 318.976562 C 263.242188 318.976562 265.726562 316.488281 265.726562 313.425781 C 265.726562 310.359375 263.242188 307.875 260.175781 307.875 C 257.109375 307.875 254.625 310.359375 254.625 313.425781 C 254.625 316.488281 257.109375 318.976562 260.175781 318.976562 Z M 260.175781 318.976562 " fill-opacity="1" fill-rule="nonzero"/><path fill="#ffbd59" d="M 313.351562 120.375 C 316.414062 120.375 318.898438 117.890625 318.898438 114.824219 C 318.898438 111.757812 316.414062 109.273438 313.351562 109.273438 C 310.285156 109.273438 307.800781 111.757812 307.800781 114.824219 C 307.800781 117.890625 310.285156 120.375 313.351562 120.375 Z M 313.351562 120.375 " fill-opacity="1" fill-rule="nonzero"/><path fill="#ffbd59" d="M 61.5 265.800781 C 64.566406 265.800781 67.050781 263.316406 67.050781 260.25 C 67.050781 257.183594 64.566406 254.699219 61.5 254.699219 C 58.433594 254.699219 55.949219 257.183594 55.949219 260.25 C 55.949219 263.316406 58.433594 265.800781 61.5 265.800781 Z M 61.5 265.800781 " fill-opacity="1" fill-rule="nonzero"/><path fill="#ffbd59" d="M 61.574219 120.300781 C 64.640625 120.300781 67.125 117.816406 67.125 114.75 C 67.125 111.683594 64.640625 109.199219 61.574219 109.199219 C 58.511719 109.199219 56.023438 111.683594 56.023438 114.75 C 56.023438 117.816406 58.511719 120.300781 61.574219 120.300781 Z M 61.574219 120.300781 " fill-opacity="1" fill-rule="nonzero"/><path fill="#ffbd59" d="M 313.425781 265.726562 C 316.488281 265.726562 318.976562 263.238281 318.976562 260.175781 C 318.976562 257.109375 316.488281 254.625 313.425781 254.625 C 310.359375 254.625 307.875 257.109375 307.875 260.175781 C 307.875 263.238281 310.359375 265.726562 313.425781 265.726562 Z M 313.425781 265.726562 " fill-opacity="1" fill-rule="nonzero"/><path fill="#ffbd59" d="M 260.101562 67.125 C 263.164062 67.125 265.648438 64.640625 265.648438 61.574219 C 265.648438 58.511719 263.164062 56.023438 260.101562 56.023438 C 257.035156 56.023438 254.550781 58.511719 254.550781 61.574219 C 254.550781 64.640625 257.035156 67.125 260.101562 67.125 Z M 260.101562 67.125 " fill-opacity="1" fill-rule="nonzero"/><path fill="#ffbd59" d="M 114.675781 318.976562 C 117.742188 318.976562 120.226562 316.488281 120.226562 313.425781 C 120.226562 310.359375 117.742188 307.875 114.675781 307.875 C 111.609375 307.875 109.125 310.359375 109.125 313.425781 C 109.125 316.488281 111.609375 318.976562 114.675781 318.976562 Z M 114.675781 318.976562 " fill-opacity="1" fill-rule="nonzero"/><g clip-path="url(#0fe13dc569)"><g clip-path="url(#5b1a200077)"><path fill="#ffbd59" d="M 170.300781 24.671875 L 204.699219 24.671875 L 204.699219 59.070312 L 170.300781 59.070312 Z M 170.300781 24.671875 " fill-opacity="1" fill-rule="nonzero"/></g></g><g clip-path="url(#e9b5158e29)"><g clip-path="url(#21c045b3ea)"><path fill="#ffbd59" d="M 26.660156 170.300781 L 61.058594 170.300781 L 61.058594 204.699219 L 26.660156 204.699219 Z M 26.660156 170.300781 " fill-opacity="1" fill-rule="nonzero"/></g></g><g clip-path="url(#7301543765)"><g clip-path="url(#77bdbe2fd5)"><path fill="#ffbd59" d="M 315.382812 170.300781 L 349.78125 170.300781 L 349.78125 204.699219 L 315.382812 204.699219 Z M 315.382812 170.300781 " fill-opacity="1" fill-rule="nonzero"/></g></g><g clip-path="url(#96dde61417)"><g clip-path="url(#98da851abd)"><path fill="#ffbd59" d="M 170.300781 312.421875 L 204.699219 312.421875 L 204.699219 346.820312 L 170.300781 346.820312 Z M 170.300781 312.421875 " fill-opacity="1" fill-rule="nonzero"/></g></g><g fill="#000000" fill-opacity="1"><g transform="translate(177.714838, 51.620297)"><g><path d="M 5.734375 0 L 2.3125 0 L 2.3125 -17.84375 L 6.359375 -17.84375 L 13.53125 -6.34375 L 13.84375 -6.390625 L 13.84375 -17.84375 L 17.234375 -17.84375 L 17.234375 0 L 13.625 0 L 6.046875 -12.28125 L 5.734375 -12.234375 Z M 5.734375 0 "/></g></g></g><g fill="#000000" fill-opacity="1"><g transform="translate(179.83007, 339.372165)"><g><path d="M 7.90625 0.25 C 6.675781 0.25 5.578125 0.0976562 4.609375 -0.203125 C 3.640625 -0.503906 2.832031 -0.90625 2.1875 -1.40625 C 1.550781 -1.90625 1.0625 -2.453125 0.71875 -3.046875 L 2.65625 -5.40625 L 2.96875 -5.40625 C 3.5 -4.613281 4.175781 -3.976562 5 -3.5 C 5.832031 -3.03125 6.800781 -2.796875 7.90625 -2.796875 C 8.851562 -2.796875 9.566406 -2.992188 10.046875 -3.390625 C 10.523438 -3.785156 10.765625 -4.335938 10.765625 -5.046875 C 10.765625 -5.460938 10.6875 -5.8125 10.53125 -6.09375 C 10.375 -6.382812 10.117188 -6.628906 9.765625 -6.828125 C 9.410156 -7.035156 8.925781 -7.210938 8.3125 -7.359375 L 6.015625 -7.890625 C 4.410156 -8.253906 3.210938 -8.859375 2.421875 -9.703125 C 1.640625 -10.554688 1.25 -11.664062 1.25 -13.03125 C 1.25 -14.03125 1.5 -14.910156 2 -15.671875 C 2.507812 -16.441406 3.25 -17.039062 4.21875 -17.46875 C 5.1875 -17.894531 6.335938 -18.109375 7.671875 -18.109375 C 9.046875 -18.109375 10.222656 -17.925781 11.203125 -17.5625 C 12.191406 -17.195312 13.023438 -16.640625 13.703125 -15.890625 L 11.953125 -13.5 L 11.640625 -13.5 C 11.140625 -14.03125 10.5625 -14.425781 9.90625 -14.6875 C 9.257812 -14.957031 8.515625 -15.09375 7.671875 -15.09375 C 6.703125 -15.09375 5.96875 -14.921875 5.46875 -14.578125 C 4.96875 -14.234375 4.71875 -13.757812 4.71875 -13.15625 C 4.71875 -12.59375 4.894531 -12.144531 5.25 -11.8125 C 5.601562 -11.476562 6.210938 -11.21875 7.078125 -11.03125 L 9.421875 -10.546875 C 11.160156 -10.179688 12.421875 -9.5625 13.203125 -8.6875 C 13.984375 -7.8125 14.375 -6.671875 14.375 -5.265625 C 14.375 -4.148438 14.128906 -3.175781 13.640625 -2.34375 C 13.160156 -1.519531 12.4375 -0.878906 11.46875 -0.421875 C 10.5 0.0234375 9.3125 0.25 7.90625 0.25 Z M 7.90625 0.25 "/></g></g></g><g fill="#000000" fill-opacity="1"><g transform="translate(324.906898, 197.249987)"><g><path d="M 5.84375 -7.84375 L 5.84375 -2.953125 L 14.375 -2.953125 L 14.375 0 L 2.3125 0 L 2.3125 -17.84375 L 14.171875 -17.84375 L 14.171875 -14.890625 L 5.84375 -14.890625 L 5.84375 -10.71875 L 13.125 -10.71875 L 13.125 -7.84375 Z M 5.84375 -7.84375 "/></g></g></g><g fill="#000000" fill-opacity="1"><g transform="translate(32.17731, 197.249987)"><g><path d="M 8.515625 0 L 4.578125 0 L 0.484375 -17.84375 L 4 -17.84375 L 6.703125 -5.296875 L 7 -5.296875 L 10.203125 -17.84375 L 13.21875 -17.84375 L 16.484375 -5.296875 L 16.78125 -5.296875 L 19.5 -17.84375 L 22.890625 -17.84375 L 18.8125 0 L 14.859375 0 L 11.734375 -11.515625 L 11.46875 -11.515625 Z M 8.515625 0 "/></g></g></g></svg>