<svg xmlns="http://www.w3.org/2000/svg" xmlns:xlink="http://www.w3.org/1999/xlink" width="375" zoomAndPan="magnify" viewBox="0 0 281.25 605.999987" height="808" preserveAspectRatio="xMidYMid meet" version="1.0"><defs><clipPath id="339769b35f"><path d="M 0 0.804688 L 280.503906 0.804688 L 280.503906 605.191406 L 0 605.191406 Z M 0 0.804688 " clip-rule="nonzero"/></clipPath><linearGradient x1="0" gradientTransform="matrix(0.748005, 0, 0, 0.748005, 0, 0.805845)" y1="0" x2="0" gradientUnits="userSpaceOnUse" y2="807.999966" id="db43d94285"><stop stop-opacity="1" stop-color="rgb(2.69928%, 39.599609%, 52.198792%)" offset="0"/><stop stop-opacity="1" stop-color="rgb(3.079224%, 39.834595%, 52.384949%)" offset="0.00390625"/><stop stop-opacity="1" stop-color="rgb(3.459167%, 40.071106%, 52.572632%)" offset="0.0078125"/><stop stop-opacity="1" stop-color="rgb(3.839111%, 40.306091%, 52.758789%)" offset="0.0117188"/><stop stop-opacity="1" stop-color="rgb(4.219055%, 40.542603%, 52.946472%)" offset="0.015625"/><stop stop-opacity="1" stop-color="rgb(4.598999%, 40.777588%, 53.132629%)" offset="0.0195312"/><stop stop-opacity="1" stop-color="rgb(4.978943%, 41.014099%, 53.318787%)" offset="0.0234375"/><stop stop-opacity="1" stop-color="rgb(5.358887%, 41.25061%, 53.504944%)" offset="0.0273438"/><stop stop-opacity="1" stop-color="rgb(5.740356%, 41.487122%, 53.692627%)" offset="0.03125"/><stop stop-opacity="1" stop-color="rgb(6.1203%, 41.722107%, 53.878784%)" offset="0.0351562"/><stop stop-opacity="1" stop-color="rgb(6.500244%, 41.958618%, 54.066467%)" offset="0.0390625"/><stop stop-opacity="1" stop-color="rgb(6.880188%, 42.193604%, 54.252625%)" offset="0.0429688"/><stop stop-opacity="1" stop-color="rgb(7.260132%, 42.430115%, 54.440308%)" offset="0.046875"/><stop stop-opacity="1" stop-color="rgb(7.640076%, 42.6651%, 54.626465%)" offset="0.0507812"/><stop stop-opacity="1" stop-color="rgb(8.02002%, 42.901611%, 54.812622%)" offset="0.0546875"/><stop stop-opacity="1" stop-color="rgb(8.399963%, 43.138123%, 54.998779%)" offset="0.0585938"/><stop stop-opacity="1" stop-color="rgb(8.779907%, 43.374634%, 55.186462%)" offset="0.0625"/><stop stop-opacity="1" stop-color="rgb(9.159851%, 43.609619%, 55.37262%)" offset="0.0664062"/><stop stop-opacity="1" stop-color="rgb(9.541321%, 43.84613%, 55.560303%)" offset="0.0703125"/><stop stop-opacity="1" stop-color="rgb(9.921265%, 44.081116%, 55.74646%)" offset="0.0742188"/><stop stop-opacity="1" stop-color="rgb(10.301208%, 44.317627%, 55.934143%)" offset="0.078125"/><stop stop-opacity="1" stop-color="rgb(10.681152%, 44.552612%, 56.1203%)" offset="0.0820312"/><stop stop-opacity="1" stop-color="rgb(11.061096%, 44.789124%, 56.306458%)" offset="0.0859375"/><stop stop-opacity="1" stop-color="rgb(11.44104%, 45.025635%, 56.492615%)" offset="0.0898438"/><stop stop-opacity="1" stop-color="rgb(11.820984%, 45.262146%, 56.680298%)" offset="0.09375"/><stop stop-opacity="1" stop-color="rgb(12.200928%, 45.497131%, 56.866455%)" offset="0.0976562"/><stop stop-opacity="1" stop-color="rgb(12.580872%, 45.733643%, 57.054138%)" offset="0.101562"/><stop stop-opacity="1" stop-color="rgb(12.960815%, 45.968628%, 57.240295%)" offset="0.105469"/><stop stop-opacity="1" stop-color="rgb(13.340759%, 46.205139%, 57.427979%)" offset="0.109375"/><stop stop-opacity="1" stop-color="rgb(13.720703%, 46.440125%, 57.614136%)" offset="0.113281"/><stop stop-opacity="1" stop-color="rgb(14.102173%, 46.676636%, 57.800293%)" offset="0.117188"/><stop stop-opacity="1" stop-color="rgb(14.482117%, 46.913147%, 57.98645%)" offset="0.121094"/><stop stop-opacity="1" stop-color="rgb(14.862061%, 47.149658%, 58.174133%)" offset="0.125"/><stop stop-opacity="1" stop-color="rgb(15.242004%, 47.384644%, 58.360291%)" offset="0.128906"/><stop stop-opacity="1" stop-color="rgb(15.621948%, 47.621155%, 58.547974%)" offset="0.132812"/><stop stop-opacity="1" stop-color="rgb(16.001892%, 47.85614%, 58.734131%)" offset="0.136719"/><stop stop-opacity="1" stop-color="rgb(16.381836%, 48.092651%, 58.921814%)" offset="0.140625"/><stop stop-opacity="1" stop-color="rgb(16.76178%, 48.327637%, 59.107971%)" offset="0.144531"/><stop stop-opacity="1" stop-color="rgb(17.141724%, 48.564148%, 59.294128%)" offset="0.148438"/><stop stop-opacity="1" stop-color="rgb(17.521667%, 48.800659%, 59.480286%)" offset="0.152344"/><stop stop-opacity="1" stop-color="rgb(17.901611%, 49.03717%, 59.667969%)" offset="0.15625"/><stop stop-opacity="1" stop-color="rgb(18.281555%, 49.272156%, 59.854126%)" offset="0.160156"/><stop stop-opacity="1" stop-color="rgb(18.663025%, 49.508667%, 60.041809%)" offset="0.164062"/><stop stop-opacity="1" stop-color="rgb(19.042969%, 49.743652%, 60.227966%)" offset="0.167969"/><stop stop-opacity="1" stop-color="rgb(19.422913%, 49.980164%, 60.414124%)" offset="0.171875"/><stop stop-opacity="1" stop-color="rgb(19.802856%, 50.215149%, 60.600281%)" offset="0.175781"/><stop stop-opacity="1" stop-color="rgb(20.1828%, 50.45166%, 60.787964%)" offset="0.179688"/><stop stop-opacity="1" stop-color="rgb(20.562744%, 50.688171%, 60.974121%)" offset="0.183594"/><stop stop-opacity="1" stop-color="rgb(20.942688%, 50.924683%, 61.161804%)" offset="0.1875"/><stop stop-opacity="1" stop-color="rgb(21.322632%, 51.159668%, 61.347961%)" offset="0.191406"/><stop stop-opacity="1" stop-color="rgb(21.702576%, 51.396179%, 61.535645%)" offset="0.195312"/><stop stop-opacity="1" stop-color="rgb(22.08252%, 51.631165%, 61.721802%)" offset="0.199219"/><stop stop-opacity="1" stop-color="rgb(22.463989%, 51.867676%, 61.907959%)" offset="0.203125"/><stop stop-opacity="1" stop-color="rgb(22.843933%, 52.102661%, 62.094116%)" offset="0.207031"/><stop stop-opacity="1" stop-color="rgb(23.223877%, 52.339172%, 62.281799%)" offset="0.210938"/><stop stop-opacity="1" stop-color="rgb(23.603821%, 52.575684%, 62.467957%)" offset="0.214844"/><stop stop-opacity="1" stop-color="rgb(23.983765%, 52.812195%, 62.65564%)" offset="0.21875"/><stop stop-opacity="1" stop-color="rgb(24.363708%, 53.04718%, 62.841797%)" offset="0.222656"/><stop stop-opacity="1" stop-color="rgb(24.743652%, 53.283691%, 63.02948%)" offset="0.226563"/><stop stop-opacity="1" stop-color="rgb(25.123596%, 53.518677%, 63.215637%)" offset="0.230469"/><stop stop-opacity="1" stop-color="rgb(25.50354%, 53.755188%, 63.401794%)" offset="0.234375"/><stop stop-opacity="1" stop-color="rgb(25.883484%, 53.990173%, 63.587952%)" offset="0.238281"/><stop stop-opacity="1" stop-color="rgb(26.263428%, 54.226685%, 63.775635%)" offset="0.242188"/><stop stop-opacity="1" stop-color="rgb(26.643372%, 54.463196%, 63.961792%)" offset="0.246094"/><stop stop-opacity="1" stop-color="rgb(27.024841%, 54.699707%, 64.149475%)" offset="0.25"/><stop stop-opacity="1" stop-color="rgb(27.404785%, 54.934692%, 64.335632%)" offset="0.253906"/><stop stop-opacity="1" stop-color="rgb(27.784729%, 55.171204%, 64.523315%)" offset="0.257812"/><stop stop-opacity="1" stop-color="rgb(28.164673%, 55.406189%, 64.709473%)" offset="0.261719"/><stop stop-opacity="1" stop-color="rgb(28.544617%, 55.6427%, 64.89563%)" offset="0.265625"/><stop stop-opacity="1" stop-color="rgb(28.924561%, 55.877686%, 65.081787%)" offset="0.269531"/><stop stop-opacity="1" stop-color="rgb(29.304504%, 56.114197%, 65.26947%)" offset="0.273438"/><stop stop-opacity="1" stop-color="rgb(29.684448%, 56.350708%, 65.455627%)" offset="0.277344"/><stop stop-opacity="1" stop-color="rgb(30.064392%, 56.587219%, 65.643311%)" offset="0.28125"/><stop stop-opacity="1" stop-color="rgb(30.444336%, 56.822205%, 65.829468%)" offset="0.285156"/><stop stop-opacity="1" stop-color="rgb(30.82428%, 57.058716%, 66.017151%)" offset="0.289062"/><stop stop-opacity="1" stop-color="rgb(31.204224%, 57.293701%, 66.203308%)" offset="0.292969"/><stop stop-opacity="1" stop-color="rgb(31.585693%, 57.530212%, 66.389465%)" offset="0.296875"/><stop stop-opacity="1" stop-color="rgb(31.965637%, 57.765198%, 66.575623%)" offset="0.300781"/><stop stop-opacity="1" stop-color="rgb(32.345581%, 58.001709%, 66.763306%)" offset="0.304688"/><stop stop-opacity="1" stop-color="rgb(32.725525%, 58.23822%, 66.949463%)" offset="0.308594"/><stop stop-opacity="1" stop-color="rgb(33.105469%, 58.474731%, 67.137146%)" offset="0.3125"/><stop stop-opacity="1" stop-color="rgb(33.485413%, 58.709717%, 67.323303%)" offset="0.316406"/><stop stop-opacity="1" stop-color="rgb(33.865356%, 58.946228%, 67.50946%)" offset="0.320312"/><stop stop-opacity="1" stop-color="rgb(34.2453%, 59.181213%, 67.695618%)" offset="0.324219"/><stop stop-opacity="1" stop-color="rgb(34.625244%, 59.417725%, 67.883301%)" offset="0.328125"/><stop stop-opacity="1" stop-color="rgb(35.005188%, 59.65271%, 68.069458%)" offset="0.332031"/><stop stop-opacity="1" stop-color="rgb(35.386658%, 59.889221%, 68.257141%)" offset="0.335938"/><stop stop-opacity="1" stop-color="rgb(35.766602%, 60.125732%, 68.443298%)" offset="0.339844"/><stop stop-opacity="1" stop-color="rgb(36.146545%, 60.362244%, 68.630981%)" offset="0.34375"/><stop stop-opacity="1" stop-color="rgb(36.526489%, 60.597229%, 68.817139%)" offset="0.347656"/><stop stop-opacity="1" stop-color="rgb(36.906433%, 60.83374%, 69.003296%)" offset="0.351562"/><stop stop-opacity="1" stop-color="rgb(37.286377%, 61.068726%, 69.189453%)" offset="0.355469"/><stop stop-opacity="1" stop-color="rgb(37.666321%, 61.305237%, 69.377136%)" offset="0.359375"/><stop stop-opacity="1" stop-color="rgb(38.046265%, 61.540222%, 69.563293%)" offset="0.363281"/><stop stop-opacity="1" stop-color="rgb(38.426208%, 61.776733%, 69.750977%)" offset="0.367188"/><stop stop-opacity="1" stop-color="rgb(38.806152%, 62.013245%, 69.937134%)" offset="0.371094"/><stop stop-opacity="1" stop-color="rgb(39.186096%, 62.249756%, 70.124817%)" offset="0.375"/><stop stop-opacity="1" stop-color="rgb(39.56604%, 62.484741%, 70.310974%)" offset="0.378906"/><stop stop-opacity="1" stop-color="rgb(39.94751%, 62.721252%, 70.497131%)" offset="0.382812"/><stop stop-opacity="1" stop-color="rgb(40.327454%, 62.956238%, 70.683289%)" offset="0.386719"/><stop stop-opacity="1" stop-color="rgb(40.707397%, 63.192749%, 70.870972%)" offset="0.390625"/><stop stop-opacity="1" stop-color="rgb(41.087341%, 63.427734%, 71.057129%)" offset="0.394531"/><stop stop-opacity="1" stop-color="rgb(41.467285%, 63.664246%, 71.244812%)" offset="0.398438"/><stop stop-opacity="1" stop-color="rgb(41.847229%, 63.900757%, 71.430969%)" offset="0.402344"/><stop stop-opacity="1" stop-color="rgb(42.227173%, 64.137268%, 71.618652%)" offset="0.40625"/><stop stop-opacity="1" stop-color="rgb(42.607117%, 64.372253%, 71.80481%)" offset="0.410156"/><stop stop-opacity="1" stop-color="rgb(42.987061%, 64.608765%, 71.990967%)" offset="0.414062"/><stop stop-opacity="1" stop-color="rgb(43.367004%, 64.84375%, 72.177124%)" offset="0.417969"/><stop stop-opacity="1" stop-color="rgb(43.746948%, 65.080261%, 72.364807%)" offset="0.421875"/><stop stop-opacity="1" stop-color="rgb(44.126892%, 65.315247%, 72.550964%)" offset="0.425781"/><stop stop-opacity="1" stop-color="rgb(44.508362%, 65.551758%, 72.738647%)" offset="0.429688"/><stop stop-opacity="1" stop-color="rgb(44.888306%, 65.788269%, 72.924805%)" offset="0.433594"/><stop stop-opacity="1" stop-color="rgb(45.26825%, 66.02478%, 73.112488%)" offset="0.4375"/><stop stop-opacity="1" stop-color="rgb(45.648193%, 66.259766%, 73.298645%)" offset="0.441406"/><stop stop-opacity="1" stop-color="rgb(46.028137%, 66.496277%, 73.484802%)" offset="0.445313"/><stop stop-opacity="1" stop-color="rgb(46.408081%, 66.731262%, 73.670959%)" offset="0.449219"/><stop stop-opacity="1" stop-color="rgb(46.788025%, 66.967773%, 73.858643%)" offset="0.453125"/><stop stop-opacity="1" stop-color="rgb(47.167969%, 67.202759%, 74.0448%)" offset="0.457031"/><stop stop-opacity="1" stop-color="rgb(47.547913%, 67.43927%, 74.232483%)" offset="0.460938"/><stop stop-opacity="1" stop-color="rgb(47.927856%, 67.675781%, 74.41864%)" offset="0.464844"/><stop stop-opacity="1" stop-color="rgb(48.309326%, 67.912292%, 74.604797%)" offset="0.46875"/><stop stop-opacity="1" stop-color="rgb(48.68927%, 68.147278%, 74.790955%)" offset="0.472656"/><stop stop-opacity="1" stop-color="rgb(49.069214%, 68.383789%, 74.978638%)" offset="0.476563"/><stop stop-opacity="1" stop-color="rgb(49.449158%, 68.618774%, 75.164795%)" offset="0.480469"/><stop stop-opacity="1" stop-color="rgb(49.829102%, 68.855286%, 75.352478%)" offset="0.484375"/><stop stop-opacity="1" stop-color="rgb(50.209045%, 69.090271%, 75.538635%)" offset="0.488281"/><stop stop-opacity="1" stop-color="rgb(50.588989%, 69.326782%, 75.726318%)" offset="0.492188"/><stop stop-opacity="1" stop-color="rgb(50.968933%, 69.563293%, 75.912476%)" offset="0.496094"/><stop stop-opacity="1" stop-color="rgb(51.348877%, 69.799805%, 76.098633%)" offset="0.5"/><stop stop-opacity="1" stop-color="rgb(51.728821%, 70.03479%, 76.28479%)" offset="0.503906"/><stop stop-opacity="1" stop-color="rgb(52.108765%, 70.271301%, 76.472473%)" offset="0.507812"/><stop stop-opacity="1" stop-color="rgb(52.488708%, 70.506287%, 76.65863%)" offset="0.511719"/><stop stop-opacity="1" stop-color="rgb(52.870178%, 70.742798%, 76.846313%)" offset="0.515625"/><stop stop-opacity="1" stop-color="rgb(53.250122%, 70.977783%, 77.032471%)" offset="0.519531"/><stop stop-opacity="1" stop-color="rgb(53.630066%, 71.214294%, 77.220154%)" offset="0.523438"/><stop stop-opacity="1" stop-color="rgb(54.01001%, 71.450806%, 77.406311%)" offset="0.527344"/><stop stop-opacity="1" stop-color="rgb(54.389954%, 71.687317%, 77.592468%)" offset="0.53125"/><stop stop-opacity="1" stop-color="rgb(54.769897%, 71.922302%, 77.778625%)" offset="0.535156"/><stop stop-opacity="1" stop-color="rgb(55.149841%, 72.158813%, 77.966309%)" offset="0.539062"/><stop stop-opacity="1" stop-color="rgb(55.529785%, 72.393799%, 78.152466%)" offset="0.542969"/><stop stop-opacity="1" stop-color="rgb(55.909729%, 72.63031%, 78.340149%)" offset="0.546875"/><stop stop-opacity="1" stop-color="rgb(56.289673%, 72.865295%, 78.526306%)" offset="0.550781"/><stop stop-opacity="1" stop-color="rgb(56.669617%, 73.101807%, 78.713989%)" offset="0.554688"/><stop stop-opacity="1" stop-color="rgb(57.049561%, 73.338318%, 78.900146%)" offset="0.558594"/><stop stop-opacity="1" stop-color="rgb(57.43103%, 73.574829%, 79.086304%)" offset="0.5625"/><stop stop-opacity="1" stop-color="rgb(57.810974%, 73.809814%, 79.272461%)" offset="0.566406"/><stop stop-opacity="1" stop-color="rgb(58.190918%, 74.046326%, 79.460144%)" offset="0.570312"/><stop stop-opacity="1" stop-color="rgb(58.570862%, 74.281311%, 79.646301%)" offset="0.574219"/><stop stop-opacity="1" stop-color="rgb(58.950806%, 74.517822%, 79.833984%)" offset="0.578125"/><stop stop-opacity="1" stop-color="rgb(59.33075%, 74.752808%, 80.020142%)" offset="0.582031"/><stop stop-opacity="1" stop-color="rgb(59.710693%, 74.989319%, 80.206299%)" offset="0.585938"/><stop stop-opacity="1" stop-color="rgb(60.090637%, 75.22583%, 80.392456%)" offset="0.589844"/><stop stop-opacity="1" stop-color="rgb(60.470581%, 75.462341%, 80.580139%)" offset="0.59375"/><stop stop-opacity="1" stop-color="rgb(60.850525%, 75.697327%, 80.766296%)" offset="0.597656"/><stop stop-opacity="1" stop-color="rgb(61.231995%, 75.933838%, 80.953979%)" offset="0.601562"/><stop stop-opacity="1" stop-color="rgb(61.611938%, 76.168823%, 81.140137%)" offset="0.605469"/><stop stop-opacity="1" stop-color="rgb(61.991882%, 76.405334%, 81.32782%)" offset="0.609375"/><stop stop-opacity="1" stop-color="rgb(62.371826%, 76.64032%, 81.513977%)" offset="0.613281"/><stop stop-opacity="1" stop-color="rgb(62.75177%, 76.876831%, 81.700134%)" offset="0.617188"/><stop stop-opacity="1" stop-color="rgb(63.131714%, 77.113342%, 81.886292%)" offset="0.621094"/><stop stop-opacity="1" stop-color="rgb(63.511658%, 77.349854%, 82.073975%)" offset="0.625"/><stop stop-opacity="1" stop-color="rgb(63.891602%, 77.584839%, 82.260132%)" offset="0.628906"/><stop stop-opacity="1" stop-color="rgb(64.271545%, 77.82135%, 82.447815%)" offset="0.632812"/><stop stop-opacity="1" stop-color="rgb(64.651489%, 78.056335%, 82.633972%)" offset="0.636719"/><stop stop-opacity="1" stop-color="rgb(65.031433%, 78.292847%, 82.821655%)" offset="0.640625"/><stop stop-opacity="1" stop-color="rgb(65.411377%, 78.527832%, 83.007812%)" offset="0.644531"/><stop stop-opacity="1" stop-color="rgb(65.792847%, 78.764343%, 83.19397%)" offset="0.648438"/><stop stop-opacity="1" stop-color="rgb(66.172791%, 79.000854%, 83.380127%)" offset="0.652344"/><stop stop-opacity="1" stop-color="rgb(66.552734%, 79.237366%, 83.56781%)" offset="0.65625"/><stop stop-opacity="1" stop-color="rgb(66.932678%, 79.472351%, 83.753967%)" offset="0.660156"/><stop stop-opacity="1" stop-color="rgb(67.312622%, 79.708862%, 83.94165%)" offset="0.664062"/><stop stop-opacity="1" stop-color="rgb(67.692566%, 79.943848%, 84.127808%)" offset="0.667969"/><stop stop-opacity="1" stop-color="rgb(68.07251%, 80.180359%, 84.315491%)" offset="0.671875"/><stop stop-opacity="1" stop-color="rgb(68.452454%, 80.415344%, 84.501648%)" offset="0.675781"/><stop stop-opacity="1" stop-color="rgb(68.832397%, 80.651855%, 84.687805%)" offset="0.679688"/><stop stop-opacity="1" stop-color="rgb(69.212341%, 80.888367%, 84.873962%)" offset="0.683594"/><stop stop-opacity="1" stop-color="rgb(69.592285%, 81.124878%, 85.061646%)" offset="0.6875"/><stop stop-opacity="1" stop-color="rgb(69.972229%, 81.359863%, 85.247803%)" offset="0.691406"/><stop stop-opacity="1" stop-color="rgb(70.353699%, 81.596375%, 85.435486%)" offset="0.695312"/><stop stop-opacity="1" stop-color="rgb(70.733643%, 81.83136%, 85.621643%)" offset="0.699219"/><stop stop-opacity="1" stop-color="rgb(71.113586%, 82.067871%, 85.809326%)" offset="0.703125"/><stop stop-opacity="1" stop-color="rgb(71.49353%, 82.302856%, 85.995483%)" offset="0.707031"/><stop stop-opacity="1" stop-color="rgb(71.873474%, 82.539368%, 86.181641%)" offset="0.710938"/><stop stop-opacity="1" stop-color="rgb(72.253418%, 82.775879%, 86.367798%)" offset="0.714844"/><stop stop-opacity="1" stop-color="rgb(72.633362%, 83.01239%, 86.555481%)" offset="0.71875"/><stop stop-opacity="1" stop-color="rgb(73.013306%, 83.247375%, 86.741638%)" offset="0.722656"/><stop stop-opacity="1" stop-color="rgb(73.39325%, 83.483887%, 86.929321%)" offset="0.726562"/><stop stop-opacity="1" stop-color="rgb(73.773193%, 83.718872%, 87.115479%)" offset="0.730469"/><stop stop-opacity="1" stop-color="rgb(74.154663%, 83.955383%, 87.301636%)" offset="0.734375"/><stop stop-opacity="1" stop-color="rgb(74.534607%, 84.190369%, 87.487793%)" offset="0.738281"/><stop stop-opacity="1" stop-color="rgb(74.914551%, 84.42688%, 87.675476%)" offset="0.742188"/><stop stop-opacity="1" stop-color="rgb(75.294495%, 84.663391%, 87.861633%)" offset="0.746094"/><stop stop-opacity="1" stop-color="rgb(75.674438%, 84.899902%, 88.049316%)" offset="0.75"/><stop stop-opacity="1" stop-color="rgb(76.054382%, 85.134888%, 88.235474%)" offset="0.753906"/><stop stop-opacity="1" stop-color="rgb(76.434326%, 85.371399%, 88.423157%)" offset="0.757812"/><stop stop-opacity="1" stop-color="rgb(76.81427%, 85.606384%, 88.609314%)" offset="0.761719"/><stop stop-opacity="1" stop-color="rgb(77.194214%, 85.842896%, 88.795471%)" offset="0.765625"/><stop stop-opacity="1" stop-color="rgb(77.574158%, 86.077881%, 88.981628%)" offset="0.769531"/><stop stop-opacity="1" stop-color="rgb(77.954102%, 86.314392%, 89.169312%)" offset="0.773438"/><stop stop-opacity="1" stop-color="rgb(78.334045%, 86.550903%, 89.355469%)" offset="0.777344"/><stop stop-opacity="1" stop-color="rgb(78.715515%, 86.787415%, 89.543152%)" offset="0.78125"/><stop stop-opacity="1" stop-color="rgb(79.095459%, 87.0224%, 89.729309%)" offset="0.785156"/><stop stop-opacity="1" stop-color="rgb(79.475403%, 87.258911%, 89.916992%)" offset="0.789062"/><stop stop-opacity="1" stop-color="rgb(79.855347%, 87.493896%, 90.103149%)" offset="0.792969"/><stop stop-opacity="1" stop-color="rgb(80.235291%, 87.730408%, 90.289307%)" offset="0.796875"/><stop stop-opacity="1" stop-color="rgb(80.615234%, 87.965393%, 90.475464%)" offset="0.800781"/><stop stop-opacity="1" stop-color="rgb(80.995178%, 88.201904%, 90.663147%)" offset="0.804688"/><stop stop-opacity="1" stop-color="rgb(81.375122%, 88.438416%, 90.849304%)" offset="0.808594"/><stop stop-opacity="1" stop-color="rgb(81.755066%, 88.674927%, 91.036987%)" offset="0.8125"/><stop stop-opacity="1" stop-color="rgb(82.13501%, 88.909912%, 91.223145%)" offset="0.816406"/><stop stop-opacity="1" stop-color="rgb(82.514954%, 89.146423%, 91.410828%)" offset="0.820312"/><stop stop-opacity="1" stop-color="rgb(82.894897%, 89.381409%, 91.596985%)" offset="0.824219"/><stop stop-opacity="1" stop-color="rgb(83.276367%, 89.61792%, 91.783142%)" offset="0.828125"/><stop stop-opacity="1" stop-color="rgb(83.656311%, 89.852905%, 91.969299%)" offset="0.832031"/><stop stop-opacity="1" stop-color="rgb(84.036255%, 90.089417%, 92.156982%)" offset="0.835938"/><stop stop-opacity="1" stop-color="rgb(84.416199%, 90.325928%, 92.34314%)" offset="0.839844"/><stop stop-opacity="1" stop-color="rgb(84.796143%, 90.562439%, 92.530823%)" offset="0.84375"/><stop stop-opacity="1" stop-color="rgb(85.176086%, 90.797424%, 92.71698%)" offset="0.847656"/><stop stop-opacity="1" stop-color="rgb(85.55603%, 91.033936%, 92.904663%)" offset="0.851563"/><stop stop-opacity="1" stop-color="rgb(85.935974%, 91.268921%, 93.09082%)" offset="0.855469"/><stop stop-opacity="1" stop-color="rgb(86.315918%, 91.505432%, 93.276978%)" offset="0.859375"/><stop stop-opacity="1" stop-color="rgb(86.695862%, 91.740417%, 93.463135%)" offset="0.863281"/><stop stop-opacity="1" stop-color="rgb(87.077332%, 91.976929%, 93.650818%)" offset="0.867188"/><stop stop-opacity="1" stop-color="rgb(87.457275%, 92.21344%, 93.836975%)" offset="0.871094"/><stop stop-opacity="1" stop-color="rgb(87.837219%, 92.449951%, 94.024658%)" offset="0.875"/><stop stop-opacity="1" stop-color="rgb(88.217163%, 92.684937%, 94.210815%)" offset="0.878906"/><stop stop-opacity="1" stop-color="rgb(88.597107%, 92.921448%, 94.396973%)" offset="0.882813"/><stop stop-opacity="1" stop-color="rgb(88.977051%, 93.156433%, 94.58313%)" offset="0.886719"/><stop stop-opacity="1" stop-color="rgb(89.356995%, 93.392944%, 94.770813%)" offset="0.890625"/><stop stop-opacity="1" stop-color="rgb(89.736938%, 93.62793%, 94.95697%)" offset="0.894531"/><stop stop-opacity="1" stop-color="rgb(90.116882%, 93.864441%, 95.144653%)" offset="0.898438"/><stop stop-opacity="1" stop-color="rgb(90.496826%, 94.100952%, 95.330811%)" offset="0.902344"/><stop stop-opacity="1" stop-color="rgb(90.87677%, 94.337463%, 95.518494%)" offset="0.90625"/><stop stop-opacity="1" stop-color="rgb(91.256714%, 94.572449%, 95.704651%)" offset="0.910156"/><stop stop-opacity="1" stop-color="rgb(91.638184%, 94.80896%, 95.890808%)" offset="0.914063"/><stop stop-opacity="1" stop-color="rgb(92.018127%, 95.043945%, 96.076965%)" offset="0.917969"/><stop stop-opacity="1" stop-color="rgb(92.398071%, 95.280457%, 96.264648%)" offset="0.921875"/><stop stop-opacity="1" stop-color="rgb(92.778015%, 95.515442%, 96.450806%)" offset="0.925781"/><stop stop-opacity="1" stop-color="rgb(93.157959%, 95.751953%, 96.638489%)" offset="0.929688"/><stop stop-opacity="1" stop-color="rgb(93.537903%, 95.988464%, 96.824646%)" offset="0.933594"/><stop stop-opacity="1" stop-color="rgb(93.917847%, 96.224976%, 97.012329%)" offset="0.9375"/><stop stop-opacity="1" stop-color="rgb(94.297791%, 96.459961%, 97.198486%)" offset="0.941406"/><stop stop-opacity="1" stop-color="rgb(94.677734%, 96.696472%, 97.384644%)" offset="0.945313"/><stop stop-opacity="1" stop-color="rgb(95.057678%, 96.931458%, 97.570801%)" offset="0.949219"/><stop stop-opacity="1" stop-color="rgb(95.437622%, 97.167969%, 97.758484%)" offset="0.953125"/><stop stop-opacity="1" stop-color="rgb(95.817566%, 97.402954%, 97.944641%)" offset="0.957031"/><stop stop-opacity="1" stop-color="rgb(96.199036%, 97.639465%, 98.132324%)" offset="0.960938"/><stop stop-opacity="1" stop-color="rgb(96.578979%, 97.875977%, 98.318481%)" offset="0.964844"/><stop stop-opacity="1" stop-color="rgb(96.958923%, 98.112488%, 98.506165%)" offset="0.96875"/><stop stop-opacity="1" stop-color="rgb(97.338867%, 98.347473%, 98.692322%)" offset="0.972656"/><stop stop-opacity="1" stop-color="rgb(97.718811%, 98.583984%, 98.878479%)" offset="0.976563"/><stop stop-opacity="1" stop-color="rgb(98.098755%, 98.81897%, 99.064636%)" offset="0.980469"/><stop stop-opacity="1" stop-color="rgb(98.478699%, 99.055481%, 99.252319%)" offset="0.984375"/><stop stop-opacity="1" stop-color="rgb(98.858643%, 99.290466%, 99.438477%)" offset="0.988281"/><stop stop-opacity="1" stop-color="rgb(99.238586%, 99.526978%, 99.62616%)" offset="0.992188"/><stop stop-opacity="1" stop-color="rgb(99.61853%, 99.761963%, 99.812317%)" offset="0.996094"/><stop stop-opacity="1" stop-color="rgb(99.998474%, 99.998474%, 99.998474%)" offset="1"/></linearGradient><clipPath id="df44e247c6"><path d="M 0 75.332031 L 280.503906 75.332031 L 280.503906 272 L 0 272 Z M 0 75.332031 " clip-rule="nonzero"/></clipPath></defs><g clip-path="url(#339769b35f)"><path fill="#ffffff" d="M 0 0.804688 L 280.503906 0.804688 L 280.503906 605.195312 L 0 605.195312 Z M 0 0.804688 " fill-opacity="1" fill-rule="nonzero"/><path fill="url(#db43d94285)" d="M 0 0.804688 L 0 605.195312 L 280.503906 605.195312 L 280.503906 0.804688 Z M 0 0.804688 " fill-rule="nonzero"/></g><g clip-path="url(#df44e247c6)"><path fill="#ffffff" d="M 279.984375 234.785156 C 279.699219 231.460938 280.472656 228.136719 279.9375 224.824219 C 277.882812 223.421875 274.441406 223.035156 273.371094 220.71875 C 272.957031 217.273438 273.289062 180.835938 273.230469 179.890625 C 273.171875 178.945312 272.839844 178.476562 271.722656 177.308594 C 271.179688 176.75 267.472656 173.175781 267.472656 173.175781 C 267.472656 173.175781 267.730469 172.722656 268.621094 167.34375 C 269.03125 164.867188 268.765625 165.542969 265.460938 162.730469 C 263.359375 160.941406 260.550781 159.738281 259.671875 156.988281 C 257.515625 149.234375 256.683594 141.316406 255.617188 133.351562 C 257.5 133.773438 264.800781 125.914062 260.984375 126.003906 C 257.65625 128.21875 252.542969 128.816406 250.214844 124.851562 C 247.890625 120.761719 248.730469 115.632812 250.753906 111.570312 C 251.035156 110.714844 252.363281 109.957031 251.871094 109.015625 C 248.316406 107.789062 244.769531 112.378906 243.976562 115.605469 C 242.25 121.40625 243.402344 127.996094 248.207031 131.988281 C 250.15625 132.925781 250.089844 133.839844 249.746094 135.753906 C 248.476562 142.394531 246.871094 148.976562 245.691406 155.644531 C 245.601562 156.109375 245.496094 156.644531 246.050781 156.949219 C 246.410156 157.140625 246.683594 156.796875 246.945312 155.839844 C 248.191406 150.195312 250.789062 136.203125 251.050781 134.742188 C 251.242188 133.648438 251.566406 132.972656 252.230469 133.757812 C 252.742188 140.246094 252.515625 146.8125 252.617188 153.328125 C 252.632812 154.289062 252.503906 155.023438 251.371094 155.203125 C 249.582031 155.925781 248.023438 157.378906 245.933594 157.269531 C 245.777344 157.257812 245.519531 157.386719 245.464844 157.511719 C 245.207031 158.109375 244.636719 158.238281 244.132812 158.414062 C 241.085938 159.46875 238.421875 161.300781 235.488281 162.574219 C 233.191406 163.617188 235.679688 169.671875 235.21875 172.058594 C 235.023438 173.488281 231.460938 175.421875 230.285156 176.214844 C 230.121094 179.339844 230.019531 182.707031 230.183594 185.941406 C 229.625 197.222656 230.425781 208.46875 230.496094 219.738281 C 230.210938 221.898438 225.296875 221.070312 225.675781 223.390625 C 225.492188 226.335938 225.207031 229.285156 225.160156 232.226562 C 224.675781 233.707031 225.894531 234.753906 226.902344 235.59375 C 227.496094 236.050781 227.648438 236.621094 227.679688 237.363281 C 227.957031 243.175781 227.128906 260.554688 227.320312 265.671875 C 227.398438 267.910156 227.558594 267.515625 225.378906 267.753906 C 219.855469 267.519531 215.632812 268.03125 208.792969 267.867188 C 207.683594 267.839844 207.558594 267.605469 207.546875 266.480469 C 207.542969 254.894531 207.488281 242.660156 207.699219 231.140625 C 209.421875 230.988281 212.710938 231.320312 214.488281 231.167969 C 215.136719 231.113281 215.628906 230.574219 215.636719 229.925781 C 215.757812 220.402344 217.160156 221.332031 208.882812 221.5 C 211.808594 218.246094 214.125 214.128906 215.164062 209.664062 C 221.144531 185.746094 209.824219 167.890625 189.488281 155.753906 C 184.5625 153.058594 179.457031 150.765625 174.300781 148.707031 C 166.253906 145.265625 158.742188 139.667969 153.46875 132.667969 C 150.289062 128.636719 148.160156 123.722656 146.976562 118.738281 C 146.269531 116.574219 152.171875 118.570312 158.0625 112.25 C 160.148438 110.007812 162 107.765625 162.890625 104.9375 C 163.15625 104.097656 161.207031 105.019531 160.625 105.257812 C 150.007812 109.53125 133.625 108.355469 136.480469 91.871094 C 138.050781 84.359375 140.429688 80.480469 146.09375 76.707031 C 146.585938 76.375 146.378906 75.609375 145.785156 75.578125 C 141.835938 75.351562 132.292969 75.914062 126.667969 85.441406 C 121.820312 93.636719 122.769531 113.03125 142.359375 117.445312 C 144.054688 117.832031 141.097656 121.847656 140.851562 123.179688 C 137.546875 130.613281 131.632812 142.679688 105.699219 154.398438 C 97.242188 158.222656 88.90625 162.632812 82.539062 169.304688 C 72.3125 180.03125 65.082031 202.230469 79.300781 221.59375 C 80.40625 223.101562 74.5625 220.816406 74.164062 223.023438 C 74.222656 225.09375 74.019531 226.46875 74.320312 229.058594 C 74.4375 230.109375 75.289062 230.933594 76.351562 230.996094 C 78.816406 231.148438 81.785156 231.199219 81.785156 231.199219 C 81.234375 242.636719 81.636719 267.710938 81.6875 268.4375 C 81.015625 268.433594 65.039062 268.382812 58.558594 268.28125 C 57.46875 268.261719 57.417969 268.003906 57.40625 266.933594 C 57.308594 257.789062 57.042969 248.757812 57.261719 239.703125 C 57.273438 239.105469 57.429688 238.636719 57.867188 238.226562 C 58.640625 237.28125 60.40625 236.4375 59.953125 235.011719 C 59.269531 231.710938 59.632812 228.253906 59.289062 224.890625 C 59.347656 222.316406 56.398438 222.160156 54.589844 221.253906 C 53.085938 219.929688 53.117188 174.796875 52.632812 174.628906 C 51.304688 173.855469 49.035156 173.246094 48.871094 171.515625 C 48.523438 169.90625 49.460938 161.761719 48.203125 160.9375 C 45.234375 158.648438 41.746094 155.777344 38.695312 153.597656 C 37.109375 152.597656 33.042969 136.355469 31.402344 130.027344 C 34.085938 129.289062 38.617188 124.128906 36.015625 124.484375 C 24.929688 125.984375 22.59375 114.128906 30.707031 108.65625 C 24.34375 106.84375 19.398438 113.21875 18.929688 118.195312 C 18.5 122.796875 20.738281 126.652344 24.730469 128.691406 C 25.433594 129.03125 26.460938 128.976562 26.796875 129.75 C 25.839844 136.75 23.226562 152.195312 22.777344 152.570312 C 22.019531 153.199219 10.40625 158.660156 10.355469 161.574219 C 10.359375 163.558594 9.882812 172.328125 9.992188 172.828125 C 8.875 173.804688 7.5 174.59375 6.394531 175.5625 C 5.917969 175.933594 5.800781 176.449219 5.816406 177.015625 C 5.839844 177.960938 5.417969 218.589844 5.21875 220.523438 C 5.117188 221.546875 4.8125 222.300781 4.089844 222.40625 C 2.65625 223.007812 -0.0195312 223.601562 0.09375 225.578125 C 0.621094 234.992188 0.375 236.808594 1.476562 238.089844 C 2.328125 238.699219 2.703125 239.570312 2.703125 240.640625 C 2.953125 248.574219 2.953125 266.210938 3.128906 270.453125 C 3.179688 271.785156 4.507812 270.734375 4.496094 270.398438 C 4.410156 266.699219 4.039062 248.578125 4.046875 240.753906 C 3.742188 239.050781 6.101562 238.320312 7.351562 237.585938 C 13.828125 235.683594 27.234375 231.433594 30.195312 230.230469 C 30.542969 242.316406 30.867188 267.9375 31.15625 269.714844 C 31.253906 270.3125 32.039062 269.84375 32.03125 269.28125 C 31.972656 262.515625 31.679688 239.765625 31.519531 231.765625 C 31.191406 229.425781 32.984375 230.1875 34.554688 230.804688 C 39.15625 232.539062 53.742188 237.429688 54.871094 238.019531 C 55.726562 238.476562 56.105469 238.925781 56.222656 239.558594 C 56.515625 241.109375 56.320312 261.582031 56.378906 267.191406 C 56.402344 269.480469 56.371094 269.09375 57.828125 269.140625 C 65.058594 269.382812 82.625 269.375 82.625 269.21875 C 82.308594 257.027344 82.335938 244.972656 82.820312 232.773438 C 82.863281 230.75 83.050781 231.027344 84.695312 230.96875 C 86.484375 230.964844 166.160156 231.140625 204.25 231.136719 C 204.949219 231.242188 206.410156 231.21875 206.410156 232.316406 C 206.488281 236.199219 206.445312 260.210938 206.265625 268.335938 C 206.242188 268.867188 206.847656 269.480469 207.339844 269.316406 C 213.410156 269.613281 224.78125 269.160156 227.191406 269.058594 C 228.722656 268.992188 229.015625 268.558594 228.941406 267.296875 C 228.863281 265.902344 228.921875 245.046875 229.234375 236.261719 C 229.234375 236.261719 243.273438 229.949219 250.316406 227.070312 C 250.980469 226.886719 251.960938 226.03125 251.960938 227.394531 C 251.960938 232.363281 251.960938 257.421875 251.816406 268.539062 C 251.8125 268.996094 252.71875 268.875 252.742188 268.351562 C 253.105469 260.714844 253.105469 237.585938 253.097656 227.378906 C 253.097656 227.101562 252.957031 226.761719 253.472656 226.511719 C 261.257812 230.550781 268.976562 235.03125 276.480469 239.515625 C 277.191406 249.289062 276.140625 259.609375 276.753906 269.558594 C 276.675781 271.648438 278.300781 270.835938 278.128906 269.273438 C 277.84375 259.90625 277.816406 250.542969 278.078125 241.175781 C 277.765625 238.671875 280.234375 237.230469 279.984375 234.785156 Z M 31.527344 135.316406 C 32.585938 140.972656 34.910156 146.128906 36.089844 151.761719 C 34.21875 150.371094 31.414062 150.074219 30.503906 148.136719 C 30.425781 142.191406 29.859375 136.238281 30.007812 130.324219 C 31.125 131.457031 30.898438 133.785156 31.527344 135.316406 Z M 22.683594 125.867188 C 17.304688 121.015625 21.101562 110.476562 27.789062 109.40625 C 21.652344 116.46875 24.554688 126.105469 34.53125 126.195312 C 32.332031 129.675781 25.660156 129.003906 22.683594 125.867188 Z M 24.605469 148.417969 C 25.671875 142.261719 26.769531 136.121094 28.179688 130.03125 C 28.289062 130.03125 28.398438 130.027344 28.507812 130.027344 C 28.976562 136.015625 29.261719 142.007812 29.496094 148.011719 C 29.089844 149.800781 26.402344 150.175781 25.078125 151.28125 C 23.75 151.621094 24.644531 149.167969 24.605469 148.417969 Z M 11.605469 163.210938 C 11.742188 162.125 12.023438 161.164062 12.578125 160.46875 C 17.300781 157.03125 22.40625 154.21875 27.460938 151.269531 C 29.957031 149.800781 29.953125 149.796875 32.433594 151.117188 C 34.71875 152.335938 44.453125 159.066406 45.800781 160.042969 C 47.15625 161.035156 47.699219 161.867188 47.855469 163.941406 C 47.964844 165.398438 47.882812 167.460938 47.765625 170.628906 C 47.78125 171.804688 46.65625 170.90625 46.1875 170.523438 C 42.253906 167.453125 38.101562 164.710938 33.8125 162.167969 C 30.136719 159.984375 29.09375 159.792969 25.597656 162.457031 C 21.949219 165.117188 11.996094 171.664062 11.433594 171.714844 C 11.398438 171.328125 11.320312 165.488281 11.605469 163.210938 Z M 6.292969 219.332031 C 6.296875 218.953125 6.304688 191.019531 7.195312 177.484375 C 7.851562 175.640625 23.675781 165.824219 27.039062 163.113281 C 27.722656 162.613281 28.398438 162.078125 29.324219 161.996094 C 29.5 177.667969 30.152344 212.375 30.152344 212.375 C 29.226562 212.972656 27.816406 213.496094 27.835938 212.730469 C 27.898438 210.453125 27.6875 194.417969 27.765625 187.101562 C 27.4375 185.480469 21.445312 180.933594 19.5 179.269531 C 18.015625 177.992188 17.699219 177.878906 16.074219 180.183594 C 15.09375 181.578125 8.238281 191.46875 8.210938 193.546875 C 8.457031 202.734375 8.402344 210.496094 8.191406 219.664062 C 8.164062 220.464844 7.601562 220.945312 6.734375 220.949219 C 6.089844 220.8125 6.34375 219.839844 6.292969 219.332031 Z M 26.898438 212.007812 C 26.898438 213.265625 26.796875 213.339844 25.699219 213.746094 C 20.570312 215.664062 15.421875 217.523438 10.359375 219.601562 C 9.816406 219.988281 9.316406 219.761719 9.300781 218.488281 C 9.265625 213.925781 9.234375 196.070312 9.375 194.164062 C 9.597656 191.171875 16.386719 181.9375 16.90625 181.191406 C 17.929688 179.734375 18.3125 179.765625 19.234375 180.652344 C 20.207031 181.585938 26.871094 186.261719 26.890625 187.835938 C 26.953125 192.503906 26.84375 209.476562 26.898438 212.007812 Z M 29.394531 229.035156 C 20.246094 232.347656 12.648438 234.40625 3.628906 238.027344 C 2.039062 237.417969 1.402344 236.757812 3.230469 236.058594 C 7.222656 234.53125 26.800781 227.722656 29.082031 227 C 30.542969 226.542969 31.210938 228.644531 29.394531 229.035156 Z M 30.515625 224.277344 C 30.425781 225.207031 30.074219 225.910156 29.15625 226.023438 C 20.476562 228.488281 12.378906 231.414062 3.375 235.03125 C 2.582031 235.351562 1.707031 234.796875 1.667969 233.9375 C 1.589844 232.144531 1.585938 230.136719 1.574219 228.59375 C 1.546875 224.652344 1.652344 224.574219 3.121094 223.992188 C 13.101562 220.019531 20.703125 216.96875 29.648438 213.917969 C 30.0625 213.890625 30.25 214.339844 30.320312 214.988281 C 30.472656 216.367188 30.671875 222.722656 30.515625 224.277344 Z M 31.128906 212.070312 C 31.132812 209.855469 30.347656 164.960938 30.425781 162.757812 C 30.453125 162.046875 30.917969 161.746094 31.507812 162.195312 C 36.820312 165.300781 41.910156 168.785156 46.820312 172.503906 C 48.402344 174.207031 51.871094 174.574219 51.8125 177.332031 C 51.585938 191.699219 52.082031 206.320312 52.636719 220.519531 C 51.261719 220.273438 50.714844 219.816406 50.503906 219.148438 C 50.269531 218.410156 50.238281 195.726562 50.074219 190.675781 C 50.058594 190.363281 49.929688 189.496094 49.769531 189.230469 C 46.34375 183.566406 44.609375 180.695312 43.351562 178.828125 C 42.300781 177.265625 41.4375 177.363281 39.15625 180.027344 C 38.066406 181.304688 32.804688 186.59375 32.566406 189.726562 C 32.355469 192.507812 32.695312 212.707031 32.539062 212.71875 C 32.003906 212.742188 31.128906 212.519531 31.128906 212.070312 Z M 49.5 219.148438 C 45.046875 218.429688 41.101562 215.914062 36.75 214.679688 C 35.832031 214.34375 34.585938 213.730469 33.648438 213.429688 C 33.269531 213.3125 33.332031 192.957031 33.5 190.132812 C 33.566406 188.964844 35.695312 185.023438 40.96875 179.683594 C 41.394531 179.316406 42.007812 178.347656 42.507812 179.1875 C 44.886719 183.175781 49.46875 189.238281 49.332031 190.9375 C 49.511719 197.863281 49.554688 214.890625 49.5 219.148438 Z M 31.710938 224.253906 C 31.679688 223.554688 31.230469 217.191406 31.519531 215.3125 C 31.609375 214.6875 31.8125 214.292969 32.1875 214.320312 C 40.351562 217.550781 48.648438 220.410156 56.917969 223.421875 C 57.535156 223.621094 57.875 224.472656 58.066406 225.585938 C 58.433594 227.710938 58.667969 233.710938 58.636719 234.410156 C 58.609375 234.933594 58.351562 235.210938 57.488281 234.800781 C 53.070312 233.269531 36.703125 227.578125 32.960938 226.191406 C 31.984375 225.875 31.753906 225.113281 31.710938 224.253906 Z M 50.585938 235.320312 C 44.703125 233.320312 38.847656 231.226562 32.996094 229.136719 C 32.148438 228.996094 31.453125 228.019531 32.5 227.570312 C 40.953125 230.1875 49.160156 233.515625 57.597656 236.199219 C 59.359375 238.679688 51.472656 235.488281 50.585938 235.320312 Z M 131.585938 110.914062 C 125.996094 106.070312 124.464844 98.8125 125.5 91.445312 C 126.804688 82.175781 136.796875 76.359375 145.570312 76.359375 C 138.230469 80.316406 134.316406 90.332031 134.816406 96.15625 C 135.890625 108.683594 150.074219 110.402344 160.617188 106.433594 C 158.589844 113.472656 145.460938 122.925781 131.585938 110.914062 Z M 79.378906 219.40625 C 64.816406 196.601562 77.589844 174.011719 87.292969 166.738281 C 96.820312 159.589844 103.320312 157.859375 110.550781 153.789062 C 122.8125 146.878906 133.824219 140.945312 139.523438 128.894531 C 152.277344 100.273438 134.191406 134.308594 176.617188 151.011719 C 192.855469 157.140625 209.160156 168.40625 214.117188 185.5625 C 217.578125 197.542969 214.667969 211.621094 209.5 219.019531 C 207.015625 222.578125 207.269531 222.121094 201.335938 221.996094 C 170.804688 221.34375 92.167969 222.101562 86.34375 221.890625 C 82.523438 221.75 81.675781 223.003906 79.378906 219.40625 Z M 75.976562 229.789062 C 74.839844 229.417969 75.058594 226.925781 75.175781 224.996094 C 75.238281 223.933594 76.121094 223.105469 77.183594 223.109375 C 93.058594 223.152344 197.804688 223.066406 210.933594 222.804688 C 215.09375 222.726562 214.792969 222.480469 214.839844 224.882812 C 214.933594 229.027344 214.621094 229.839844 213.027344 229.867188 C 192.566406 230.699219 102.09375 230.230469 75.976562 229.789062 Z M 271.453125 178.65625 C 272 179.242188 272.070312 180 272.054688 180.78125 C 272.03125 181.4375 272.011719 213.730469 271.871094 220.3125 C 271.664062 220.378906 271.488281 220.234375 271.476562 220.054688 C 271.019531 216.800781 271.070312 195.632812 271 194.226562 C 270.859375 191.261719 266.007812 182.785156 265.140625 181.648438 C 264.460938 180.769531 263.683594 180.210938 262.789062 180.695312 C 260.023438 182.191406 257.59375 184.214844 255.042969 186.035156 C 254.632812 186.371094 254.445312 187.46875 254.355469 188.800781 C 254.214844 190.90625 253.96875 205.292969 254.101562 210.222656 C 253.878906 212.453125 252.6875 210.6875 252.6875 210.6875 C 252.6875 205.617188 252.921875 176.097656 252.703125 166.582031 C 252.691406 165.929688 252.367188 164.15625 253.507812 164.914062 C 254.167969 165.296875 266.746094 173.691406 271.453125 178.65625 Z M 270.019531 218.542969 C 270.019531 219.015625 269.765625 219.21875 269.324219 219.089844 C 264.882812 217.160156 260.628906 214.777344 256.261719 212.675781 C 255.75 212.21875 255.246094 211.46875 255.21875 210.484375 C 255.054688 205.511719 255.539062 191.714844 255.765625 188.8125 C 255.941406 186.597656 258.101562 185.433594 262.957031 182.269531 C 263.320312 181.949219 263.835938 182.300781 264.417969 183.027344 C 266.027344 185.015625 269.742188 193 269.824219 194.222656 C 270.03125 197.292969 270.09375 213.554688 270.019531 218.542969 Z M 255.886719 144.578125 C 256.5 148.515625 257.476562 152.410156 258.179688 156.332031 C 257.835938 157.183594 255.09375 154.40625 254.359375 154.109375 C 253.925781 153.796875 253.8125 153.324219 253.8125 152.800781 C 253.945312 146.296875 253.371094 140.105469 253.835938 133.570312 C 255.382812 137.121094 255.074219 140.851562 255.886719 144.578125 Z M 248.265625 130.359375 C 242.886719 126.234375 242.859375 113.523438 249.304688 110.785156 C 245.882812 117.960938 246.742188 130.273438 257.335938 129.011719 C 259.617188 128.480469 258.417969 129.761719 257.449219 130.613281 C 256.660156 131.257812 252.417969 133.542969 248.265625 130.359375 Z M 237.003906 163.21875 C 242.285156 160.597656 245.003906 159.1875 250.820312 156.492188 C 252.976562 155.496094 254.277344 155.589844 254.921875 156.050781 C 259.679688 159.457031 264.082031 163.179688 267.011719 165.976562 C 267.816406 166.742188 268.011719 167.230469 267.253906 170.941406 C 267.117188 171.625 266.320312 171.949219 265.746094 171.542969 C 262.136719 169.015625 254.929688 164.105469 253.234375 163.289062 C 252.234375 162.800781 251.28125 162.640625 250.382812 163.214844 C 246.46875 165.722656 241.574219 168.585938 238.160156 170.507812 C 237.5625 170.84375 236.8125 170.519531 236.640625 169.855469 C 235.175781 164.230469 235.132812 164.148438 237.003906 163.21875 Z M 231.445312 178.0625 C 231.457031 177.441406 231.785156 177.152344 232.285156 176.765625 C 234.394531 175.152344 246.332031 167.566406 251.058594 164.566406 C 251.464844 164.617188 251.546875 164.800781 251.554688 164.96875 C 251.9375 170.308594 251.855469 175.660156 251.9375 181.007812 C 251.726562 190.78125 251.992188 200.59375 251.972656 210.328125 C 251.894531 211.125 250.929688 211.957031 250.195312 211.417969 C 249.90625 208.761719 249.449219 186.859375 249.304688 186.730469 C 244.34375 182.140625 242.953125 180.398438 241.949219 179.789062 C 241.613281 179.582031 241.359375 179.578125 241.082031 179.792969 C 240.265625 180.429688 233.144531 190.980469 233.027344 193.042969 C 233.054688 198.953125 233.40625 214.910156 233.628906 218.769531 C 233.628906 218.769531 232.886719 219.335938 231.71875 219.578125 C 230.703125 205.78125 231.191406 191.875 231.445312 178.0625 Z M 248.777344 212.164062 C 246.09375 213.390625 234.402344 218.21875 234.402344 218.234375 C 234.070312 214.921875 233.796875 196.882812 234.601562 192.621094 C 234.824219 191.453125 239.785156 184.09375 240.605469 182.867188 C 241.273438 181.859375 241.726562 181.796875 242.859375 182.683594 C 243.839844 183.457031 245.335938 184.9375 247.921875 187.144531 C 248.316406 187.476562 248.519531 187.804688 248.523438 188.382812 C 248.386719 196.308594 249.097656 204.289062 248.777344 212.164062 Z M 251.472656 225.007812 C 243.980469 227.980469 235.921875 231.660156 227.953125 234.953125 C 227.214844 234.816406 226.863281 233.835938 227.613281 233.582031 C 230.871094 232.285156 245.808594 225.566406 251.460938 223.101562 C 250.953125 223.324219 251.859375 224.78125 251.472656 225.007812 Z M 276.128906 237.589844 C 272.449219 235.59375 268.851562 233.453125 265.269531 231.285156 C 261.601562 229.417969 257.996094 227.4375 254.332031 225.539062 C 253.3125 225.03125 252.902344 224.273438 253.21875 223.101562 C 261.601562 227.589844 269.832031 232.242188 278.054688 236.933594 C 277.140625 238.082031 277.117188 238.125 276.128906 237.589844 Z M 278.609375 234.792969 C 278.535156 236.660156 274.460938 233.199219 273.414062 232.9375 C 266.925781 229 260.253906 225.527344 253.710938 221.746094 C 253.066406 221.339844 252.257812 221.621094 250 222.511719 C 243.683594 225.003906 231.417969 230.515625 227.050781 232.300781 C 225.945312 232.757812 226.578125 230.601562 226.40625 229.628906 C 226.203125 227.933594 226.890625 226.0625 226.761719 224.148438 C 226.734375 222.851562 228.339844 222.761719 229.21875 222.253906 C 236.507812 218.507812 243.878906 215.015625 251.699219 212.496094 C 252.308594 212.261719 252.875 212.21875 253.449219 212.589844 C 261.480469 216.875 269.726562 220.742188 277.722656 225.082031 C 280.414062 226.308594 277.980469 232.179688 278.609375 234.792969 Z M 161.035156 235.746094 C 154.460938 235.746094 154.679688 235.292969 154.679688 237.039062 C 154.660156 247.167969 154.589844 249.589844 154.511719 257.746094 C 154.441406 264.953125 154.128906 265.277344 156.457031 265.304688 C 162.628906 265.367188 162.324219 265.871094 162.398438 263.507812 C 162.609375 256.507812 162.539062 244.132812 162.394531 237.886719 C 162.332031 235.4375 162.5625 235.746094 161.035156 235.746094 Z M 161.402344 238.902344 C 161.296875 248.78125 161.089844 252.582031 161.011719 262.828125 C 161 264.0625 161.46875 263.894531 157.699219 263.824219 C 156.214844 263.796875 155.871094 264.210938 155.867188 261.964844 C 155.859375 259.382812 155.84375 244.253906 155.78125 239.265625 C 155.753906 237.039062 155.851562 237.195312 160.328125 237.144531 C 161.320312 237.128906 161.417969 237.039062 161.402344 238.902344 Z M 255.039062 236.210938 C 256.046875 239.75 261.003906 238.015625 260.820312 234.847656 C 260.777344 229.289062 253.265625 231.40625 255.039062 236.210938 Z M 260 235.535156 C 259.574219 236.835938 258.261719 237.570312 257.070312 237.179688 C 255.875 236.789062 255.253906 235.417969 255.675781 234.121094 C 256.105469 232.820312 257.417969 232.085938 258.613281 232.476562 C 259.800781 232.867188 260.425781 234.234375 260 235.535156 Z M 262.277344 238.691406 C 262.171875 242.625 267.03125 242.726562 267.941406 239.3125 C 268.792969 234.894531 262.425781 233.234375 262.277344 238.691406 Z M 263.34375 239.570312 C 262.636719 236.472656 266.300781 234.800781 267.273438 237.964844 C 267.65625 240.113281 263.785156 242.351562 263.34375 239.570312 Z M 78.183594 188.609375 C 80.378906 172.890625 96.863281 161.023438 110.957031 156.019531 C 112.957031 156.816406 110.023438 157.753906 109.199219 158.027344 C 106.945312 158.832031 104.832031 160.003906 102.683594 161.046875 C 92.582031 167.386719 80.902344 176.027344 79.390625 188.714844 C 79.144531 190.328125 78 189.808594 78.183594 188.609375 Z M 79.597656 194.613281 C 79.445312 197.679688 78.207031 194.054688 78.1875 192.96875 C 78.164062 192.597656 78.636719 192.382812 78.941406 192.59375 C 79.589844 192.984375 79.550781 194.03125 79.597656 194.613281 Z M 178.082031 236.566406 C 171.507812 236.566406 171.726562 236.113281 171.726562 237.855469 C 171.710938 247.984375 171.636719 250.40625 171.558594 258.566406 C 171.488281 265.777344 171.175781 266.09375 173.511719 266.121094 C 179.675781 266.1875 179.371094 266.6875 179.445312 264.332031 C 179.65625 257.324219 179.589844 244.949219 179.441406 238.707031 C 179.386719 236.265625 179.609375 236.566406 178.082031 236.566406 Z M 178.449219 239.722656 C 178.34375 249.597656 178.136719 253.402344 178.058594 263.644531 C 178.050781 264.886719 178.519531 264.710938 174.746094 264.648438 C 173.261719 264.621094 172.917969 265.03125 172.914062 262.78125 C 172.910156 260.199219 172.890625 245.074219 172.835938 240.082031 C 172.808594 237.855469 172.898438 238.015625 177.375 237.960938 C 178.367188 237.953125 178.46875 237.855469 178.449219 239.722656 Z M 194.492188 236.566406 C 187.917969 236.566406 188.136719 236.113281 188.136719 237.855469 C 188.121094 247.984375 188.046875 250.40625 187.96875 258.566406 C 187.898438 265.777344 187.585938 266.09375 189.914062 266.121094 C 196.082031 266.1875 195.78125 266.6875 195.855469 264.332031 C 196.066406 257.324219 195.996094 244.949219 195.851562 238.707031 C 195.789062 236.265625 196.023438 236.566406 194.492188 236.566406 Z M 194.859375 239.722656 C 194.753906 249.597656 194.546875 253.402344 194.46875 263.644531 C 194.457031 264.886719 194.925781 264.710938 191.15625 264.648438 C 189.671875 264.621094 189.328125 265.03125 189.324219 262.78125 C 189.316406 260.199219 189.300781 245.074219 189.238281 240.082031 C 189.21875 237.855469 189.308594 238.015625 193.785156 237.960938 C 194.777344 237.953125 194.875 237.855469 194.859375 239.722656 Z M 145.261719 236.566406 C 138.6875 236.566406 138.910156 236.113281 138.90625 237.855469 C 138.886719 247.984375 138.816406 250.40625 138.738281 258.566406 C 138.671875 265.777344 138.359375 266.09375 140.6875 266.121094 C 146.851562 266.1875 146.550781 266.6875 146.621094 264.332031 C 146.839844 257.324219 146.765625 244.949219 146.621094 238.707031 C 146.5625 236.265625 146.796875 236.566406 145.261719 236.566406 Z M 145.625 239.722656 C 145.519531 249.597656 145.316406 253.402344 145.234375 263.644531 C 145.222656 264.886719 145.691406 264.710938 141.921875 264.648438 C 140.4375 264.621094 140.089844 265.03125 140.085938 262.78125 C 140.082031 260.199219 140.066406 245.074219 140.007812 240.082031 C 139.980469 237.855469 140.070312 238.015625 144.550781 237.960938 C 145.546875 237.953125 145.648438 237.855469 145.625 239.722656 Z M 128.855469 236.566406 C 122.28125 236.566406 122.5 236.113281 122.496094 237.855469 C 122.476562 247.984375 122.410156 250.40625 122.332031 258.566406 C 122.261719 265.777344 121.949219 266.09375 124.277344 266.121094 C 130.441406 266.1875 130.144531 266.6875 130.214844 264.332031 C 130.429688 257.324219 130.359375 244.949219 130.214844 238.707031 C 130.152344 236.265625 130.386719 236.566406 128.855469 236.566406 Z M 129.222656 239.722656 C 129.117188 249.597656 128.910156 253.402344 128.832031 263.644531 C 128.820312 264.886719 129.289062 264.710938 125.519531 264.648438 C 124.035156 264.621094 123.683594 265.03125 123.683594 262.78125 C 123.679688 260.199219 123.664062 245.074219 123.601562 240.082031 C 123.574219 237.855469 123.671875 238.015625 128.144531 237.960938 C 129.136719 237.953125 129.238281 237.855469 129.222656 239.722656 Z M 112.445312 236.566406 C 105.871094 236.566406 106.089844 236.113281 106.089844 237.855469 C 106.074219 247.984375 106 250.40625 105.921875 258.566406 C 105.851562 265.777344 105.539062 266.09375 107.867188 266.121094 C 114.035156 266.1875 113.734375 266.6875 113.808594 264.332031 C 114.019531 257.324219 113.949219 244.949219 113.804688 238.707031 C 113.746094 236.265625 113.980469 236.566406 112.445312 236.566406 Z M 112.8125 239.722656 C 112.707031 249.597656 112.5 253.402344 112.421875 263.644531 C 112.410156 264.886719 112.878906 264.710938 109.109375 264.648438 C 107.625 264.621094 107.28125 265.03125 107.277344 262.78125 C 107.273438 260.199219 107.253906 245.074219 107.195312 240.082031 C 107.164062 237.855469 107.261719 238.015625 111.738281 237.960938 C 112.734375 237.953125 112.835938 237.855469 112.8125 239.722656 Z M 96.035156 236.566406 C 89.460938 236.566406 89.679688 236.113281 89.679688 237.855469 C 89.664062 247.984375 89.589844 250.40625 89.511719 258.566406 C 89.441406 265.777344 89.128906 266.09375 91.464844 266.121094 C 97.628906 266.1875 97.324219 266.6875 97.398438 264.332031 C 97.609375 257.324219 97.542969 244.949219 97.394531 238.707031 C 97.339844 236.265625 97.570312 236.566406 96.035156 236.566406 Z M 96.402344 239.722656 C 96.296875 249.597656 96.089844 253.402344 96.011719 263.644531 C 96.003906 264.886719 96.472656 264.710938 92.699219 264.648438 C 91.214844 264.621094 90.871094 265.03125 90.867188 262.78125 C 90.863281 260.199219 90.84375 245.074219 90.789062 240.082031 C 90.761719 237.855469 90.851562 238.015625 95.328125 237.960938 C 96.320312 237.953125 96.425781 237.855469 96.402344 239.722656 Z M 269.5625 243.691406 C 270.574219 247.226562 275.53125 245.496094 275.347656 242.324219 C 275.300781 236.773438 267.789062 238.890625 269.5625 243.691406 Z M 274.523438 243.015625 C 274.097656 244.316406 272.789062 245.050781 271.59375 244.660156 C 270.398438 244.269531 269.78125 242.894531 270.203125 241.601562 C 270.628906 240.300781 271.945312 239.566406 273.136719 239.957031 C 274.328125 240.351562 274.953125 241.714844 274.523438 243.015625 Z M 234.96875 237.460938 C 230.726562 233.871094 227.429688 240.941406 232.230469 242.734375 C 235.570312 244.277344 237.488281 239.394531 234.96875 237.460938 Z M 234.292969 241.828125 C 233.21875 242.476562 231.769531 242.054688 231.0625 240.886719 C 230.355469 239.714844 230.652344 238.242188 231.730469 237.589844 C 232.804688 236.941406 234.246094 237.363281 234.953125 238.535156 C 235.660156 239.707031 235.363281 241.175781 234.292969 241.828125 Z M 238.835938 238.867188 C 241.75 241.511719 244.992188 237.890625 243.003906 234.976562 C 240.203125 231.453125 234.792969 235.195312 238.835938 238.867188 Z M 240.195312 238.632812 C 237.386719 237.152344 238.507812 233.277344 241.542969 234.609375 C 243.421875 235.714844 242.59375 240.113281 240.195312 238.632812 Z M 250.113281 231.335938 C 245.875 227.75 242.574219 234.820312 247.375 236.609375 C 250.714844 238.148438 252.636719 233.265625 250.113281 231.335938 Z M 249.4375 235.703125 C 248.363281 236.347656 246.917969 235.925781 246.207031 234.757812 C 245.5 233.589844 245.800781 232.113281 246.875 231.460938 C 247.949219 230.8125 249.390625 231.234375 250.101562 232.40625 C 250.808594 233.578125 250.507812 235.050781 249.4375 235.703125 Z M 33.945312 239.019531 C 35.570312 242.316406 40.136719 239.726562 39.386719 236.636719 C 38.34375 231.179688 31.339844 234.609375 33.945312 239.019531 Z M 38.703125 237.460938 C 38.519531 238.816406 37.363281 239.777344 36.117188 239.605469 C 34.871094 239.4375 34.011719 238.195312 34.195312 236.84375 C 34.378906 235.488281 35.542969 234.53125 36.789062 234.699219 C 38.027344 234.875 38.890625 236.105469 38.703125 237.460938 Z M 41.515625 240.15625 C 42.117188 244.042969 46.917969 243.265625 47.203125 239.75 C 47.238281 235.25 40.679688 234.765625 41.515625 240.15625 Z M 42.71875 240.832031 C 41.464844 237.914062 44.773438 235.609375 46.292969 238.550781 C 47.058594 240.589844 43.65625 243.488281 42.71875 240.832031 Z M 49.578125 243.769531 C 51.203125 247.066406 55.769531 244.476562 55.019531 241.386719 C 53.976562 235.929688 46.972656 239.363281 49.578125 243.769531 Z M 54.335938 242.210938 C 54.152344 243.566406 52.996094 244.527344 51.75 244.355469 C 50.503906 244.1875 49.644531 242.945312 49.828125 241.59375 C 50.011719 240.238281 51.175781 239.28125 52.421875 239.449219 C 53.660156 239.625 54.519531 240.855469 54.335938 242.210938 Z M 7.90625 244.476562 C 11.003906 246.460938 13.574219 241.882812 11.34375 239.628906 C 7.628906 235.496094 3.394531 242.046875 7.90625 244.476562 Z M 10.070312 243.863281 C 8.914062 244.359375 7.542969 243.742188 7 242.492188 C 6.460938 241.230469 6.960938 239.8125 8.113281 239.316406 C 9.265625 238.824219 10.640625 239.4375 11.175781 240.695312 C 11.71875 241.949219 11.222656 243.363281 10.070312 243.863281 Z M 14.976562 241.550781 C 17.5 244.566406 21.210938 241.429688 19.632812 238.269531 C 17.351562 234.390625 11.476562 237.359375 14.976562 241.550781 Z M 16.355469 241.503906 C 13.777344 239.652344 15.417969 235.96875 18.238281 237.703125 C 19.945312 239.054688 18.527344 243.300781 16.355469 241.503906 Z M 23.746094 240.484375 C 26.84375 242.46875 29.414062 237.890625 27.183594 235.636719 C 23.476562 231.496094 19.238281 238.054688 23.746094 240.484375 Z M 25.910156 239.867188 C 24.75 240.363281 23.382812 239.742188 22.839844 238.496094 C 22.296875 237.234375 22.800781 235.816406 23.953125 235.320312 C 25.105469 234.828125 26.480469 235.4375 27.015625 236.699219 C 27.558594 237.953125 27.0625 239.367188 25.910156 239.867188 Z M 25.910156 239.867188 " fill-opacity="1" fill-rule="nonzero"/></g></svg>