<svg xmlns="http://www.w3.org/2000/svg" xmlns:xlink="http://www.w3.org/1999/xlink" width="500" zoomAndPan="magnify" viewBox="0 0 375 374.999991" height="500" preserveAspectRatio="xMidYMid meet" version="1.0"><defs><clipPath id="eb192c373b"><path d="M 37.5 37.5 L 337.5 37.5 L 337.5 337.5 L 37.5 337.5 Z M 37.5 37.5 " clip-rule="nonzero"/></clipPath></defs><path fill="#fff" d="M 244.820312 155.355469 C 242.847656 155.234375 240.925781 155.507812 239.066406 156.179688 C 237.203125 156.847656 235.550781 157.859375 234.105469 159.214844 C 232.761719 160.535156 231.742188 162.074219 231.054688 163.828125 C 230.363281 165.582031 230.058594 167.402344 230.144531 169.285156 C 230.085938 171.117188 230.402344 172.882812 231.089844 174.582031 C 231.78125 176.277344 232.785156 177.765625 234.105469 179.035156 C 234.839844 179.683594 235.625 180.261719 236.464844 180.765625 C 237.300781 181.273438 238.179688 181.699219 239.09375 182.042969 C 240.007812 182.390625 240.945312 182.652344 241.910156 182.828125 C 242.871094 183.003906 243.84375 183.09375 244.820312 183.09375 C 245.800781 183.09375 246.769531 183.003906 247.734375 182.828125 C 248.695312 182.652344 249.632812 182.390625 250.550781 182.042969 C 251.464844 181.699219 252.339844 181.273438 253.179688 180.765625 C 254.015625 180.261719 254.800781 179.683594 255.535156 179.035156 C 256.871094 177.769531 257.890625 176.289062 258.601562 174.589844 C 259.308594 172.894531 259.644531 171.125 259.605469 169.285156 C 259.683594 167.414062 259.390625 165.601562 258.71875 163.851562 C 258.046875 162.101562 257.058594 160.554688 255.75 159.214844 C 254.277344 157.839844 252.589844 156.8125 250.6875 156.144531 C 248.789062 155.472656 246.832031 155.210938 244.820312 155.355469 Z M 244.820312 155.355469 " fill-opacity="1" fill-rule="nonzero"/><path fill="#fff" d="M 131.679688 155.355469 C 129.703125 155.242188 127.785156 155.515625 125.925781 156.1875 C 124.066406 156.855469 122.410156 157.867188 120.964844 159.214844 C 119.65625 160.554688 118.664062 162.101562 117.996094 163.851562 C 117.324219 165.601562 117.027344 167.414062 117.105469 169.285156 C 117.054688 171.105469 117.363281 172.863281 118.03125 174.558594 C 118.703125 176.25 119.679688 177.742188 120.964844 179.035156 C 122.40625 180.398438 124.054688 181.421875 125.917969 182.113281 C 127.777344 182.800781 129.699219 183.097656 131.679688 183 C 133.660156 183.101562 135.582031 182.808594 137.445312 182.121094 C 139.304688 181.433594 140.953125 180.402344 142.394531 179.035156 C 143.714844 177.765625 144.71875 176.277344 145.410156 174.582031 C 146.097656 172.882812 146.414062 171.117188 146.355469 169.285156 C 146.460938 167.410156 146.179688 165.59375 145.507812 163.835938 C 144.832031 162.082031 143.832031 160.539062 142.5 159.214844 C 141.042969 157.847656 139.375 156.828125 137.492188 156.15625 C 135.609375 155.484375 133.671875 155.21875 131.679688 155.355469 Z M 131.679688 155.355469 " fill-opacity="1" fill-rule="nonzero"/><g clip-path="url(#eb192c373b)"><path fill="#fff" d="M 308.355469 37.5 L 66.644531 37.5 C 65.6875 37.5 64.734375 37.546875 63.785156 37.640625 C 62.835938 37.734375 61.894531 37.875 60.957031 38.058594 C 60.019531 38.246094 59.097656 38.476562 58.183594 38.753906 C 57.269531 39.03125 56.371094 39.351562 55.492188 39.71875 C 54.609375 40.082031 53.746094 40.492188 52.90625 40.941406 C 52.0625 41.390625 51.246094 41.882812 50.453125 42.410156 C 49.660156 42.941406 48.894531 43.507812 48.15625 44.113281 C 47.417969 44.71875 46.710938 45.359375 46.035156 46.035156 C 45.359375 46.710938 44.71875 47.417969 44.113281 48.15625 C 43.507812 48.894531 42.941406 49.660156 42.410156 50.453125 C 41.882812 51.246094 41.390625 52.0625 40.941406 52.90625 C 40.492188 53.746094 40.082031 54.609375 39.71875 55.492188 C 39.351562 56.371094 39.03125 57.269531 38.753906 58.183594 C 38.476562 59.097656 38.246094 60.019531 38.058594 60.957031 C 37.875 61.894531 37.734375 62.835938 37.640625 63.785156 C 37.546875 64.734375 37.5 65.6875 37.5 66.644531 L 37.5 308.355469 C 37.5 309.3125 37.546875 310.265625 37.640625 311.214844 C 37.734375 312.164062 37.875 313.105469 38.058594 314.042969 C 38.246094 314.980469 38.476562 315.902344 38.753906 316.816406 C 39.03125 317.730469 39.351562 318.628906 39.71875 319.507812 C 40.082031 320.390625 40.492188 321.253906 40.941406 322.09375 C 41.390625 322.9375 41.882812 323.753906 42.410156 324.546875 C 42.941406 325.339844 43.507812 326.105469 44.113281 326.84375 C 44.71875 327.582031 45.359375 328.289062 46.035156 328.964844 C 46.710938 329.640625 47.417969 330.28125 48.15625 330.886719 C 48.894531 331.492188 49.660156 332.058594 50.453125 332.589844 C 51.246094 333.117188 52.0625 333.609375 52.90625 334.058594 C 53.746094 334.507812 54.609375 334.917969 55.492188 335.28125 C 56.371094 335.648438 57.269531 335.96875 58.183594 336.246094 C 59.097656 336.523438 60.019531 336.753906 60.957031 336.941406 C 61.894531 337.125 62.835938 337.265625 63.785156 337.359375 C 64.734375 337.453125 65.6875 337.5 66.644531 337.5 L 308.355469 337.5 C 309.3125 337.5 310.265625 337.453125 311.214844 337.359375 C 312.164062 337.265625 313.105469 337.125 314.042969 336.941406 C 314.980469 336.753906 315.902344 336.523438 316.816406 336.246094 C 317.730469 335.96875 318.628906 335.648438 319.507812 335.28125 C 320.390625 334.917969 321.253906 334.507812 322.09375 334.058594 C 322.9375 333.609375 323.753906 333.117188 324.546875 332.589844 C 325.339844 332.058594 326.105469 331.492188 326.84375 330.886719 C 327.582031 330.28125 328.289062 329.640625 328.964844 328.964844 C 329.640625 328.289062 330.28125 327.582031 330.886719 326.84375 C 331.492188 326.105469 332.058594 325.339844 332.589844 324.546875 C 333.117188 323.753906 333.609375 322.9375 334.058594 322.09375 C 334.507812 321.253906 334.917969 320.390625 335.28125 319.507812 C 335.648438 318.628906 335.96875 317.730469 336.246094 316.816406 C 336.523438 315.902344 336.753906 314.980469 336.941406 314.042969 C 337.125 313.105469 337.265625 312.164062 337.359375 311.214844 C 337.453125 310.265625 337.5 309.3125 337.5 308.355469 L 337.5 66.644531 C 337.5 65.6875 337.453125 64.734375 337.359375 63.785156 C 337.265625 62.835938 337.125 61.894531 336.941406 60.957031 C 336.753906 60.019531 336.523438 59.097656 336.246094 58.183594 C 335.96875 57.269531 335.648438 56.371094 335.28125 55.492188 C 334.917969 54.609375 334.507812 53.746094 334.058594 52.90625 C 333.609375 52.0625 333.117188 51.246094 332.589844 50.453125 C 332.058594 49.660156 331.492188 48.894531 330.886719 48.15625 C 330.28125 47.417969 329.640625 46.710938 328.964844 46.035156 C 328.289062 45.359375 327.582031 44.71875 326.84375 44.113281 C 326.105469 43.507812 325.339844 42.941406 324.546875 42.410156 C 323.753906 41.882812 322.9375 41.390625 322.09375 40.941406 C 321.253906 40.492188 320.390625 40.082031 319.507812 39.71875 C 318.628906 39.351562 317.730469 39.03125 316.816406 38.753906 C 315.902344 38.476562 314.980469 38.246094 314.042969 38.058594 C 313.105469 37.875 312.164062 37.734375 311.214844 37.640625 C 310.265625 37.546875 309.3125 37.5 308.355469 37.5 Z M 174.535156 197.25 L 139.714844 251.785156 C 139.3125 252.398438 138.785156 252.875 138.140625 253.214844 C 137.492188 253.558594 136.804688 253.726562 136.070312 253.714844 L 103.929688 253.714844 C 103.515625 253.78125 103.101562 253.785156 102.691406 253.730469 C 102.277344 253.675781 101.878906 253.5625 101.496094 253.390625 C 101.117188 253.21875 100.769531 252.996094 100.453125 252.722656 C 100.136719 252.449219 99.867188 252.136719 99.644531 251.785156 C 99.238281 251.128906 99.035156 250.414062 99.035156 249.644531 C 99.035156 248.871094 99.238281 248.15625 99.644531 247.5 L 119.894531 215.355469 C 114.804688 214.511719 109.960938 212.929688 105.355469 210.609375 C 100.753906 208.289062 96.597656 205.335938 92.894531 201.75 C 90.707031 199.625 88.761719 197.300781 87.058594 194.773438 C 85.355469 192.25 83.925781 189.578125 82.773438 186.753906 C 81.621094 183.933594 80.769531 181.027344 80.21875 178.027344 C 79.667969 175.03125 79.425781 172.011719 79.5 168.964844 C 79.425781 165.710938 79.703125 162.484375 80.328125 159.289062 C 80.953125 156.09375 81.914062 153.003906 83.210938 150.019531 C 84.503906 147.03125 86.101562 144.21875 88.007812 141.578125 C 89.910156 138.933594 92.074219 136.527344 94.5 134.355469 C 96.992188 132.078125 99.679688 130.054688 102.566406 128.292969 C 105.449219 126.535156 108.476562 125.066406 111.644531 123.890625 C 114.8125 122.714844 118.0625 121.855469 121.398438 121.308594 C 124.730469 120.761719 128.085938 120.539062 131.464844 120.644531 C 134.839844 120.53125 138.191406 120.746094 141.523438 121.285156 C 144.855469 121.824219 148.105469 122.675781 151.273438 123.839844 C 154.441406 125.007812 157.46875 126.464844 160.355469 128.214844 C 163.238281 129.96875 165.929688 131.980469 168.429688 134.25 C 170.863281 136.425781 173.035156 138.835938 174.945312 141.484375 C 176.855469 144.136719 178.457031 146.957031 179.753906 149.953125 C 181.046875 152.953125 182.003906 156.054688 182.625 159.257812 C 183.246094 162.464844 183.511719 165.699219 183.429688 168.964844 C 183.304688 174.003906 182.488281 178.925781 180.976562 183.734375 C 179.464844 188.542969 177.320312 193.046875 174.535156 197.25 Z M 287.570312 197.25 L 252.855469 251.785156 C 252.441406 252.382812 251.914062 252.851562 251.269531 253.191406 C 250.625 253.53125 249.941406 253.707031 249.214844 253.714844 L 216.535156 253.714844 C 215.75 253.722656 215.019531 253.523438 214.34375 253.117188 C 213.667969 252.714844 213.148438 252.164062 212.785156 251.464844 C 212.378906 250.808594 212.175781 250.09375 212.175781 249.320312 C 212.175781 248.550781 212.378906 247.835938 212.785156 247.179688 L 233.035156 215.035156 C 227.96875 214.175781 223.144531 212.589844 218.558594 210.269531 C 213.972656 207.949219 209.835938 205.003906 206.144531 201.429688 C 203.941406 199.316406 201.980469 196.996094 200.261719 194.476562 C 198.542969 191.953125 197.101562 189.28125 195.9375 186.457031 C 194.777344 183.636719 193.917969 180.722656 193.363281 177.722656 C 192.808594 174.722656 192.566406 171.695312 192.644531 168.644531 C 192.566406 165.382812 192.84375 162.152344 193.46875 158.953125 C 194.097656 155.753906 195.066406 152.65625 196.371094 149.667969 C 197.675781 146.679688 199.289062 143.867188 201.207031 141.230469 C 203.125 138.59375 205.308594 136.195312 207.75 134.035156 C 210.242188 131.753906 212.929688 129.734375 215.816406 127.972656 C 218.699219 126.210938 221.726562 124.746094 224.894531 123.570312 C 228.0625 122.394531 231.3125 121.53125 234.644531 120.988281 C 237.980469 120.441406 241.335938 120.21875 244.714844 120.320312 C 248.089844 120.210938 251.441406 120.425781 254.773438 120.964844 C 258.105469 121.5 261.355469 122.351562 264.523438 123.519531 C 267.691406 124.683594 270.71875 126.144531 273.605469 127.894531 C 276.488281 129.644531 279.179688 131.65625 281.679688 133.929688 C 284.113281 136.105469 286.285156 138.515625 288.195312 141.164062 C 290.105469 143.8125 291.707031 146.636719 293.003906 149.632812 C 294.296875 152.632812 295.253906 155.730469 295.875 158.9375 C 296.496094 162.144531 296.761719 165.378906 296.679688 168.644531 C 296.554688 173.746094 295.71875 178.730469 294.167969 183.597656 C 292.621094 188.460938 290.421875 193.011719 287.570312 197.25 Z M 287.570312 197.25 " fill-opacity="1" fill-rule="nonzero"/></g></svg>