<svg xmlns="http://www.w3.org/2000/svg" xmlns:xlink="http://www.w3.org/1999/xlink" width="500" zoomAndPan="magnify" viewBox="0 0 375 374.999991" height="500" preserveAspectRatio="xMidYMid meet" version="1.0"><defs><clipPath id="f7f6cce86d"><path d="M 38 71 L 337 71 L 337 304.6875 L 38 304.6875 Z M 38 71 " clip-rule="nonzero"/></clipPath></defs><g clip-path="url(#f7f6cce86d)"><path fill="#fff" d="M 336.226562 231.683594 C 334.351562 220.621094 327.21875 173.976562 326.523438 147.6875 C 326.636719 136.53125 323.976562 129.289062 318.621094 126.15625 C 314.523438 123.761719 309.199219 124.109375 304.015625 127.109375 C 300.65625 129.050781 297.910156 132.222656 295.621094 136.859375 C 295.191406 136.171875 294.761719 135.488281 294.335938 134.808594 C 292.382812 131.714844 290.429688 128.535156 288.539062 125.457031 C 284.089844 118.214844 279.492188 110.726562 274.488281 103.613281 C 273.839844 102.699219 273.175781 101.746094 272.492188 100.769531 C 266.042969 91.554688 258.738281 81.109375 253 76.753906 C 246.707031 71.976562 239.921875 70.714844 234.386719 73.300781 C 231.996094 74.417969 230.039062 76.171875 228.675781 78.320312 C 228.394531 78.1875 228.101562 78.058594 227.804688 77.9375 C 221.492188 75.398438 214.324219 75.949219 209.535156 79.34375 C 205.492188 82.210938 203.390625 86.839844 203.613281 92.402344 C 201.011719 93.78125 197.523438 96.292969 195.035156 100.59375 C 191.875 106.058594 191.132812 112.824219 192.808594 120.738281 C 190.457031 123.003906 188.757812 125.714844 187.527344 128.394531 C 186.292969 125.71875 184.589844 123.003906 182.238281 120.738281 C 183.917969 112.824219 183.171875 106.054688 180.011719 100.59375 C 177.523438 96.292969 174.035156 93.78125 171.433594 92.402344 C 171.660156 86.847656 169.558594 82.210938 165.515625 79.34375 C 160.726562 75.949219 153.554688 75.394531 147.246094 77.9375 C 146.945312 78.058594 146.65625 78.183594 146.375 78.320312 C 145.011719 76.171875 143.050781 74.417969 140.664062 73.300781 C 135.128906 70.714844 128.34375 71.972656 122.050781 76.753906 C 116.3125 81.109375 109.003906 91.554688 102.558594 100.769531 C 101.875 101.746094 101.207031 102.699219 100.5625 103.613281 C 95.554688 110.734375 90.945312 118.234375 86.492188 125.488281 C 84.605469 128.554688 82.660156 131.722656 80.714844 134.808594 C 80.285156 135.488281 79.859375 136.171875 79.429688 136.859375 C 77.140625 132.222656 74.394531 129.050781 71.035156 127.109375 C 65.847656 124.109375 60.527344 123.761719 56.429688 126.15625 C 51.070312 129.289062 48.414062 136.53125 48.527344 147.6875 C 47.832031 173.925781 40.699219 220.605469 38.824219 231.683594 C 37.699219 238.339844 38.175781 244.519531 40.285156 250.578125 C 44.496094 262.699219 61.152344 288.359375 70.710938 302.578125 L 77.902344 297.746094 C 62.273438 274.488281 51.273438 255.792969 48.472656 247.734375 C 46.855469 243.085938 46.496094 238.308594 47.371094 233.128906 C 49.269531 221.914062 56.5 174.566406 57.195312 147.835938 C 57.199219 147.78125 57.199219 147.726562 57.195312 147.671875 C 57.074219 136.683594 59.925781 134.15625 60.804688 133.640625 C 62.75 132.503906 65.804688 134.097656 66.695312 134.613281 C 69.640625 136.3125 72.179688 140.652344 74.242188 147.496094 C 80.644531 170.882812 82.09375 195.84375 80.480469 219.945312 C 93.890625 217.246094 106.832031 226.800781 115.558594 236.0625 C 108.191406 227.15625 95.832031 216.125 83.316406 216.910156 C 86.183594 194.6875 86.023438 171.300781 81.917969 149.203125 C 82.007812 149.09375 82.09375 148.980469 82.171875 148.859375 L 83.839844 146.179688 C 85.339844 143.765625 86.691406 141.59375 88.054688 139.429688 C 90.023438 136.304688 91.984375 133.109375 93.878906 130.023438 C 98.265625 122.882812 102.800781 115.5 107.65625 108.601562 C 108.304688 107.679688 108.976562 106.722656 109.664062 105.738281 C 115.140625 97.910156 122.640625 87.191406 127.296875 83.65625 C 130.941406 80.886719 134.476562 79.976562 137 81.15625 C 138.664062 81.929688 141.03125 84.578125 138.410156 96.328125 C 132.699219 121.949219 117.167969 145.136719 103.675781 167.332031 C 119.230469 146.074219 145.679688 116.597656 147.542969 88 C 147.847656 87.679688 148.960938 86.59375 150.488281 85.976562 C 154.015625 84.554688 158.136719 84.734375 160.503906 86.414062 C 162.152344 87.582031 162.894531 89.445312 162.777344 92.101562 C 162.746094 92.695312 162.585938 93.835938 162.492188 94.414062 C 162.484375 94.453125 162.488281 94.496094 162.484375 94.539062 C 162.480469 94.539062 162.476562 94.535156 162.472656 94.535156 C 157.023438 120.546875 145.578125 144.914062 133.441406 168.378906 C 146.710938 146.707031 159.34375 124.164062 166.914062 99.785156 C 170.101562 101.234375 177.285156 106.265625 173.214844 121.199219 C 173.203125 121.242188 173.199219 121.285156 173.191406 121.328125 C 168.105469 140.164062 160.878906 158.433594 152.734375 176.136719 C 161.832031 160.554688 170.183594 144.414062 176.867188 127.632812 C 181.269531 132.480469 182 140.476562 182.046875 141.03125 C 182.394531 148.832031 180.164062 166.867188 161.453125 200.339844 C 155.988281 210.109375 160.171875 217.796875 164.21875 225.234375 C 167.019531 230.382812 170.195312 236.214844 171.257812 243.980469 C 173.105469 257.484375 165.914062 280.394531 153.761719 299.695312 L 161.097656 304.3125 C 174.449219 283.109375 181.980469 258.390625 179.847656 242.804688 C 178.566406 233.46875 174.832031 226.605469 171.832031 221.089844 C 167.710938 213.515625 166.015625 209.941406 169.019531 204.570312 C 179.023438 186.671875 184.554688 172.75 187.527344 162.21875 C 190.5 172.742188 196.03125 186.667969 206.039062 204.570312 C 209.042969 209.941406 207.347656 213.515625 203.226562 221.09375 C 200.226562 226.605469 196.492188 233.46875 195.214844 242.804688 C 193.078125 258.390625 200.609375 283.109375 213.960938 304.3125 L 221.296875 299.695312 C 209.144531 280.394531 201.949219 257.484375 203.800781 243.984375 C 204.867188 236.21875 208.039062 230.382812 210.839844 225.234375 C 214.886719 217.800781 219.070312 210.109375 213.605469 200.339844 C 194.894531 166.871094 192.664062 148.835938 193.015625 141.035156 C 193.058594 140.476562 193.792969 132.480469 198.191406 127.636719 C 204.878906 144.417969 213.226562 160.558594 222.324219 176.136719 C 214.179688 158.433594 206.953125 140.164062 201.871094 121.332031 C 201.859375 121.289062 201.855469 121.246094 201.84375 121.203125 C 197.761719 106.230469 204.992188 101.210938 208.140625 99.78125 C 215.714844 124.164062 228.347656 146.707031 241.613281 168.382812 C 229.480469 144.917969 213.601562 103.03125 212.28125 92.109375 C 211.964844 89.464844 212.90625 87.585938 214.554688 86.417969 C 216.921875 84.738281 221.039062 84.558594 224.570312 85.980469 C 226.117188 86.601562 227.246094 87.714844 227.515625 87.996094 C 229.378906 116.597656 255.824219 146.078125 271.378906 167.335938 C 257.085938 143.820312 235.1875 114.210938 235.238281 85.300781 C 235.382812 83.488281 236.445312 81.910156 238.058594 81.15625 C 240.582031 79.976562 244.117188 80.890625 247.761719 83.660156 C 252.421875 87.195312 259.917969 97.914062 265.394531 105.742188 C 266.082031 106.722656 266.753906 107.683594 267.402344 108.605469 C 272.253906 115.496094 276.78125 122.867188 281.160156 129.996094 C 283.0625 133.09375 285.03125 136.296875 287.003906 139.433594 C 288.335938 141.546875 289.660156 143.671875 291.117188 146.019531 L 292.882812 148.859375 C 292.960938 148.984375 293.050781 149.09375 293.136719 149.207031 C 289.03125 171.300781 288.875 194.691406 291.742188 216.910156 C 279.226562 216.128906 266.867188 227.15625 259.5 236.0625 C 268.222656 226.804688 281.164062 217.25 294.578125 219.945312 C 292.964844 195.847656 294.410156 170.890625 300.808594 147.507812 C 302.878906 140.65625 305.417969 136.316406 308.359375 134.613281 C 309.25 134.097656 312.304688 132.507812 314.25 133.644531 C 315.128906 134.15625 317.984375 136.683594 317.859375 147.675781 C 317.859375 147.726562 317.859375 147.78125 317.859375 147.835938 C 318.558594 174.621094 325.785156 221.929688 327.683594 233.128906 C 328.558594 238.3125 328.199219 243.089844 326.582031 247.738281 C 323.78125 255.796875 312.777344 274.492188 297.148438 297.746094 L 304.34375 302.582031 C 313.898438 288.363281 330.558594 262.703125 334.769531 250.582031 C 336.871094 244.523438 337.351562 238.339844 336.226562 231.683594 Z M 336.226562 231.683594 " fill-opacity="1" fill-rule="nonzero"/></g></svg>