<svg xmlns="http://www.w3.org/2000/svg" xmlns:xlink="http://www.w3.org/1999/xlink" width="500" zoomAndPan="magnify" viewBox="0 0 375 374.999991" height="500" preserveAspectRatio="xMidYMid meet" version="1.0"><defs><clipPath id="f046cfa491"><path d="M 37.5 78.410156 L 337.5 78.410156 L 337.5 296.660156 L 37.5 296.660156 Z M 37.5 78.410156 " clip-rule="nonzero"/></clipPath></defs><g clip-path="url(#f046cfa491)"><path fill="#fff" d="M 241.929688 170.691406 L 242.410156 158.363281 L 238.085938 155.480469 L 237.605469 143.476562 L 242.089844 143.316406 L 257.296875 143.316406 L 261.78125 143.476562 L 261.300781 155.480469 L 256.976562 158.363281 L 257.457031 170.691406 Z M 132.589844 139.472656 L 118.34375 139.472656 L 120.265625 124.265625 L 123.304688 121.863281 L 125.226562 106.816406 L 127.308594 121.863281 L 130.347656 124.265625 Z M 137.554688 143.316406 L 137.074219 155.480469 L 132.75 158.363281 L 133.230469 170.691406 L 117.863281 170.691406 L 118.34375 158.363281 L 113.859375 155.480469 L 113.378906 143.476562 L 117.863281 143.316406 Z M 256.65625 139.472656 L 242.410156 139.472656 L 244.332031 124.265625 L 247.53125 121.863281 L 249.453125 106.816406 L 251.375 121.863281 L 254.414062 124.265625 Z M 239.207031 227.359375 L 239.046875 195.984375 L 234.726562 192.140625 L 234.726562 174.691406 L 241.929688 174.371094 L 257.457031 174.371094 L 264.660156 174.691406 L 264.660156 192.300781 L 260.339844 196.144531 L 260.019531 227.359375 Z M 171.972656 179.175781 C 171.972656 170.53125 179.015625 163.644531 187.5 163.644531 C 193.261719 163.644531 198.226562 166.6875 200.945312 171.171875 C 198.707031 168.609375 195.503906 167.007812 191.824219 167.007812 C 185.097656 167.007812 179.65625 172.449219 179.65625 179.175781 C 179.65625 185.898438 185.097656 191.339844 191.824219 191.339844 C 195.503906 191.339844 198.707031 189.738281 200.945312 187.179688 C 198.226562 191.660156 193.261719 194.703125 187.5 194.703125 C 178.855469 194.703125 171.972656 187.820312 171.972656 179.175781 Z M 337.5 296.355469 C 318.609375 290.59375 299.71875 284.832031 280.828125 279.066406 C 298.597656 257.777344 309.324219 230.402344 309.324219 200.625 C 309.484375 133.230469 254.894531 78.640625 187.5 78.640625 C 120.105469 78.640625 65.515625 133.230469 65.515625 200.625 C 65.515625 230.5625 76.242188 257.9375 94.011719 279.066406 C 75.28125 284.832031 56.390625 290.59375 37.5 296.355469 C 63.273438 293.15625 89.046875 289.953125 114.820312 286.75 L 114.820312 256.65625 L 109.058594 252.171875 L 108.578125 231.042969 L 142.195312 231.042969 L 141.714844 252.171875 L 135.953125 256.65625 L 135.953125 284.03125 L 150.359375 282.269531 C 151.160156 280.507812 151.480469 278.585938 151.320312 276.667969 C 150.839844 273.625 149.078125 270.902344 146.359375 269.460938 L 154.363281 269.460938 C 147 262.417969 143.957031 252.011719 146.359375 242.089844 C 151.320312 222.878906 173.253906 223.039062 187.5 199.503906 C 201.746094 223.039062 223.839844 222.878906 228.640625 242.089844 C 231.203125 252.011719 228.160156 262.417969 220.636719 269.460938 L 228.640625 269.460938 C 225.921875 270.902344 224.160156 273.625 223.679688 276.667969 C 223.359375 278.585938 223.679688 280.667969 224.640625 282.269531 L 239.046875 284.03125 L 239.046875 256.65625 L 233.285156 252.171875 L 232.804688 231.042969 L 266.421875 231.042969 L 265.941406 252.171875 L 260.179688 256.65625 L 260.179688 286.75 C 285.472656 288.671875 312.207031 293.15625 337.5 296.355469 Z M 140.433594 174.691406 L 140.433594 192.300781 L 136.113281 196.144531 L 135.953125 227.519531 L 115.140625 227.519531 L 114.980469 196.144531 L 110.5 192.300781 L 110.5 174.691406 L 117.703125 174.371094 L 133.230469 174.371094 Z M 140.433594 174.691406 " fill-opacity="1" fill-rule="evenodd"/></g></svg>