<svg xmlns="http://www.w3.org/2000/svg" xmlns:xlink="http://www.w3.org/1999/xlink" width="500" zoomAndPan="magnify" viewBox="0 0 375 374.999991" height="500" preserveAspectRatio="xMidYMid meet" version="1.0"><defs><clipPath id="3691d825b4"><path d="M 37.5 37.5 L 328.5 37.5 L 328.5 328.5 L 37.5 328.5 Z M 37.5 37.5 " clip-rule="nonzero"/></clipPath><clipPath id="e1e543f664"><path d="M 63 63 L 302 63 L 302 302 L 63 302 Z M 63 63 " clip-rule="nonzero"/></clipPath><clipPath id="afede5c95e"><path d="M 37.503906 182.917969 C 37.503906 178.15625 37.738281 173.402344 38.203125 168.664062 C 38.671875 163.925781 39.367188 159.21875 40.296875 154.550781 C 41.226562 149.878906 42.382812 145.265625 43.765625 140.707031 C 45.148438 136.148438 46.75 131.671875 48.574219 127.269531 C 50.394531 122.871094 52.429688 118.570312 54.675781 114.371094 C 56.917969 110.171875 59.363281 106.089844 62.011719 102.128906 C 64.65625 98.171875 67.488281 94.351562 70.511719 90.667969 C 73.53125 86.988281 76.726562 83.460938 80.09375 80.09375 C 83.460938 76.726562 86.984375 73.535156 90.667969 70.511719 C 94.347656 67.492188 98.167969 64.65625 102.128906 62.011719 C 106.089844 59.367188 110.167969 56.921875 114.371094 54.675781 C 118.570312 52.429688 122.871094 50.394531 127.269531 48.574219 C 131.667969 46.75 136.148438 45.148438 140.707031 43.765625 C 145.261719 42.382812 149.875 41.226562 154.546875 40.300781 C 159.21875 39.371094 163.925781 38.671875 168.664062 38.203125 C 173.402344 37.738281 178.152344 37.503906 182.917969 37.503906 C 187.679688 37.503906 192.429688 37.738281 197.167969 38.203125 C 201.910156 38.671875 206.613281 39.371094 211.285156 40.300781 C 215.957031 41.226562 220.570312 42.382812 225.128906 43.765625 C 229.683594 45.148438 234.164062 46.75 238.5625 48.574219 C 242.964844 50.394531 247.261719 52.429688 251.464844 54.675781 C 255.664062 56.921875 259.742188 59.367188 263.703125 62.011719 C 267.664062 64.65625 271.484375 67.492188 275.164062 70.511719 C 278.847656 73.535156 282.371094 76.726562 285.738281 80.09375 C 289.105469 83.460938 292.300781 86.988281 295.320312 90.667969 C 298.34375 94.351562 301.175781 98.171875 303.824219 102.128906 C 306.46875 106.089844 308.914062 110.171875 311.160156 114.371094 C 313.402344 118.570312 315.4375 122.871094 317.261719 127.269531 C 319.082031 131.671875 320.683594 136.148438 322.066406 140.707031 C 323.449219 145.265625 324.605469 149.878906 325.535156 154.550781 C 326.464844 159.21875 327.160156 163.925781 327.628906 168.664062 C 328.09375 173.402344 328.328125 178.15625 328.328125 182.917969 C 328.328125 187.679688 328.09375 192.429688 327.628906 197.171875 C 327.160156 201.910156 326.464844 206.613281 325.535156 211.285156 C 324.605469 215.957031 323.449219 220.570312 322.066406 225.128906 C 320.683594 229.6875 319.082031 234.164062 317.261719 238.566406 C 315.4375 242.964844 313.402344 247.265625 311.160156 251.464844 C 308.914062 255.664062 306.46875 259.746094 303.824219 263.703125 C 301.175781 267.664062 298.34375 271.484375 295.320312 275.167969 C 292.300781 278.847656 289.105469 282.371094 285.738281 285.738281 C 282.371094 289.105469 278.847656 292.300781 275.164062 295.324219 C 271.484375 298.34375 267.664062 301.179688 263.703125 303.824219 C 259.742188 306.46875 255.664062 308.914062 251.464844 311.160156 C 247.261719 313.40625 242.964844 315.4375 238.5625 317.261719 C 234.164062 319.082031 229.683594 320.6875 225.128906 322.070312 C 220.570312 323.453125 215.957031 324.605469 211.285156 325.535156 C 206.613281 326.464844 201.910156 327.164062 197.167969 327.628906 C 192.429688 328.097656 187.679688 328.332031 182.917969 328.332031 C 178.152344 328.332031 173.402344 328.097656 168.664062 327.628906 C 163.925781 327.164062 159.21875 326.464844 154.546875 325.535156 C 149.875 324.605469 145.261719 323.453125 140.707031 322.070312 C 136.148438 320.6875 131.667969 319.082031 127.269531 317.261719 C 122.871094 315.4375 118.570312 313.40625 114.371094 311.160156 C 110.167969 308.914062 106.089844 306.46875 102.128906 303.824219 C 98.167969 301.179688 94.347656 298.34375 90.667969 295.324219 C 86.984375 292.300781 83.460938 289.105469 80.09375 285.738281 C 76.726562 282.371094 73.53125 278.847656 70.511719 275.167969 C 67.488281 271.484375 64.65625 267.664062 62.011719 263.703125 C 59.363281 259.746094 56.917969 255.664062 54.675781 251.464844 C 52.429688 247.265625 50.394531 242.964844 48.574219 238.566406 C 46.75 234.164062 45.148438 229.6875 43.765625 225.128906 C 42.382812 220.570312 41.226562 215.957031 40.296875 211.285156 C 39.367188 206.613281 38.671875 201.910156 38.203125 197.171875 C 37.738281 192.429688 37.503906 187.679688 37.503906 182.917969 Z M 37.503906 182.917969 " clip-rule="nonzero"/></clipPath><clipPath id="fee989fc3e"><path d="M 75 180 L 103 180 L 103 186 L 75 186 Z M 75 180 " clip-rule="nonzero"/></clipPath><clipPath id="b7c138ed9f"><path d="M 37.503906 182.917969 C 37.503906 178.15625 37.738281 173.402344 38.203125 168.664062 C 38.671875 163.925781 39.367188 159.21875 40.296875 154.550781 C 41.226562 149.878906 42.382812 145.265625 43.765625 140.707031 C 45.148438 136.148438 46.75 131.671875 48.574219 127.269531 C 50.394531 122.871094 52.429688 118.570312 54.675781 114.371094 C 56.917969 110.171875 59.363281 106.089844 62.011719 102.128906 C 64.65625 98.171875 67.488281 94.351562 70.511719 90.667969 C 73.53125 86.988281 76.726562 83.460938 80.09375 80.09375 C 83.460938 76.726562 86.984375 73.535156 90.667969 70.511719 C 94.347656 67.492188 98.167969 64.65625 102.128906 62.011719 C 106.089844 59.367188 110.167969 56.921875 114.371094 54.675781 C 118.570312 52.429688 122.871094 50.394531 127.269531 48.574219 C 131.667969 46.75 136.148438 45.148438 140.707031 43.765625 C 145.261719 42.382812 149.875 41.226562 154.546875 40.300781 C 159.21875 39.371094 163.925781 38.671875 168.664062 38.203125 C 173.402344 37.738281 178.152344 37.503906 182.917969 37.503906 C 187.679688 37.503906 192.429688 37.738281 197.167969 38.203125 C 201.910156 38.671875 206.613281 39.371094 211.285156 40.300781 C 215.957031 41.226562 220.570312 42.382812 225.128906 43.765625 C 229.683594 45.148438 234.164062 46.75 238.5625 48.574219 C 242.964844 50.394531 247.261719 52.429688 251.464844 54.675781 C 255.664062 56.921875 259.742188 59.367188 263.703125 62.011719 C 267.664062 64.65625 271.484375 67.492188 275.164062 70.511719 C 278.847656 73.535156 282.371094 76.726562 285.738281 80.09375 C 289.105469 83.460938 292.300781 86.988281 295.320312 90.667969 C 298.34375 94.351562 301.175781 98.171875 303.824219 102.128906 C 306.46875 106.089844 308.914062 110.171875 311.160156 114.371094 C 313.402344 118.570312 315.4375 122.871094 317.261719 127.269531 C 319.082031 131.671875 320.683594 136.148438 322.066406 140.707031 C 323.449219 145.265625 324.605469 149.878906 325.535156 154.550781 C 326.464844 159.21875 327.160156 163.925781 327.628906 168.664062 C 328.09375 173.402344 328.328125 178.15625 328.328125 182.917969 C 328.328125 187.679688 328.09375 192.429688 327.628906 197.171875 C 327.160156 201.910156 326.464844 206.613281 325.535156 211.285156 C 324.605469 215.957031 323.449219 220.570312 322.066406 225.128906 C 320.683594 229.6875 319.082031 234.164062 317.261719 238.566406 C 315.4375 242.964844 313.402344 247.265625 311.160156 251.464844 C 308.914062 255.664062 306.46875 259.746094 303.824219 263.703125 C 301.175781 267.664062 298.34375 271.484375 295.320312 275.167969 C 292.300781 278.847656 289.105469 282.371094 285.738281 285.738281 C 282.371094 289.105469 278.847656 292.300781 275.164062 295.324219 C 271.484375 298.34375 267.664062 301.179688 263.703125 303.824219 C 259.742188 306.46875 255.664062 308.914062 251.464844 311.160156 C 247.261719 313.40625 242.964844 315.4375 238.5625 317.261719 C 234.164062 319.082031 229.683594 320.6875 225.128906 322.070312 C 220.570312 323.453125 215.957031 324.605469 211.285156 325.535156 C 206.613281 326.464844 201.910156 327.164062 197.167969 327.628906 C 192.429688 328.097656 187.679688 328.332031 182.917969 328.332031 C 178.152344 328.332031 173.402344 328.097656 168.664062 327.628906 C 163.925781 327.164062 159.21875 326.464844 154.546875 325.535156 C 149.875 324.605469 145.261719 323.453125 140.707031 322.070312 C 136.148438 320.6875 131.667969 319.082031 127.269531 317.261719 C 122.871094 315.4375 118.570312 313.40625 114.371094 311.160156 C 110.167969 308.914062 106.089844 306.46875 102.128906 303.824219 C 98.167969 301.179688 94.347656 298.34375 90.667969 295.324219 C 86.984375 292.300781 83.460938 289.105469 80.09375 285.738281 C 76.726562 282.371094 73.53125 278.847656 70.511719 275.167969 C 67.488281 271.484375 64.65625 267.664062 62.011719 263.703125 C 59.363281 259.746094 56.917969 255.664062 54.675781 251.464844 C 52.429688 247.265625 50.394531 242.964844 48.574219 238.566406 C 46.75 234.164062 45.148438 229.6875 43.765625 225.128906 C 42.382812 220.570312 41.226562 215.957031 40.296875 211.285156 C 39.367188 206.613281 38.671875 201.910156 38.203125 197.171875 C 37.738281 192.429688 37.503906 187.679688 37.503906 182.917969 Z M 37.503906 182.917969 " clip-rule="nonzero"/></clipPath><clipPath id="553af38753"><path d="M 63.9375 182.921875 C 63.9375 179.023438 64.128906 175.136719 64.511719 171.257812 C 64.894531 167.382812 65.464844 163.53125 66.226562 159.710938 C 66.984375 155.886719 67.929688 152.113281 69.0625 148.382812 C 70.191406 144.652344 71.503906 140.988281 72.996094 137.390625 C 74.488281 133.789062 76.152344 130.269531 77.988281 126.835938 C 79.824219 123.398438 81.824219 120.058594 83.992188 116.820312 C 86.15625 113.578125 88.472656 110.453125 90.945312 107.441406 C 93.417969 104.429688 96.03125 101.542969 98.789062 98.789062 C 101.542969 96.035156 104.425781 93.421875 107.4375 90.949219 C 110.453125 88.476562 113.578125 86.15625 116.816406 83.992188 C 120.058594 81.828125 123.394531 79.828125 126.832031 77.988281 C 130.269531 76.152344 133.789062 74.488281 137.386719 72.996094 C 140.988281 71.507812 144.652344 70.195312 148.382812 69.0625 C 152.109375 67.933594 155.886719 66.988281 159.707031 66.226562 C 163.53125 65.464844 167.378906 64.894531 171.257812 64.511719 C 175.136719 64.132812 179.023438 63.941406 182.917969 63.941406 C 186.816406 63.941406 190.703125 64.132812 194.582031 64.511719 C 198.460938 64.894531 202.308594 65.464844 206.132812 66.226562 C 209.953125 66.988281 213.730469 67.933594 217.457031 69.0625 C 221.1875 70.195312 224.851562 71.507812 228.453125 72.996094 C 232.050781 74.488281 235.570312 76.152344 239.007812 77.988281 C 242.445312 79.828125 245.78125 81.828125 249.023438 83.992188 C 252.261719 86.15625 255.386719 88.476562 258.402344 90.949219 C 261.414062 93.421875 264.296875 96.035156 267.050781 98.789062 C 269.808594 101.542969 272.421875 104.429688 274.894531 107.441406 C 277.367188 110.453125 279.683594 113.578125 281.847656 116.820312 C 284.015625 120.058594 286.015625 123.398438 287.851562 126.835938 C 289.6875 130.269531 291.351562 133.789062 292.84375 137.390625 C 294.335938 140.988281 295.644531 144.652344 296.777344 148.382812 C 297.910156 152.113281 298.855469 155.886719 299.613281 159.710938 C 300.375 163.53125 300.945312 167.382812 301.328125 171.257812 C 301.710938 175.136719 301.902344 179.023438 301.902344 182.921875 C 301.902344 186.816406 301.710938 190.707031 301.328125 194.582031 C 300.945312 198.460938 300.375 202.3125 299.613281 206.132812 C 298.855469 209.957031 297.910156 213.730469 296.777344 217.460938 C 295.644531 221.1875 294.335938 224.851562 292.84375 228.453125 C 291.351562 232.054688 289.6875 235.570312 287.851562 239.007812 C 286.015625 242.445312 284.015625 245.785156 281.847656 249.023438 C 279.683594 252.265625 277.367188 255.390625 274.894531 258.402344 C 272.421875 261.414062 269.808594 264.296875 267.050781 267.054688 C 264.296875 269.808594 261.414062 272.421875 258.402344 274.894531 C 255.386719 277.367188 252.261719 279.6875 249.023438 281.851562 C 245.78125 284.015625 242.445312 286.015625 239.007812 287.851562 C 235.570312 289.691406 232.050781 291.355469 228.453125 292.84375 C 224.851562 294.335938 221.1875 295.648438 217.457031 296.777344 C 213.730469 297.910156 209.953125 298.855469 206.132812 299.617188 C 202.308594 300.375 198.460938 300.949219 194.582031 301.328125 C 190.703125 301.710938 186.816406 301.902344 182.917969 301.902344 C 179.023438 301.902344 175.136719 301.710938 171.257812 301.328125 C 167.378906 300.949219 163.53125 300.375 159.707031 299.617188 C 155.886719 298.855469 152.109375 297.910156 148.382812 296.777344 C 144.652344 295.648438 140.988281 294.335938 137.386719 292.84375 C 133.789062 291.355469 130.269531 289.691406 126.832031 287.851562 C 123.394531 286.015625 120.058594 284.015625 116.816406 281.851562 C 113.578125 279.6875 110.453125 277.367188 107.4375 274.894531 C 104.425781 272.421875 101.542969 269.808594 98.789062 267.054688 C 96.03125 264.296875 93.417969 261.414062 90.945312 258.402344 C 88.472656 255.390625 86.15625 252.265625 83.992188 249.023438 C 81.824219 245.785156 79.824219 242.445312 77.988281 239.007812 C 76.152344 235.570312 74.488281 232.054688 72.996094 228.453125 C 71.503906 224.851562 70.191406 221.1875 69.0625 217.460938 C 67.929688 213.730469 66.984375 209.957031 66.226562 206.132812 C 65.464844 202.3125 64.894531 198.460938 64.511719 194.582031 C 64.128906 190.707031 63.9375 186.816406 63.9375 182.921875 Z M 63.9375 182.921875 " clip-rule="nonzero"/></clipPath><clipPath id="1a9202058b"><path d="M 263 179 L 291 179 L 291 185 L 263 185 Z M 263 179 " clip-rule="nonzero"/></clipPath><clipPath id="167f64936a"><path d="M 37.503906 182.917969 C 37.503906 178.15625 37.738281 173.402344 38.203125 168.664062 C 38.671875 163.925781 39.367188 159.21875 40.296875 154.550781 C 41.226562 149.878906 42.382812 145.265625 43.765625 140.707031 C 45.148438 136.148438 46.75 131.671875 48.574219 127.269531 C 50.394531 122.871094 52.429688 118.570312 54.675781 114.371094 C 56.917969 110.171875 59.363281 106.089844 62.011719 102.128906 C 64.65625 98.171875 67.488281 94.351562 70.511719 90.667969 C 73.53125 86.988281 76.726562 83.460938 80.09375 80.09375 C 83.460938 76.726562 86.984375 73.535156 90.667969 70.511719 C 94.347656 67.492188 98.167969 64.65625 102.128906 62.011719 C 106.089844 59.367188 110.167969 56.921875 114.371094 54.675781 C 118.570312 52.429688 122.871094 50.394531 127.269531 48.574219 C 131.667969 46.75 136.148438 45.148438 140.707031 43.765625 C 145.261719 42.382812 149.875 41.226562 154.546875 40.300781 C 159.21875 39.371094 163.925781 38.671875 168.664062 38.203125 C 173.402344 37.738281 178.152344 37.503906 182.917969 37.503906 C 187.679688 37.503906 192.429688 37.738281 197.167969 38.203125 C 201.910156 38.671875 206.613281 39.371094 211.285156 40.300781 C 215.957031 41.226562 220.570312 42.382812 225.128906 43.765625 C 229.683594 45.148438 234.164062 46.75 238.5625 48.574219 C 242.964844 50.394531 247.261719 52.429688 251.464844 54.675781 C 255.664062 56.921875 259.742188 59.367188 263.703125 62.011719 C 267.664062 64.65625 271.484375 67.492188 275.164062 70.511719 C 278.847656 73.535156 282.371094 76.726562 285.738281 80.09375 C 289.105469 83.460938 292.300781 86.988281 295.320312 90.667969 C 298.34375 94.351562 301.175781 98.171875 303.824219 102.128906 C 306.46875 106.089844 308.914062 110.171875 311.160156 114.371094 C 313.402344 118.570312 315.4375 122.871094 317.261719 127.269531 C 319.082031 131.671875 320.683594 136.148438 322.066406 140.707031 C 323.449219 145.265625 324.605469 149.878906 325.535156 154.550781 C 326.464844 159.21875 327.160156 163.925781 327.628906 168.664062 C 328.09375 173.402344 328.328125 178.15625 328.328125 182.917969 C 328.328125 187.679688 328.09375 192.429688 327.628906 197.171875 C 327.160156 201.910156 326.464844 206.613281 325.535156 211.285156 C 324.605469 215.957031 323.449219 220.570312 322.066406 225.128906 C 320.683594 229.6875 319.082031 234.164062 317.261719 238.566406 C 315.4375 242.964844 313.402344 247.265625 311.160156 251.464844 C 308.914062 255.664062 306.46875 259.746094 303.824219 263.703125 C 301.175781 267.664062 298.34375 271.484375 295.320312 275.167969 C 292.300781 278.847656 289.105469 282.371094 285.738281 285.738281 C 282.371094 289.105469 278.847656 292.300781 275.164062 295.324219 C 271.484375 298.34375 267.664062 301.179688 263.703125 303.824219 C 259.742188 306.46875 255.664062 308.914062 251.464844 311.160156 C 247.261719 313.40625 242.964844 315.4375 238.5625 317.261719 C 234.164062 319.082031 229.683594 320.6875 225.128906 322.070312 C 220.570312 323.453125 215.957031 324.605469 211.285156 325.535156 C 206.613281 326.464844 201.910156 327.164062 197.167969 327.628906 C 192.429688 328.097656 187.679688 328.332031 182.917969 328.332031 C 178.152344 328.332031 173.402344 328.097656 168.664062 327.628906 C 163.925781 327.164062 159.21875 326.464844 154.546875 325.535156 C 149.875 324.605469 145.261719 323.453125 140.707031 322.070312 C 136.148438 320.6875 131.667969 319.082031 127.269531 317.261719 C 122.871094 315.4375 118.570312 313.40625 114.371094 311.160156 C 110.167969 308.914062 106.089844 306.46875 102.128906 303.824219 C 98.167969 301.179688 94.347656 298.34375 90.667969 295.324219 C 86.984375 292.300781 83.460938 289.105469 80.09375 285.738281 C 76.726562 282.371094 73.53125 278.847656 70.511719 275.167969 C 67.488281 271.484375 64.65625 267.664062 62.011719 263.703125 C 59.363281 259.746094 56.917969 255.664062 54.675781 251.464844 C 52.429688 247.265625 50.394531 242.964844 48.574219 238.566406 C 46.75 234.164062 45.148438 229.6875 43.765625 225.128906 C 42.382812 220.570312 41.226562 215.957031 40.296875 211.285156 C 39.367188 206.613281 38.671875 201.910156 38.203125 197.171875 C 37.738281 192.429688 37.503906 187.679688 37.503906 182.917969 Z M 37.503906 182.917969 " clip-rule="nonzero"/></clipPath><clipPath id="4d8c1b9051"><path d="M 63.9375 182.921875 C 63.9375 179.023438 64.128906 175.136719 64.511719 171.257812 C 64.894531 167.382812 65.464844 163.53125 66.226562 159.710938 C 66.984375 155.886719 67.929688 152.113281 69.0625 148.382812 C 70.191406 144.652344 71.503906 140.988281 72.996094 137.390625 C 74.488281 133.789062 76.152344 130.269531 77.988281 126.835938 C 79.824219 123.398438 81.824219 120.058594 83.992188 116.820312 C 86.15625 113.578125 88.472656 110.453125 90.945312 107.441406 C 93.417969 104.429688 96.03125 101.542969 98.789062 98.789062 C 101.542969 96.035156 104.425781 93.421875 107.4375 90.949219 C 110.453125 88.476562 113.578125 86.15625 116.816406 83.992188 C 120.058594 81.828125 123.394531 79.828125 126.832031 77.988281 C 130.269531 76.152344 133.789062 74.488281 137.386719 72.996094 C 140.988281 71.507812 144.652344 70.195312 148.382812 69.0625 C 152.109375 67.933594 155.886719 66.988281 159.707031 66.226562 C 163.53125 65.464844 167.378906 64.894531 171.257812 64.511719 C 175.136719 64.132812 179.023438 63.941406 182.917969 63.941406 C 186.816406 63.941406 190.703125 64.132812 194.582031 64.511719 C 198.460938 64.894531 202.308594 65.464844 206.132812 66.226562 C 209.953125 66.988281 213.730469 67.933594 217.457031 69.0625 C 221.1875 70.195312 224.851562 71.507812 228.453125 72.996094 C 232.050781 74.488281 235.570312 76.152344 239.007812 77.988281 C 242.445312 79.828125 245.78125 81.828125 249.023438 83.992188 C 252.261719 86.15625 255.386719 88.476562 258.402344 90.949219 C 261.414062 93.421875 264.296875 96.035156 267.050781 98.789062 C 269.808594 101.542969 272.421875 104.429688 274.894531 107.441406 C 277.367188 110.453125 279.683594 113.578125 281.847656 116.820312 C 284.015625 120.058594 286.015625 123.398438 287.851562 126.835938 C 289.6875 130.269531 291.351562 133.789062 292.84375 137.390625 C 294.335938 140.988281 295.644531 144.652344 296.777344 148.382812 C 297.910156 152.113281 298.855469 155.886719 299.613281 159.710938 C 300.375 163.53125 300.945312 167.382812 301.328125 171.257812 C 301.710938 175.136719 301.902344 179.023438 301.902344 182.921875 C 301.902344 186.816406 301.710938 190.707031 301.328125 194.582031 C 300.945312 198.460938 300.375 202.3125 299.613281 206.132812 C 298.855469 209.957031 297.910156 213.730469 296.777344 217.460938 C 295.644531 221.1875 294.335938 224.851562 292.84375 228.453125 C 291.351562 232.054688 289.6875 235.570312 287.851562 239.007812 C 286.015625 242.445312 284.015625 245.785156 281.847656 249.023438 C 279.683594 252.265625 277.367188 255.390625 274.894531 258.402344 C 272.421875 261.414062 269.808594 264.296875 267.050781 267.054688 C 264.296875 269.808594 261.414062 272.421875 258.402344 274.894531 C 255.386719 277.367188 252.261719 279.6875 249.023438 281.851562 C 245.78125 284.015625 242.445312 286.015625 239.007812 287.851562 C 235.570312 289.691406 232.050781 291.355469 228.453125 292.84375 C 224.851562 294.335938 221.1875 295.648438 217.457031 296.777344 C 213.730469 297.910156 209.953125 298.855469 206.132812 299.617188 C 202.308594 300.375 198.460938 300.949219 194.582031 301.328125 C 190.703125 301.710938 186.816406 301.902344 182.917969 301.902344 C 179.023438 301.902344 175.136719 301.710938 171.257812 301.328125 C 167.378906 300.949219 163.53125 300.375 159.707031 299.617188 C 155.886719 298.855469 152.109375 297.910156 148.382812 296.777344 C 144.652344 295.648438 140.988281 294.335938 137.386719 292.84375 C 133.789062 291.355469 130.269531 289.691406 126.832031 287.851562 C 123.394531 286.015625 120.058594 284.015625 116.816406 281.851562 C 113.578125 279.6875 110.453125 277.367188 107.4375 274.894531 C 104.425781 272.421875 101.542969 269.808594 98.789062 267.054688 C 96.03125 264.296875 93.417969 261.414062 90.945312 258.402344 C 88.472656 255.390625 86.15625 252.265625 83.992188 249.023438 C 81.824219 245.785156 79.824219 242.445312 77.988281 239.007812 C 76.152344 235.570312 74.488281 232.054688 72.996094 228.453125 C 71.503906 224.851562 70.191406 221.1875 69.0625 217.460938 C 67.929688 213.730469 66.984375 209.957031 66.226562 206.132812 C 65.464844 202.3125 64.894531 198.460938 64.511719 194.582031 C 64.128906 190.707031 63.9375 186.816406 63.9375 182.921875 Z M 63.9375 182.921875 " clip-rule="nonzero"/></clipPath><clipPath id="b1d94d9b72"><path d="M 180 268 L 186 268 L 186 296 L 180 296 Z M 180 268 " clip-rule="nonzero"/></clipPath><clipPath id="2e53293b37"><path d="M 37.503906 182.917969 C 37.503906 178.15625 37.738281 173.402344 38.203125 168.664062 C 38.671875 163.925781 39.367188 159.21875 40.296875 154.550781 C 41.226562 149.878906 42.382812 145.265625 43.765625 140.707031 C 45.148438 136.148438 46.75 131.671875 48.574219 127.269531 C 50.394531 122.871094 52.429688 118.570312 54.675781 114.371094 C 56.917969 110.171875 59.363281 106.089844 62.011719 102.128906 C 64.65625 98.171875 67.488281 94.351562 70.511719 90.667969 C 73.53125 86.988281 76.726562 83.460938 80.09375 80.09375 C 83.460938 76.726562 86.984375 73.535156 90.667969 70.511719 C 94.347656 67.492188 98.167969 64.65625 102.128906 62.011719 C 106.089844 59.367188 110.167969 56.921875 114.371094 54.675781 C 118.570312 52.429688 122.871094 50.394531 127.269531 48.574219 C 131.667969 46.75 136.148438 45.148438 140.707031 43.765625 C 145.261719 42.382812 149.875 41.226562 154.546875 40.300781 C 159.21875 39.371094 163.925781 38.671875 168.664062 38.203125 C 173.402344 37.738281 178.152344 37.503906 182.917969 37.503906 C 187.679688 37.503906 192.429688 37.738281 197.167969 38.203125 C 201.910156 38.671875 206.613281 39.371094 211.285156 40.300781 C 215.957031 41.226562 220.570312 42.382812 225.128906 43.765625 C 229.683594 45.148438 234.164062 46.75 238.5625 48.574219 C 242.964844 50.394531 247.261719 52.429688 251.464844 54.675781 C 255.664062 56.921875 259.742188 59.367188 263.703125 62.011719 C 267.664062 64.65625 271.484375 67.492188 275.164062 70.511719 C 278.847656 73.535156 282.371094 76.726562 285.738281 80.09375 C 289.105469 83.460938 292.300781 86.988281 295.320312 90.667969 C 298.34375 94.351562 301.175781 98.171875 303.824219 102.128906 C 306.46875 106.089844 308.914062 110.171875 311.160156 114.371094 C 313.402344 118.570312 315.4375 122.871094 317.261719 127.269531 C 319.082031 131.671875 320.683594 136.148438 322.066406 140.707031 C 323.449219 145.265625 324.605469 149.878906 325.535156 154.550781 C 326.464844 159.21875 327.160156 163.925781 327.628906 168.664062 C 328.09375 173.402344 328.328125 178.15625 328.328125 182.917969 C 328.328125 187.679688 328.09375 192.429688 327.628906 197.171875 C 327.160156 201.910156 326.464844 206.613281 325.535156 211.285156 C 324.605469 215.957031 323.449219 220.570312 322.066406 225.128906 C 320.683594 229.6875 319.082031 234.164062 317.261719 238.566406 C 315.4375 242.964844 313.402344 247.265625 311.160156 251.464844 C 308.914062 255.664062 306.46875 259.746094 303.824219 263.703125 C 301.175781 267.664062 298.34375 271.484375 295.320312 275.167969 C 292.300781 278.847656 289.105469 282.371094 285.738281 285.738281 C 282.371094 289.105469 278.847656 292.300781 275.164062 295.324219 C 271.484375 298.34375 267.664062 301.179688 263.703125 303.824219 C 259.742188 306.46875 255.664062 308.914062 251.464844 311.160156 C 247.261719 313.40625 242.964844 315.4375 238.5625 317.261719 C 234.164062 319.082031 229.683594 320.6875 225.128906 322.070312 C 220.570312 323.453125 215.957031 324.605469 211.285156 325.535156 C 206.613281 326.464844 201.910156 327.164062 197.167969 327.628906 C 192.429688 328.097656 187.679688 328.332031 182.917969 328.332031 C 178.152344 328.332031 173.402344 328.097656 168.664062 327.628906 C 163.925781 327.164062 159.21875 326.464844 154.546875 325.535156 C 149.875 324.605469 145.261719 323.453125 140.707031 322.070312 C 136.148438 320.6875 131.667969 319.082031 127.269531 317.261719 C 122.871094 315.4375 118.570312 313.40625 114.371094 311.160156 C 110.167969 308.914062 106.089844 306.46875 102.128906 303.824219 C 98.167969 301.179688 94.347656 298.34375 90.667969 295.324219 C 86.984375 292.300781 83.460938 289.105469 80.09375 285.738281 C 76.726562 282.371094 73.53125 278.847656 70.511719 275.167969 C 67.488281 271.484375 64.65625 267.664062 62.011719 263.703125 C 59.363281 259.746094 56.917969 255.664062 54.675781 251.464844 C 52.429688 247.265625 50.394531 242.964844 48.574219 238.566406 C 46.75 234.164062 45.148438 229.6875 43.765625 225.128906 C 42.382812 220.570312 41.226562 215.957031 40.296875 211.285156 C 39.367188 206.613281 38.671875 201.910156 38.203125 197.171875 C 37.738281 192.429688 37.503906 187.679688 37.503906 182.917969 Z M 37.503906 182.917969 " clip-rule="nonzero"/></clipPath><clipPath id="0580438345"><path d="M 63.9375 182.921875 C 63.9375 179.023438 64.128906 175.136719 64.511719 171.257812 C 64.894531 167.382812 65.464844 163.53125 66.226562 159.710938 C 66.984375 155.886719 67.929688 152.113281 69.0625 148.382812 C 70.191406 144.652344 71.503906 140.988281 72.996094 137.390625 C 74.488281 133.789062 76.152344 130.269531 77.988281 126.835938 C 79.824219 123.398438 81.824219 120.058594 83.992188 116.820312 C 86.15625 113.578125 88.472656 110.453125 90.945312 107.441406 C 93.417969 104.429688 96.03125 101.542969 98.789062 98.789062 C 101.542969 96.035156 104.425781 93.421875 107.4375 90.949219 C 110.453125 88.476562 113.578125 86.15625 116.816406 83.992188 C 120.058594 81.828125 123.394531 79.828125 126.832031 77.988281 C 130.269531 76.152344 133.789062 74.488281 137.386719 72.996094 C 140.988281 71.507812 144.652344 70.195312 148.382812 69.0625 C 152.109375 67.933594 155.886719 66.988281 159.707031 66.226562 C 163.53125 65.464844 167.378906 64.894531 171.257812 64.511719 C 175.136719 64.132812 179.023438 63.941406 182.917969 63.941406 C 186.816406 63.941406 190.703125 64.132812 194.582031 64.511719 C 198.460938 64.894531 202.308594 65.464844 206.132812 66.226562 C 209.953125 66.988281 213.730469 67.933594 217.457031 69.0625 C 221.1875 70.195312 224.851562 71.507812 228.453125 72.996094 C 232.050781 74.488281 235.570312 76.152344 239.007812 77.988281 C 242.445312 79.828125 245.78125 81.828125 249.023438 83.992188 C 252.261719 86.15625 255.386719 88.476562 258.402344 90.949219 C 261.414062 93.421875 264.296875 96.035156 267.050781 98.789062 C 269.808594 101.542969 272.421875 104.429688 274.894531 107.441406 C 277.367188 110.453125 279.683594 113.578125 281.847656 116.820312 C 284.015625 120.058594 286.015625 123.398438 287.851562 126.835938 C 289.6875 130.269531 291.351562 133.789062 292.84375 137.390625 C 294.335938 140.988281 295.644531 144.652344 296.777344 148.382812 C 297.910156 152.113281 298.855469 155.886719 299.613281 159.710938 C 300.375 163.53125 300.945312 167.382812 301.328125 171.257812 C 301.710938 175.136719 301.902344 179.023438 301.902344 182.921875 C 301.902344 186.816406 301.710938 190.707031 301.328125 194.582031 C 300.945312 198.460938 300.375 202.3125 299.613281 206.132812 C 298.855469 209.957031 297.910156 213.730469 296.777344 217.460938 C 295.644531 221.1875 294.335938 224.851562 292.84375 228.453125 C 291.351562 232.054688 289.6875 235.570312 287.851562 239.007812 C 286.015625 242.445312 284.015625 245.785156 281.847656 249.023438 C 279.683594 252.265625 277.367188 255.390625 274.894531 258.402344 C 272.421875 261.414062 269.808594 264.296875 267.050781 267.054688 C 264.296875 269.808594 261.414062 272.421875 258.402344 274.894531 C 255.386719 277.367188 252.261719 279.6875 249.023438 281.851562 C 245.78125 284.015625 242.445312 286.015625 239.007812 287.851562 C 235.570312 289.691406 232.050781 291.355469 228.453125 292.84375 C 224.851562 294.335938 221.1875 295.648438 217.457031 296.777344 C 213.730469 297.910156 209.953125 298.855469 206.132812 299.617188 C 202.308594 300.375 198.460938 300.949219 194.582031 301.328125 C 190.703125 301.710938 186.816406 301.902344 182.917969 301.902344 C 179.023438 301.902344 175.136719 301.710938 171.257812 301.328125 C 167.378906 300.949219 163.53125 300.375 159.707031 299.617188 C 155.886719 298.855469 152.109375 297.910156 148.382812 296.777344 C 144.652344 295.648438 140.988281 294.335938 137.386719 292.84375 C 133.789062 291.355469 130.269531 289.691406 126.832031 287.851562 C 123.394531 286.015625 120.058594 284.015625 116.816406 281.851562 C 113.578125 279.6875 110.453125 277.367188 107.4375 274.894531 C 104.425781 272.421875 101.542969 269.808594 98.789062 267.054688 C 96.03125 264.296875 93.417969 261.414062 90.945312 258.402344 C 88.472656 255.390625 86.15625 252.265625 83.992188 249.023438 C 81.824219 245.785156 79.824219 242.445312 77.988281 239.007812 C 76.152344 235.570312 74.488281 232.054688 72.996094 228.453125 C 71.503906 224.851562 70.191406 221.1875 69.0625 217.460938 C 67.929688 213.730469 66.984375 209.957031 66.226562 206.132812 C 65.464844 202.3125 64.894531 198.460938 64.511719 194.582031 C 64.128906 190.707031 63.9375 186.816406 63.9375 182.921875 Z M 63.9375 182.921875 " clip-rule="nonzero"/></clipPath><clipPath id="c3b5e8e9ae"><path d="M 97 103 L 119 103 L 119 124 L 97 124 Z M 97 103 " clip-rule="nonzero"/></clipPath><clipPath id="e1e71b30f0"><path d="M 37.503906 182.917969 C 37.503906 178.15625 37.738281 173.402344 38.203125 168.664062 C 38.671875 163.925781 39.367188 159.21875 40.296875 154.550781 C 41.226562 149.878906 42.382812 145.265625 43.765625 140.707031 C 45.148438 136.148438 46.75 131.671875 48.574219 127.269531 C 50.394531 122.871094 52.429688 118.570312 54.675781 114.371094 C 56.917969 110.171875 59.363281 106.089844 62.011719 102.128906 C 64.65625 98.171875 67.488281 94.351562 70.511719 90.667969 C 73.53125 86.988281 76.726562 83.460938 80.09375 80.09375 C 83.460938 76.726562 86.984375 73.535156 90.667969 70.511719 C 94.347656 67.492188 98.167969 64.65625 102.128906 62.011719 C 106.089844 59.367188 110.167969 56.921875 114.371094 54.675781 C 118.570312 52.429688 122.871094 50.394531 127.269531 48.574219 C 131.667969 46.75 136.148438 45.148438 140.707031 43.765625 C 145.261719 42.382812 149.875 41.226562 154.546875 40.300781 C 159.21875 39.371094 163.925781 38.671875 168.664062 38.203125 C 173.402344 37.738281 178.152344 37.503906 182.917969 37.503906 C 187.679688 37.503906 192.429688 37.738281 197.167969 38.203125 C 201.910156 38.671875 206.613281 39.371094 211.285156 40.300781 C 215.957031 41.226562 220.570312 42.382812 225.128906 43.765625 C 229.683594 45.148438 234.164062 46.75 238.5625 48.574219 C 242.964844 50.394531 247.261719 52.429688 251.464844 54.675781 C 255.664062 56.921875 259.742188 59.367188 263.703125 62.011719 C 267.664062 64.65625 271.484375 67.492188 275.164062 70.511719 C 278.847656 73.535156 282.371094 76.726562 285.738281 80.09375 C 289.105469 83.460938 292.300781 86.988281 295.320312 90.667969 C 298.34375 94.351562 301.175781 98.171875 303.824219 102.128906 C 306.46875 106.089844 308.914062 110.171875 311.160156 114.371094 C 313.402344 118.570312 315.4375 122.871094 317.261719 127.269531 C 319.082031 131.671875 320.683594 136.148438 322.066406 140.707031 C 323.449219 145.265625 324.605469 149.878906 325.535156 154.550781 C 326.464844 159.21875 327.160156 163.925781 327.628906 168.664062 C 328.09375 173.402344 328.328125 178.15625 328.328125 182.917969 C 328.328125 187.679688 328.09375 192.429688 327.628906 197.171875 C 327.160156 201.910156 326.464844 206.613281 325.535156 211.285156 C 324.605469 215.957031 323.449219 220.570312 322.066406 225.128906 C 320.683594 229.6875 319.082031 234.164062 317.261719 238.566406 C 315.4375 242.964844 313.402344 247.265625 311.160156 251.464844 C 308.914062 255.664062 306.46875 259.746094 303.824219 263.703125 C 301.175781 267.664062 298.34375 271.484375 295.320312 275.167969 C 292.300781 278.847656 289.105469 282.371094 285.738281 285.738281 C 282.371094 289.105469 278.847656 292.300781 275.164062 295.324219 C 271.484375 298.34375 267.664062 301.179688 263.703125 303.824219 C 259.742188 306.46875 255.664062 308.914062 251.464844 311.160156 C 247.261719 313.40625 242.964844 315.4375 238.5625 317.261719 C 234.164062 319.082031 229.683594 320.6875 225.128906 322.070312 C 220.570312 323.453125 215.957031 324.605469 211.285156 325.535156 C 206.613281 326.464844 201.910156 327.164062 197.167969 327.628906 C 192.429688 328.097656 187.679688 328.332031 182.917969 328.332031 C 178.152344 328.332031 173.402344 328.097656 168.664062 327.628906 C 163.925781 327.164062 159.21875 326.464844 154.546875 325.535156 C 149.875 324.605469 145.261719 323.453125 140.707031 322.070312 C 136.148438 320.6875 131.667969 319.082031 127.269531 317.261719 C 122.871094 315.4375 118.570312 313.40625 114.371094 311.160156 C 110.167969 308.914062 106.089844 306.46875 102.128906 303.824219 C 98.167969 301.179688 94.347656 298.34375 90.667969 295.324219 C 86.984375 292.300781 83.460938 289.105469 80.09375 285.738281 C 76.726562 282.371094 73.53125 278.847656 70.511719 275.167969 C 67.488281 271.484375 64.65625 267.664062 62.011719 263.703125 C 59.363281 259.746094 56.917969 255.664062 54.675781 251.464844 C 52.429688 247.265625 50.394531 242.964844 48.574219 238.566406 C 46.75 234.164062 45.148438 229.6875 43.765625 225.128906 C 42.382812 220.570312 41.226562 215.957031 40.296875 211.285156 C 39.367188 206.613281 38.671875 201.910156 38.203125 197.171875 C 37.738281 192.429688 37.503906 187.679688 37.503906 182.917969 Z M 37.503906 182.917969 " clip-rule="nonzero"/></clipPath><clipPath id="b4eecff3c0"><path d="M 63.9375 182.921875 C 63.9375 179.023438 64.128906 175.136719 64.511719 171.257812 C 64.894531 167.382812 65.464844 163.53125 66.226562 159.710938 C 66.984375 155.886719 67.929688 152.113281 69.0625 148.382812 C 70.191406 144.652344 71.503906 140.988281 72.996094 137.390625 C 74.488281 133.789062 76.152344 130.269531 77.988281 126.835938 C 79.824219 123.398438 81.824219 120.058594 83.992188 116.820312 C 86.15625 113.578125 88.472656 110.453125 90.945312 107.441406 C 93.417969 104.429688 96.03125 101.542969 98.789062 98.789062 C 101.542969 96.035156 104.425781 93.421875 107.4375 90.949219 C 110.453125 88.476562 113.578125 86.15625 116.816406 83.992188 C 120.058594 81.828125 123.394531 79.828125 126.832031 77.988281 C 130.269531 76.152344 133.789062 74.488281 137.386719 72.996094 C 140.988281 71.507812 144.652344 70.195312 148.382812 69.0625 C 152.109375 67.933594 155.886719 66.988281 159.707031 66.226562 C 163.53125 65.464844 167.378906 64.894531 171.257812 64.511719 C 175.136719 64.132812 179.023438 63.941406 182.917969 63.941406 C 186.816406 63.941406 190.703125 64.132812 194.582031 64.511719 C 198.460938 64.894531 202.308594 65.464844 206.132812 66.226562 C 209.953125 66.988281 213.730469 67.933594 217.457031 69.0625 C 221.1875 70.195312 224.851562 71.507812 228.453125 72.996094 C 232.050781 74.488281 235.570312 76.152344 239.007812 77.988281 C 242.445312 79.828125 245.78125 81.828125 249.023438 83.992188 C 252.261719 86.15625 255.386719 88.476562 258.402344 90.949219 C 261.414062 93.421875 264.296875 96.035156 267.050781 98.789062 C 269.808594 101.542969 272.421875 104.429688 274.894531 107.441406 C 277.367188 110.453125 279.683594 113.578125 281.847656 116.820312 C 284.015625 120.058594 286.015625 123.398438 287.851562 126.835938 C 289.6875 130.269531 291.351562 133.789062 292.84375 137.390625 C 294.335938 140.988281 295.644531 144.652344 296.777344 148.382812 C 297.910156 152.113281 298.855469 155.886719 299.613281 159.710938 C 300.375 163.53125 300.945312 167.382812 301.328125 171.257812 C 301.710938 175.136719 301.902344 179.023438 301.902344 182.921875 C 301.902344 186.816406 301.710938 190.707031 301.328125 194.582031 C 300.945312 198.460938 300.375 202.3125 299.613281 206.132812 C 298.855469 209.957031 297.910156 213.730469 296.777344 217.460938 C 295.644531 221.1875 294.335938 224.851562 292.84375 228.453125 C 291.351562 232.054688 289.6875 235.570312 287.851562 239.007812 C 286.015625 242.445312 284.015625 245.785156 281.847656 249.023438 C 279.683594 252.265625 277.367188 255.390625 274.894531 258.402344 C 272.421875 261.414062 269.808594 264.296875 267.050781 267.054688 C 264.296875 269.808594 261.414062 272.421875 258.402344 274.894531 C 255.386719 277.367188 252.261719 279.6875 249.023438 281.851562 C 245.78125 284.015625 242.445312 286.015625 239.007812 287.851562 C 235.570312 289.691406 232.050781 291.355469 228.453125 292.84375 C 224.851562 294.335938 221.1875 295.648438 217.457031 296.777344 C 213.730469 297.910156 209.953125 298.855469 206.132812 299.617188 C 202.308594 300.375 198.460938 300.949219 194.582031 301.328125 C 190.703125 301.710938 186.816406 301.902344 182.917969 301.902344 C 179.023438 301.902344 175.136719 301.710938 171.257812 301.328125 C 167.378906 300.949219 163.53125 300.375 159.707031 299.617188 C 155.886719 298.855469 152.109375 297.910156 148.382812 296.777344 C 144.652344 295.648438 140.988281 294.335938 137.386719 292.84375 C 133.789062 291.355469 130.269531 289.691406 126.832031 287.851562 C 123.394531 286.015625 120.058594 284.015625 116.816406 281.851562 C 113.578125 279.6875 110.453125 277.367188 107.4375 274.894531 C 104.425781 272.421875 101.542969 269.808594 98.789062 267.054688 C 96.03125 264.296875 93.417969 261.414062 90.945312 258.402344 C 88.472656 255.390625 86.15625 252.265625 83.992188 249.023438 C 81.824219 245.785156 79.824219 242.445312 77.988281 239.007812 C 76.152344 235.570312 74.488281 232.054688 72.996094 228.453125 C 71.503906 224.851562 70.191406 221.1875 69.0625 217.460938 C 67.929688 213.730469 66.984375 209.957031 66.226562 206.132812 C 65.464844 202.3125 64.894531 198.460938 64.511719 194.582031 C 64.128906 190.707031 63.9375 186.816406 63.9375 182.921875 Z M 63.9375 182.921875 " clip-rule="nonzero"/></clipPath><clipPath id="c7b1f35d37"><path d="M 246 102 L 269 102 L 269 122 L 246 122 Z M 246 102 " clip-rule="nonzero"/></clipPath><clipPath id="3a0ee9330d"><path d="M 37.503906 182.917969 C 37.503906 178.15625 37.738281 173.402344 38.203125 168.664062 C 38.671875 163.925781 39.367188 159.21875 40.296875 154.550781 C 41.226562 149.878906 42.382812 145.265625 43.765625 140.707031 C 45.148438 136.148438 46.75 131.671875 48.574219 127.269531 C 50.394531 122.871094 52.429688 118.570312 54.675781 114.371094 C 56.917969 110.171875 59.363281 106.089844 62.011719 102.128906 C 64.65625 98.171875 67.488281 94.351562 70.511719 90.667969 C 73.53125 86.988281 76.726562 83.460938 80.09375 80.09375 C 83.460938 76.726562 86.984375 73.535156 90.667969 70.511719 C 94.347656 67.492188 98.167969 64.65625 102.128906 62.011719 C 106.089844 59.367188 110.167969 56.921875 114.371094 54.675781 C 118.570312 52.429688 122.871094 50.394531 127.269531 48.574219 C 131.667969 46.75 136.148438 45.148438 140.707031 43.765625 C 145.261719 42.382812 149.875 41.226562 154.546875 40.300781 C 159.21875 39.371094 163.925781 38.671875 168.664062 38.203125 C 173.402344 37.738281 178.152344 37.503906 182.917969 37.503906 C 187.679688 37.503906 192.429688 37.738281 197.167969 38.203125 C 201.910156 38.671875 206.613281 39.371094 211.285156 40.300781 C 215.957031 41.226562 220.570312 42.382812 225.128906 43.765625 C 229.683594 45.148438 234.164062 46.75 238.5625 48.574219 C 242.964844 50.394531 247.261719 52.429688 251.464844 54.675781 C 255.664062 56.921875 259.742188 59.367188 263.703125 62.011719 C 267.664062 64.65625 271.484375 67.492188 275.164062 70.511719 C 278.847656 73.535156 282.371094 76.726562 285.738281 80.09375 C 289.105469 83.460938 292.300781 86.988281 295.320312 90.667969 C 298.34375 94.351562 301.175781 98.171875 303.824219 102.128906 C 306.46875 106.089844 308.914062 110.171875 311.160156 114.371094 C 313.402344 118.570312 315.4375 122.871094 317.261719 127.269531 C 319.082031 131.671875 320.683594 136.148438 322.066406 140.707031 C 323.449219 145.265625 324.605469 149.878906 325.535156 154.550781 C 326.464844 159.21875 327.160156 163.925781 327.628906 168.664062 C 328.09375 173.402344 328.328125 178.15625 328.328125 182.917969 C 328.328125 187.679688 328.09375 192.429688 327.628906 197.171875 C 327.160156 201.910156 326.464844 206.613281 325.535156 211.285156 C 324.605469 215.957031 323.449219 220.570312 322.066406 225.128906 C 320.683594 229.6875 319.082031 234.164062 317.261719 238.566406 C 315.4375 242.964844 313.402344 247.265625 311.160156 251.464844 C 308.914062 255.664062 306.46875 259.746094 303.824219 263.703125 C 301.175781 267.664062 298.34375 271.484375 295.320312 275.167969 C 292.300781 278.847656 289.105469 282.371094 285.738281 285.738281 C 282.371094 289.105469 278.847656 292.300781 275.164062 295.324219 C 271.484375 298.34375 267.664062 301.179688 263.703125 303.824219 C 259.742188 306.46875 255.664062 308.914062 251.464844 311.160156 C 247.261719 313.40625 242.964844 315.4375 238.5625 317.261719 C 234.164062 319.082031 229.683594 320.6875 225.128906 322.070312 C 220.570312 323.453125 215.957031 324.605469 211.285156 325.535156 C 206.613281 326.464844 201.910156 327.164062 197.167969 327.628906 C 192.429688 328.097656 187.679688 328.332031 182.917969 328.332031 C 178.152344 328.332031 173.402344 328.097656 168.664062 327.628906 C 163.925781 327.164062 159.21875 326.464844 154.546875 325.535156 C 149.875 324.605469 145.261719 323.453125 140.707031 322.070312 C 136.148438 320.6875 131.667969 319.082031 127.269531 317.261719 C 122.871094 315.4375 118.570312 313.40625 114.371094 311.160156 C 110.167969 308.914062 106.089844 306.46875 102.128906 303.824219 C 98.167969 301.179688 94.347656 298.34375 90.667969 295.324219 C 86.984375 292.300781 83.460938 289.105469 80.09375 285.738281 C 76.726562 282.371094 73.53125 278.847656 70.511719 275.167969 C 67.488281 271.484375 64.65625 267.664062 62.011719 263.703125 C 59.363281 259.746094 56.917969 255.664062 54.675781 251.464844 C 52.429688 247.265625 50.394531 242.964844 48.574219 238.566406 C 46.75 234.164062 45.148438 229.6875 43.765625 225.128906 C 42.382812 220.570312 41.226562 215.957031 40.296875 211.285156 C 39.367188 206.613281 38.671875 201.910156 38.203125 197.171875 C 37.738281 192.429688 37.503906 187.679688 37.503906 182.917969 Z M 37.503906 182.917969 " clip-rule="nonzero"/></clipPath><clipPath id="1fe9b8f178"><path d="M 63.9375 182.921875 C 63.9375 179.023438 64.128906 175.136719 64.511719 171.257812 C 64.894531 167.382812 65.464844 163.53125 66.226562 159.710938 C 66.984375 155.886719 67.929688 152.113281 69.0625 148.382812 C 70.191406 144.652344 71.503906 140.988281 72.996094 137.390625 C 74.488281 133.789062 76.152344 130.269531 77.988281 126.835938 C 79.824219 123.398438 81.824219 120.058594 83.992188 116.820312 C 86.15625 113.578125 88.472656 110.453125 90.945312 107.441406 C 93.417969 104.429688 96.03125 101.542969 98.789062 98.789062 C 101.542969 96.035156 104.425781 93.421875 107.4375 90.949219 C 110.453125 88.476562 113.578125 86.15625 116.816406 83.992188 C 120.058594 81.828125 123.394531 79.828125 126.832031 77.988281 C 130.269531 76.152344 133.789062 74.488281 137.386719 72.996094 C 140.988281 71.507812 144.652344 70.195312 148.382812 69.0625 C 152.109375 67.933594 155.886719 66.988281 159.707031 66.226562 C 163.53125 65.464844 167.378906 64.894531 171.257812 64.511719 C 175.136719 64.132812 179.023438 63.941406 182.917969 63.941406 C 186.816406 63.941406 190.703125 64.132812 194.582031 64.511719 C 198.460938 64.894531 202.308594 65.464844 206.132812 66.226562 C 209.953125 66.988281 213.730469 67.933594 217.457031 69.0625 C 221.1875 70.195312 224.851562 71.507812 228.453125 72.996094 C 232.050781 74.488281 235.570312 76.152344 239.007812 77.988281 C 242.445312 79.828125 245.78125 81.828125 249.023438 83.992188 C 252.261719 86.15625 255.386719 88.476562 258.402344 90.949219 C 261.414062 93.421875 264.296875 96.035156 267.050781 98.789062 C 269.808594 101.542969 272.421875 104.429688 274.894531 107.441406 C 277.367188 110.453125 279.683594 113.578125 281.847656 116.820312 C 284.015625 120.058594 286.015625 123.398438 287.851562 126.835938 C 289.6875 130.269531 291.351562 133.789062 292.84375 137.390625 C 294.335938 140.988281 295.644531 144.652344 296.777344 148.382812 C 297.910156 152.113281 298.855469 155.886719 299.613281 159.710938 C 300.375 163.53125 300.945312 167.382812 301.328125 171.257812 C 301.710938 175.136719 301.902344 179.023438 301.902344 182.921875 C 301.902344 186.816406 301.710938 190.707031 301.328125 194.582031 C 300.945312 198.460938 300.375 202.3125 299.613281 206.132812 C 298.855469 209.957031 297.910156 213.730469 296.777344 217.460938 C 295.644531 221.1875 294.335938 224.851562 292.84375 228.453125 C 291.351562 232.054688 289.6875 235.570312 287.851562 239.007812 C 286.015625 242.445312 284.015625 245.785156 281.847656 249.023438 C 279.683594 252.265625 277.367188 255.390625 274.894531 258.402344 C 272.421875 261.414062 269.808594 264.296875 267.050781 267.054688 C 264.296875 269.808594 261.414062 272.421875 258.402344 274.894531 C 255.386719 277.367188 252.261719 279.6875 249.023438 281.851562 C 245.78125 284.015625 242.445312 286.015625 239.007812 287.851562 C 235.570312 289.691406 232.050781 291.355469 228.453125 292.84375 C 224.851562 294.335938 221.1875 295.648438 217.457031 296.777344 C 213.730469 297.910156 209.953125 298.855469 206.132812 299.617188 C 202.308594 300.375 198.460938 300.949219 194.582031 301.328125 C 190.703125 301.710938 186.816406 301.902344 182.917969 301.902344 C 179.023438 301.902344 175.136719 301.710938 171.257812 301.328125 C 167.378906 300.949219 163.53125 300.375 159.707031 299.617188 C 155.886719 298.855469 152.109375 297.910156 148.382812 296.777344 C 144.652344 295.648438 140.988281 294.335938 137.386719 292.84375 C 133.789062 291.355469 130.269531 289.691406 126.832031 287.851562 C 123.394531 286.015625 120.058594 284.015625 116.816406 281.851562 C 113.578125 279.6875 110.453125 277.367188 107.4375 274.894531 C 104.425781 272.421875 101.542969 269.808594 98.789062 267.054688 C 96.03125 264.296875 93.417969 261.414062 90.945312 258.402344 C 88.472656 255.390625 86.15625 252.265625 83.992188 249.023438 C 81.824219 245.785156 79.824219 242.445312 77.988281 239.007812 C 76.152344 235.570312 74.488281 232.054688 72.996094 228.453125 C 71.503906 224.851562 70.191406 221.1875 69.0625 217.460938 C 67.929688 213.730469 66.984375 209.957031 66.226562 206.132812 C 65.464844 202.3125 64.894531 198.460938 64.511719 194.582031 C 64.128906 190.707031 63.9375 186.816406 63.9375 182.921875 Z M 63.9375 182.921875 " clip-rule="nonzero"/></clipPath><clipPath id="1eab1824bb"><path d="M 102 245 L 125 245 L 125 265 L 102 265 Z M 102 245 " clip-rule="nonzero"/></clipPath><clipPath id="e9e6b522d1"><path d="M 37.503906 182.917969 C 37.503906 178.15625 37.738281 173.402344 38.203125 168.664062 C 38.671875 163.925781 39.367188 159.21875 40.296875 154.550781 C 41.226562 149.878906 42.382812 145.265625 43.765625 140.707031 C 45.148438 136.148438 46.75 131.671875 48.574219 127.269531 C 50.394531 122.871094 52.429688 118.570312 54.675781 114.371094 C 56.917969 110.171875 59.363281 106.089844 62.011719 102.128906 C 64.65625 98.171875 67.488281 94.351562 70.511719 90.667969 C 73.53125 86.988281 76.726562 83.460938 80.09375 80.09375 C 83.460938 76.726562 86.984375 73.535156 90.667969 70.511719 C 94.347656 67.492188 98.167969 64.65625 102.128906 62.011719 C 106.089844 59.367188 110.167969 56.921875 114.371094 54.675781 C 118.570312 52.429688 122.871094 50.394531 127.269531 48.574219 C 131.667969 46.75 136.148438 45.148438 140.707031 43.765625 C 145.261719 42.382812 149.875 41.226562 154.546875 40.300781 C 159.21875 39.371094 163.925781 38.671875 168.664062 38.203125 C 173.402344 37.738281 178.152344 37.503906 182.917969 37.503906 C 187.679688 37.503906 192.429688 37.738281 197.167969 38.203125 C 201.910156 38.671875 206.613281 39.371094 211.285156 40.300781 C 215.957031 41.226562 220.570312 42.382812 225.128906 43.765625 C 229.683594 45.148438 234.164062 46.75 238.5625 48.574219 C 242.964844 50.394531 247.261719 52.429688 251.464844 54.675781 C 255.664062 56.921875 259.742188 59.367188 263.703125 62.011719 C 267.664062 64.65625 271.484375 67.492188 275.164062 70.511719 C 278.847656 73.535156 282.371094 76.726562 285.738281 80.09375 C 289.105469 83.460938 292.300781 86.988281 295.320312 90.667969 C 298.34375 94.351562 301.175781 98.171875 303.824219 102.128906 C 306.46875 106.089844 308.914062 110.171875 311.160156 114.371094 C 313.402344 118.570312 315.4375 122.871094 317.261719 127.269531 C 319.082031 131.671875 320.683594 136.148438 322.066406 140.707031 C 323.449219 145.265625 324.605469 149.878906 325.535156 154.550781 C 326.464844 159.21875 327.160156 163.925781 327.628906 168.664062 C 328.09375 173.402344 328.328125 178.15625 328.328125 182.917969 C 328.328125 187.679688 328.09375 192.429688 327.628906 197.171875 C 327.160156 201.910156 326.464844 206.613281 325.535156 211.285156 C 324.605469 215.957031 323.449219 220.570312 322.066406 225.128906 C 320.683594 229.6875 319.082031 234.164062 317.261719 238.566406 C 315.4375 242.964844 313.402344 247.265625 311.160156 251.464844 C 308.914062 255.664062 306.46875 259.746094 303.824219 263.703125 C 301.175781 267.664062 298.34375 271.484375 295.320312 275.167969 C 292.300781 278.847656 289.105469 282.371094 285.738281 285.738281 C 282.371094 289.105469 278.847656 292.300781 275.164062 295.324219 C 271.484375 298.34375 267.664062 301.179688 263.703125 303.824219 C 259.742188 306.46875 255.664062 308.914062 251.464844 311.160156 C 247.261719 313.40625 242.964844 315.4375 238.5625 317.261719 C 234.164062 319.082031 229.683594 320.6875 225.128906 322.070312 C 220.570312 323.453125 215.957031 324.605469 211.285156 325.535156 C 206.613281 326.464844 201.910156 327.164062 197.167969 327.628906 C 192.429688 328.097656 187.679688 328.332031 182.917969 328.332031 C 178.152344 328.332031 173.402344 328.097656 168.664062 327.628906 C 163.925781 327.164062 159.21875 326.464844 154.546875 325.535156 C 149.875 324.605469 145.261719 323.453125 140.707031 322.070312 C 136.148438 320.6875 131.667969 319.082031 127.269531 317.261719 C 122.871094 315.4375 118.570312 313.40625 114.371094 311.160156 C 110.167969 308.914062 106.089844 306.46875 102.128906 303.824219 C 98.167969 301.179688 94.347656 298.34375 90.667969 295.324219 C 86.984375 292.300781 83.460938 289.105469 80.09375 285.738281 C 76.726562 282.371094 73.53125 278.847656 70.511719 275.167969 C 67.488281 271.484375 64.65625 267.664062 62.011719 263.703125 C 59.363281 259.746094 56.917969 255.664062 54.675781 251.464844 C 52.429688 247.265625 50.394531 242.964844 48.574219 238.566406 C 46.75 234.164062 45.148438 229.6875 43.765625 225.128906 C 42.382812 220.570312 41.226562 215.957031 40.296875 211.285156 C 39.367188 206.613281 38.671875 201.910156 38.203125 197.171875 C 37.738281 192.429688 37.503906 187.679688 37.503906 182.917969 Z M 37.503906 182.917969 " clip-rule="nonzero"/></clipPath><clipPath id="d61c277f57"><path d="M 63.9375 182.921875 C 63.9375 179.023438 64.128906 175.136719 64.511719 171.257812 C 64.894531 167.382812 65.464844 163.53125 66.226562 159.710938 C 66.984375 155.886719 67.929688 152.113281 69.0625 148.382812 C 70.191406 144.652344 71.503906 140.988281 72.996094 137.390625 C 74.488281 133.789062 76.152344 130.269531 77.988281 126.835938 C 79.824219 123.398438 81.824219 120.058594 83.992188 116.820312 C 86.15625 113.578125 88.472656 110.453125 90.945312 107.441406 C 93.417969 104.429688 96.03125 101.542969 98.789062 98.789062 C 101.542969 96.035156 104.425781 93.421875 107.4375 90.949219 C 110.453125 88.476562 113.578125 86.15625 116.816406 83.992188 C 120.058594 81.828125 123.394531 79.828125 126.832031 77.988281 C 130.269531 76.152344 133.789062 74.488281 137.386719 72.996094 C 140.988281 71.507812 144.652344 70.195312 148.382812 69.0625 C 152.109375 67.933594 155.886719 66.988281 159.707031 66.226562 C 163.53125 65.464844 167.378906 64.894531 171.257812 64.511719 C 175.136719 64.132812 179.023438 63.941406 182.917969 63.941406 C 186.816406 63.941406 190.703125 64.132812 194.582031 64.511719 C 198.460938 64.894531 202.308594 65.464844 206.132812 66.226562 C 209.953125 66.988281 213.730469 67.933594 217.457031 69.0625 C 221.1875 70.195312 224.851562 71.507812 228.453125 72.996094 C 232.050781 74.488281 235.570312 76.152344 239.007812 77.988281 C 242.445312 79.828125 245.78125 81.828125 249.023438 83.992188 C 252.261719 86.15625 255.386719 88.476562 258.402344 90.949219 C 261.414062 93.421875 264.296875 96.035156 267.050781 98.789062 C 269.808594 101.542969 272.421875 104.429688 274.894531 107.441406 C 277.367188 110.453125 279.683594 113.578125 281.847656 116.820312 C 284.015625 120.058594 286.015625 123.398438 287.851562 126.835938 C 289.6875 130.269531 291.351562 133.789062 292.84375 137.390625 C 294.335938 140.988281 295.644531 144.652344 296.777344 148.382812 C 297.910156 152.113281 298.855469 155.886719 299.613281 159.710938 C 300.375 163.53125 300.945312 167.382812 301.328125 171.257812 C 301.710938 175.136719 301.902344 179.023438 301.902344 182.921875 C 301.902344 186.816406 301.710938 190.707031 301.328125 194.582031 C 300.945312 198.460938 300.375 202.3125 299.613281 206.132812 C 298.855469 209.957031 297.910156 213.730469 296.777344 217.460938 C 295.644531 221.1875 294.335938 224.851562 292.84375 228.453125 C 291.351562 232.054688 289.6875 235.570312 287.851562 239.007812 C 286.015625 242.445312 284.015625 245.785156 281.847656 249.023438 C 279.683594 252.265625 277.367188 255.390625 274.894531 258.402344 C 272.421875 261.414062 269.808594 264.296875 267.050781 267.054688 C 264.296875 269.808594 261.414062 272.421875 258.402344 274.894531 C 255.386719 277.367188 252.261719 279.6875 249.023438 281.851562 C 245.78125 284.015625 242.445312 286.015625 239.007812 287.851562 C 235.570312 289.691406 232.050781 291.355469 228.453125 292.84375 C 224.851562 294.335938 221.1875 295.648438 217.457031 296.777344 C 213.730469 297.910156 209.953125 298.855469 206.132812 299.617188 C 202.308594 300.375 198.460938 300.949219 194.582031 301.328125 C 190.703125 301.710938 186.816406 301.902344 182.917969 301.902344 C 179.023438 301.902344 175.136719 301.710938 171.257812 301.328125 C 167.378906 300.949219 163.53125 300.375 159.707031 299.617188 C 155.886719 298.855469 152.109375 297.910156 148.382812 296.777344 C 144.652344 295.648438 140.988281 294.335938 137.386719 292.84375 C 133.789062 291.355469 130.269531 289.691406 126.832031 287.851562 C 123.394531 286.015625 120.058594 284.015625 116.816406 281.851562 C 113.578125 279.6875 110.453125 277.367188 107.4375 274.894531 C 104.425781 272.421875 101.542969 269.808594 98.789062 267.054688 C 96.03125 264.296875 93.417969 261.414062 90.945312 258.402344 C 88.472656 255.390625 86.15625 252.265625 83.992188 249.023438 C 81.824219 245.785156 79.824219 242.445312 77.988281 239.007812 C 76.152344 235.570312 74.488281 232.054688 72.996094 228.453125 C 71.503906 224.851562 70.191406 221.1875 69.0625 217.460938 C 67.929688 213.730469 66.984375 209.957031 66.226562 206.132812 C 65.464844 202.3125 64.894531 198.460938 64.511719 194.582031 C 64.128906 190.707031 63.9375 186.816406 63.9375 182.921875 Z M 63.9375 182.921875 " clip-rule="nonzero"/></clipPath><clipPath id="c66d7d08f6"><path d="M 241 243 L 263 243 L 263 264 L 241 264 Z M 241 243 " clip-rule="nonzero"/></clipPath><clipPath id="eb8460ab2d"><path d="M 37.503906 182.917969 C 37.503906 178.15625 37.738281 173.402344 38.203125 168.664062 C 38.671875 163.925781 39.367188 159.21875 40.296875 154.550781 C 41.226562 149.878906 42.382812 145.265625 43.765625 140.707031 C 45.148438 136.148438 46.75 131.671875 48.574219 127.269531 C 50.394531 122.871094 52.429688 118.570312 54.675781 114.371094 C 56.917969 110.171875 59.363281 106.089844 62.011719 102.128906 C 64.65625 98.171875 67.488281 94.351562 70.511719 90.667969 C 73.53125 86.988281 76.726562 83.460938 80.09375 80.09375 C 83.460938 76.726562 86.984375 73.535156 90.667969 70.511719 C 94.347656 67.492188 98.167969 64.65625 102.128906 62.011719 C 106.089844 59.367188 110.167969 56.921875 114.371094 54.675781 C 118.570312 52.429688 122.871094 50.394531 127.269531 48.574219 C 131.667969 46.75 136.148438 45.148438 140.707031 43.765625 C 145.261719 42.382812 149.875 41.226562 154.546875 40.300781 C 159.21875 39.371094 163.925781 38.671875 168.664062 38.203125 C 173.402344 37.738281 178.152344 37.503906 182.917969 37.503906 C 187.679688 37.503906 192.429688 37.738281 197.167969 38.203125 C 201.910156 38.671875 206.613281 39.371094 211.285156 40.300781 C 215.957031 41.226562 220.570312 42.382812 225.128906 43.765625 C 229.683594 45.148438 234.164062 46.75 238.5625 48.574219 C 242.964844 50.394531 247.261719 52.429688 251.464844 54.675781 C 255.664062 56.921875 259.742188 59.367188 263.703125 62.011719 C 267.664062 64.65625 271.484375 67.492188 275.164062 70.511719 C 278.847656 73.535156 282.371094 76.726562 285.738281 80.09375 C 289.105469 83.460938 292.300781 86.988281 295.320312 90.667969 C 298.34375 94.351562 301.175781 98.171875 303.824219 102.128906 C 306.46875 106.089844 308.914062 110.171875 311.160156 114.371094 C 313.402344 118.570312 315.4375 122.871094 317.261719 127.269531 C 319.082031 131.671875 320.683594 136.148438 322.066406 140.707031 C 323.449219 145.265625 324.605469 149.878906 325.535156 154.550781 C 326.464844 159.21875 327.160156 163.925781 327.628906 168.664062 C 328.09375 173.402344 328.328125 178.15625 328.328125 182.917969 C 328.328125 187.679688 328.09375 192.429688 327.628906 197.171875 C 327.160156 201.910156 326.464844 206.613281 325.535156 211.285156 C 324.605469 215.957031 323.449219 220.570312 322.066406 225.128906 C 320.683594 229.6875 319.082031 234.164062 317.261719 238.566406 C 315.4375 242.964844 313.402344 247.265625 311.160156 251.464844 C 308.914062 255.664062 306.46875 259.746094 303.824219 263.703125 C 301.175781 267.664062 298.34375 271.484375 295.320312 275.167969 C 292.300781 278.847656 289.105469 282.371094 285.738281 285.738281 C 282.371094 289.105469 278.847656 292.300781 275.164062 295.324219 C 271.484375 298.34375 267.664062 301.179688 263.703125 303.824219 C 259.742188 306.46875 255.664062 308.914062 251.464844 311.160156 C 247.261719 313.40625 242.964844 315.4375 238.5625 317.261719 C 234.164062 319.082031 229.683594 320.6875 225.128906 322.070312 C 220.570312 323.453125 215.957031 324.605469 211.285156 325.535156 C 206.613281 326.464844 201.910156 327.164062 197.167969 327.628906 C 192.429688 328.097656 187.679688 328.332031 182.917969 328.332031 C 178.152344 328.332031 173.402344 328.097656 168.664062 327.628906 C 163.925781 327.164062 159.21875 326.464844 154.546875 325.535156 C 149.875 324.605469 145.261719 323.453125 140.707031 322.070312 C 136.148438 320.6875 131.667969 319.082031 127.269531 317.261719 C 122.871094 315.4375 118.570312 313.40625 114.371094 311.160156 C 110.167969 308.914062 106.089844 306.46875 102.128906 303.824219 C 98.167969 301.179688 94.347656 298.34375 90.667969 295.324219 C 86.984375 292.300781 83.460938 289.105469 80.09375 285.738281 C 76.726562 282.371094 73.53125 278.847656 70.511719 275.167969 C 67.488281 271.484375 64.65625 267.664062 62.011719 263.703125 C 59.363281 259.746094 56.917969 255.664062 54.675781 251.464844 C 52.429688 247.265625 50.394531 242.964844 48.574219 238.566406 C 46.75 234.164062 45.148438 229.6875 43.765625 225.128906 C 42.382812 220.570312 41.226562 215.957031 40.296875 211.285156 C 39.367188 206.613281 38.671875 201.910156 38.203125 197.171875 C 37.738281 192.429688 37.503906 187.679688 37.503906 182.917969 Z M 37.503906 182.917969 " clip-rule="nonzero"/></clipPath><clipPath id="abd458565e"><path d="M 63.9375 182.921875 C 63.9375 179.023438 64.128906 175.136719 64.511719 171.257812 C 64.894531 167.382812 65.464844 163.53125 66.226562 159.710938 C 66.984375 155.886719 67.929688 152.113281 69.0625 148.382812 C 70.191406 144.652344 71.503906 140.988281 72.996094 137.390625 C 74.488281 133.789062 76.152344 130.269531 77.988281 126.835938 C 79.824219 123.398438 81.824219 120.058594 83.992188 116.820312 C 86.15625 113.578125 88.472656 110.453125 90.945312 107.441406 C 93.417969 104.429688 96.03125 101.542969 98.789062 98.789062 C 101.542969 96.035156 104.425781 93.421875 107.4375 90.949219 C 110.453125 88.476562 113.578125 86.15625 116.816406 83.992188 C 120.058594 81.828125 123.394531 79.828125 126.832031 77.988281 C 130.269531 76.152344 133.789062 74.488281 137.386719 72.996094 C 140.988281 71.507812 144.652344 70.195312 148.382812 69.0625 C 152.109375 67.933594 155.886719 66.988281 159.707031 66.226562 C 163.53125 65.464844 167.378906 64.894531 171.257812 64.511719 C 175.136719 64.132812 179.023438 63.941406 182.917969 63.941406 C 186.816406 63.941406 190.703125 64.132812 194.582031 64.511719 C 198.460938 64.894531 202.308594 65.464844 206.132812 66.226562 C 209.953125 66.988281 213.730469 67.933594 217.457031 69.0625 C 221.1875 70.195312 224.851562 71.507812 228.453125 72.996094 C 232.050781 74.488281 235.570312 76.152344 239.007812 77.988281 C 242.445312 79.828125 245.78125 81.828125 249.023438 83.992188 C 252.261719 86.15625 255.386719 88.476562 258.402344 90.949219 C 261.414062 93.421875 264.296875 96.035156 267.050781 98.789062 C 269.808594 101.542969 272.421875 104.429688 274.894531 107.441406 C 277.367188 110.453125 279.683594 113.578125 281.847656 116.820312 C 284.015625 120.058594 286.015625 123.398438 287.851562 126.835938 C 289.6875 130.269531 291.351562 133.789062 292.84375 137.390625 C 294.335938 140.988281 295.644531 144.652344 296.777344 148.382812 C 297.910156 152.113281 298.855469 155.886719 299.613281 159.710938 C 300.375 163.53125 300.945312 167.382812 301.328125 171.257812 C 301.710938 175.136719 301.902344 179.023438 301.902344 182.921875 C 301.902344 186.816406 301.710938 190.707031 301.328125 194.582031 C 300.945312 198.460938 300.375 202.3125 299.613281 206.132812 C 298.855469 209.957031 297.910156 213.730469 296.777344 217.460938 C 295.644531 221.1875 294.335938 224.851562 292.84375 228.453125 C 291.351562 232.054688 289.6875 235.570312 287.851562 239.007812 C 286.015625 242.445312 284.015625 245.785156 281.847656 249.023438 C 279.683594 252.265625 277.367188 255.390625 274.894531 258.402344 C 272.421875 261.414062 269.808594 264.296875 267.050781 267.054688 C 264.296875 269.808594 261.414062 272.421875 258.402344 274.894531 C 255.386719 277.367188 252.261719 279.6875 249.023438 281.851562 C 245.78125 284.015625 242.445312 286.015625 239.007812 287.851562 C 235.570312 289.691406 232.050781 291.355469 228.453125 292.84375 C 224.851562 294.335938 221.1875 295.648438 217.457031 296.777344 C 213.730469 297.910156 209.953125 298.855469 206.132812 299.617188 C 202.308594 300.375 198.460938 300.949219 194.582031 301.328125 C 190.703125 301.710938 186.816406 301.902344 182.917969 301.902344 C 179.023438 301.902344 175.136719 301.710938 171.257812 301.328125 C 167.378906 300.949219 163.53125 300.375 159.707031 299.617188 C 155.886719 298.855469 152.109375 297.910156 148.382812 296.777344 C 144.652344 295.648438 140.988281 294.335938 137.386719 292.84375 C 133.789062 291.355469 130.269531 289.691406 126.832031 287.851562 C 123.394531 286.015625 120.058594 284.015625 116.816406 281.851562 C 113.578125 279.6875 110.453125 277.367188 107.4375 274.894531 C 104.425781 272.421875 101.542969 269.808594 98.789062 267.054688 C 96.03125 264.296875 93.417969 261.414062 90.945312 258.402344 C 88.472656 255.390625 86.15625 252.265625 83.992188 249.023438 C 81.824219 245.785156 79.824219 242.445312 77.988281 239.007812 C 76.152344 235.570312 74.488281 232.054688 72.996094 228.453125 C 71.503906 224.851562 70.191406 221.1875 69.0625 217.460938 C 67.929688 213.730469 66.984375 209.957031 66.226562 206.132812 C 65.464844 202.3125 64.894531 198.460938 64.511719 194.582031 C 64.128906 190.707031 63.9375 186.816406 63.9375 182.921875 Z M 63.9375 182.921875 " clip-rule="nonzero"/></clipPath><clipPath id="7e8bb32ba1"><path d="M 222 167 L 240 167 L 240 176 L 222 176 Z M 222 167 " clip-rule="nonzero"/></clipPath><clipPath id="cd8fc7c2bb"><path d="M 125.683594 131.03125 L 182.628906 120.839844 L 239.777344 129.617188 C 239.777344 129.617188 240.25 239.238281 240.097656 241.917969 L 126.503906 241.917969 Z M 125.683594 131.03125 " clip-rule="evenodd"/></clipPath><clipPath id="2152540c0f"><path d="M 182 150 L 240.128906 150 L 240.128906 162 L 182 162 Z M 182 150 " clip-rule="nonzero"/></clipPath><clipPath id="420db92571"><path d="M 125.683594 131.03125 L 182.628906 120.839844 L 239.777344 129.617188 C 239.777344 129.617188 240.25 239.238281 240.097656 241.917969 L 126.503906 241.917969 Z M 125.683594 131.03125 " clip-rule="evenodd"/></clipPath><clipPath id="478546d0c9"><path d="M 125.671875 150 L 183 150 L 183 163 L 125.671875 163 Z M 125.671875 150 " clip-rule="nonzero"/></clipPath><clipPath id="ba9900d963"><path d="M 125.683594 131.03125 L 182.628906 120.839844 L 239.777344 129.617188 C 239.777344 129.617188 240.25 239.238281 240.097656 241.917969 L 126.503906 241.917969 Z M 125.683594 131.03125 " clip-rule="evenodd"/></clipPath><clipPath id="1fff2df258"><path d="M 192 181 L 211 181 L 211 237 L 192 237 Z M 192 181 " clip-rule="nonzero"/></clipPath><clipPath id="e6f90a1ef3"><path d="M 125.683594 131.03125 L 182.628906 120.839844 L 239.777344 129.617188 C 239.777344 129.617188 240.25 239.238281 240.097656 241.917969 L 126.503906 241.917969 Z M 125.683594 131.03125 " clip-rule="evenodd"/></clipPath><clipPath id="249a6af861"><path d="M 125.671875 166 L 145 166 L 145 176 L 125.671875 176 Z M 125.671875 166 " clip-rule="nonzero"/></clipPath><clipPath id="9cf0ab589a"><path d="M 125.683594 131.03125 L 182.628906 120.839844 L 239.777344 129.617188 C 239.777344 129.617188 240.25 239.238281 240.097656 241.917969 L 126.503906 241.917969 Z M 125.683594 131.03125 " clip-rule="evenodd"/></clipPath><clipPath id="7ffaae7757"><path d="M 147 166 L 156 166 L 156 176 L 147 176 Z M 147 166 " clip-rule="nonzero"/></clipPath><clipPath id="235f066f42"><path d="M 125.683594 131.03125 L 182.628906 120.839844 L 239.777344 129.617188 C 239.777344 129.617188 240.25 239.238281 240.097656 241.917969 L 126.503906 241.917969 Z M 125.683594 131.03125 " clip-rule="evenodd"/></clipPath><clipPath id="164ba1b481"><path d="M 211 167 L 220 167 L 220 176 L 211 176 Z M 211 167 " clip-rule="nonzero"/></clipPath><clipPath id="198586cda4"><path d="M 125.683594 131.03125 L 182.628906 120.839844 L 239.777344 129.617188 C 239.777344 129.617188 240.25 239.238281 240.097656 241.917969 L 126.503906 241.917969 Z M 125.683594 131.03125 " clip-rule="evenodd"/></clipPath><clipPath id="74fd51b819"><path d="M 159 165 L 183 165 L 183 176 L 159 176 Z M 159 165 " clip-rule="nonzero"/></clipPath><clipPath id="46c5ef47be"><path d="M 125.683594 131.03125 L 182.628906 120.839844 L 239.777344 129.617188 C 239.777344 129.617188 240.25 239.238281 240.097656 241.917969 L 126.503906 241.917969 Z M 125.683594 131.03125 " clip-rule="evenodd"/></clipPath><clipPath id="3933250d84"><path d="M 182 165 L 208 165 L 208 176 L 182 176 Z M 182 165 " clip-rule="nonzero"/></clipPath><clipPath id="6e1ec00e3c"><path d="M 125.683594 131.03125 L 182.628906 120.839844 L 239.777344 129.617188 C 239.777344 129.617188 240.25 239.238281 240.097656 241.917969 L 126.503906 241.917969 Z M 125.683594 131.03125 " clip-rule="evenodd"/></clipPath></defs><g clip-path="url(#3691d825b4)"><path fill="#fff" d="M 328.328125 182.917969 C 328.328125 185.296875 328.269531 187.675781 328.152344 190.050781 C 328.035156 192.429688 327.863281 194.800781 327.628906 197.171875 C 327.394531 199.539062 327.105469 201.898438 326.753906 204.253906 C 326.40625 206.609375 326 208.953125 325.535156 211.285156 C 325.070312 213.621094 324.550781 215.941406 323.972656 218.25 C 323.394531 220.558594 322.757812 222.851562 322.066406 225.128906 C 321.375 227.40625 320.628906 229.664062 319.828125 231.90625 C 319.027344 234.144531 318.171875 236.367188 317.261719 238.5625 C 316.347656 240.761719 315.386719 242.9375 314.367188 245.089844 C 313.351562 247.242188 312.28125 249.367188 311.160156 251.464844 C 310.035156 253.5625 308.863281 255.632812 307.640625 257.675781 C 306.417969 259.714844 305.144531 261.726562 303.824219 263.703125 C 302.5 265.683594 301.128906 267.628906 299.710938 269.539062 C 298.296875 271.449219 296.832031 273.328125 295.320312 275.167969 C 293.8125 277.003906 292.257812 278.808594 290.660156 280.570312 C 289.0625 282.332031 287.421875 284.058594 285.738281 285.738281 C 284.054688 287.421875 282.332031 289.0625 280.570312 290.660156 C 278.804688 292.257812 277.003906 293.8125 275.164062 295.324219 C 273.324219 296.832031 271.449219 298.296875 269.539062 299.714844 C 267.625 301.132812 265.683594 302.5 263.703125 303.824219 C 261.722656 305.144531 259.714844 306.417969 257.671875 307.640625 C 255.632812 308.867188 253.5625 310.039062 251.464844 311.160156 C 249.363281 312.28125 247.238281 313.351562 245.089844 314.367188 C 242.9375 315.386719 240.761719 316.351562 238.5625 317.261719 C 236.363281 318.171875 234.144531 319.027344 231.902344 319.828125 C 229.664062 320.632812 227.40625 321.378906 225.128906 322.070312 C 222.851562 322.757812 220.558594 323.394531 218.25 323.972656 C 215.941406 324.550781 213.617188 325.070312 211.285156 325.535156 C 208.949219 326 206.605469 326.40625 204.253906 326.757812 C 201.898438 327.105469 199.539062 327.398438 197.167969 327.628906 C 194.800781 327.863281 192.429688 328.039062 190.050781 328.15625 C 187.675781 328.273438 185.296875 328.332031 182.917969 328.332031 C 180.535156 328.332031 178.15625 328.273438 175.78125 328.15625 C 173.40625 328.039062 171.03125 327.863281 168.664062 327.628906 C 166.296875 327.398438 163.933594 327.105469 161.578125 326.757812 C 159.226562 326.40625 156.882812 326 154.546875 325.535156 C 152.214844 325.070312 149.890625 324.550781 147.582031 323.972656 C 145.277344 323.394531 142.984375 322.757812 140.707031 322.070312 C 138.429688 321.378906 136.167969 320.632812 133.929688 319.828125 C 131.6875 319.027344 129.46875 318.171875 127.269531 317.261719 C 125.070312 316.351562 122.894531 315.386719 120.746094 314.367188 C 118.59375 313.351562 116.46875 312.28125 114.371094 311.160156 C 112.269531 310.039062 110.199219 308.867188 108.160156 307.640625 C 106.117188 306.417969 104.109375 305.144531 102.128906 303.824219 C 100.152344 302.5 98.207031 301.132812 96.292969 299.714844 C 94.382812 298.296875 92.507812 296.832031 90.667969 295.324219 C 88.828125 293.8125 87.027344 292.257812 85.261719 290.660156 C 83.5 289.0625 81.777344 287.421875 80.09375 285.738281 C 78.410156 284.058594 76.769531 282.332031 75.171875 280.570312 C 73.574219 278.808594 72.019531 277.003906 70.511719 275.167969 C 69 273.328125 67.539062 271.449219 66.121094 269.539062 C 64.703125 267.628906 63.332031 265.683594 62.011719 263.703125 C 60.6875 261.726562 59.414062 259.714844 58.191406 257.675781 C 56.96875 255.632812 55.796875 253.5625 54.671875 251.464844 C 53.550781 249.367188 52.480469 247.242188 51.464844 245.089844 C 50.449219 242.9375 49.484375 240.761719 48.574219 238.5625 C 47.660156 236.367188 46.804688 234.144531 46.003906 231.90625 C 45.203125 229.664062 44.457031 227.40625 43.765625 225.128906 C 43.074219 222.851562 42.441406 220.558594 41.863281 218.25 C 41.285156 215.941406 40.761719 213.621094 40.296875 211.285156 C 39.832031 208.953125 39.425781 206.609375 39.078125 204.253906 C 38.726562 201.898438 38.4375 199.539062 38.203125 197.171875 C 37.96875 194.800781 37.796875 192.429688 37.679688 190.050781 C 37.5625 187.675781 37.503906 185.296875 37.503906 182.917969 C 37.503906 180.539062 37.5625 178.160156 37.679688 175.78125 C 37.796875 173.40625 37.96875 171.03125 38.203125 168.664062 C 38.4375 166.296875 38.726562 163.933594 39.078125 161.582031 C 39.425781 159.226562 39.832031 156.882812 40.296875 154.550781 C 40.761719 152.214844 41.28125 149.894531 41.863281 147.585938 C 42.441406 145.277344 43.074219 142.984375 43.765625 140.707031 C 44.457031 138.429688 45.203125 136.171875 46.003906 133.929688 C 46.804688 131.6875 47.660156 129.46875 48.574219 127.269531 C 49.484375 125.070312 50.449219 122.898438 51.464844 120.746094 C 52.480469 118.59375 53.550781 116.46875 54.675781 114.371094 C 55.796875 112.273438 56.96875 110.203125 58.191406 108.160156 C 59.414062 106.117188 60.6875 104.109375 62.011719 102.128906 C 63.332031 100.152344 64.703125 98.207031 66.121094 96.296875 C 67.539062 94.382812 69 92.507812 70.511719 90.667969 C 72.019531 88.828125 73.574219 87.027344 75.171875 85.265625 C 76.769531 83.5 78.410156 81.777344 80.09375 80.09375 C 81.777344 78.414062 83.5 76.773438 85.261719 75.171875 C 87.027344 73.574219 88.828125 72.023438 90.667969 70.511719 C 92.507812 69.003906 94.382812 67.539062 96.292969 66.121094 C 98.207031 64.703125 100.152344 63.332031 102.128906 62.011719 C 104.109375 60.6875 106.117188 59.417969 108.160156 58.191406 C 110.199219 56.96875 112.269531 55.796875 114.371094 54.675781 C 116.46875 53.554688 118.59375 52.484375 120.746094 51.464844 C 122.894531 50.449219 125.070312 49.484375 127.269531 48.574219 C 129.46875 47.664062 131.6875 46.808594 133.929688 46.003906 C 136.167969 45.203125 138.429688 44.457031 140.707031 43.765625 C 142.984375 43.074219 145.277344 42.441406 147.582031 41.863281 C 149.890625 41.285156 152.214844 40.761719 154.546875 40.300781 C 156.882812 39.835938 159.226562 39.429688 161.578125 39.078125 C 163.933594 38.730469 166.296875 38.4375 168.664062 38.207031 C 171.03125 37.972656 173.40625 37.796875 175.78125 37.679688 C 178.15625 37.5625 180.535156 37.503906 182.917969 37.503906 C 185.296875 37.503906 187.675781 37.5625 190.050781 37.679688 C 192.429688 37.796875 194.800781 37.972656 197.167969 38.207031 C 199.539062 38.4375 201.898438 38.730469 204.253906 39.078125 C 206.605469 39.429688 208.949219 39.835938 211.285156 40.300781 C 213.617188 40.761719 215.941406 41.285156 218.25 41.863281 C 220.558594 42.441406 222.851562 43.074219 225.128906 43.765625 C 227.40625 44.457031 229.664062 45.203125 231.902344 46.003906 C 234.144531 46.808594 236.363281 47.664062 238.5625 48.574219 C 240.761719 49.484375 242.9375 50.449219 245.089844 51.464844 C 247.238281 52.484375 249.363281 53.554688 251.464844 54.675781 C 253.5625 55.796875 255.632812 56.96875 257.671875 58.191406 C 259.714844 59.417969 261.722656 60.6875 263.703125 62.011719 C 265.683594 63.332031 267.625 64.703125 269.539062 66.121094 C 271.449219 67.539062 273.324219 69.003906 275.164062 70.511719 C 277.003906 72.023438 278.804688 73.574219 280.570312 75.171875 C 282.332031 76.773438 284.054688 78.414062 285.738281 80.09375 C 287.421875 81.777344 289.0625 83.5 290.660156 85.265625 C 292.257812 87.027344 293.8125 88.828125 295.320312 90.667969 C 296.832031 92.507812 298.296875 94.382812 299.710938 96.296875 C 301.128906 98.207031 302.5 100.152344 303.824219 102.128906 C 305.144531 104.109375 306.417969 106.117188 307.640625 108.160156 C 308.863281 110.203125 310.035156 112.273438 311.160156 114.371094 C 312.28125 116.46875 313.351562 118.59375 314.367188 120.746094 C 315.386719 122.898438 316.347656 125.070312 317.261719 127.269531 C 318.171875 129.46875 319.027344 131.6875 319.828125 133.929688 C 320.628906 136.171875 321.375 138.429688 322.066406 140.707031 C 322.757812 142.984375 323.394531 145.277344 323.972656 147.585938 C 324.550781 149.894531 325.070312 152.214844 325.535156 154.550781 C 326 156.882812 326.40625 159.226562 326.753906 161.582031 C 327.105469 163.933594 327.394531 166.296875 327.628906 168.664062 C 327.863281 171.03125 328.035156 173.40625 328.152344 175.78125 C 328.269531 178.160156 328.328125 180.539062 328.328125 182.917969 Z M 328.328125 182.917969 " fill-opacity="1" fill-rule="nonzero"/></g><g clip-path="url(#e1e543f664)"><g clip-path="url(#afede5c95e)"><path fill="#ffffff" d="M 301.902344 182.921875 C 301.902344 184.867188 301.851562 186.816406 301.757812 188.757812 C 301.660156 190.703125 301.519531 192.644531 301.328125 194.582031 C 301.136719 196.519531 300.898438 198.453125 300.613281 200.378906 C 300.328125 202.304688 299.996094 204.222656 299.613281 206.132812 C 299.234375 208.042969 298.808594 209.941406 298.335938 211.832031 C 297.863281 213.71875 297.34375 215.597656 296.777344 217.460938 C 296.210938 219.324219 295.601562 221.171875 294.945312 223.003906 C 294.289062 224.839844 293.589844 226.65625 292.84375 228.453125 C 292.097656 230.253906 291.308594 232.03125 290.476562 233.792969 C 289.644531 235.550781 288.769531 237.292969 287.851562 239.007812 C 286.933594 240.726562 285.972656 242.417969 284.972656 244.089844 C 283.972656 245.761719 282.929688 247.40625 281.847656 249.023438 C 280.765625 250.644531 279.644531 252.234375 278.484375 253.796875 C 277.324219 255.363281 276.128906 256.898438 274.894531 258.402344 C 273.65625 259.90625 272.386719 261.382812 271.078125 262.824219 C 269.769531 264.265625 268.429688 265.675781 267.050781 267.054688 C 265.675781 268.429688 264.265625 269.773438 262.824219 271.082031 C 261.378906 272.386719 259.90625 273.660156 258.402344 274.894531 C 256.894531 276.128906 255.359375 277.328125 253.796875 278.488281 C 252.234375 279.648438 250.640625 280.769531 249.023438 281.851562 C 247.402344 282.933594 245.757812 283.972656 244.089844 284.976562 C 242.417969 285.976562 240.722656 286.933594 239.007812 287.851562 C 237.289062 288.769531 235.550781 289.644531 233.789062 290.480469 C 232.03125 291.3125 230.25 292.101562 228.453125 292.84375 C 226.652344 293.589844 224.835938 294.292969 223.003906 294.945312 C 221.167969 295.601562 219.320312 296.214844 217.457031 296.777344 C 215.59375 297.34375 213.71875 297.863281 211.828125 298.335938 C 209.941406 298.808594 208.042969 299.234375 206.132812 299.617188 C 204.222656 299.996094 202.304688 300.328125 200.378906 300.613281 C 198.453125 300.898438 196.519531 301.136719 194.582031 301.328125 C 192.644531 301.519531 190.703125 301.664062 188.757812 301.757812 C 186.8125 301.855469 184.867188 301.902344 182.917969 301.902344 C 180.972656 301.902344 179.027344 301.855469 177.082031 301.757812 C 175.136719 301.664062 173.195312 301.519531 171.257812 301.328125 C 169.320312 301.136719 167.386719 300.898438 165.460938 300.613281 C 163.535156 300.328125 161.617188 299.996094 159.707031 299.617188 C 157.796875 299.234375 155.898438 298.808594 154.007812 298.335938 C 152.121094 297.863281 150.246094 297.34375 148.382812 296.777344 C 146.519531 296.214844 144.667969 295.601562 142.835938 294.945312 C 141.003906 294.292969 139.1875 293.589844 137.386719 292.84375 C 135.589844 292.101562 133.808594 291.3125 132.046875 290.480469 C 130.289062 289.644531 128.550781 288.769531 126.832031 287.851562 C 125.113281 286.933594 123.421875 285.976562 121.75 284.976562 C 120.082031 283.972656 118.4375 282.933594 116.816406 281.851562 C 115.199219 280.769531 113.605469 279.648438 112.042969 278.488281 C 110.480469 277.328125 108.945312 276.128906 107.4375 274.894531 C 105.933594 273.660156 104.460938 272.386719 103.015625 271.082031 C 101.574219 269.773438 100.164062 268.429688 98.789062 267.054688 C 97.410156 265.675781 96.066406 264.265625 94.761719 262.824219 C 93.453125 261.382812 92.179688 259.90625 90.945312 258.402344 C 89.710938 256.898438 88.511719 255.363281 87.351562 253.796875 C 86.195312 252.234375 85.074219 250.644531 83.992188 249.023438 C 82.910156 247.40625 81.867188 245.761719 80.867188 244.089844 C 79.863281 242.417969 78.90625 240.726562 77.988281 239.007812 C 77.070312 237.292969 76.195312 235.550781 75.363281 233.792969 C 74.53125 232.03125 73.742188 230.253906 72.996094 228.453125 C 72.25 226.65625 71.550781 224.839844 70.894531 223.003906 C 70.238281 221.171875 69.628906 219.324219 69.0625 217.460938 C 68.496094 215.597656 67.976562 213.71875 67.503906 211.832031 C 67.03125 209.941406 66.605469 208.042969 66.226562 206.132812 C 65.84375 204.222656 65.511719 202.304688 65.226562 200.378906 C 64.941406 198.453125 64.703125 196.519531 64.511719 194.582031 C 64.320312 192.644531 64.175781 190.703125 64.082031 188.757812 C 63.988281 186.816406 63.9375 184.867188 63.9375 182.921875 C 63.9375 180.972656 63.988281 179.027344 64.082031 177.082031 C 64.175781 175.136719 64.320312 173.195312 64.511719 171.257812 C 64.703125 169.320312 64.941406 167.390625 65.226562 165.464844 C 65.511719 163.539062 65.84375 161.621094 66.226562 159.710938 C 66.605469 157.800781 67.03125 155.898438 67.503906 154.011719 C 67.976562 152.121094 68.496094 150.246094 69.0625 148.382812 C 69.628906 146.519531 70.238281 144.671875 70.894531 142.835938 C 71.550781 141.003906 72.25 139.1875 72.996094 137.390625 C 73.742188 135.589844 74.53125 133.8125 75.363281 132.050781 C 76.195312 130.289062 77.070312 128.550781 77.988281 126.835938 C 78.90625 125.117188 79.867188 123.421875 80.867188 121.753906 C 81.867188 120.082031 82.910156 118.4375 83.992188 116.820312 C 85.074219 115.199219 86.195312 113.609375 87.351562 112.042969 C 88.511719 110.480469 89.710938 108.945312 90.945312 107.441406 C 92.179688 105.933594 93.453125 104.460938 94.761719 103.019531 C 96.066406 101.574219 97.410156 100.167969 98.789062 98.789062 C 100.164062 97.414062 101.574219 96.070312 103.015625 94.761719 C 104.460938 93.453125 105.933594 92.183594 107.4375 90.949219 C 108.945312 89.710938 110.480469 88.515625 112.042969 87.355469 C 113.605469 86.195312 115.199219 85.074219 116.816406 83.992188 C 118.4375 82.910156 120.082031 81.867188 121.75 80.867188 C 123.421875 79.867188 125.113281 78.90625 126.832031 77.988281 C 128.550781 77.070312 130.289062 76.195312 132.046875 75.363281 C 133.808594 74.53125 135.589844 73.742188 137.386719 72.996094 C 139.1875 72.253906 141.003906 71.550781 142.835938 70.894531 C 144.667969 70.238281 146.519531 69.628906 148.382812 69.0625 C 150.246094 68.5 152.121094 67.980469 154.007812 67.507812 C 155.898438 67.03125 157.796875 66.605469 159.707031 66.226562 C 161.617188 65.847656 163.535156 65.515625 165.460938 65.226562 C 167.386719 64.941406 169.320312 64.703125 171.257812 64.511719 C 173.195312 64.324219 175.136719 64.179688 177.082031 64.082031 C 179.027344 63.988281 180.972656 63.941406 182.917969 63.941406 C 184.867188 63.941406 186.8125 63.988281 188.757812 64.082031 C 190.703125 64.179688 192.644531 64.324219 194.582031 64.511719 C 196.519531 64.703125 198.453125 64.941406 200.378906 65.226562 C 202.304688 65.515625 204.222656 65.847656 206.132812 66.226562 C 208.042969 66.605469 209.941406 67.03125 211.828125 67.507812 C 213.71875 67.980469 215.59375 68.5 217.457031 69.0625 C 219.320312 69.628906 221.167969 70.238281 223.003906 70.894531 C 224.835938 71.550781 226.652344 72.253906 228.453125 72.996094 C 230.25 73.742188 232.03125 74.53125 233.789062 75.363281 C 235.550781 76.195312 237.289062 77.070312 239.007812 77.988281 C 240.722656 78.90625 242.417969 79.867188 244.089844 80.867188 C 245.757812 81.867188 247.402344 82.910156 249.023438 83.992188 C 250.640625 85.074219 252.234375 86.195312 253.796875 87.355469 C 255.359375 88.515625 256.894531 89.710938 258.402344 90.949219 C 259.90625 92.183594 261.378906 93.453125 262.824219 94.761719 C 264.265625 96.070312 265.675781 97.414062 267.050781 98.789062 C 268.429688 100.167969 269.769531 101.574219 271.078125 103.019531 C 272.386719 104.460938 273.65625 105.933594 274.894531 107.441406 C 276.128906 108.945312 277.324219 110.480469 278.484375 112.042969 C 279.644531 113.609375 280.765625 115.199219 281.847656 116.820312 C 282.929688 118.4375 283.972656 120.082031 284.972656 121.753906 C 285.972656 123.421875 286.933594 125.117188 287.851562 126.835938 C 288.769531 128.550781 289.644531 130.289062 290.476562 132.050781 C 291.308594 133.8125 292.097656 135.589844 292.84375 137.390625 C 293.589844 139.1875 294.289062 141.003906 294.945312 142.835938 C 295.601562 144.671875 296.210938 146.519531 296.777344 148.382812 C 297.34375 150.246094 297.863281 152.121094 298.335938 154.011719 C 298.808594 155.898438 299.234375 157.800781 299.613281 159.710938 C 299.996094 161.621094 300.328125 163.539062 300.613281 165.464844 C 300.898438 167.390625 301.136719 169.320312 301.328125 171.257812 C 301.519531 173.195312 301.660156 175.136719 301.757812 177.082031 C 301.851562 179.027344 301.902344 180.972656 301.902344 182.921875 Z M 301.902344 182.921875 " fill-opacity="1" fill-rule="nonzero"/></g></g><g clip-path="url(#fee989fc3e)"><g clip-path="url(#b7c138ed9f)"><g clip-path="url(#553af38753)"><path fill="#000000" d="M 77.632812 185.28125 L 99.742188 185.28125 C 101.042969 185.28125 102.101562 184.222656 102.101562 182.921875 C 102.101562 181.621094 101.042969 180.5625 99.742188 180.5625 L 77.632812 180.5625 C 76.332031 180.5625 75.273438 181.621094 75.273438 182.921875 C 75.273438 184.222656 76.332031 185.28125 77.632812 185.28125 Z M 77.632812 185.28125 " fill-opacity="1" fill-rule="evenodd"/></g></g></g><g clip-path="url(#1a9202058b)"><g clip-path="url(#167f64936a)"><g clip-path="url(#4d8c1b9051)"><path fill="#000000" d="M 288.082031 179.320312 L 265.972656 179.320312 C 264.671875 179.320312 263.613281 180.378906 263.613281 181.679688 C 263.613281 182.980469 264.671875 184.039062 265.972656 184.039062 L 288.082031 184.039062 C 289.382812 184.039062 290.441406 182.980469 290.441406 181.679688 C 290.441406 180.378906 289.382812 179.320312 288.082031 179.320312 Z M 288.082031 179.320312 " fill-opacity="1" fill-rule="evenodd"/></g></g></g><g clip-path="url(#b1d94d9b72)"><g clip-path="url(#2e53293b37)"><g clip-path="url(#0580438345)"><path fill="#000000" d="M 185.273438 293.375 L 185.273438 271.265625 C 185.273438 269.964844 184.21875 268.90625 182.917969 268.90625 C 181.617188 268.90625 180.558594 269.964844 180.558594 271.265625 L 180.558594 293.375 C 180.558594 294.675781 181.617188 295.730469 182.917969 295.730469 C 184.21875 295.730469 185.273438 294.675781 185.273438 293.375 Z M 185.273438 293.375 " fill-opacity="1" fill-rule="evenodd"/></g></g></g><g clip-path="url(#c3b5e8e9ae)"><g clip-path="url(#e1e71b30f0)"><g clip-path="url(#b4eecff3c0)"><path fill="#000000" d="M 98.195312 108.128906 L 114.882812 122.628906 C 115.867188 123.480469 117.359375 123.375 118.210938 122.394531 C 119.066406 121.410156 118.960938 119.921875 117.976562 119.066406 L 101.285156 104.566406 C 100.304688 103.714844 98.8125 103.816406 97.960938 104.800781 C 97.105469 105.78125 97.210938 107.273438 98.195312 108.128906 Z M 98.195312 108.128906 " fill-opacity="1" fill-rule="evenodd"/></g></g></g><g clip-path="url(#c7b1f35d37)"><g clip-path="url(#3a0ee9330d)"><g clip-path="url(#1fe9b8f178)"><path fill="#000000" d="M 264.429688 103.320312 L 247.742188 117.820312 C 246.757812 118.675781 246.652344 120.164062 247.507812 121.148438 C 248.359375 122.132812 249.851562 122.234375 250.835938 121.382812 L 267.523438 106.882812 C 268.507812 106.027344 268.613281 104.539062 267.757812 103.554688 C 266.90625 102.570312 265.414062 102.46875 264.429688 103.320312 Z M 264.429688 103.320312 " fill-opacity="1" fill-rule="evenodd"/></g></g></g><g clip-path="url(#1eab1824bb)"><g clip-path="url(#e9e6b522d1)"><g clip-path="url(#d61c277f57)"><path fill="#000000" d="M 120.242188 245.699219 L 103.550781 260.199219 C 102.570312 261.054688 102.464844 262.542969 103.316406 263.527344 C 104.171875 264.507812 105.664062 264.613281 106.644531 263.761719 L 123.335938 249.261719 C 124.316406 248.40625 124.421875 246.914062 123.570312 245.933594 C 122.714844 244.949219 121.222656 244.847656 120.242188 245.699219 Z M 120.242188 245.699219 " fill-opacity="1" fill-rule="evenodd"/></g></g></g><g clip-path="url(#c66d7d08f6)"><g clip-path="url(#eb8460ab2d)"><g clip-path="url(#abd458565e)"><path fill="#000000" d="M 242.382812 248.019531 L 259.074219 262.519531 C 260.054688 263.375 261.546875 263.269531 262.402344 262.289062 C 263.253906 261.304688 263.148438 259.8125 262.167969 258.960938 L 245.476562 244.460938 C 244.496094 243.605469 243.003906 243.710938 242.148438 244.695312 C 241.296875 245.675781 241.402344 247.167969 242.382812 248.019531 Z M 242.382812 248.019531 " fill-opacity="1" fill-rule="evenodd"/></g></g></g><path fill="#000000" d="M 125.683594 131.03125 L 182.628906 120.839844 L 239.777344 129.617188 C 239.777344 129.617188 240.25 239.238281 240.097656 241.917969 L 126.503906 241.917969 Z M 125.683594 131.03125 " fill-opacity="1" fill-rule="evenodd"/><g clip-path="url(#7e8bb32ba1)"><g clip-path="url(#cd8fc7c2bb)"><path fill="#fff" d="M 240 168.097656 L 222.472656 167.769531 L 222.570312 175.359375 L 240 175.441406 Z M 240 168.097656 " fill-opacity="1" fill-rule="evenodd"/></g></g><g clip-path="url(#2152540c0f)"><g clip-path="url(#420db92571)"><path fill="#fff" d="M 240.007812 161.589844 L 182.605469 160.035156 C 182.605469 160.035156 182.628906 160.035156 182.628906 150.777344 L 240.007812 153.429688 Z M 240.007812 161.589844 " fill-opacity="1" fill-rule="evenodd"/></g></g><g clip-path="url(#478546d0c9)"><g clip-path="url(#ba9900d963)"><path fill="#fff" d="M 125.839844 154.273438 L 182.765625 150.777344 L 182.628906 160.070312 L 125.921875 162.609375 Z M 125.839844 154.273438 " fill-opacity="1" fill-rule="evenodd"/></g></g><g clip-path="url(#1fff2df258)"><g clip-path="url(#e6f90a1ef3)"><path fill="#fff" d="M 193.347656 236.875 L 192.890625 181.265625 L 210.988281 181.265625 L 210.988281 236.765625 Z M 193.347656 236.875 " fill-opacity="1" fill-rule="evenodd"/></g></g><g clip-path="url(#249a6af861)"><g clip-path="url(#9cf0ab589a)"><path fill="#fff" d="M 125.953125 167.433594 L 144.113281 166.945312 L 144.617188 175.132812 L 126.007812 175.828125 Z M 125.953125 167.433594 " fill-opacity="1" fill-rule="evenodd"/></g></g><g clip-path="url(#7ffaae7757)"><g clip-path="url(#235f066f42)"><path fill="#fff" d="M 151.492188 166.945312 L 155.503906 171.238281 L 151.492188 175.535156 L 147.488281 171.238281 Z M 151.492188 166.945312 " fill-opacity="1" fill-rule="evenodd"/></g></g><g clip-path="url(#164ba1b481)"><g clip-path="url(#198586cda4)"><path fill="#fff" d="M 215.015625 167.171875 L 219.027344 171.464844 L 215.015625 175.761719 L 211.011719 171.464844 Z M 215.015625 167.171875 " fill-opacity="1" fill-rule="evenodd"/></g></g><g clip-path="url(#74fd51b819)"><g clip-path="url(#46c5ef47be)"><path fill="#fff" d="M 182.628906 165.984375 L 159.851562 166.945312 L 159.476562 175.988281 L 182.628906 175.535156 Z M 182.628906 165.984375 " fill-opacity="1" fill-rule="evenodd"/></g></g><g clip-path="url(#3933250d84)"><g clip-path="url(#6e1ec00e3c)"><path fill="#fff" d="M 182.628906 165.984375 L 207.421875 166.945312 L 207.796875 175.988281 L 182.628906 175.535156 Z M 182.628906 165.984375 " fill-opacity="1" fill-rule="evenodd"/></g></g><path fill="#fff" d="M 183.59375 67.414062 L 206.058594 112.34375 L 183.59375 98.734375 L 161.132812 112.34375 Z M 183.59375 67.414062 " fill-opacity="1" fill-rule="evenodd"/></svg>