<svg xmlns="http://www.w3.org/2000/svg" xmlns:xlink="http://www.w3.org/1999/xlink" width="500" zoomAndPan="magnify" viewBox="0 0 375 374.999991" height="500" preserveAspectRatio="xMidYMid meet" version="1.0"><defs><clipPath id="555a2b137b"><path d="M 37.5 37.5 L 337.5 37.5 L 337.5 337.5 L 37.5 337.5 Z M 37.5 37.5 " clip-rule="nonzero"/></clipPath></defs><g clip-path="url(#555a2b137b)"><path fill="#fff" d="M 187.5 37.5 C 104.738281 37.5 37.5 104.738281 37.5 187.5 C 37.5 270.261719 104.738281 337.5 187.5 337.5 C 270.261719 337.5 337.5 270.261719 337.5 187.5 C 337.5 104.738281 270.261719 37.5 187.5 37.5 Z M 187.5 51.136719 C 262.890625 51.136719 323.863281 112.109375 323.863281 187.5 C 323.863281 262.890625 262.890625 323.863281 187.5 323.863281 C 112.109375 323.863281 51.136719 262.890625 51.136719 187.5 C 51.136719 112.109375 112.109375 51.136719 187.5 51.136719 Z M 129.839844 92.046875 C 128.148438 96.199219 122.355469 105.320312 122.355469 105.320312 C 122.355469 105.320312 138.960938 187.566406 128.148438 197.488281 C 117.367188 207.441406 95.753906 209.128906 83.308594 200.84375 C 70.832031 192.523438 84.121094 165.941406 84.121094 165.941406 C 76.640625 175.070312 70.832031 185.871094 71.671875 197.472656 C 72.496094 209.125 80.804688 220.71875 100.742188 221.5625 C 120.664062 222.402344 134.789062 201.65625 138.121094 193.359375 C 141.457031 185.070312 135.632812 140.207031 135.632812 128.574219 C 135.632812 116.980469 139.773438 110.328125 139.773438 110.328125 C 133.976562 106.996094 129.839844 92.046875 129.839844 92.046875 Z M 202.640625 112.59375 C 202.378906 111.8125 200.871094 115.195312 193.027344 154.753906 C 182.539062 207.472656 126.136719 220.660156 126.136719 220.660156 C 157.574219 225.621094 180.132812 209.957031 188.164062 193.492188 C 196.238281 177 201.855469 142.394531 201.855469 142.394531 C 201.855469 191.855469 206.085938 207.046875 218.183594 212.816406 C 230.269531 218.609375 253.648438 210.359375 270.570312 203.757812 C 281.34375 199.566406 293.941406 201.296875 293.941406 201.296875 L 303.410156 184.941406 C 303.410156 184.941406 289.878906 186.4375 280.238281 182.347656 C 270.5625 178.214844 256.867188 165.863281 243.164062 167.5 C 230.046875 169.085938 222.84375 192.539062 222.257812 194.503906 C 222.5625 193.625 224.347656 189.847656 233.496094 184.808594 C 243.976562 179.015625 264.910156 191.414062 264.910156 191.414062 C 255.261719 200.476562 237.511719 201.296875 223.015625 199.632812 C 208.511719 197.960938 209.125 162.183594 208.328125 136.65625 C 207.503906 111.109375 202.679688 113.578125 202.679688 113.578125 C 202.679688 113.578125 202.726562 112.851562 202.640625 112.59375 Z M 140.117188 126.136719 C 140.117188 126.136719 139.328125 128.402344 140.117188 139.746094 C 140.890625 151.144531 151.722656 149.613281 160.28125 155.671875 C 168.804688 161.71875 173.464844 180.683594 173.464844 180.683594 C 178.113281 138.257812 140.117188 126.136719 140.117188 126.136719 Z M 98.863281 235.226562 L 98.863281 269.316406 L 107.425781 269.316406 L 107.425781 255.574219 L 120.824219 255.574219 L 120.824219 269.316406 L 129.34375 269.316406 L 129.34375 235.226562 L 120.824219 235.226562 L 120.824219 248.609375 L 107.425781 248.609375 L 107.425781 235.226562 Z M 148.496094 235.226562 L 137.214844 269.316406 L 145.699219 269.316406 L 147.871094 261.835938 L 158.84375 261.835938 L 160.933594 269.316406 L 170.253906 269.316406 L 158.949219 235.226562 Z M 178.125 235.226562 L 178.125 269.316406 L 200.964844 269.316406 L 200.964844 262.152344 L 186.675781 262.152344 L 186.675781 235.226562 Z M 220.273438 235.226562 L 208.992188 269.316406 L 217.476562 269.316406 L 219.648438 261.835938 L 230.621094 261.835938 L 232.722656 269.316406 L 242.046875 269.316406 L 230.738281 235.226562 Z M 253.296875 235.226562 L 253.296875 269.316406 L 276.136719 269.316406 L 276.136719 262.152344 L 261.847656 262.152344 L 261.847656 235.226562 Z M 153.183594 242.910156 L 153.621094 242.910156 L 157.230469 255.601562 L 149.492188 255.601562 Z M 224.960938 242.910156 L 225.398438 242.910156 L 229.023438 255.601562 L 221.269531 255.601562 Z M 224.960938 242.910156 " fill-opacity="1" fill-rule="nonzero"/></g></svg>