<svg xmlns="http://www.w3.org/2000/svg" xmlns:xlink="http://www.w3.org/1999/xlink" width="500" zoomAndPan="magnify" viewBox="0 0 375 374.999991" height="500" preserveAspectRatio="xMidYMid meet" version="1.0"><defs><clipPath id="dfcf3d8271"><path d="M 37.5 37.5 L 337.5 37.5 L 337.5 337.5 L 37.5 337.5 Z M 37.5 37.5 " clip-rule="nonzero"/></clipPath></defs><g clip-path="url(#dfcf3d8271)"><path fill="#fff" d="M 187.5 337.5 C 147.433594 337.5 109.765625 321.894531 81.433594 293.566406 C 53.101562 265.234375 37.5 227.566406 37.5 187.5 C 37.5 147.433594 53.101562 109.765625 81.433594 81.433594 C 109.765625 53.101562 147.433594 37.5 187.5 37.5 C 227.566406 37.5 265.234375 53.101562 293.566406 81.433594 C 321.898438 109.765625 337.5 147.433594 337.5 187.5 C 337.5 227.566406 321.898438 265.234375 293.566406 293.566406 C 265.238281 321.902344 227.566406 337.5 187.5 337.5 Z M 187.5 60.394531 C 117.410156 60.394531 60.394531 117.414062 60.394531 187.5 C 60.394531 257.589844 117.414062 314.605469 187.5 314.605469 C 257.589844 314.605469 314.605469 257.585938 314.605469 187.5 C 314.605469 117.410156 257.589844 60.394531 187.5 60.394531 Z M 187.5 60.394531 " fill-opacity="1" fill-rule="nonzero"/></g><path fill="#fff" d="M 237.289062 245.417969 C 235.058594 245.417969 232.804688 244.765625 230.824219 243.410156 L 175.0625 205.171875 C 171.945312 203.035156 170.085938 199.496094 170.089844 195.710938 L 170.234375 102.140625 C 170.242188 95.824219 175.367188 90.710938 181.679688 90.710938 C 181.683594 90.710938 181.691406 90.710938 181.695312 90.710938 C 188.015625 90.722656 193.132812 95.855469 193.125 102.175781 L 192.988281 189.707031 L 243.769531 224.53125 C 248.984375 228.109375 250.3125 235.234375 246.734375 240.445312 C 244.515625 243.679688 240.929688 245.417969 237.289062 245.417969 Z M 237.289062 245.417969 " fill-opacity="1" fill-rule="nonzero"/></svg>