<svg xmlns="http://www.w3.org/2000/svg" xmlns:xlink="http://www.w3.org/1999/xlink" width="500" zoomAndPan="magnify" viewBox="0 0 375 374.999991" height="500" preserveAspectRatio="xMidYMid meet" version="1.0"><defs><clipPath id="893b2c49c5"><path d="M 192 72.75 L 314 72.75 L 314 226 L 192 226 Z M 192 72.75 " clip-rule="nonzero"/></clipPath><clipPath id="e95594b42c"><path d="M 37.5 73 L 337.5 73 L 337.5 302 L 37.5 302 Z M 37.5 73 " clip-rule="nonzero"/></clipPath><clipPath id="ea522213c4"><path d="M 61 72.75 L 183 72.75 L 183 226 L 61 226 Z M 61 72.75 " clip-rule="nonzero"/></clipPath></defs><g clip-path="url(#893b2c49c5)"><path fill="#fff" d="M 313.640625 166.089844 L 283.917969 72.742188 C 283.917969 72.742188 272.441406 82.765625 241.15625 87.511719 C 209.863281 92.257812 192.65625 110.183594 192.65625 110.183594 L 192.65625 225.160156 C 217.164062 194.039062 313.640625 166.089844 313.640625 166.089844 " fill-opacity="1" fill-rule="nonzero"/></g><g clip-path="url(#e95594b42c)"><path fill="#fff" d="M 326.492188 186.144531 L 256.6875 220.394531 C 260.441406 221.691406 264.214844 223.347656 267.1875 227.695312 C 272.917969 236.023438 265.375 240.714844 264.589844 240.460938 C 264.304688 240.371094 253.894531 235.027344 240.726562 228.238281 L 235.941406 230.59375 L 235.941406 230.605469 C 254.863281 237.410156 269.085938 260.691406 275.878906 266.320312 C 284.535156 273.453125 296.953125 271.265625 305.222656 283.304688 C 313.503906 295.34375 302.59375 302.238281 301.460938 301.863281 C 300.484375 301.546875 214.957031 258.214844 192.71875 246.148438 L 182.308594 246.148438 C 160.070312 258.214844 74.542969 301.546875 73.558594 301.863281 C 72.429688 302.238281 61.523438 295.34375 69.804688 283.304688 C 78.070312 271.265625 90.488281 273.453125 99.148438 266.320312 C 105.9375 260.691406 120.164062 237.410156 139.082031 230.605469 L 139.082031 230.59375 L 134.300781 228.238281 C 121.128906 235.027344 110.71875 240.371094 110.433594 240.460938 C 109.648438 240.714844 102.105469 236.023438 107.839844 227.695312 C 110.8125 223.347656 114.582031 221.691406 118.339844 220.394531 L 48.53125 186.144531 L 37.5625 180.761719 L 41.335938 168.628906 L 70.996094 73.039062 L 82.523438 76.613281 L 52.347656 173.851562 L 187.511719 237.847656 L 322.675781 173.851562 L 292.503906 76.613281 L 304.03125 73.039062 L 333.691406 168.628906 L 337.460938 180.761719 L 326.492188 186.144531 " fill-opacity="1" fill-rule="nonzero"/></g><g clip-path="url(#ea522213c4)"><path fill="#fff" d="M 182.367188 225.160156 L 182.367188 110.183594 C 182.367188 110.183594 165.160156 92.257812 133.871094 87.511719 C 102.582031 82.765625 91.105469 72.742188 91.105469 72.742188 L 61.382812 166.089844 C 61.382812 166.089844 157.859375 194.039062 182.367188 225.160156 " fill-opacity="1" fill-rule="nonzero"/></g></svg>