<svg xmlns="http://www.w3.org/2000/svg" xmlns:xlink="http://www.w3.org/1999/xlink" width="500" zoomAndPan="magnify" viewBox="0 0 375 374.999991" height="500" preserveAspectRatio="xMidYMid meet" version="1.0"><path fill="#e97c2f" d="M 288 283.8125 C 288.109375 284.199219 269.617188 314.65625 230.828125 332.523438 C 205.378906 344.253906 226.167969 368.25 251.269531 351.839844 C 280.148438 332.953125 300.027344 294.925781 300.027344 294.925781 Z M 288 283.8125 " fill-opacity="1" fill-rule="nonzero"/><path fill="#eaa82e" d="M 329.628906 257.679688 C 331.910156 255.046875 333.296875 251.613281 333.296875 247.847656 C 333.296875 241.941406 329.882812 236.832031 324.9375 234.371094 C 327.089844 231.769531 328.367188 228.433594 328.367188 224.792969 C 328.367188 218.214844 324.152344 212.628906 318.265625 210.585938 C 319.894531 208.175781 320.851562 205.285156 320.851562 202.15625 C 320.851562 195.179688 316.097656 189.304688 309.648438 187.613281 C 311.132812 185.28125 312.011719 182.503906 312.011719 179.535156 C 312.011719 171.921875 306.347656 165.628906 299.007812 164.640625 C 299.789062 162.820312 300.21875 160.808594 300.21875 158.71875 C 300.21875 150.417969 293.488281 143.679688 285.191406 143.679688 C 284.792969 143.679688 284.40625 143.695312 284.007812 143.726562 C 284.679688 142.019531 285.0625 140.167969 285.0625 138.21875 C 285.0625 129.917969 278.328125 123.179688 270.03125 123.179688 C 268.707031 123.179688 267.414062 123.355469 266.1875 123.675781 C 266.28125 122.988281 266.332031 122.304688 266.332031 121.601562 C 266.332031 113.300781 259.597656 106.5625 251.300781 106.5625 C 251.1875 106.5625 251.058594 106.5625 250.949219 106.578125 C 251.09375 105.730469 251.171875 104.871094 251.171875 103.992188 C 251.171875 95.691406 244.4375 88.953125 236.140625 88.953125 C 235.457031 88.953125 234.785156 89 234.132812 89.097656 C 234.257812 88.316406 234.324219 87.5 234.324219 86.671875 C 234.324219 78.367188 227.589844 71.632812 219.292969 71.632812 C 218.09375 71.632812 216.929688 71.777344 215.8125 72.046875 C 215.71875 63.824219 209.03125 57.199219 200.785156 57.199219 C 197.910156 57.199219 195.230469 58 192.949219 59.402344 C 191.847656 52.171875 185.609375 46.648438 178.09375 46.648438 C 173.660156 46.648438 169.683594 48.5625 166.925781 51.628906 C 164.417969 46.792969 159.394531 43.503906 153.570312 43.503906 C 149.597656 43.503906 145.992188 45.050781 143.292969 47.574219 C 140.742188 42.929688 135.796875 39.78125 130.128906 39.78125 C 123.714844 39.78125 118.242188 43.804688 116.089844 49.472656 C 113.632812 47.71875 110.617188 46.664062 107.363281 46.664062 C 99.480469 46.664062 93.03125 52.730469 92.394531 60.441406 C 89.714844 58 86.171875 56.496094 82.261719 56.496094 C 73.964844 56.496094 67.234375 63.234375 67.234375 71.535156 C 67.234375 72.8125 67.390625 74.042969 67.695312 75.222656 C 67.535156 75.222656 67.390625 75.207031 67.234375 75.207031 C 58.933594 75.207031 52.203125 81.945312 52.203125 90.246094 C 52.203125 92.160156 52.570312 93.996094 53.222656 95.675781 C 45.804688 96.601562 40.074219 102.921875 40.074219 110.585938 C 40.074219 115.867188 42.804688 120.53125 46.9375 123.210938 C 43.125 125.941406 40.648438 130.398438 40.648438 135.441406 C 40.648438 142.289062 45.230469 148.085938 51.5 149.890625 C 49.824219 152.316406 48.835938 155.269531 48.835938 158.445312 C 48.835938 166.363281 54.960938 172.863281 62.734375 173.4375 C 62.160156 175.03125 61.839844 176.757812 61.839844 178.5625 C 61.839844 186.863281 68.574219 193.601562 76.871094 193.601562 C 76.949219 193.601562 77.046875 193.601562 77.125 193.601562 C 76.886719 194.683594 76.742188 195.804688 76.742188 196.953125 C 76.742188 205.253906 83.476562 211.992188 91.773438 211.992188 C 92.839844 211.992188 93.894531 211.878906 94.914062 211.65625 C 94.835938 212.246094 94.804688 212.851562 94.804688 213.476562 C 94.804688 221.777344 101.539062 228.515625 109.835938 228.515625 C 112.085938 228.515625 114.222656 228.019531 116.136719 227.125 C 117.015625 234.597656 123.347656 240.40625 131.054688 240.40625 C 133.960938 240.40625 136.65625 239.59375 138.953125 238.171875 C 140.886719 244.238281 146.566406 248.628906 153.265625 248.628906 C 155.929688 248.628906 158.421875 247.941406 160.589844 246.730469 C 162.265625 253.210938 168.136719 258 175.140625 258 C 179.464844 258 183.359375 256.179688 186.089844 253.257812 C 188.625 257.96875 193.601562 261.175781 199.332031 261.175781 C 204.421875 261.175781 208.921875 258.636719 211.632812 254.773438 C 214.394531 258.078125 218.527344 260.171875 223.167969 260.171875 C 227.683594 260.171875 231.722656 258.175781 234.480469 255.03125 C 237.226562 258.6875 241.597656 261.066406 246.511719 261.066406 C 249.863281 261.066406 252.960938 259.964844 255.464844 258.113281 C 258.050781 262.660156 262.929688 265.726562 268.53125 265.726562 C 269.9375 265.726562 271.292969 265.535156 272.585938 265.167969 C 272.855469 273.246094 279.476562 279.710938 287.597656 279.710938 C 287.597656 279.757812 287.597656 279.792969 287.597656 279.839844 C 287.597656 288.140625 294.332031 294.878906 302.628906 294.878906 C 309.601562 294.878906 315.457031 290.136719 317.148438 283.703125 C 317.914062 283.8125 318.699219 283.878906 319.496094 283.878906 C 327.792969 283.878906 334.527344 277.140625 334.527344 268.839844 C 334.507812 264.386719 332.625 260.425781 329.628906 257.679688 Z M 304.941406 264.914062 C 304.175781 264.785156 303.394531 264.738281 302.597656 264.738281 C 302.597656 264.6875 302.597656 264.65625 302.597656 264.609375 C 302.597656 256.308594 295.863281 249.570312 287.566406 249.570312 C 286.164062 249.570312 284.808594 249.761719 283.515625 250.128906 C 283.242188 242.050781 276.621094 235.585938 268.5 235.585938 C 265.148438 235.585938 262.054688 236.6875 259.550781 238.539062 C 256.964844 233.988281 252.082031 230.925781 246.480469 230.925781 C 241.964844 230.925781 237.929688 232.921875 235.167969 236.066406 C 232.421875 232.410156 228.050781 230.03125 223.136719 230.03125 C 218.046875 230.03125 213.546875 232.570312 210.835938 236.433594 C 208.074219 233.128906 203.941406 231.035156 199.300781 231.035156 C 194.976562 231.035156 191.082031 232.855469 188.355469 235.777344 C 185.816406 231.066406 180.839844 227.859375 175.109375 227.859375 C 172.445312 227.859375 169.957031 228.546875 167.785156 229.757812 C 166.109375 223.277344 160.238281 218.488281 153.234375 218.488281 C 150.332031 218.488281 147.632812 219.300781 145.335938 220.722656 C 143.40625 214.65625 137.726562 210.265625 131.023438 210.265625 C 128.773438 210.265625 126.636719 210.761719 124.722656 211.65625 C 123.84375 204.183594 117.507812 198.371094 109.804688 198.371094 C 108.734375 198.371094 107.679688 198.484375 106.660156 198.707031 C 106.738281 198.117188 106.769531 197.511719 106.769531 196.886719 C 106.769531 188.585938 100.039062 181.851562 91.742188 181.851562 C 91.660156 181.851562 91.566406 181.851562 91.484375 181.851562 C 91.726562 180.765625 91.867188 179.648438 91.867188 178.496094 C 91.867188 170.578125 85.742188 164.082031 77.972656 163.507812 C 78.546875 161.910156 78.863281 160.1875 78.863281 158.382812 C 78.863281 151.535156 74.285156 145.738281 68.015625 143.933594 C 69.691406 141.507812 70.679688 138.554688 70.679688 135.378906 C 70.679688 130.09375 67.949219 125.433594 63.816406 122.75 C 67.632812 120.019531 70.105469 115.566406 70.105469 110.519531 C 70.105469 108.605469 69.738281 106.769531 69.082031 105.09375 C 76.503906 104.167969 82.230469 97.84375 82.230469 90.183594 C 82.230469 88.90625 82.070312 87.675781 81.769531 86.496094 C 81.929688 86.496094 82.070312 86.511719 82.230469 86.511719 C 90.113281 86.511719 96.558594 80.445312 97.199219 72.734375 C 99.878906 75.175781 103.421875 76.675781 107.328125 76.675781 C 113.742188 76.675781 119.214844 72.652344 121.371094 66.984375 C 123.828125 68.742188 126.84375 69.796875 130.097656 69.796875 C 134.070312 69.796875 137.675781 68.246094 140.375 65.726562 C 142.925781 70.371094 147.875 73.515625 153.539062 73.515625 C 157.972656 73.515625 161.945312 71.601562 164.707031 68.535156 C 167.210938 73.371094 172.238281 76.660156 178.0625 76.660156 C 180.933594 76.660156 183.613281 75.863281 185.894531 74.457031 C 186.996094 81.6875 193.234375 87.214844 200.75 87.214844 C 201.949219 87.214844 203.113281 87.070312 204.230469 86.796875 C 204.324219 95.019531 211.011719 101.644531 219.261719 101.644531 C 219.945312 101.644531 220.617188 101.597656 221.269531 101.5 C 221.144531 102.285156 221.078125 103.097656 221.078125 103.929688 C 221.078125 112.230469 227.8125 118.964844 236.109375 118.964844 C 236.222656 118.964844 236.347656 118.964844 236.460938 118.949219 C 236.316406 119.796875 236.238281 120.660156 236.238281 121.535156 C 236.238281 129.839844 242.96875 136.574219 251.269531 136.574219 C 252.59375 136.574219 253.882812 136.398438 255.113281 136.078125 C 255.015625 136.765625 254.96875 137.453125 254.96875 138.15625 C 254.96875 146.457031 261.703125 153.195312 270 153.195312 C 270.398438 153.195312 270.78125 153.179688 271.179688 153.144531 C 270.511719 154.855469 270.128906 156.707031 270.128906 158.652344 C 270.128906 166.269531 275.792969 172.558594 283.132812 173.546875 C 282.351562 175.367188 281.917969 177.378906 281.917969 179.472656 C 281.917969 186.449219 286.671875 192.324219 293.121094 194.015625 C 291.636719 196.34375 290.757812 199.125 290.757812 202.09375 C 290.757812 208.671875 294.972656 214.257812 300.859375 216.300781 C 299.230469 218.710938 298.273438 221.601562 298.273438 224.730469 C 298.273438 230.636719 301.6875 235.746094 306.632812 238.203125 C 304.480469 240.804688 303.203125 244.144531 303.203125 247.78125 C 303.203125 252.171875 305.085938 256.132812 308.085938 258.878906 C 306.632812 260.632812 305.550781 262.660156 304.941406 264.914062 Z M 304.941406 264.914062 " fill-opacity="1" fill-rule="nonzero"/><path fill="#faab18" d="M 289.738281 288.585938 C 289.738281 288.585938 273.652344 311.226562 258.382812 322.226562 C 248.601562 329.265625 232.566406 338.9375 225.449219 342.085938 C 218.335938 345.230469 220.488281 351.613281 220.488281 351.613281 C 220.488281 351.613281 215.527344 342.867188 225.449219 335.632812 C 235.375 328.402344 241.453125 328.464844 256.390625 317.210938 C 272.710938 304.902344 287.742188 285.089844 287.742188 285.089844 Z M 289.738281 288.585938 " fill-opacity="1" fill-rule="nonzero"/><path fill="#e75825" d="M 223.535156 354.027344 C 223.535156 354.027344 240.769531 350.273438 260.125 335.652344 C 279.476562 321.027344 295.128906 292.960938 295.128906 292.960938 L 300.027344 294.589844 C 300.027344 294.589844 287.949219 316.734375 274.164062 332.21875 C 260.378906 347.6875 235.550781 364.082031 223.535156 354.027344 Z M 223.535156 354.027344 " fill-opacity="1" fill-rule="nonzero"/><path fill="#ca7f29" d="M 287.886719 276.152344 C 287.886719 276.152344 289.753906 287.246094 302.152344 287.503906 C 314.757812 287.773438 317.292969 276.695312 316.289062 274.074219 C 320.308594 278.480469 316.847656 292.050781 306.777344 294.351562 C 296.710938 296.648438 285.683594 289.320312 287.886719 276.152344 Z M 287.886719 276.152344 " fill-opacity="1" fill-rule="nonzero"/><path fill="#ca7f29" d="M 333.472656 262.835938 C 334.476562 265.457031 331.941406 276.535156 319.335938 276.261719 C 318.632812 276.246094 317.949219 276.199219 317.308594 276.121094 L 317.339844 283.273438 C 319.496094 283.65625 321.746094 283.605469 323.945312 283.113281 C 334.015625 280.796875 337.492188 267.242188 333.472656 262.835938 Z M 333.472656 262.835938 " fill-opacity="1" fill-rule="nonzero"/><path fill="#ca7f29" d="M 299.054688 164.304688 C 300.859375 159.945312 300.777344 155.222656 298.703125 152.9375 C 299.710938 155.554688 297.171875 166.636719 284.566406 166.363281 C 272.171875 166.109375 270.304688 155.015625 270.304688 155.015625 C 268.546875 165.488281 275.152344 172.269531 283.003906 173.453125 C 283.003906 173.453125 286.035156 165.980469 293.648438 164.6875 C 297.714844 163.875 299.054688 164.304688 299.054688 164.304688 Z M 299.054688 164.304688 " fill-opacity="1" fill-rule="nonzero"/><path fill="#ca7f29" d="M 284.3125 144.046875 C 285.890625 139.609375 285.574219 134.882812 283.386719 132.710938 C 284.519531 135.28125 282.558594 146.472656 269.953125 146.839844 C 257.554688 147.207031 255.128906 136.222656 255.128906 136.222656 C 253.917969 146.777344 260.410156 152.9375 270.988281 153.511719 C 270.988281 153.511719 274.339844 146.183594 278.933594 144.683594 C 282.941406 143.679688 284.3125 144.046875 284.3125 144.046875 Z M 284.3125 144.046875 " fill-opacity="1" fill-rule="nonzero"/><path fill="#ca7f29" d="M 309.585938 187.597656 C 312.601562 182.695312 312.96875 176.484375 310.496094 173.773438 C 311.5 176.390625 308.964844 187.46875 296.359375 187.199219 C 283.960938 186.941406 282.09375 175.847656 282.09375 175.847656 C 280.5 185.441406 285.90625 191.9375 292.847656 193.871094 C 292.847656 193.871094 294.347656 190.726562 299.679688 188.347656 C 305.023438 185.953125 309.585938 187.597656 309.585938 187.597656 Z M 309.585938 187.597656 " fill-opacity="1" fill-rule="nonzero"/><path fill="#ca7f29" d="M 318.632812 210.617188 C 321.664062 205.714844 322.03125 199.492188 319.558594 196.761719 C 320.5625 199.378906 318.027344 210.457031 305.421875 210.1875 C 293.023438 209.929688 291.15625 198.835938 291.15625 198.835938 C 289.625 207.984375 294.476562 214.320312 300.953125 216.554688 C 300.953125 216.554688 303.042969 212.277344 309.21875 210.425781 C 315.410156 208.589844 318.632812 210.617188 318.632812 210.617188 Z M 318.632812 210.617188 " fill-opacity="1" fill-rule="nonzero"/><path fill="#ca7f29" d="M 325.175781 234.484375 C 329.132812 229.441406 329.882812 222.160156 327.136719 219.144531 C 328.144531 221.761719 325.605469 232.839844 313 232.570312 C 300.601562 232.3125 298.738281 221.21875 298.738281 221.21875 C 297.332031 229.679688 301.320312 236.335938 307.082031 238.363281 C 307.144531 238.09375 311.054688 233.796875 316.863281 233.175781 C 322.6875 232.535156 325.175781 234.484375 325.175781 234.484375 Z M 325.175781 234.484375 " fill-opacity="1" fill-rule="nonzero"/><path fill="#ca7f29" d="M 303.714844 244.492188 C 302.675781 250.671875 304.558594 255.558594 307.863281 258.765625 L 312.363281 254.824219 C 304.976562 252.046875 303.714844 244.492188 303.714844 244.492188 Z M 303.714844 244.492188 " fill-opacity="1" fill-rule="nonzero"/><path fill="#ca7f29" d="M 332.117188 242.417969 C 332.867188 244.382812 331.621094 251.152344 325.589844 254.265625 L 330.394531 257.472656 C 334.144531 252.445312 334.796875 245.371094 332.117188 242.417969 Z M 332.117188 242.417969 " fill-opacity="1" fill-rule="nonzero"/><path fill="#ca7f29" d="M 286.992188 272.066406 C 274.59375 271.808594 272.726562 260.714844 272.726562 260.714844 C 270.828125 272.082031 278.777344 279.089844 287.457031 279.328125 L 289.753906 271.9375 C 288.890625 272.03125 287.964844 272.082031 286.992188 272.066406 Z M 286.992188 272.066406 " fill-opacity="1" fill-rule="nonzero"/><path fill="#ca7f29" d="M 253.375 251.214844 C 254.632812 262.675781 264.175781 267.257812 272.601562 265.136719 L 273.496094 257.378906 C 259.070312 261.511719 253.375 251.214844 253.375 251.214844 Z M 253.375 251.214844 " fill-opacity="1" fill-rule="nonzero"/><path fill="#ca7f29" d="M 231.800781 246.695312 C 233.0625 258.160156 243.929688 264.59375 255.433594 258.574219 L 253.375 252.378906 C 238.183594 258.207031 231.800781 246.695312 231.800781 246.695312 Z M 231.800781 246.695312 " fill-opacity="1" fill-rule="nonzero"/><path fill="#ca7f29" d="M 208.664062 247.910156 C 211.25 259.132812 223.96875 264.898438 234.707031 255.699219 L 231.449219 250.097656 C 217.601562 259.054688 208.664062 247.910156 208.664062 247.910156 Z M 208.664062 247.910156 " fill-opacity="1" fill-rule="nonzero"/><path fill="#ca7f29" d="M 184.78125 249.410156 C 187.859375 260.523438 201.628906 264.929688 211.9375 255.269531 L 208.679688 250.195312 C 195.230469 259.738281 184.78125 249.410156 184.78125 249.410156 Z M 184.78125 249.410156 " fill-opacity="1" fill-rule="nonzero"/><path fill="#ca7f29" d="M 160.304688 244.320312 C 161.628906 255.765625 174.550781 262.261719 186.230469 254.296875 L 183.789062 248.773438 C 169.046875 256.132812 160.304688 244.320312 160.304688 244.320312 Z M 160.304688 244.320312 " fill-opacity="1" fill-rule="nonzero"/><path fill="#ca7f29" d="M 138.601562 231.292969 C 136.945312 242.371094 147.523438 251.710938 160.605469 247.191406 L 159.695312 241.398438 C 143.851562 244.605469 138.601562 231.292969 138.601562 231.292969 Z M 138.601562 231.292969 " fill-opacity="1" fill-rule="nonzero"/><path fill="#ca7f29" d="M 116.007812 224.667969 C 115.433594 235.855469 126.84375 244.144531 139.433594 238.378906 L 137.980469 232.695312 C 122.519531 237.390625 116.007812 224.667969 116.007812 224.667969 Z M 116.007812 224.667969 " fill-opacity="1" fill-rule="nonzero"/><path fill="#ca7f29" d="M 95.1875 209.945312 C 92.699219 220.867188 102.527344 230.988281 115.914062 227.492188 L 115.992188 221.378906 C 99.925781 224.90625 95.1875 209.945312 95.1875 209.945312 Z M 95.1875 209.945312 " fill-opacity="1" fill-rule="nonzero"/><path fill="#ca7f29" d="M 77.222656 193.902344 C 74.730469 204.824219 84.6875 214.195312 94.820312 211.574219 L 97.421875 205.078125 C 81.371094 208.621094 77.222656 193.902344 77.222656 193.902344 Z M 77.222656 193.902344 " fill-opacity="1" fill-rule="nonzero"/><path fill="#ca7f29" d="M 61.824219 175.257812 C 59.335938 186.175781 69.371094 194.316406 77.222656 193.902344 L 79.933594 187.117188 C 66.578125 188.363281 61.824219 175.257812 61.824219 175.257812 Z M 61.824219 175.257812 " fill-opacity="1" fill-rule="nonzero"/><path fill="#ca7f29" d="M 48.753906 154.871094 C 46.25 165.789062 54.578125 173.675781 62.429688 173.277344 L 66.867188 166.761719 C 51.515625 166.957031 48.753906 154.871094 48.753906 154.871094 Z M 48.753906 154.871094 " fill-opacity="1" fill-rule="nonzero"/><path fill="#ca7f29" d="M 40.792969 132.183594 C 38.765625 143.199219 47.765625 149.296875 51.835938 149.25 L 59.398438 143.28125 C 46.105469 145.066406 40.792969 132.183594 40.792969 132.183594 Z M 40.792969 132.183594 " fill-opacity="1" fill-rule="nonzero"/><path fill="#ca7f29" d="M 70.679688 165.054688 C 70.679688 165.054688 78.511719 162.566406 78.753906 155.75 C 79.964844 159.4375 77.972656 163.539062 77.972656 163.539062 C 77.972656 163.539062 74.8125 162.898438 70.679688 165.054688 Z M 70.679688 165.054688 " fill-opacity="1" fill-rule="nonzero"/><path fill="#ca7f29" d="M 60.546875 143.28125 C 60.546875 143.28125 68.699219 142.242188 70.167969 135.585938 C 70.695312 139.433594 67.980469 143.105469 67.980469 143.105469 C 67.980469 143.105469 65 141.90625 60.546875 143.28125 Z M 60.546875 143.28125 " fill-opacity="1" fill-rule="nonzero"/><path fill="#ca7f29" d="M 40.664062 106.242188 C 40.664062 106.242188 42.5 116.96875 54.132812 118.597656 C 65.765625 120.226562 69.832031 113.601562 69.832031 113.601562 C 69.832031 113.601562 67.808594 120.660156 63.832031 122.496094 C 57.929688 118.039062 49.808594 119.269531 46.441406 122.863281 C 41.449219 118.902344 38.398438 113.125 40.664062 106.242188 Z M 40.664062 106.242188 " fill-opacity="1" fill-rule="nonzero"/><path fill="#ca7f29" d="M 52.730469 87.484375 C 52.730469 87.484375 55.9375 94.253906 64.886719 96.550781 C 75.992188 99.410156 82.582031 92.5625 82.582031 92.5625 C 82.582031 92.5625 80.8125 104.644531 69.433594 105.316406 C 66.785156 97.125 57.675781 94.347656 53.191406 95.640625 C 52.457031 93.054688 51.996094 87.996094 52.730469 87.484375 Z M 52.730469 87.484375 " fill-opacity="1" fill-rule="nonzero"/><path fill="#ca7f29" d="M 67.839844 69.746094 C 67.839844 69.746094 71.332031 74.855469 79.421875 76.613281 C 91.453125 79.199219 97.390625 75.113281 97.390625 75.113281 C 97.390625 75.113281 94.390625 85.359375 82.597656 87.195312 C 79.933594 79.007812 72.210938 74.410156 67.742188 75.703125 C 67.390625 72.652344 67.089844 70.242188 67.839844 69.746094 Z M 67.839844 69.746094 " fill-opacity="1" fill-rule="nonzero"/><path fill="#ca7f29" d="M 92.234375 62.628906 C 92.234375 62.628906 94.53125 69.285156 105.527344 69.636719 C 115.882812 69.972656 118.640625 64.511719 118.640625 64.511719 L 121.832031 67.386719 C 121.832031 67.386719 117.683594 75.988281 109.417969 76.789062 C 101.171875 77.585938 93.703125 72.222656 92.234375 62.628906 Z M 92.234375 62.628906 " fill-opacity="1" fill-rule="nonzero"/><path fill="#ca7f29" d="M 175.941406 69.574219 C 164.945312 69.207031 162.648438 62.5625 162.648438 62.5625 C 164.101562 72.160156 171.585938 77.523438 179.847656 76.722656 C 182.210938 76.5 184.253906 75.621094 185.945312 74.503906 L 186.710938 66.9375 C 184.730469 68.3125 181.382812 69.746094 175.941406 69.574219 Z M 175.941406 69.574219 " fill-opacity="1" fill-rule="nonzero"/><path fill="#ca7f29" d="M 198.613281 80.011719 C 187.621094 79.644531 185.320312 73.003906 185.320312 73.003906 C 186.773438 82.597656 194.257812 87.964844 202.523438 87.164062 C 203.113281 87.101562 203.6875 87.003906 204.230469 86.878906 L 207.085938 78.65625 C 205.105469 79.503906 202.363281 80.125 198.613281 80.011719 Z M 198.613281 80.011719 " fill-opacity="1" fill-rule="nonzero"/><path fill="#ca7f29" d="M 217.554688 94.941406 C 206.558594 94.574219 204.261719 87.929688 204.261719 87.929688 C 205.714844 97.527344 212.71875 102.921875 220.984375 102.125 L 224.636719 94.09375 C 222.800781 94.667969 220.488281 95.050781 217.554688 94.941406 Z M 217.554688 94.941406 " fill-opacity="1" fill-rule="nonzero"/><path fill="#ca7f29" d="M 163.160156 63.121094 C 161.402344 64.6875 157.910156 66.652344 151.558594 66.445312 C 140.566406 66.078125 138.269531 59.433594 138.269531 59.433594 C 139.71875 69.03125 147.203125 74.394531 155.46875 73.59375 C 159.679688 73.179688 162.824219 70.753906 164.898438 68.472656 Z M 163.160156 63.121094 " fill-opacity="1" fill-rule="nonzero"/><path fill="#ca7f29" d="M 234.273438 111.910156 C 223.28125 111.542969 220.984375 104.902344 220.984375 104.902344 C 222.339844 113.824219 228.898438 119.09375 236.460938 119.140625 L 240.050781 111.429688 C 238.472656 111.78125 236.554688 111.988281 234.273438 111.910156 Z M 234.273438 111.910156 " fill-opacity="1" fill-rule="nonzero"/><path fill="#ca7f29" d="M 250.867188 130.253906 C 239.90625 131.257812 236.605469 124.441406 236.605469 124.441406 C 239.0625 133.125 244.644531 137.835938 254.667969 136.574219 L 258.175781 128.371094 C 256.40625 129.390625 253.132812 130.046875 250.867188 130.253906 Z M 250.867188 130.253906 " fill-opacity="1" fill-rule="nonzero"/><path fill="#ca7f29" d="M 138.84375 60.457031 C 136.863281 61.78125 133.578125 63.058594 128.40625 62.882812 C 117.414062 62.515625 115.117188 55.875 115.117188 55.875 C 116.566406 65.46875 124.050781 70.832031 132.316406 70.035156 C 135.9375 69.683594 138.761719 67.847656 140.804688 65.882812 Z M 138.84375 60.457031 " fill-opacity="1" fill-rule="nonzero"/><path fill="#ffd27b" d="M 288.363281 275.160156 C 288.363281 275.160156 290.582031 264.785156 302.101562 264.785156 C 313.625 264.785156 316.816406 274.441406 316.816406 274.441406 C 316.816406 274.441406 310.542969 269.191406 301.976562 269.191406 C 293.40625 269.191406 288.363281 275.160156 288.363281 275.160156 Z M 288.363281 275.160156 " fill-opacity="1" fill-rule="nonzero"/><path fill="#ffd27b" d="M 273.367188 259.851562 C 273.367188 259.851562 275.585938 249.476562 287.105469 249.476562 C 298.625 249.476562 301.816406 259.132812 301.816406 259.132812 C 301.816406 259.132812 295.546875 253.882812 286.976562 253.882812 C 278.410156 253.882812 273.367188 259.851562 273.367188 259.851562 Z M 273.367188 259.851562 " fill-opacity="1" fill-rule="nonzero"/><path fill="#ffd27b" d="M 254.265625 245.851562 C 254.265625 245.851562 256.484375 235.472656 268.003906 235.472656 C 279.527344 235.472656 282.714844 245.132812 282.714844 245.132812 C 282.714844 245.132812 276.445312 239.878906 267.878906 239.878906 C 259.324219 239.863281 254.265625 245.851562 254.265625 245.851562 Z M 254.265625 245.851562 " fill-opacity="1" fill-rule="nonzero"/><path fill="#ffd27b" d="M 232.214844 241.476562 C 232.214844 241.476562 234.433594 231.101562 245.953125 231.101562 C 257.472656 231.101562 260.664062 240.757812 260.664062 240.757812 C 260.664062 240.757812 254.394531 235.507812 245.828125 235.507812 C 237.273438 235.488281 232.214844 241.476562 232.214844 241.476562 Z M 232.214844 241.476562 " fill-opacity="1" fill-rule="nonzero"/><path fill="#ffd27b" d="M 117.71875 219.207031 C 117.71875 219.207031 121.179688 209.164062 132.621094 210.570312 C 144.058594 211.976562 146.054688 221.9375 146.054688 221.9375 C 146.054688 221.9375 140.46875 215.949219 131.964844 214.910156 C 123.460938 213.875 117.71875 219.207031 117.71875 219.207031 Z M 117.71875 219.207031 " fill-opacity="1" fill-rule="nonzero"/><path fill="#ffd27b" d="M 96.941406 206.132812 C 96.941406 206.132812 101.363281 196.472656 112.609375 198.980469 C 123.859375 201.484375 124.882812 211.609375 124.882812 211.609375 C 124.882812 211.609375 119.902344 205.109375 111.542969 203.257812 C 103.179688 201.375 96.941406 206.132812 96.941406 206.132812 Z M 96.941406 206.132812 " fill-opacity="1" fill-rule="nonzero"/><path fill="#ffd27b" d="M 78.976562 189.71875 C 78.976562 189.71875 83.492188 180.109375 94.722656 182.726562 C 105.941406 185.347656 106.867188 195.484375 106.867188 195.484375 C 106.867188 195.484375 101.953125 188.9375 93.609375 186.992188 C 85.261719 185.027344 78.976562 189.71875 78.976562 189.71875 Z M 78.976562 189.71875 " fill-opacity="1" fill-rule="nonzero"/><path fill="#ffd27b" d="M 63.691406 171.472656 C 63.691406 171.472656 67.917969 161.734375 79.214844 164 C 90.511719 166.285156 91.742188 176.375 91.742188 176.375 C 91.742188 176.375 86.636719 169.988281 78.226562 168.28125 C 69.816406 166.570312 63.691406 171.472656 63.691406 171.472656 Z M 63.691406 171.472656 " fill-opacity="1" fill-rule="nonzero"/><path fill="#ffd27b" d="M 50.128906 153.035156 C 50.128906 153.035156 53.351562 142.914062 64.824219 144.03125 C 76.296875 145.148438 78.527344 155.078125 78.527344 155.078125 C 78.527344 155.078125 72.800781 149.234375 64.265625 148.40625 C 55.726562 147.574219 50.128906 153.035156 50.128906 153.035156 Z M 50.128906 153.035156 " fill-opacity="1" fill-rule="nonzero"/><path fill="#ffd27b" d="M 41.832031 129.3125 C 41.832031 129.3125 45.054688 119.191406 56.527344 120.308594 C 68 121.425781 70.230469 131.355469 70.230469 131.355469 C 70.230469 131.355469 64.503906 125.511719 55.96875 124.679688 C 47.429688 123.851562 41.832031 129.3125 41.832031 129.3125 Z M 41.832031 129.3125 " fill-opacity="1" fill-rule="nonzero"/><path fill="#ffd27b" d="M 41.527344 103.800781 C 41.527344 103.800781 45.308594 93.871094 56.703125 95.640625 C 68.09375 97.398438 69.769531 107.425781 69.769531 107.425781 C 69.769531 107.425781 64.375 101.277344 55.902344 99.96875 C 47.429688 98.644531 41.527344 103.800781 41.527344 103.800781 Z M 41.527344 103.800781 " fill-opacity="1" fill-rule="nonzero"/><path fill="#ffd27b" d="M 53.382812 85.25 C 53.382812 85.25 56.128906 74.984375 67.632812 75.574219 C 79.136719 76.164062 81.832031 85.96875 81.832031 85.96875 C 81.832031 85.96875 75.847656 80.394531 67.28125 79.964844 C 58.726562 79.535156 53.382812 85.25 53.382812 85.25 Z M 53.382812 85.25 " fill-opacity="1" fill-rule="nonzero"/><path fill="#ffd27b" d="M 105.03125 47.269531 C 93.609375 48.835938 92.824219 59.417969 92.824219 59.417969 C 92.824219 59.417969 97.023438 52.808594 105.511719 51.644531 C 109.132812 51.148438 112.46875 51.660156 115.117188 52.410156 L 115.835938 49.441406 C 113.3125 47.8125 109.769531 46.617188 105.03125 47.269531 Z M 105.03125 47.269531 " fill-opacity="1" fill-rule="nonzero"/><path fill="#ffd27b" d="M 115.277344 52.777344 C 115.277344 52.777344 115.898438 42.175781 127.289062 40.421875 C 138.683594 38.664062 143.308594 47.734375 143.308594 47.734375 C 143.308594 47.734375 136.304688 43.488281 127.832031 44.78125 C 119.359375 46.074219 115.277344 52.777344 115.277344 52.777344 Z M 115.277344 52.777344 " fill-opacity="1" fill-rule="nonzero"/><path fill="#ffd27b" d="M 139.003906 55.699219 C 139.003906 55.699219 140.054688 45.132812 151.511719 43.855469 C 162.96875 42.578125 167.210938 51.820312 167.210938 51.820312 C 167.210938 51.820312 160.398438 47.285156 151.878906 48.226562 C 143.359375 49.1875 139.003906 55.699219 139.003906 55.699219 Z M 139.003906 55.699219 " fill-opacity="1" fill-rule="nonzero"/><path fill="#ffd27b" d="M 164.164062 56.816406 C 164.164062 56.816406 166.734375 46.519531 178.253906 46.902344 C 189.773438 47.285156 192.644531 57.039062 192.644531 57.039062 C 192.644531 57.039062 186.566406 51.582031 178 51.292969 C 169.414062 51.007812 164.164062 56.816406 164.164062 56.816406 Z M 164.164062 56.816406 " fill-opacity="1" fill-rule="nonzero"/><path fill="#ffd27b" d="M 187.269531 65.757812 C 187.269531 65.757812 191.066406 55.84375 202.457031 57.632812 C 213.851562 59.417969 215.496094 69.460938 215.496094 69.460938 C 215.496094 69.460938 210.117188 63.296875 201.644531 61.957031 C 193.171875 60.617188 187.269531 65.757812 187.269531 65.757812 Z M 187.269531 65.757812 " fill-opacity="1" fill-rule="nonzero"/><path fill="#ffd27b" d="M 205.171875 82.824219 C 205.171875 82.824219 207.566406 72.476562 219.085938 72.667969 C 230.605469 72.859375 233.636719 82.566406 233.636719 82.566406 C 233.636719 82.566406 227.460938 77.203125 218.894531 77.058594 C 210.324219 76.917969 205.171875 82.824219 205.171875 82.824219 Z M 205.171875 82.824219 " fill-opacity="1" fill-rule="nonzero"/><path fill="#ffd27b" d="M 222.308594 98.789062 C 222.308594 98.789062 225.277344 88.585938 236.765625 89.433594 C 248.253906 90.261719 250.742188 100.128906 250.742188 100.128906 C 250.742188 100.128906 244.871094 94.429688 236.316406 93.804688 C 227.78125 93.183594 222.308594 98.789062 222.308594 98.789062 Z M 222.308594 98.789062 " fill-opacity="1" fill-rule="nonzero"/><path fill="#ffd27b" d="M 237.066406 117.097656 C 237.066406 117.097656 239.460938 106.753906 250.980469 106.945312 C 262.5 107.136719 265.53125 116.84375 265.53125 116.84375 C 265.53125 116.84375 259.355469 111.480469 250.789062 111.335938 C 242.203125 111.191406 237.066406 117.097656 237.066406 117.097656 Z M 237.066406 117.097656 " fill-opacity="1" fill-rule="nonzero"/><path fill="#ffd27b" d="M 255.480469 134.867188 C 255.480469 134.867188 257.027344 124.363281 268.53125 123.613281 C 280.035156 122.863281 283.851562 132.296875 283.851562 132.296875 C 283.851562 132.296875 277.261719 127.460938 268.707031 128.003906 C 260.140625 128.578125 255.480469 134.867188 255.480469 134.867188 Z M 255.480469 134.867188 " fill-opacity="1" fill-rule="nonzero"/><path fill="#ffd27b" d="M 270.71875 155.539062 C 270.71875 155.539062 272.265625 145.035156 283.769531 144.285156 C 295.273438 143.535156 299.085938 152.96875 299.085938 152.96875 C 299.085938 152.96875 292.496094 148.132812 283.945312 148.675781 C 275.394531 149.21875 270.71875 155.539062 270.71875 155.539062 Z M 270.71875 155.539062 " fill-opacity="1" fill-rule="nonzero"/><path fill="#ffd27b" d="M 282.75 175.207031 C 282.75 175.207031 284.933594 164.816406 296.453125 164.769531 C 307.976562 164.71875 311.214844 174.363281 311.214844 174.363281 C 311.214844 174.363281 304.925781 169.125 296.359375 169.160156 C 287.773438 169.207031 282.75 175.207031 282.75 175.207031 Z M 282.75 175.207031 " fill-opacity="1" fill-rule="nonzero"/><path fill="#ffd27b" d="M 291.605469 198.070312 C 291.605469 198.070312 293.789062 187.675781 305.308594 187.628906 C 316.832031 187.582031 320.070312 197.222656 320.070312 197.222656 C 320.070312 197.222656 313.78125 191.988281 305.214844 192.019531 C 296.628906 192.066406 291.605469 198.070312 291.605469 198.070312 Z M 291.605469 198.070312 " fill-opacity="1" fill-rule="nonzero"/><path fill="#ffd27b" d="M 299.375 220.738281 C 299.375 220.738281 301.5625 210.347656 313.082031 210.296875 C 324.601562 210.25 327.839844 219.894531 327.839844 219.894531 C 327.839844 219.894531 321.554688 214.65625 312.984375 214.6875 C 304.402344 214.738281 299.375 220.738281 299.375 220.738281 Z M 299.375 220.738281 " fill-opacity="1" fill-rule="nonzero"/><path fill="#ffd27b" d="M 304.351562 243.839844 C 304.351562 243.839844 306.539062 233.445312 318.058594 233.398438 C 329.578125 233.351562 332.816406 242.992188 332.816406 242.992188 C 332.816406 242.992188 326.53125 237.757812 317.964844 237.789062 C 309.394531 237.835938 304.351562 243.839844 304.351562 243.839844 Z M 304.351562 243.839844 " fill-opacity="1" fill-rule="nonzero"/><path fill="#ffd27b" d="M 91.773438 59.644531 C 89.476562 58.0625 85.886719 56.496094 81.65625 56.640625 C 70.136719 57.023438 68.269531 67.480469 68.269531 67.480469 C 68.269531 67.480469 73.121094 61.335938 81.6875 61.046875 C 85.644531 60.917969 89.15625 61.925781 91.789062 63.042969 L 91.789062 59.644531 Z M 91.773438 59.644531 " fill-opacity="1" fill-rule="nonzero"/><path fill="#ffd27b" d="M 222.753906 230.269531 C 211.234375 230.269531 209.015625 240.648438 209.015625 240.648438 C 209.015625 240.648438 214.074219 234.660156 222.644531 234.660156 C 227.300781 234.660156 231.289062 236.222656 233.957031 237.628906 L 235.214844 235.984375 C 233.078125 233.320312 229.234375 230.269531 222.753906 230.269531 Z M 222.753906 230.269531 " fill-opacity="1" fill-rule="nonzero"/><path fill="#ffd27b" d="M 198.597656 231.101562 C 187.078125 231.101562 184.859375 241.476562 184.859375 241.476562 C 184.859375 241.476562 189.917969 235.488281 198.484375 235.488281 C 203.144531 235.488281 207.132812 237.054688 209.796875 238.460938 L 211.058594 236.816406 C 208.9375 234.148438 205.089844 231.101562 198.597656 231.101562 Z M 198.597656 231.101562 " fill-opacity="1" fill-rule="nonzero"/><path fill="#ffd27b" d="M 155.371094 218.855469 C 143.964844 217.210938 140.292969 227.171875 140.292969 227.171875 C 140.292969 227.171875 146.148438 221.96875 154.640625 223.199219 C 159.25 223.867188 163.910156 225.945312 166.683594 230.046875 L 168.105469 229.328125 C 165.777344 223.375 161.785156 219.78125 155.371094 218.855469 Z M 155.371094 218.855469 " fill-opacity="1" fill-rule="nonzero"/><path fill="#ffd27b" d="M 175.492188 228.066406 C 163.511719 227.414062 160.589844 238.347656 160.589844 238.347656 C 160.589844 238.347656 166.191406 232.25 175.109375 232.746094 C 179.960938 233 184.011719 234.882812 186.695312 236.558594 L 188.113281 234.882812 C 186.054688 231.898438 182.242188 228.433594 175.492188 228.066406 Z M 175.492188 228.066406 " fill-opacity="1" fill-rule="nonzero"/><path fill="#ffd27b" d="M 305.007812 264.164062 C 305.007812 264.164062 306.9375 253.722656 318.457031 253.402344 C 329.976562 253.082031 333.441406 262.660156 333.441406 262.660156 C 333.441406 262.660156 327.027344 257.570312 318.457031 257.808594 C 309.890625 258.046875 305.007812 264.164062 305.007812 264.164062 Z M 305.007812 264.164062 " fill-opacity="1" fill-rule="nonzero"/><path fill="#000000" d="M 219.5625 345.164062 C 219.261719 345.164062 218.972656 344.972656 218.859375 344.671875 C 218.71875 344.289062 218.925781 343.855469 219.308594 343.710938 C 219.515625 343.632812 239.796875 336.195312 258.382812 321.332031 C 258.703125 321.074219 259.183594 321.125 259.4375 321.441406 C 259.691406 321.761719 259.644531 322.242188 259.324219 322.496094 C 240.53125 337.519531 220.027344 345.039062 219.820312 345.117188 C 219.738281 345.148438 219.644531 345.164062 219.5625 345.164062 Z M 219.5625 345.164062 " fill-opacity="1" fill-rule="nonzero"/><path fill="#000000" d="M 225.914062 356.246094 C 225.625 356.246094 225.339844 356.070312 225.226562 355.78125 C 225.066406 355.398438 225.242188 354.96875 225.625 354.792969 C 225.929688 354.664062 256.582031 341.476562 273.621094 322.511719 C 273.894531 322.207031 274.371094 322.175781 274.675781 322.449219 C 274.976562 322.71875 275.011719 323.199219 274.738281 323.5 C 257.472656 342.722656 226.535156 356.019531 226.21875 356.164062 C 226.121094 356.230469 226.007812 356.246094 225.914062 356.246094 Z M 225.914062 356.246094 " fill-opacity="1" fill-rule="nonzero"/><path fill="#000000" d="M 231.53125 357.9375 C 231.226562 357.9375 230.941406 357.746094 230.828125 357.441406 C 230.683594 357.058594 230.890625 356.628906 231.273438 356.484375 C 242.492188 352.367188 260.316406 338.796875 260.507812 338.667969 C 260.839844 338.414062 261.304688 338.476562 261.558594 338.8125 C 261.816406 339.148438 261.75 339.609375 261.414062 339.867188 C 260.683594 340.425781 243.226562 353.691406 231.800781 357.90625 C 231.707031 357.9375 231.609375 357.9375 231.53125 357.9375 Z M 231.53125 357.9375 " fill-opacity="1" fill-rule="nonzero"/><path fill="#000000" d="M 302.613281 295.675781 C 293.839844 295.675781 286.707031 288.539062 286.707031 279.757812 C 286.707031 270.980469 293.839844 263.84375 302.613281 263.84375 C 311.390625 263.84375 318.523438 270.980469 318.523438 279.757812 C 318.503906 288.539062 311.375 295.675781 302.613281 295.675781 Z M 302.613281 265.34375 C 294.667969 265.34375 288.207031 271.808594 288.207031 279.757812 C 288.207031 287.710938 294.667969 294.175781 302.613281 294.175781 C 310.558594 294.175781 317.023438 287.710938 317.023438 279.757812 C 317.007812 271.808594 310.542969 265.34375 302.613281 265.34375 Z M 302.613281 265.34375 " fill-opacity="1" fill-rule="nonzero"/><path fill="#000000" d="M 287.3125 280.03125 C 287.296875 280.03125 287.296875 280.03125 287.3125 280.03125 C 283.050781 279.949219 279.09375 278.226562 276.144531 275.175781 C 273.191406 272.113281 271.613281 268.089844 271.691406 263.84375 C 271.769531 259.597656 273.496094 255.621094 276.542969 252.667969 C 279.605469 249.714844 283.609375 248.132812 287.871094 248.214844 C 295.511719 248.339844 303.667969 254.582031 303.492188 264.402344 C 303.492188 264.816406 303.15625 265.136719 302.742188 265.136719 C 302.742188 265.136719 302.726562 265.136719 302.726562 265.136719 C 302.3125 265.136719 301.976562 264.785156 301.992188 264.371094 C 302.152344 255.460938 294.761719 249.828125 287.839844 249.699219 C 283.976562 249.617188 280.355469 251.070312 277.578125 253.738281 C 274.820312 256.402344 273.253906 259.996094 273.175781 263.859375 C 273.113281 267.707031 274.546875 271.347656 277.210938 274.125 C 279.875 276.886719 283.464844 278.449219 287.328125 278.53125 C 287.742188 278.53125 288.078125 278.882812 288.0625 279.296875 C 288.046875 279.710938 287.710938 280.03125 287.3125 280.03125 Z M 287.3125 280.03125 " fill-opacity="1" fill-rule="nonzero"/><path fill="#000000" d="M 268.515625 266.539062 C 259.742188 266.539062 252.609375 259.40625 252.609375 250.625 C 252.609375 241.84375 259.742188 234.707031 268.515625 234.707031 C 276.796875 234.707031 283.753906 241.171875 284.375 249.425781 C 284.40625 249.84375 284.105469 250.195312 283.691406 250.226562 C 283.273438 250.257812 282.925781 249.953125 282.890625 249.539062 C 282.332031 242.066406 276.03125 236.207031 268.53125 236.207031 C 260.585938 236.207031 254.125 242.675781 254.125 250.625 C 254.125 258.574219 260.585938 265.039062 268.53125 265.039062 C 269.824219 265.039062 271.085938 264.878906 272.265625 264.578125 C 272.664062 264.464844 273.078125 264.703125 273.175781 265.121094 C 273.285156 265.519531 273.046875 265.933594 272.632812 266.03125 C 271.324219 266.367188 269.953125 266.539062 268.515625 266.539062 Z M 268.515625 266.539062 " fill-opacity="1" fill-rule="nonzero"/><path fill="#000000" d="M 246.609375 261.878906 C 237.832031 261.878906 230.699219 254.742188 230.699219 245.960938 C 230.699219 237.183594 237.832031 230.046875 246.609375 230.046875 C 252.226562 230.046875 257.492188 233.0625 260.332031 237.917969 C 260.539062 238.269531 260.425781 238.730469 260.058594 238.9375 C 259.707031 239.144531 259.246094 239.035156 259.039062 238.667969 C 256.453125 234.277344 251.699219 231.53125 246.609375 231.53125 C 238.664062 231.53125 232.199219 237.996094 232.199219 245.945312 C 232.199219 253.898438 238.664062 260.363281 246.609375 260.363281 C 249.640625 260.363281 252.542969 259.4375 255 257.664062 C 255.335938 257.425781 255.800781 257.503906 256.054688 257.839844 C 256.292969 258.175781 256.214844 258.636719 255.878906 258.894531 C 253.167969 260.839844 249.960938 261.878906 246.609375 261.878906 Z M 246.609375 261.878906 " fill-opacity="1" fill-rule="nonzero"/><path fill="#000000" d="M 223.265625 261.113281 C 214.488281 261.113281 207.355469 253.976562 207.355469 245.195312 C 207.355469 236.417969 214.488281 229.28125 223.265625 229.28125 C 228.179688 229.28125 232.726562 231.5 235.773438 235.363281 C 236.03125 235.683594 235.980469 236.160156 235.648438 236.417969 C 235.328125 236.671875 234.847656 236.625 234.59375 236.289062 C 231.832031 232.792969 227.71875 230.78125 223.265625 230.78125 C 215.320312 230.78125 208.855469 237.246094 208.855469 245.195312 C 208.855469 253.148438 215.320312 259.613281 223.265625 259.613281 C 227.398438 259.613281 231.324219 257.839844 234.066406 254.742188 C 234.339844 254.441406 234.816406 254.40625 235.121094 254.679688 C 235.421875 254.949219 235.457031 255.429688 235.183594 255.734375 C 232.167969 259.148438 227.8125 261.113281 223.265625 261.113281 Z M 223.265625 261.113281 " fill-opacity="1" fill-rule="nonzero"/><path fill="#000000" d="M 199.425781 261.878906 C 190.652344 261.878906 183.519531 254.742188 183.519531 245.960938 C 183.519531 237.183594 190.652344 230.046875 199.425781 230.046875 C 204.148438 230.046875 208.585938 232.121094 211.617188 235.746094 C 211.886719 236.066406 211.839844 236.542969 211.523438 236.800781 C 211.203125 237.070312 210.722656 237.023438 210.46875 236.703125 C 207.722656 233.429688 203.703125 231.546875 199.425781 231.546875 C 191.480469 231.546875 185.019531 238.011719 185.019531 245.960938 C 185.019531 253.914062 191.480469 260.378906 199.425781 260.378906 C 203.992188 260.378906 208.332031 258.175781 211.042969 254.488281 C 211.28125 254.152344 211.761719 254.089844 212.097656 254.328125 C 212.429688 254.566406 212.496094 255.046875 212.253906 255.382812 C 209.253906 259.453125 204.46875 261.878906 199.425781 261.878906 Z M 199.425781 261.878906 " fill-opacity="1" fill-rule="nonzero"/><path fill="#000000" d="M 175.238281 258.8125 C 166.460938 258.8125 159.328125 251.679688 159.328125 242.898438 C 159.328125 234.117188 166.460938 226.980469 175.238281 226.980469 C 180.980469 226.980469 186.3125 230.09375 189.121094 235.121094 C 189.328125 235.488281 189.199219 235.9375 188.832031 236.144531 C 188.464844 236.351562 188.019531 236.222656 187.8125 235.855469 C 185.257812 231.308594 180.441406 228.480469 175.238281 228.480469 C 167.292969 228.480469 160.828125 234.949219 160.828125 242.898438 C 160.828125 250.847656 167.292969 257.3125 175.238281 257.3125 C 179.210938 257.3125 182.914062 255.734375 185.65625 252.84375 C 185.945312 252.539062 186.421875 252.523438 186.710938 252.8125 C 187.011719 253.097656 187.027344 253.578125 186.742188 253.867188 C 183.710938 257.074219 179.625 258.8125 175.238281 258.8125 Z M 175.238281 258.8125 " fill-opacity="1" fill-rule="nonzero"/><path fill="#000000" d="M 153.539062 249.460938 C 151.527344 249.460938 149.5 249.074219 147.585938 248.308594 C 143.644531 246.714844 140.566406 243.695312 138.90625 239.785156 C 137.246094 235.875 137.199219 231.546875 138.792969 227.605469 C 140.390625 223.660156 143.40625 220.578125 147.316406 218.917969 C 151.222656 217.257812 155.546875 217.210938 159.488281 218.808594 C 164.035156 220.644531 167.433594 224.410156 168.808594 229.121094 C 168.917969 229.519531 168.695312 229.933594 168.296875 230.046875 C 167.898438 230.15625 167.484375 229.933594 167.371094 229.535156 C 166.128906 225.257812 163.046875 221.855469 158.929688 220.195312 C 155.355469 218.757812 151.449219 218.792969 147.90625 220.292969 C 144.363281 221.792969 141.617188 224.585938 140.183594 228.164062 C 138.746094 231.738281 138.777344 235.648438 140.277344 239.195312 C 141.777344 242.738281 144.570312 245.484375 148.144531 246.921875 C 151.972656 248.46875 156.28125 248.292969 159.984375 246.441406 C 160.351562 246.25 160.796875 246.410156 160.988281 246.777344 C 161.179688 247.144531 161.019531 247.589844 160.652344 247.78125 C 158.421875 248.898438 155.980469 249.460938 153.539062 249.460938 Z M 153.539062 249.460938 " fill-opacity="1" fill-rule="nonzero"/><path fill="#000000" d="M 131.136719 241.238281 C 129.125 241.238281 127.097656 240.855469 125.199219 240.089844 C 117.0625 236.800781 113.121094 227.507812 116.410156 219.382812 C 118.003906 215.4375 121.019531 212.359375 124.929688 210.699219 C 128.839844 209.039062 133.164062 208.988281 137.101562 210.585938 C 141.476562 212.359375 144.824219 215.933594 146.277344 220.4375 C 146.40625 220.835938 146.199219 221.25 145.800781 221.378906 C 145.398438 221.503906 144.984375 221.296875 144.859375 220.898438 C 143.535156 216.828125 140.5 213.585938 136.542969 211.976562 C 132.972656 210.539062 129.0625 210.570312 125.519531 212.070312 C 121.976562 213.570312 119.234375 216.363281 117.796875 219.941406 C 114.828125 227.316406 118.402344 235.730469 125.757812 238.699219 C 129.988281 240.40625 134.835938 239.992188 138.730469 237.582031 C 139.082031 237.359375 139.542969 237.46875 139.769531 237.820312 C 139.992188 238.171875 139.878906 238.636719 139.527344 238.859375 C 136.976562 240.4375 134.054688 241.238281 131.136719 241.238281 Z M 131.136719 241.238281 " fill-opacity="1" fill-rule="nonzero"/><path fill="#000000" d="M 46.25 123.246094 C 46.105469 123.246094 45.949219 123.195312 45.820312 123.101562 C 42.246094 120.546875 39.949219 116.730469 39.324219 112.390625 C 38.734375 108.175781 39.820312 103.992188 42.375 100.589844 C 44.925781 97.191406 48.660156 95.003906 52.855469 94.414062 C 61.535156 93.183594 69.59375 99.265625 70.824219 107.949219 C 71.621094 113.648438 69.273438 119.347656 64.695312 122.84375 C 64.359375 123.101562 63.898438 123.039062 63.640625 122.703125 C 63.386719 122.367188 63.449219 121.902344 63.785156 121.648438 C 67.933594 118.488281 70.058594 113.316406 69.324219 108.160156 C 68.222656 100.289062 60.914062 94.78125 53.046875 95.898438 C 49.234375 96.441406 45.867188 98.421875 43.554688 101.5 C 41.242188 104.582031 40.265625 108.367188 40.792969 112.179688 C 41.351562 116.125 43.441406 119.574219 46.664062 121.886719 C 47 122.128906 47.082031 122.589844 46.839844 122.941406 C 46.714844 123.132812 46.488281 123.246094 46.25 123.246094 Z M 46.25 123.246094 " fill-opacity="1" fill-rule="nonzero"/><path fill="#000000" d="M 69.433594 106.066406 C 69.066406 106.066406 68.730469 105.796875 68.683594 105.414062 C 68.636719 104.996094 68.921875 104.628906 69.339844 104.582031 C 73.757812 104.039062 77.605469 101.550781 79.917969 97.75 C 81.910156 94.460938 82.503906 90.582031 81.59375 86.847656 C 80.683594 83.109375 78.371094 79.949219 75.082031 77.953125 C 71.796875 75.957031 67.917969 75.367188 64.183594 76.277344 C 60.453125 77.1875 57.292969 79.503906 55.296875 82.808594 C 53.160156 86.335938 52.632812 90.628906 53.863281 94.574219 C 53.988281 94.972656 53.765625 95.386719 53.367188 95.515625 C 52.96875 95.640625 52.554688 95.417969 52.425781 95.019531 C 51.070312 90.660156 51.644531 85.9375 54.019531 82.039062 C 58.570312 74.539062 68.367188 72.144531 75.863281 76.691406 C 79.503906 78.894531 82.054688 82.390625 83.0625 86.511719 C 84.066406 90.644531 83.410156 94.90625 81.210938 98.546875 C 78.65625 102.746094 74.414062 105.492188 69.53125 106.082031 C 69.5 106.066406 69.464844 106.066406 69.433594 106.066406 Z M 69.433594 106.066406 " fill-opacity="1" fill-rule="nonzero"/><path fill="#000000" d="M 82.597656 87.675781 C 82.183594 87.675781 81.847656 87.339844 81.847656 86.941406 C 81.847656 86.527344 82.167969 86.191406 82.582031 86.175781 C 87.035156 86.113281 91.132812 84.035156 93.832031 80.507812 C 95.425781 78.417969 96.71875 75.496094 97.039062 73.261719 C 97.101562 72.84375 97.46875 72.574219 97.882812 72.621094 C 98.296875 72.683594 98.585938 73.070312 98.523438 73.46875 C 98.15625 75.972656 96.78125 79.101562 95.011719 81.417969 C 92.042969 85.328125 87.511719 87.613281 82.597656 87.675781 Z M 82.597656 87.675781 " fill-opacity="1" fill-rule="nonzero"/><path fill="#000000" d="M 67.503906 75.464844 C 67.152344 75.464844 66.832031 75.222656 66.769531 74.855469 C 65.890625 70.386719 66.960938 65.742188 69.722656 62.117188 C 72.402344 58.605469 76.40625 56.304688 80.699219 55.796875 C 84.992188 55.300781 89.300781 56.609375 92.792969 59.484375 C 93.113281 59.738281 93.160156 60.21875 92.90625 60.535156 C 92.648438 60.855469 92.171875 60.902344 91.851562 60.648438 C 88.660156 58.03125 84.769531 56.832031 80.875 57.296875 C 76.980469 57.742188 73.34375 59.835938 70.917969 63.027344 C 68.414062 66.316406 67.441406 70.515625 68.238281 74.570312 C 68.316406 74.96875 68.046875 75.367188 67.648438 75.449219 C 67.597656 75.464844 67.550781 75.464844 67.503906 75.464844 Z M 67.503906 75.464844 " fill-opacity="1" fill-rule="nonzero"/><path fill="#000000" d="M 109.867188 229.359375 C 107.855469 229.359375 105.847656 228.976562 103.914062 228.195312 C 95.777344 224.90625 91.835938 215.613281 95.125 207.488281 C 98.410156 199.347656 107.695312 195.402344 115.816406 198.691406 C 121.148438 200.847656 124.914062 205.734375 125.648438 211.433594 C 125.695312 211.847656 125.40625 212.214844 124.992188 212.277344 C 124.578125 212.324219 124.210938 212.039062 124.148438 211.625 C 123.476562 206.449219 120.078125 202.027344 115.242188 200.082031 C 107.871094 197.113281 99.464844 200.6875 96.496094 208.046875 C 93.527344 215.421875 97.101562 223.835938 104.457031 226.804688 C 108.144531 228.289062 112.179688 228.210938 115.800781 226.566406 C 116.183594 226.390625 116.632812 226.566406 116.792969 226.933594 C 116.96875 227.316406 116.792969 227.761719 116.425781 227.921875 C 114.316406 228.882812 112.085938 229.359375 109.867188 229.359375 Z M 109.867188 229.359375 " fill-opacity="1" fill-rule="nonzero"/><path fill="#000000" d="M 91.691406 212.835938 C 88.421875 212.835938 85.230469 211.816406 82.503906 209.867188 C 75.371094 204.773438 73.710938 194.8125 78.800781 187.675781 C 81.273438 184.210938 84.945312 181.929688 89.125 181.226562 C 93.320312 180.523438 97.53125 181.5 100.980469 183.972656 C 105.652344 187.308594 108.175781 192.945312 107.535156 198.675781 C 107.488281 199.089844 107.121094 199.378906 106.707031 199.347656 C 106.292969 199.300781 106.003906 198.933594 106.039062 198.515625 C 106.613281 193.328125 104.328125 188.234375 100.085938 185.203125 C 96.957031 182.96875 93.144531 182.089844 89.347656 182.710938 C 85.550781 183.351562 82.230469 185.425781 79.996094 188.554688 C 75.386719 195.019531 76.886719 204.039062 83.347656 208.652344 C 86.585938 210.96875 90.511719 211.832031 94.421875 211.082031 C 94.820312 211 95.21875 211.273438 95.300781 211.671875 C 95.378906 212.085938 95.105469 212.46875 94.707031 212.550781 C 93.71875 212.742188 92.699219 212.835938 91.691406 212.835938 Z M 91.691406 212.835938 " fill-opacity="1" fill-rule="nonzero"/><path fill="#000000" d="M 76.421875 194.445312 C 76.421875 194.445312 76.40625 194.445312 76.40625 194.445312 C 71.84375 194.316406 67.566406 192.242188 64.632812 188.746094 C 61.902344 185.488281 60.609375 181.355469 60.992188 177.125 C 61.375 172.894531 63.371094 169.0625 66.625 166.332031 C 69.882812 163.601562 74.015625 162.308594 78.242188 162.691406 C 82.46875 163.074219 86.300781 165.070312 89.027344 168.328125 C 92.171875 172.09375 93.398438 177.011719 92.394531 181.816406 C 92.316406 182.21875 91.917969 182.488281 91.5 182.394531 C 91.101562 182.3125 90.832031 181.914062 90.925781 181.5 C 91.835938 177.140625 90.734375 172.6875 87.878906 169.269531 C 85.40625 166.316406 81.945312 164.496094 78.113281 164.160156 C 74.285156 163.808594 70.550781 164.992188 67.597656 167.464844 C 64.648438 169.941406 62.828125 173.40625 62.492188 177.234375 C 62.160156 181.066406 63.324219 184.804688 65.796875 187.757812 C 68.445312 190.917969 72.324219 192.800781 76.453125 192.914062 C 76.871094 192.929688 77.1875 193.265625 77.1875 193.679688 C 77.15625 194.109375 76.820312 194.445312 76.421875 194.445312 Z M 76.421875 194.445312 " fill-opacity="1" fill-rule="nonzero"/><path fill="#000000" d="M 62.542969 174.296875 C 62.527344 174.296875 62.492188 174.296875 62.476562 174.296875 C 57.453125 173.867188 52.886719 171.027344 50.253906 166.730469 C 45.691406 159.246094 48.070312 149.425781 55.554688 144.859375 C 63.035156 140.292969 72.847656 142.671875 77.414062 150.160156 C 79.871094 154.183594 80.410156 159.070312 78.894531 163.539062 C 78.769531 163.9375 78.335938 164.144531 77.9375 164 C 77.539062 163.875 77.332031 163.441406 77.460938 163.042969 C 78.832031 158.988281 78.335938 154.566406 76.121094 150.925781 C 71.988281 144.140625 63.101562 141.988281 56.320312 146.121094 C 49.539062 150.257812 47.382812 159.148438 51.515625 165.933594 C 53.894531 169.828125 58.027344 172.398438 62.589844 172.796875 C 63.003906 172.828125 63.308594 173.195312 63.277344 173.613281 C 63.257812 173.996094 62.925781 174.296875 62.542969 174.296875 Z M 62.542969 174.296875 " fill-opacity="1" fill-rule="nonzero"/><path fill="#000000" d="M 51.132812 150.128906 C 51.054688 150.128906 50.988281 150.113281 50.910156 150.097656 C 46.714844 148.789062 43.332031 145.898438 41.382812 141.953125 C 37.507812 134.085938 40.746094 124.523438 48.597656 120.640625 C 52.410156 118.757812 56.71875 118.472656 60.738281 119.84375 C 64.757812 121.203125 68.015625 124.058594 69.898438 127.875 C 72.433594 133.03125 72.003906 139.175781 68.75 143.933594 C 68.507812 144.269531 68.046875 144.367188 67.710938 144.125 C 67.375 143.886719 67.28125 143.421875 67.519531 143.089844 C 70.472656 138.792969 70.871094 133.222656 68.558594 128.542969 C 66.847656 125.097656 63.914062 122.511719 60.257812 121.28125 C 56.621094 120.050781 52.710938 120.308594 49.265625 122.015625 C 42.148438 125.527344 39.214844 134.195312 42.722656 141.316406 C 44.480469 144.890625 47.542969 147.511719 51.339844 148.691406 C 51.738281 148.820312 51.960938 149.234375 51.835938 149.632812 C 51.738281 149.921875 51.453125 150.128906 51.132812 150.128906 Z M 51.132812 150.128906 " fill-opacity="1" fill-rule="nonzero"/><path fill="#000000" d="M 153.699219 74.410156 C 152.421875 74.410156 151.144531 74.25 149.867188 73.945312 C 145.75 72.925781 142.273438 70.355469 140.070312 66.714844 C 137.886719 63.074219 137.230469 58.796875 138.269531 54.675781 C 139.289062 50.558594 141.859375 47.078125 145.496094 44.875 C 149.132812 42.6875 153.410156 42.035156 157.527344 43.070312 C 161.785156 44.125 165.328125 46.824219 167.515625 50.640625 C 167.722656 51.007812 167.59375 51.453125 167.226562 51.660156 C 166.859375 51.867188 166.414062 51.738281 166.207031 51.371094 C 164.246094 47.910156 161.019531 45.480469 157.160156 44.523438 C 153.425781 43.597656 149.550781 44.171875 146.261719 46.167969 C 142.960938 48.148438 140.644531 51.308594 139.703125 55.042969 C 138.761719 58.78125 139.351562 62.660156 141.347656 65.949219 C 143.324219 69.253906 146.484375 71.566406 150.21875 72.511719 C 155.277344 73.769531 160.621094 72.191406 164.195312 68.390625 C 164.484375 68.085938 164.960938 68.070312 165.25 68.359375 C 165.550781 68.648438 165.570312 69.125 165.28125 69.414062 C 162.25 72.621094 158.039062 74.410156 153.699219 74.410156 Z M 153.699219 74.410156 " fill-opacity="1" fill-rule="nonzero"/><path fill="#000000" d="M 130.289062 70.691406 C 129.285156 70.691406 128.28125 70.59375 127.289062 70.402344 C 123.109375 69.605469 119.503906 67.242188 117.109375 63.730469 C 114.71875 60.21875 113.839844 55.988281 114.636719 51.804688 C 116.28125 43.183594 124.625 37.5 133.226562 39.144531 C 137.695312 39.992188 141.601562 42.734375 143.933594 46.664062 C 144.140625 47.015625 144.027344 47.476562 143.675781 47.683594 C 143.324219 47.894531 142.863281 47.78125 142.65625 47.429688 C 140.550781 43.871094 137.007812 41.394531 132.953125 40.628906 C 125.152344 39.144531 117.589844 44.285156 116.105469 52.089844 C 115.386719 55.875 116.183594 59.707031 118.339844 62.882812 C 120.507812 66.058594 123.78125 68.214844 127.5625 68.933594 C 131.933594 69.765625 136.351562 68.566406 139.71875 65.644531 C 140.039062 65.375 140.5 65.40625 140.773438 65.726562 C 141.042969 66.042969 141.011719 66.507812 140.695312 66.777344 C 137.773438 69.332031 134.085938 70.691406 130.289062 70.691406 Z M 130.289062 70.691406 " fill-opacity="1" fill-rule="nonzero"/><path fill="#000000" d="M 107.410156 77.570312 C 100.753906 77.570312 94.53125 73.355469 92.316406 66.699219 C 89.539062 58.382812 94.054688 49.34375 102.367188 46.566406 C 107.152344 44.972656 112.46875 45.753906 116.585938 48.675781 C 116.917969 48.914062 117 49.378906 116.757812 49.730469 C 116.519531 50.0625 116.058594 50.144531 115.707031 49.90625 C 111.972656 47.269531 107.152344 46.550781 102.828125 48.003906 C 95.300781 50.527344 91.214844 58.699219 93.734375 66.234375 C 96.257812 73.769531 104.425781 77.859375 111.957031 75.335938 C 116.007812 73.980469 119.234375 70.929688 120.796875 66.9375 C 120.957031 66.554688 121.386719 66.363281 121.769531 66.523438 C 122.152344 66.683594 122.34375 67.113281 122.183594 67.496094 C 120.445312 71.886719 116.886719 75.273438 112.417969 76.757812 C 110.777344 77.300781 109.085938 77.570312 107.410156 77.570312 Z M 107.410156 77.570312 " fill-opacity="1" fill-rule="nonzero"/><path fill="#000000" d="M 236.15625 119.875 C 230.429688 119.875 225.132812 116.796875 222.308594 111.8125 C 220.21875 108.109375 219.675781 103.832031 220.808594 99.730469 C 221.941406 95.625 224.589844 92.226562 228.292969 90.117188 C 231.992188 88.027344 236.269531 87.484375 240.371094 88.617188 C 244.46875 89.75 247.867188 92.402344 249.976562 96.105469 C 251.761719 99.25 252.417969 102.792969 251.875 106.355469 C 251.808594 106.769531 251.425781 107.039062 251.011719 106.976562 C 250.597656 106.914062 250.328125 106.53125 250.390625 106.113281 C 250.882812 102.890625 250.292969 99.679688 248.667969 96.839844 C 246.769531 93.488281 243.671875 91.09375 239.972656 90.070312 C 236.269531 89.050781 232.375 89.527344 229.023438 91.425781 C 225.675781 93.328125 223.28125 96.425781 222.261719 100.128906 C 221.238281 103.832031 221.71875 107.726562 223.617188 111.078125 C 226.167969 115.582031 230.972656 118.375 236.15625 118.375 C 236.1875 118.375 236.222656 118.375 236.238281 118.375 C 236.652344 118.375 236.988281 118.710938 236.988281 119.125 C 236.988281 119.539062 236.652344 119.875 236.238281 119.875 C 236.207031 119.875 236.1875 119.875 236.15625 119.875 Z M 236.15625 119.875 " fill-opacity="1" fill-rule="nonzero"/><path fill="#000000" d="M 219.386719 103.144531 C 215.09375 103.144531 211.027344 101.4375 207.996094 98.308594 C 201.882812 92.019531 202.042969 81.914062 208.332031 75.816406 C 214.617188 69.699219 224.71875 69.859375 230.8125 76.148438 C 233.988281 79.421875 235.597656 83.910156 235.265625 88.457031 C 235.230469 88.875 234.882812 89.175781 234.464844 89.144531 C 234.050781 89.113281 233.75 88.746094 233.78125 88.347656 C 234.097656 84.226562 232.632812 80.171875 229.757812 77.203125 C 224.222656 71.503906 215.09375 71.359375 209.382812 76.898438 C 203.6875 82.441406 203.542969 91.570312 209.082031 97.285156 C 212.175781 100.480469 216.484375 102.042969 220.917969 101.582031 C 221.335938 101.53125 221.703125 101.835938 221.75 102.25 C 221.796875 102.667969 221.492188 103.035156 221.078125 103.082031 C 220.503906 103.113281 219.945312 103.144531 219.386719 103.144531 Z M 219.386719 103.144531 " fill-opacity="1" fill-rule="nonzero"/><path fill="#000000" d="M 200.765625 88.121094 C 197.320312 88.121094 193.9375 87.003906 191.128906 84.867188 C 184.15625 79.550781 182.800781 69.539062 188.128906 62.5625 C 190.699219 59.179688 194.449219 57.007812 198.644531 56.433594 C 202.859375 55.859375 207.039062 56.976562 210.421875 59.546875 C 214.425781 62.597656 216.769531 67.449219 216.675781 72.492188 C 216.675781 72.910156 216.339844 73.226562 215.910156 73.226562 C 215.496094 73.226562 215.160156 72.878906 215.175781 72.460938 C 215.253906 67.894531 213.132812 63.507812 209.511719 60.742188 C 206.449219 58.414062 202.667969 57.40625 198.851562 57.917969 C 195.039062 58.429688 191.65625 60.410156 189.328125 63.457031 C 184.507812 69.78125 185.738281 78.832031 192.054688 83.652344 C 195.453125 86.238281 199.792969 87.195312 203.957031 86.253906 C 204.355469 86.160156 204.757812 86.414062 204.851562 86.828125 C 204.949219 87.230469 204.691406 87.628906 204.277344 87.722656 C 203.128906 87.996094 201.949219 88.121094 200.765625 88.121094 Z M 200.765625 88.121094 " fill-opacity="1" fill-rule="nonzero"/><path fill="#000000" d="M 178.253906 77.539062 C 175.300781 77.539062 172.351562 76.722656 169.765625 75.097656 C 166.175781 72.828125 163.667969 69.300781 162.726562 65.148438 C 161.785156 61 162.519531 56.738281 164.785156 53.144531 C 169.460938 45.722656 179.308594 43.488281 186.726562 48.164062 C 190.445312 50.511719 192.964844 54.167969 193.84375 58.476562 C 193.921875 58.875 193.667969 59.277344 193.253906 59.355469 C 192.851562 59.433594 192.453125 59.179688 192.375 58.765625 C 191.59375 54.871094 189.296875 51.546875 185.929688 49.425781 C 179.210938 45.195312 170.292969 47.207031 166.0625 53.925781 C 164.003906 57.183594 163.351562 61.046875 164.195312 64.800781 C 165.042969 68.550781 167.308594 71.742188 170.5625 73.804688 C 174.964844 76.582031 180.550781 76.757812 185.128906 74.265625 C 185.496094 74.074219 185.945312 74.203125 186.152344 74.570312 C 186.359375 74.9375 186.214844 75.382812 185.847656 75.589844 C 183.472656 76.898438 180.855469 77.539062 178.253906 77.539062 Z M 178.253906 77.539062 " fill-opacity="1" fill-rule="nonzero"/><path fill="#000000" d="M 293.121094 194.734375 C 293.054688 194.734375 292.992188 194.71875 292.929688 194.703125 C 287.359375 193.234375 283.019531 188.859375 281.582031 183.285156 C 279.382812 174.792969 284.503906 166.09375 293.007812 163.890625 C 297.125 162.820312 301.402344 163.425781 305.054688 165.582031 C 308.707031 167.738281 311.308594 171.203125 312.378906 175.304688 C 313.480469 179.566406 312.808594 183.957031 310.480469 187.691406 C 310.257812 188.042969 309.792969 188.15625 309.441406 187.933594 C 309.09375 187.707031 308.980469 187.246094 309.203125 186.894531 C 311.308594 183.511719 311.917969 179.535156 310.910156 175.671875 C 308.917969 167.976562 301.050781 163.332031 293.359375 165.328125 C 285.667969 167.324219 281.027344 175.191406 283.019531 182.886719 C 284.328125 187.933594 288.269531 191.890625 293.296875 193.214844 C 293.695312 193.328125 293.933594 193.726562 293.820312 194.125 C 293.757812 194.527344 293.457031 194.734375 293.121094 194.734375 Z M 293.121094 194.734375 " fill-opacity="1" fill-rule="nonzero"/><path fill="#000000" d="M 282.78125 174.523438 C 282.75 174.523438 282.699219 174.523438 282.652344 174.507812 C 277.800781 173.722656 273.652344 170.820312 271.277344 166.523438 C 269.21875 162.804688 268.722656 158.511719 269.886719 154.421875 C 271.054688 150.335938 273.75 146.953125 277.453125 144.890625 C 281.167969 142.832031 285.460938 142.339844 289.546875 143.503906 C 293.628906 144.667969 297.011719 147.367188 299.070312 151.070312 C 301.289062 155.0625 301.6875 159.804688 300.15625 164.113281 C 300.011719 164.496094 299.582031 164.703125 299.199219 164.578125 C 298.816406 164.433594 298.609375 164 298.738281 163.617188 C 300.109375 159.722656 299.757812 155.414062 297.746094 151.804688 C 295.878906 148.4375 292.816406 146.011719 289.113281 144.941406 C 285.414062 143.871094 281.519531 144.332031 278.167969 146.203125 C 274.800781 148.070312 272.378906 151.132812 271.308594 154.839844 C 270.253906 158.542969 270.703125 162.4375 272.570312 165.789062 C 274.722656 169.667969 278.488281 172.320312 282.875 173.023438 C 283.292969 173.085938 283.5625 173.46875 283.5 173.882812 C 283.464844 174.265625 283.148438 174.523438 282.78125 174.523438 Z M 282.78125 174.523438 " fill-opacity="1" fill-rule="nonzero"/><path fill="#000000" d="M 269.632812 153.992188 C 265.132812 153.992188 259.644531 151.292969 256.949219 147.574219 C 254.457031 144.125 253.453125 139.925781 254.125 135.730469 C 254.792969 131.53125 257.058594 127.84375 260.492188 125.351562 C 263.9375 122.863281 268.132812 121.855469 272.328125 122.527344 C 276.527344 123.195312 280.210938 125.464844 282.699219 128.894531 C 286.019531 133.476562 286.785156 138.953125 284.792969 143.917969 C 284.632812 144.300781 284.199219 144.492188 283.816406 144.332031 C 283.433594 144.175781 283.242188 143.742188 283.402344 143.359375 C 285.191406 138.890625 284.503906 133.941406 281.488281 129.773438 C 279.238281 126.660156 275.886719 124.601562 272.089844 123.996094 C 268.292969 123.386719 264.480469 124.296875 261.367188 126.550781 C 258.257812 128.800781 256.199219 132.152344 255.589844 135.953125 C 254.984375 139.75 255.894531 143.566406 258.144531 146.679688 C 260.839844 150.398438 266.839844 153.066406 271.003906 152.378906 C 271.421875 152.316406 271.804688 152.585938 271.867188 153.003906 C 271.929688 153.417969 271.660156 153.800781 271.246094 153.863281 C 270.734375 153.945312 270.191406 153.992188 269.632812 153.992188 Z M 269.632812 153.992188 " fill-opacity="1" fill-rule="nonzero"/><path fill="#000000" d="M 307.800781 259.371094 C 307.609375 259.371094 307.417969 259.292969 307.273438 259.148438 C 303.234375 255.046875 301.71875 249.074219 303.316406 243.550781 C 305.757812 235.121094 314.582031 230.253906 323.003906 232.679688 C 327.089844 233.863281 330.457031 236.558594 332.515625 240.28125 C 334.574219 244 335.050781 248.292969 333.871094 252.378906 C 333.21875 254.648438 332.355469 256.308594 331 257.921875 C 330.726562 258.238281 330.265625 258.269531 329.945312 258.015625 C 329.628906 257.746094 329.59375 257.28125 329.851562 256.960938 C 331.0625 255.507812 331.84375 254.023438 332.433594 251.964844 C 333.503906 248.261719 333.074219 244.382812 331.207031 240.996094 C 329.355469 237.628906 326.292969 235.1875 322.589844 234.117188 C 314.964844 231.914062 306.953125 236.320312 304.75 243.953125 C 303.300781 248.949219 304.671875 254.375 308.34375 258.078125 C 308.628906 258.367188 308.628906 258.847656 308.34375 259.132812 C 308.183594 259.308594 307.992188 259.371094 307.800781 259.371094 Z M 307.800781 259.371094 " fill-opacity="1" fill-rule="nonzero"/><path fill="#000000" d="M 319.765625 284.164062 C 319.082031 284.164062 318.394531 284.117188 317.707031 284.039062 C 317.292969 283.988281 317.007812 283.605469 317.054688 283.191406 C 317.101562 282.777344 317.484375 282.488281 317.898438 282.539062 C 321.839844 283.046875 325.71875 281.929688 328.8125 279.425781 C 334.972656 274.410156 335.914062 265.3125 330.902344 259.148438 C 325.894531 252.988281 316.796875 252.046875 310.640625 257.058594 C 308.199219 259.054688 306.492188 261.71875 305.742188 264.769531 C 305.644531 265.167969 305.230469 265.421875 304.832031 265.3125 C 304.433594 265.214844 304.175781 264.800781 304.289062 264.402344 C 305.117188 261.035156 306.984375 258.078125 309.699219 255.875 C 316.511719 250.351562 326.546875 251.390625 332.070312 258.191406 C 334.75 261.496094 335.976562 265.632812 335.546875 269.863281 C 335.117188 274.09375 333.058594 277.890625 329.753906 280.574219 C 326.882812 282.9375 323.386719 284.164062 319.765625 284.164062 Z M 319.765625 284.164062 " fill-opacity="1" fill-rule="nonzero"/><path fill="#000000" d="M 306.777344 239.210938 C 306.667969 239.210938 306.554688 239.179688 306.441406 239.128906 C 302.121094 237.007812 299.054688 233.015625 298.035156 228.226562 C 297.15625 224.074219 297.9375 219.8125 300.253906 216.253906 C 302.566406 212.691406 306.125 210.234375 310.289062 209.355469 C 314.4375 208.476562 318.699219 209.261719 322.253906 211.574219 C 325.8125 213.890625 328.269531 217.449219 329.148438 221.617188 C 330.089844 226.070312 329.085938 230.734375 326.371094 234.40625 C 326.132812 234.738281 325.652344 234.804688 325.320312 234.5625 C 324.984375 234.324219 324.921875 233.847656 325.160156 233.511719 C 327.617188 230.191406 328.542969 225.976562 327.679688 221.9375 C 326.882812 218.167969 324.664062 214.945312 321.441406 212.835938 C 318.21875 210.746094 314.375 210.027344 310.609375 210.824219 C 306.84375 211.625 303.617188 213.84375 301.511719 217.066406 C 299.421875 220.292969 298.703125 224.140625 299.503906 227.90625 C 300.429688 232.25 303.1875 235.855469 307.097656 237.773438 C 307.464844 237.949219 307.625 238.410156 307.433594 238.777344 C 307.320312 239.050781 307.066406 239.210938 306.777344 239.210938 Z M 306.777344 239.210938 " fill-opacity="1" fill-rule="nonzero"/><path fill="#000000" d="M 300.777344 217.339844 C 300.699219 217.339844 300.621094 217.324219 300.523438 217.289062 C 296.070312 215.710938 292.578125 212.277344 290.917969 207.855469 C 289.433594 203.878906 289.578125 199.554688 291.332031 195.691406 C 293.089844 191.828125 296.246094 188.875 300.238281 187.390625 C 308.453125 184.308594 317.628906 188.507812 320.707031 196.710938 C 322.480469 201.4375 321.871094 206.785156 319.113281 211 C 318.890625 211.351562 318.425781 211.449219 318.074219 211.222656 C 317.722656 211 317.628906 210.539062 317.851562 210.1875 C 320.355469 206.355469 320.882812 201.519531 319.289062 197.238281 C 316.511719 189.800781 308.183594 186 300.746094 188.792969 C 293.3125 191.570312 289.515625 199.90625 292.304688 207.34375 C 293.804688 211.351562 296.980469 214.464844 301.003906 215.886719 C 301.386719 216.03125 301.59375 216.460938 301.464844 216.84375 C 301.386719 217.148438 301.097656 217.339844 300.777344 217.339844 Z M 300.777344 217.339844 " fill-opacity="1" fill-rule="nonzero"/><path fill="#000000" d="M 251.316406 137.5 C 246.769531 137.5 242.347656 135.539062 239.300781 132.023438 C 233.539062 125.398438 234.242188 115.328125 240.863281 109.578125 C 244.070312 106.785156 248.171875 105.414062 252.402344 105.714844 C 256.644531 106.019531 260.507812 107.933594 263.296875 111.144531 C 266.1875 114.464844 267.542969 118.695312 267.128906 123.070312 C 267.097656 123.484375 266.730469 123.789062 266.3125 123.738281 C 265.898438 123.707031 265.597656 123.339844 265.644531 122.925781 C 266.011719 118.964844 264.78125 115.117188 262.164062 112.117188 C 259.644531 109.210938 256.132812 107.472656 252.304688 107.199219 C 248.460938 106.929688 244.757812 108.175781 241.855469 110.695312 C 235.855469 115.917969 235.230469 125.03125 240.433594 131.035156 C 243.847656 134.960938 249.144531 136.75 254.25 135.679688 C 254.648438 135.601562 255.050781 135.855469 255.144531 136.253906 C 255.226562 136.65625 254.96875 137.054688 254.570312 137.148438 C 253.46875 137.390625 252.382812 137.5 251.316406 137.5 Z M 251.316406 137.5 " fill-opacity="1" fill-rule="nonzero"/><path fill="#000000" d="M 234.464844 358.144531 C 230.875 358.144531 227.589844 357.332031 224.828125 355.765625 C 220.695312 353.417969 218.335938 349.570312 218.511719 345.484375 C 218.636719 342.386719 220.378906 336.511719 230.539062 331.835938 C 250.214844 322.765625 264.429688 310.441406 272.886719 301.695312 C 282.207031 292.066406 286.929688 284.40625 287.296875 283.605469 C 287.359375 283.367188 287.550781 283.160156 287.824219 283.078125 C 288.222656 282.96875 288.636719 283.191406 288.75 283.589844 C 288.8125 283.8125 288.957031 284.339844 285.207031 289.496094 C 283.117188 292.371094 279.574219 296.890625 274.578125 302.109375 C 265.945312 311.144531 251.410156 323.867188 231.195312 333.191406 C 221.765625 337.535156 220.152344 342.800781 220.042969 345.546875 C 219.898438 349.0625 221.972656 352.382812 225.609375 354.457031 C 233.621094 359.023438 243.945312 355.765625 250.917969 351.199219 C 279.300781 332.648438 299.214844 294.957031 299.421875 294.574219 C 299.613281 294.207031 300.0625 294.0625 300.429688 294.253906 C 300.792969 294.445312 300.9375 294.894531 300.746094 295.261719 C 300.539062 295.644531 280.449219 333.671875 251.730469 352.445312 C 246.71875 355.71875 241.644531 357.601562 236.636719 358.03125 C 235.886719 358.113281 235.167969 358.144531 234.464844 358.144531 Z M 287.28125 284.007812 Z M 287.28125 284.007812 Z M 287.28125 284.007812 Z M 287.28125 284.007812 Z M 287.28125 284.007812 Z M 287.28125 284.007812 " fill-opacity="1" fill-rule="nonzero"/><path fill="#000000" d="M 220.953125 352.046875 C 220.664062 352.046875 220.378906 351.871094 220.265625 351.582031 C 220.105469 351.199219 220.28125 350.769531 220.664062 350.609375 C 220.792969 350.5625 233.03125 345.421875 247.886719 335.523438 C 261.574219 326.40625 280.371094 311.257812 292.097656 290.902344 C 292.304688 290.550781 292.769531 290.421875 293.121094 290.632812 C 293.472656 290.839844 293.597656 291.300781 293.390625 291.652344 C 281.503906 312.277344 262.515625 327.574219 248.683594 336.785156 C 233.699219 346.761719 221.351562 351.933594 221.238281 351.980469 C 221.144531 352.03125 221.046875 352.046875 220.953125 352.046875 Z M 220.953125 352.046875 " fill-opacity="1" fill-rule="nonzero"/><path fill="#000000" d="M 270.8125 312.007812 C 270.605469 312.007812 270.398438 311.910156 270.238281 311.753906 C 269.96875 311.433594 270 310.96875 270.320312 310.699219 C 280.433594 301.980469 289.339844 288.027344 289.417969 287.886719 C 289.640625 287.535156 290.105469 287.4375 290.457031 287.644531 C 290.804688 287.871094 290.902344 288.332031 290.695312 288.683594 C 290.597656 288.828125 281.582031 302.972656 271.308594 311.832031 C 271.164062 311.945312 270.988281 312.007812 270.8125 312.007812 Z M 270.8125 312.007812 " fill-opacity="1" fill-rule="nonzero"/><path fill="#000000" d="M 282.125 315.3125 C 281.949219 315.3125 281.773438 315.25 281.632812 315.121094 C 281.3125 314.847656 281.28125 314.371094 281.550781 314.066406 C 287.980469 306.691406 295.449219 293.265625 295.511719 293.136719 C 295.722656 292.769531 296.167969 292.644531 296.535156 292.851562 C 296.902344 293.058594 297.027344 293.503906 296.820312 293.871094 C 296.742188 294.015625 289.195312 307.570312 282.667969 315.058594 C 282.542969 315.214844 282.332031 315.3125 282.125 315.3125 Z M 282.125 315.3125 " fill-opacity="1" fill-rule="nonzero"/></svg>