<svg xmlns="http://www.w3.org/2000/svg" xmlns:xlink="http://www.w3.org/1999/xlink" width="500" zoomAndPan="magnify" viewBox="0 0 375 374.999991" height="500" preserveAspectRatio="xMidYMid meet" version="1.0"><defs><g/><clipPath id="3048d7f682"><path d="M 112.5 100.527344 L 262.5 100.527344 L 262.5 209.277344 L 112.5 209.277344 Z M 112.5 100.527344 " clip-rule="nonzero"/></clipPath><clipPath id="f04b11989d"><path d="M 188 198.234375 L 235 198.234375 L 235 215 L 188 215 Z M 188 198.234375 " clip-rule="nonzero"/></clipPath><clipPath id="6d6a99d260"><path d="M 142 198.234375 L 189 198.234375 L 189 215 L 142 215 Z M 142 198.234375 " clip-rule="nonzero"/></clipPath><clipPath id="27a16f7ec0"><path d="M 137 214 L 238.246094 214 L 238.246094 219 L 137 219 Z M 137 214 " clip-rule="nonzero"/></clipPath><clipPath id="b823e6854f"><path d="M 177 216 L 200 216 L 200 220.734375 L 177 220.734375 Z M 177 216 " clip-rule="nonzero"/></clipPath></defs><rect x="-37.5" width="450" fill="#ffffff" y="-37.499999" height="449.999989" fill-opacity="1"/><rect x="-37.5" width="450" fill="#fff0cb" y="-37.499999" height="449.999989" fill-opacity="1"/><g clip-path="url(#3048d7f682)"><path fill="#f5ac1c" d="M 214.714844 146.667969 L 214.953125 140.507812 L 212.792969 139.066406 L 212.554688 133.0625 L 214.792969 132.980469 L 222.398438 132.980469 L 224.640625 133.0625 L 224.398438 139.066406 L 222.238281 140.507812 L 222.480469 146.667969 Z M 160.046875 131.0625 L 152.921875 131.0625 L 153.882812 123.457031 L 155.402344 122.257812 L 156.363281 114.730469 L 157.402344 122.257812 L 158.925781 123.457031 Z M 162.527344 132.980469 L 162.285156 139.066406 L 160.125 140.507812 L 160.367188 146.667969 L 152.679688 146.667969 L 152.921875 140.507812 L 150.679688 139.066406 L 150.441406 133.0625 L 152.679688 132.980469 Z M 222.078125 131.0625 L 214.953125 131.0625 L 215.914062 123.457031 L 217.515625 122.257812 L 218.476562 114.730469 L 219.4375 122.257812 L 220.957031 123.457031 Z M 213.355469 175.003906 L 213.273438 159.316406 L 211.113281 157.394531 L 211.113281 148.671875 L 214.714844 148.511719 L 222.480469 148.511719 L 226.082031 148.671875 L 226.082031 157.476562 L 223.917969 159.394531 L 223.757812 175.003906 Z M 179.734375 150.910156 C 179.734375 146.589844 183.257812 143.148438 187.5 143.148438 C 190.382812 143.148438 192.863281 144.667969 194.222656 146.910156 C 193.101562 145.628906 191.503906 144.828125 189.660156 144.828125 C 186.300781 144.828125 183.578125 147.550781 183.578125 150.910156 C 183.578125 154.273438 186.300781 156.996094 189.660156 156.996094 C 191.503906 156.996094 193.101562 156.195312 194.222656 154.914062 C 192.863281 157.15625 190.382812 158.675781 187.5 158.675781 C 183.175781 158.675781 179.734375 155.234375 179.734375 150.910156 Z M 262.5 209.503906 C 253.054688 206.621094 243.609375 203.738281 234.164062 200.859375 C 243.050781 190.210938 248.414062 176.523438 248.414062 161.636719 C 248.492188 127.9375 221.199219 100.644531 187.5 100.644531 C 153.800781 100.644531 126.507812 127.9375 126.507812 161.636719 C 126.507812 176.605469 131.871094 190.292969 140.753906 200.859375 C 131.390625 203.738281 121.945312 206.621094 112.5 209.503906 C 125.386719 207.902344 138.273438 206.300781 151.160156 204.699219 L 151.160156 189.652344 L 148.277344 187.410156 L 148.039062 176.84375 L 164.847656 176.84375 L 164.609375 187.410156 L 161.726562 189.652344 L 161.726562 203.339844 L 168.929688 202.460938 C 169.332031 201.578125 169.492188 200.617188 169.410156 199.65625 C 169.171875 198.136719 168.289062 196.777344 166.929688 196.054688 L 170.929688 196.054688 C 167.25 192.535156 165.726562 187.332031 166.929688 182.367188 C 169.410156 172.761719 180.375 172.84375 187.5 161.078125 C 194.625 172.84375 205.667969 172.761719 208.070312 182.367188 C 209.351562 187.332031 207.832031 192.535156 204.070312 196.054688 L 208.070312 196.054688 C 206.710938 196.777344 205.828125 198.136719 205.589844 199.65625 C 205.429688 200.617188 205.589844 201.660156 206.070312 202.460938 L 213.273438 203.339844 L 213.273438 189.652344 L 210.390625 187.410156 L 210.152344 176.84375 L 226.960938 176.84375 L 226.722656 187.410156 L 223.839844 189.652344 L 223.839844 204.699219 C 236.484375 205.660156 249.851562 207.902344 262.5 209.503906 Z M 163.96875 148.671875 L 163.96875 157.476562 L 161.804688 159.394531 L 161.726562 175.085938 L 151.320312 175.085938 L 151.242188 159.394531 L 149 157.476562 L 149 148.671875 L 152.601562 148.511719 L 160.367188 148.511719 Z M 163.96875 148.671875 " fill-opacity="1" fill-rule="evenodd"/></g><g clip-path="url(#f04b11989d)"><path fill="#f49619" d="M 188.460938 209.46875 C 188.460938 209.46875 194.578125 198.667969 229.523438 198.257812 L 234.820312 210.535156 C 234.820312 210.535156 202.261719 213.265625 188.460938 214.660156 L 188.460938 209.46875 " fill-opacity="1" fill-rule="nonzero"/></g><g clip-path="url(#6d6a99d260)"><path fill="#f49619" d="M 188.882812 209.46875 C 188.882812 209.46875 182.757812 198.667969 147.816406 198.257812 L 142.523438 210.535156 C 142.523438 210.535156 175.085938 213.265625 188.882812 214.660156 L 188.882812 209.46875 " fill-opacity="1" fill-rule="nonzero"/></g><g clip-path="url(#27a16f7ec0)"><path fill="#f49619" d="M 238.023438 218.605469 L 137.011719 218.605469 L 137.011719 214.660156 L 238.023438 214.660156 L 238.023438 218.605469 " fill-opacity="1" fill-rule="nonzero"/></g><g clip-path="url(#b823e6854f)"><path fill="#f49619" d="M 199.179688 220.980469 L 177.75 220.980469 L 177.75 216.632812 L 199.179688 216.632812 L 199.179688 220.980469 " fill-opacity="1" fill-rule="nonzero"/></g><path fill="#fff0cb" d="M 236.171875 214.660156 L 233.136719 205.378906 C 233.136719 205.378906 223.265625 201.078125 204.742188 205.890625 C 196.132812 208.125 188.460938 212.285156 188.460938 212.285156 C 188.460938 212.285156 180.652344 207.128906 171.03125 206.074219 C 157.121094 204.554688 144.40625 205.378906 144.40625 205.378906 L 140.023438 214.660156 L 180.65625 214.660156 L 180.65625 216.632812 L 195.535156 216.632812 L 195.535156 214.660156 L 236.171875 214.660156 " fill-opacity="1" fill-rule="nonzero"/><g fill="#4c7031" fill-opacity="1"><g transform="translate(97.979537, 246.411284)"><g><path d="M 6.324219 0 C 5.863281 -0.402344 5.621094 -1.503906 5.621094 -2.507812 L 5.621094 -11.242188 L 10.078125 -0.5625 L 14.515625 -11.183594 L 14.515625 -2.507812 C 14.515625 -1.503906 14.273438 -0.402344 13.8125 0 L 19.734375 0 C 19.273438 -0.402344 19.035156 -1.484375 19.035156 -2.488281 L 19.035156 -16.886719 C 19.035156 -17.890625 19.273438 -18.972656 19.734375 -19.375 L 14.515625 -19.375 L 10.078125 -9.15625 L 5.621094 -19.375 L 0.402344 -19.375 C 0.863281 -18.972656 1.105469 -17.890625 1.105469 -16.886719 L 1.105469 -2.488281 C 1.105469 -1.484375 0.863281 -0.402344 0.402344 0 Z M 6.324219 0 "/></g></g></g><g fill="#4c7031" fill-opacity="1"><g transform="translate(119.720678, 246.411284)"><g><path d="M 2.109375 0 L 7.667969 0 C 6.40625 -1.667969 5.640625 -3.492188 5.339844 -5.78125 L 10.722656 -5.78125 L 10.722656 -2.488281 C 10.722656 -1.484375 10.480469 -0.402344 10.019531 0 L 15.941406 0 C 15.480469 -0.402344 15.238281 -1.503906 15.238281 -2.507812 L 15.238281 -17.910156 C 14.65625 -18.992188 12.667969 -19.675781 10.800781 -19.675781 C 4.277344 -19.675781 0.703125 -13.734375 0.703125 -8.210938 C 0.703125 -4.9375 1.144531 -2.851562 2.109375 0 Z M 5.359375 -9.597656 C 5.761719 -12.246094 7.226562 -15.539062 10.742188 -15.539062 L 10.722656 -9.597656 Z M 5.359375 -9.597656 "/></g></g></g><g fill="#4c7031" fill-opacity="1"><g transform="translate(137.467053, 246.411284)"><g><path d="M 0.402344 -3.292969 C 0.921875 -1.566406 4.15625 0.300781 7.527344 0.300781 C 12.027344 0.300781 15.460938 -1.988281 15.460938 -5.921875 C 15.460938 -12.730469 5.921875 -10.582031 5.921875 -13.773438 C 5.921875 -15.078125 7.507812 -15.601562 8.792969 -15.601562 C 10.601562 -15.601562 12.207031 -14.675781 13.351562 -13.632812 C 14.035156 -14.976562 14.917969 -16.121094 15.601562 -17.167969 C 14.394531 -18.191406 12.527344 -19.675781 8.695312 -19.675781 C 4.738281 -19.675781 0.78125 -17.449219 0.78125 -13.652344 C 0.78125 -6.765625 10.519531 -8.492188 10.519531 -5.542969 C 10.519531 -4.175781 9.136719 -3.632812 7.648438 -3.632812 C 5.601562 -3.632812 3.734375 -5.019531 2.691406 -6.6875 C 2.109375 -5.5 1.265625 -4.335938 0.402344 -3.292969 Z M 0.402344 -3.292969 "/></g></g></g><g fill="#4c7031" fill-opacity="1"><g transform="translate(155.072906, 246.411284)"><g><path d="M 0.199219 -1.464844 C 0.199219 -0.160156 1.746094 0.300781 2.730469 0.300781 C 5.519531 0.300781 7.148438 -1.40625 7.148438 -5.078125 L 7.148438 -16.886719 C 7.148438 -17.890625 7.386719 -18.972656 7.851562 -19.375 L 1.925781 -19.375 C 2.390625 -18.972656 2.628906 -17.867188 2.628906 -16.863281 L 2.628906 -4.578125 C 2.628906 -2.648438 1.644531 -1.367188 0.199219 -1.464844 Z M 0.199219 -1.464844 "/></g></g></g><g fill="#4c7031" fill-opacity="1"><g transform="translate(164.829749, 246.411284)"><g><path d="M 0.402344 0 L 6.324219 0 C 5.863281 -0.402344 5.621094 -1.484375 5.621094 -2.488281 L 5.621094 -16.886719 C 5.621094 -17.890625 5.863281 -18.972656 6.324219 -19.375 L 0.402344 -19.375 C 0.863281 -18.972656 1.105469 -17.867188 1.105469 -16.863281 L 1.105469 -2.507812 C 1.105469 -1.503906 0.863281 -0.402344 0.402344 0 Z M 0.402344 0 "/></g></g></g><g fill="#4c7031" fill-opacity="1"><g transform="translate(173.161333, 246.411284)"><g><path d="M 0.402344 0 L 7.007812 0 C 12.507812 0 15.742188 -4.195312 15.742188 -9.675781 C 15.742188 -15.179688 12.507812 -19.375 7.007812 -19.375 L 0.402344 -19.375 C 0.863281 -18.972656 1.105469 -17.867188 1.105469 -16.863281 L 1.105469 -2.507812 C 1.105469 -1.503906 0.863281 -0.402344 0.402344 0 Z M 5.621094 -3.816406 L 5.621094 -15.558594 L 7.429688 -15.558594 C 9.476562 -15.558594 11.222656 -13.332031 11.222656 -9.675781 C 11.222656 -6.042969 9.476562 -3.816406 7.429688 -3.816406 Z M 5.621094 -3.816406 "/></g></g></g><g fill="#4c7031" fill-opacity="1"><g transform="translate(191.208825, 246.411284)"><g/></g></g><g fill="#4c7031" fill-opacity="1"><g transform="translate(198.837811, 246.411284)"><g><path d="M 6.324219 0 C 5.863281 -0.402344 5.621094 -1.503906 5.621094 -2.507812 L 5.621094 -11.242188 L 10.078125 -0.5625 L 14.515625 -11.183594 L 14.515625 -2.507812 C 14.515625 -1.503906 14.273438 -0.402344 13.8125 0 L 19.734375 0 C 19.273438 -0.402344 19.035156 -1.484375 19.035156 -2.488281 L 19.035156 -16.886719 C 19.035156 -17.890625 19.273438 -18.972656 19.734375 -19.375 L 14.515625 -19.375 L 10.078125 -9.15625 L 5.621094 -19.375 L 0.402344 -19.375 C 0.863281 -18.972656 1.105469 -17.890625 1.105469 -16.886719 L 1.105469 -2.488281 C 1.105469 -1.484375 0.863281 -0.402344 0.402344 0 Z M 6.324219 0 "/></g></g></g><g fill="#4c7031" fill-opacity="1"><g transform="translate(220.578952, 246.411284)"><g><path d="M 0.703125 -9.675781 C 0.703125 -4.175781 3.433594 0.300781 9.777344 0.300781 C 16.121094 0.300781 18.851562 -4.175781 18.851562 -9.675781 C 18.851562 -15.199219 16.121094 -19.675781 9.777344 -19.675781 C 3.433594 -19.675781 0.703125 -15.199219 0.703125 -9.675781 Z M 5.21875 -9.699219 C 5.21875 -13.070312 6.585938 -15.800781 9.757812 -15.800781 C 12.96875 -15.800781 14.335938 -13.070312 14.335938 -9.699219 C 14.335938 -6.34375 12.96875 -3.59375 9.757812 -3.59375 C 6.585938 -3.59375 5.21875 -6.34375 5.21875 -9.699219 Z M 5.21875 -9.699219 "/></g></g></g><g fill="#4c7031" fill-opacity="1"><g transform="translate(241.737943, 246.411284)"><g><path d="M 0.402344 0 L 7.007812 0 C 12.507812 0 15.742188 -4.195312 15.742188 -9.675781 C 15.742188 -15.179688 12.507812 -19.375 7.007812 -19.375 L 0.402344 -19.375 C 0.863281 -18.972656 1.105469 -17.867188 1.105469 -16.863281 L 1.105469 -2.507812 C 1.105469 -1.503906 0.863281 -0.402344 0.402344 0 Z M 5.621094 -3.816406 L 5.621094 -15.558594 L 7.429688 -15.558594 C 9.476562 -15.558594 11.222656 -13.332031 11.222656 -9.675781 C 11.222656 -6.042969 9.476562 -3.816406 7.429688 -3.816406 Z M 5.621094 -3.816406 "/></g></g></g><g fill="#4c7031" fill-opacity="1"><g transform="translate(259.785435, 246.411284)"><g><path d="M 10.300781 0.300781 C 13.152344 0.300781 15.679688 -0.5 17.226562 -2.207031 C 16.542969 -3.855469 15.921875 -5.984375 15.921875 -5.984375 C 15.921875 -5.984375 14.515625 -3.554688 11.042969 -3.554688 C 9.253906 -3.554688 7.589844 -4.238281 6.503906 -5.601562 C 5.660156 -7.570312 7.609375 -8.472656 10.039062 -8.472656 C 11.605469 -8.472656 13.191406 -7.789062 13.992188 -7.109375 L 13.992188 -11.542969 C 13.671875 -12.148438 12.265625 -12.667969 11.042969 -12.667969 C 7.851562 -12.667969 5.621094 -10.039062 5.84375 -6.664062 C 5.441406 -7.488281 5.21875 -8.492188 5.21875 -9.675781 C 5.21875 -13.8125 7.949219 -15.839844 11.042969 -15.839844 C 14.515625 -15.839844 15.921875 -13.410156 15.921875 -13.410156 C 15.921875 -13.410156 16.542969 -15.539062 17.226562 -17.1875 C 15.679688 -18.894531 13.152344 -19.675781 10.300781 -19.675781 C 4.457031 -19.675781 0.703125 -15.199219 0.703125 -9.699219 C 0.703125 -4.195312 4.457031 0.300781 10.300781 0.300781 Z M 10.300781 0.300781 "/></g></g></g><g fill="#4c7031" fill-opacity="1"><g transform="translate(95.636028, 268.631555)"><g><path d="M 1.796875 0 L 7.234375 0 C 9.601562 0 11.785156 -1.449219 11.785156 -4.046875 C 11.785156 -5.4375 10.816406 -6.957031 9.542969 -7.460938 C 10.332031 -7.886719 11.09375 -8.910156 11.09375 -10.183594 C 11.09375 -12.976562 8.753906 -13.945312 6.632812 -13.945312 L 1.796875 -13.945312 Z M 4.304688 -8.328125 L 4.304688 -11.683594 L 6.671875 -11.683594 C 7.867188 -11.683594 8.792969 -11.132812 8.792969 -10.046875 C 8.792969 -8.675781 7.847656 -8.328125 6.867188 -8.328125 Z M 4.304688 -2.386719 L 4.304688 -6.167969 L 7.175781 -6.167969 C 8.488281 -6.167969 9.316406 -5.320312 9.316406 -4.324219 C 9.316406 -3.011719 8.566406 -2.386719 7.273438 -2.386719 Z M 4.304688 -2.386719 "/></g></g></g><g fill="#4c7031" fill-opacity="1"><g transform="translate(108.203791, 268.631555)"><g><path d="M 5.535156 0.199219 C 7.195312 0.199219 8.507812 -0.386719 9.582031 -1.578125 L 7.925781 -3.03125 C 7.234375 -2.261719 6.445312 -1.984375 5.554688 -1.984375 C 4.007812 -1.984375 3.296875 -2.851562 3.089844 -4.144531 L 9.859375 -4.144531 C 9.910156 -4.285156 9.949219 -4.6875 9.949219 -5.09375 C 9.949219 -7.292969 8.832031 -10.066406 5.378906 -10.066406 C 2.042969 -10.066406 0.542969 -7.460938 0.542969 -4.894531 C 0.542969 -2.242188 2.140625 0.199219 5.535156 0.199219 Z M 3.089844 -5.882812 C 3.316406 -7.117188 3.9375 -8.042969 5.359375 -8.042969 C 6.613281 -8.042969 7.421875 -7.292969 7.578125 -5.882812 Z M 3.089844 -5.882812 "/></g></g></g><g fill="#4c7031" fill-opacity="1"><g transform="translate(118.72954, 268.631555)"><g><path d="M 1.984375 4.242188 L 4.609375 4.242188 L 10.246094 -9.859375 L 7.597656 -9.859375 L 5.074219 -3.011719 L 2.585938 -9.859375 L -0.0585938 -9.859375 L 3.800781 -0.265625 Z M 1.984375 4.242188 "/></g></g></g><g fill="#4c7031" fill-opacity="1"><g transform="translate(128.91002, 268.631555)"><g><path d="M 5.554688 0.199219 C 8.605469 0.199219 10.609375 -2.160156 10.609375 -4.953125 C 10.609375 -7.738281 8.605469 -10.066406 5.554688 -10.066406 C 2.507812 -10.066406 0.503906 -7.738281 0.503906 -4.953125 C 0.503906 -2.160156 2.507812 0.199219 5.554688 0.199219 Z M 5.554688 -1.875 C 3.742188 -1.875 3.011719 -3.335938 3.011719 -4.953125 C 3.011719 -6.574219 3.742188 -7.984375 5.554688 -7.984375 C 7.382812 -7.984375 8.101562 -6.574219 8.101562 -4.953125 C 8.101562 -3.335938 7.382812 -1.875 5.554688 -1.875 Z M 5.554688 -1.875 "/></g></g></g><g fill="#4c7031" fill-opacity="1"><g transform="translate(140.037522, 268.631555)"><g><path d="M 1.429688 0 L 3.820312 0 L 3.820312 -5.398438 C 3.820312 -7.117188 4.6875 -7.847656 6.039062 -7.847656 C 7.273438 -7.847656 7.925781 -6.910156 7.925781 -5.617188 L 7.925781 0 L 10.304688 0 L 10.304688 -5.921875 C 10.304688 -7.984375 9.316406 -10.066406 6.730469 -10.066406 C 5.765625 -10.066406 4.609375 -9.683594 3.820312 -8.714844 L 3.820312 -9.859375 L 1.429688 -9.859375 Z M 1.429688 0 "/></g></g></g><g fill="#4c7031" fill-opacity="1"><g transform="translate(151.490562, 268.631555)"><g><path d="M 7.660156 -13.945312 L 7.660156 -8.871094 C 6.976562 -9.722656 5.882812 -10.066406 4.855469 -10.066406 C 2.121094 -10.066406 0.621094 -7.660156 0.621094 -4.933594 C 0.621094 -2.179688 2.121094 0.199219 4.894531 0.199219 C 5.992188 0.199219 7.078125 -0.175781 7.757812 -1.105469 L 7.867188 0 L 10.105469 0 L 10.105469 -13.945312 Z M 5.476562 -1.984375 C 3.820312 -1.984375 3.070312 -3.277344 3.070312 -4.933594 C 3.070312 -6.574219 3.820312 -7.886719 5.476562 -7.886719 C 7.136719 -7.886719 7.867188 -6.59375 7.867188 -4.933594 C 7.867188 -3.257812 7.136719 -1.984375 5.476562 -1.984375 Z M 5.476562 -1.984375 "/></g></g></g><g fill="#4c7031" fill-opacity="1"><g transform="translate(163.04225, 268.631555)"><g/></g></g><g fill="#4c7031" fill-opacity="1"><g transform="translate(167.895735, 268.631555)"><g><path d="M 4.933594 0.199219 C 5.617188 0.199219 6.347656 0.0390625 6.710938 -0.0976562 L 6.710938 -2.28125 C 6.386719 -2.121094 5.84375 -1.925781 5.339844 -1.925781 C 4.707031 -1.925781 4.222656 -2.199219 4.222656 -3.148438 L 4.222656 -7.847656 L 6.710938 -7.847656 L 6.710938 -9.859375 L 4.222656 -9.859375 L 4.222656 -14.023438 L 1.875 -12.308594 L 1.875 -9.859375 L 0.246094 -9.859375 L 0.246094 -7.847656 L 1.835938 -7.847656 L 1.835938 -2.722656 C 1.835938 -0.925781 2.992188 0.199219 4.933594 0.199219 Z M 4.933594 0.199219 "/></g></g></g><g fill="#4c7031" fill-opacity="1"><g transform="translate(175.333799, 268.631555)"><g><path d="M 1.449219 0 L 3.898438 0 L 3.898438 -4.992188 C 3.898438 -6.632812 4.628906 -7.886719 6.167969 -7.886719 C 7.621094 -7.886719 7.945312 -6.828125 7.945312 -5.617188 L 7.945312 0 L 10.390625 0 L 10.390625 -5.921875 C 10.390625 -7.984375 9.335938 -10.066406 6.75 -10.066406 C 5.785156 -10.066406 4.6875 -9.683594 3.898438 -8.714844 L 3.898438 -13.945312 L 1.449219 -13.945312 Z M 1.449219 0 "/></g></g></g><g fill="#4c7031" fill-opacity="1"><g transform="translate(186.865758, 268.631555)"><g><path d="M 5.535156 0.199219 C 7.195312 0.199219 8.507812 -0.386719 9.582031 -1.578125 L 7.925781 -3.03125 C 7.234375 -2.261719 6.445312 -1.984375 5.554688 -1.984375 C 4.007812 -1.984375 3.296875 -2.851562 3.089844 -4.144531 L 9.859375 -4.144531 C 9.910156 -4.285156 9.949219 -4.6875 9.949219 -5.09375 C 9.949219 -7.292969 8.832031 -10.066406 5.378906 -10.066406 C 2.042969 -10.066406 0.542969 -7.460938 0.542969 -4.894531 C 0.542969 -2.242188 2.140625 0.199219 5.535156 0.199219 Z M 3.089844 -5.882812 C 3.316406 -7.117188 3.9375 -8.042969 5.359375 -8.042969 C 6.613281 -8.042969 7.421875 -7.292969 7.578125 -5.882812 Z M 3.089844 -5.882812 "/></g></g></g><g fill="#4c7031" fill-opacity="1"><g transform="translate(197.391506, 268.631555)"><g/></g></g><g fill="#4c7031" fill-opacity="1"><g transform="translate(202.244991, 268.631555)"><g><path d="M 1.429688 0 L 3.859375 0 L 3.859375 -5.417969 C 3.859375 -6.730469 4.628906 -7.828125 5.941406 -7.828125 C 7.175781 -7.828125 7.5 -6.847656 7.5 -5.65625 L 7.5 0 L 9.949219 0 L 9.949219 -5.417969 C 9.949219 -6.730469 10.707031 -7.828125 12.011719 -7.828125 C 13.253906 -7.828125 13.601562 -6.828125 13.601562 -5.617188 L 13.601562 0 L 16.046875 0 L 16.046875 -5.921875 C 16.046875 -8.003906 14.933594 -10.066406 12.40625 -10.066406 C 11.132812 -10.066406 9.910156 -9.542969 9.140625 -8.328125 C 8.488281 -9.503906 7.558594 -10.066406 6.367188 -10.066406 C 5.4375 -10.066406 4.511719 -9.722656 3.859375 -8.832031 L 3.859375 -9.859375 L 1.429688 -9.859375 Z M 1.429688 0 "/></g></g></g><g fill="#4c7031" fill-opacity="1"><g transform="translate(219.439349, 268.631555)"><g><path d="M 5.554688 0.199219 C 8.605469 0.199219 10.609375 -2.160156 10.609375 -4.953125 C 10.609375 -7.738281 8.605469 -10.066406 5.554688 -10.066406 C 2.507812 -10.066406 0.503906 -7.738281 0.503906 -4.953125 C 0.503906 -2.160156 2.507812 0.199219 5.554688 0.199219 Z M 5.554688 -1.875 C 3.742188 -1.875 3.011719 -3.335938 3.011719 -4.953125 C 3.011719 -6.574219 3.742188 -7.984375 5.554688 -7.984375 C 7.382812 -7.984375 8.101562 -6.574219 8.101562 -4.953125 C 8.101562 -3.335938 7.382812 -1.875 5.554688 -1.875 Z M 5.554688 -1.875 "/></g></g></g><g fill="#4c7031" fill-opacity="1"><g transform="translate(230.566851, 268.631555)"><g><path d="M 4.402344 0.199219 C 6.265625 0.199219 8.25 -0.808594 8.25 -3.089844 C 8.25 -6.710938 3.238281 -5.824219 3.238281 -7.3125 C 3.238281 -7.777344 3.722656 -8.160156 4.511719 -8.160156 C 5.578125 -8.160156 6.128906 -7.519531 6.464844 -6.910156 L 8.328125 -7.925781 C 7.578125 -9.257812 6.285156 -10.066406 4.589844 -10.066406 C 2.683594 -10.066406 0.925781 -9.078125 0.925781 -6.996094 C 0.925781 -3.511719 5.882812 -4.628906 5.882812 -2.96875 C 5.882812 -2.449219 5.398438 -1.796875 4.285156 -1.796875 C 2.96875 -1.796875 2.449219 -2.703125 2.179688 -3.414062 L 0.265625 -2.566406 C 0.75 -1.046875 2.328125 0.199219 4.402344 0.199219 Z M 4.402344 0.199219 "/></g></g></g><g fill="#4c7031" fill-opacity="1"><g transform="translate(239.53396, 268.631555)"><g><path d="M 7.660156 4.324219 L 10.085938 4.324219 L 10.085938 -9.859375 L 7.660156 -9.859375 L 7.660156 -8.871094 C 6.976562 -9.722656 5.882812 -10.066406 4.855469 -10.066406 C 2.121094 -10.066406 0.621094 -7.660156 0.621094 -4.933594 C 0.621094 -2.179688 2.121094 0.199219 4.894531 0.199219 C 5.941406 0.199219 6.976562 -0.136719 7.660156 -0.988281 Z M 5.476562 -2.023438 C 3.820312 -2.023438 3.070312 -3.277344 3.070312 -4.933594 C 3.070312 -6.574219 3.820312 -7.886719 5.476562 -7.886719 C 7.136719 -7.886719 7.867188 -6.59375 7.867188 -4.933594 C 7.867188 -3.257812 7.136719 -2.023438 5.476562 -2.023438 Z M 5.476562 -2.023438 "/></g></g></g><g fill="#4c7031" fill-opacity="1"><g transform="translate(251.065919, 268.631555)"><g><path d="M 4.726562 0.199219 C 5.902344 0.199219 6.929688 -0.226562 7.640625 -1.15625 L 7.640625 0 L 10.085938 0 L 10.085938 -9.859375 L 7.640625 -9.859375 L 7.640625 -5.417969 C 7.640625 -2.566406 6.484375 -1.984375 5.359375 -1.984375 C 3.898438 -1.984375 3.574219 -2.96875 3.574219 -4.589844 L 3.574219 -9.859375 L 1.136719 -9.859375 L 1.136719 -4.667969 C 1.136719 -1.699219 2.242188 0.199219 4.726562 0.199219 Z M 4.726562 0.199219 "/></g></g></g><g fill="#4c7031" fill-opacity="1"><g transform="translate(262.578148, 268.631555)"><g><path d="M 5.535156 0.199219 C 7.195312 0.199219 8.507812 -0.386719 9.582031 -1.578125 L 7.925781 -3.03125 C 7.234375 -2.261719 6.445312 -1.984375 5.554688 -1.984375 C 4.007812 -1.984375 3.296875 -2.851562 3.089844 -4.144531 L 9.859375 -4.144531 C 9.910156 -4.285156 9.949219 -4.6875 9.949219 -5.09375 C 9.949219 -7.292969 8.832031 -10.066406 5.378906 -10.066406 C 2.042969 -10.066406 0.542969 -7.460938 0.542969 -4.894531 C 0.542969 -2.242188 2.140625 0.199219 5.535156 0.199219 Z M 3.089844 -5.882812 C 3.316406 -7.117188 3.9375 -8.042969 5.359375 -8.042969 C 6.613281 -8.042969 7.421875 -7.292969 7.578125 -5.882812 Z M 3.089844 -5.882812 "/></g></g></g><g fill="#4c7031" fill-opacity="1"><g transform="translate(273.103896, 268.631555)"><g><path d="M 1.175781 2.992188 L 2.773438 2.992188 L 5.28125 -2.605469 L 2.507812 -2.605469 Z M 1.175781 2.992188 "/></g></g></g><g fill="#4c7031" fill-opacity="1"><g transform="translate(115.886026, 296.381553)"><g><path d="M 3.128906 0.0390625 L 5.300781 0.0390625 L 7.234375 -6.464844 L 9.179688 0 L 11.339844 0 L 14.390625 -9.859375 L 11.824219 -9.859375 L 10.125 -3.699219 L 8.269531 -9.859375 L 6.207031 -9.859375 L 4.34375 -3.679688 L 2.664062 -9.859375 L 0.0976562 -9.859375 Z M 3.128906 0.0390625 "/></g></g></g><g fill="#4c7031" fill-opacity="1"><g transform="translate(130.347833, 296.381553)"><g><path d="M 1.371094 -11.726562 L 3.878906 -11.726562 L 3.878906 -13.945312 L 1.371094 -13.945312 Z M 1.429688 0 L 3.820312 0 L 3.820312 -9.859375 L 1.429688 -9.859375 Z M 1.429688 0 "/></g></g></g><g fill="#4c7031" fill-opacity="1"><g transform="translate(135.59591, 296.381553)"><g><path d="M 4.933594 0.199219 C 5.617188 0.199219 6.347656 0.0390625 6.710938 -0.0976562 L 6.710938 -2.28125 C 6.386719 -2.121094 5.84375 -1.925781 5.339844 -1.925781 C 4.707031 -1.925781 4.222656 -2.199219 4.222656 -3.148438 L 4.222656 -7.847656 L 6.710938 -7.847656 L 6.710938 -9.859375 L 4.222656 -9.859375 L 4.222656 -14.023438 L 1.875 -12.308594 L 1.875 -9.859375 L 0.246094 -9.859375 L 0.246094 -7.847656 L 1.835938 -7.847656 L 1.835938 -2.722656 C 1.835938 -0.925781 2.992188 0.199219 4.933594 0.199219 Z M 4.933594 0.199219 "/></g></g></g><g fill="#4c7031" fill-opacity="1"><g transform="translate(143.033974, 296.381553)"><g><path d="M 1.449219 0 L 3.898438 0 L 3.898438 -4.992188 C 3.898438 -6.632812 4.628906 -7.886719 6.167969 -7.886719 C 7.621094 -7.886719 7.945312 -6.828125 7.945312 -5.617188 L 7.945312 0 L 10.390625 0 L 10.390625 -5.921875 C 10.390625 -7.984375 9.335938 -10.066406 6.75 -10.066406 C 5.785156 -10.066406 4.6875 -9.683594 3.898438 -8.714844 L 3.898438 -13.945312 L 1.449219 -13.945312 Z M 1.449219 0 "/></g></g></g><g fill="#4c7031" fill-opacity="1"><g transform="translate(154.565933, 296.381553)"><g><path d="M 1.371094 -11.726562 L 3.878906 -11.726562 L 3.878906 -13.945312 L 1.371094 -13.945312 Z M 1.429688 0 L 3.820312 0 L 3.820312 -9.859375 L 1.429688 -9.859375 Z M 1.429688 0 "/></g></g></g><g fill="#4c7031" fill-opacity="1"><g transform="translate(159.81401, 296.381553)"><g><path d="M 1.429688 0 L 3.820312 0 L 3.820312 -5.398438 C 3.820312 -7.117188 4.6875 -7.847656 6.039062 -7.847656 C 7.273438 -7.847656 7.925781 -6.910156 7.925781 -5.617188 L 7.925781 0 L 10.304688 0 L 10.304688 -5.921875 C 10.304688 -7.984375 9.316406 -10.066406 6.730469 -10.066406 C 5.765625 -10.066406 4.609375 -9.683594 3.820312 -8.714844 L 3.820312 -9.859375 L 1.429688 -9.859375 Z M 1.429688 0 "/></g></g></g><g fill="#4c7031" fill-opacity="1"><g transform="translate(171.26705, 296.381553)"><g/></g></g><g fill="#4c7031" fill-opacity="1"><g transform="translate(176.120535, 296.381553)"><g><path d="M 1.984375 4.242188 L 4.609375 4.242188 L 10.246094 -9.859375 L 7.597656 -9.859375 L 5.074219 -3.011719 L 2.585938 -9.859375 L -0.0585938 -9.859375 L 3.800781 -0.265625 Z M 1.984375 4.242188 "/></g></g></g><g fill="#4c7031" fill-opacity="1"><g transform="translate(186.301015, 296.381553)"><g><path d="M 5.554688 0.199219 C 8.605469 0.199219 10.609375 -2.160156 10.609375 -4.953125 C 10.609375 -7.738281 8.605469 -10.066406 5.554688 -10.066406 C 2.507812 -10.066406 0.503906 -7.738281 0.503906 -4.953125 C 0.503906 -2.160156 2.507812 0.199219 5.554688 0.199219 Z M 5.554688 -1.875 C 3.742188 -1.875 3.011719 -3.335938 3.011719 -4.953125 C 3.011719 -6.574219 3.742188 -7.984375 5.554688 -7.984375 C 7.382812 -7.984375 8.101562 -6.574219 8.101562 -4.953125 C 8.101562 -3.335938 7.382812 -1.875 5.554688 -1.875 Z M 5.554688 -1.875 "/></g></g></g><g fill="#4c7031" fill-opacity="1"><g transform="translate(197.428517, 296.381553)"><g><path d="M 4.726562 0.199219 C 5.902344 0.199219 6.929688 -0.226562 7.640625 -1.15625 L 7.640625 0 L 10.085938 0 L 10.085938 -9.859375 L 7.640625 -9.859375 L 7.640625 -5.417969 C 7.640625 -2.566406 6.484375 -1.984375 5.359375 -1.984375 C 3.898438 -1.984375 3.574219 -2.96875 3.574219 -4.589844 L 3.574219 -9.859375 L 1.136719 -9.859375 L 1.136719 -4.667969 C 1.136719 -1.699219 2.242188 0.199219 4.726562 0.199219 Z M 4.726562 0.199219 "/></g></g></g><g fill="#4c7031" fill-opacity="1"><g transform="translate(208.940746, 296.381553)"><g><path d="M 1.429688 0 L 3.761719 0 L 3.761719 -4.164062 C 3.761719 -6.671875 4.933594 -7.71875 6.058594 -7.71875 C 6.445312 -7.71875 6.808594 -7.597656 7.136719 -7.382812 L 8.230469 -9.355469 C 7.757812 -9.839844 7.078125 -10.066406 6.425781 -10.066406 C 5.320312 -10.066406 4.203125 -9.394531 3.78125 -8.203125 L 3.78125 -9.859375 L 1.429688 -9.859375 Z M 1.429688 0 "/></g></g></g><g fill="#4c7031" fill-opacity="1"><g transform="translate(216.980563, 296.381553)"><g/></g></g><g fill="#4c7031" fill-opacity="1"><g transform="translate(221.834048, 296.381553)"><g><path d="M 4.402344 0.199219 C 6.265625 0.199219 8.25 -0.808594 8.25 -3.089844 C 8.25 -6.710938 3.238281 -5.824219 3.238281 -7.3125 C 3.238281 -7.777344 3.722656 -8.160156 4.511719 -8.160156 C 5.578125 -8.160156 6.128906 -7.519531 6.464844 -6.910156 L 8.328125 -7.925781 C 7.578125 -9.257812 6.285156 -10.066406 4.589844 -10.066406 C 2.683594 -10.066406 0.925781 -9.078125 0.925781 -6.996094 C 0.925781 -3.511719 5.882812 -4.628906 5.882812 -2.96875 C 5.882812 -2.449219 5.398438 -1.796875 4.285156 -1.796875 C 2.96875 -1.796875 2.449219 -2.703125 2.179688 -3.414062 L 0.265625 -2.566406 C 0.75 -1.046875 2.328125 0.199219 4.402344 0.199219 Z M 4.402344 0.199219 "/></g></g></g><g fill="#4c7031" fill-opacity="1"><g transform="translate(230.801157, 296.381553)"><g><path d="M 5.554688 0.199219 C 8.605469 0.199219 10.609375 -2.160156 10.609375 -4.953125 C 10.609375 -7.738281 8.605469 -10.066406 5.554688 -10.066406 C 2.507812 -10.066406 0.503906 -7.738281 0.503906 -4.953125 C 0.503906 -2.160156 2.507812 0.199219 5.554688 0.199219 Z M 5.554688 -1.875 C 3.742188 -1.875 3.011719 -3.335938 3.011719 -4.953125 C 3.011719 -6.574219 3.742188 -7.984375 5.554688 -7.984375 C 7.382812 -7.984375 8.101562 -6.574219 8.101562 -4.953125 C 8.101562 -3.335938 7.382812 -1.875 5.554688 -1.875 Z M 5.554688 -1.875 "/></g></g></g><g fill="#4c7031" fill-opacity="1"><g transform="translate(241.928659, 296.381553)"><g><path d="M 4.726562 0.199219 C 5.902344 0.199219 6.929688 -0.226562 7.640625 -1.15625 L 7.640625 0 L 10.085938 0 L 10.085938 -9.859375 L 7.640625 -9.859375 L 7.640625 -5.417969 C 7.640625 -2.566406 6.484375 -1.984375 5.359375 -1.984375 C 3.898438 -1.984375 3.574219 -2.96875 3.574219 -4.589844 L 3.574219 -9.859375 L 1.136719 -9.859375 L 1.136719 -4.667969 C 1.136719 -1.699219 2.242188 0.199219 4.726562 0.199219 Z M 4.726562 0.199219 "/></g></g></g><g fill="#4c7031" fill-opacity="1"><g transform="translate(253.440888, 296.381553)"><g><path d="M 3.433594 0.199219 C 4.007812 0.199219 4.726562 0.0976562 5.230469 0 L 5.230469 -2.023438 C 4.972656 -1.984375 4.707031 -1.964844 4.570312 -1.964844 C 4.085938 -1.964844 3.78125 -2.160156 3.78125 -2.625 L 3.78125 -13.945312 L 1.371094 -13.945312 L 1.371094 -1.964844 C 1.371094 -0.226562 2.300781 0.199219 3.433594 0.199219 Z M 3.433594 0.199219 "/></g></g></g></svg>